<?xml version="1.0" encoding="utf-8"?>
<!-- Generator: Adobe Illustrator 24.0.2, SVG Export Plug-In . SVG Version: 6.00 Build 0)  -->
<svg version="1.1" id="Layer_1" xmlns="http://www.w3.org/2000/svg" xmlns:xlink="http://www.w3.org/1999/xlink" x="0px" y="0px"
	 viewBox="0 0 100 100" style="enable-background:new 0 0 100 100;" xml:space="preserve">
<style type="text/css">
	.st0{fill:#006E90;}
	.st1{fill:#FFFFFF;}
</style>
<g>
	<path class="st0" d="M100,3.2c-4.5,2.1-6.3,6.5-13.4,6.5c-9.4,0-9.4-7.6-18.8-7.6s-9.4,7.6-18.8,7.6s-9.4-7.6-18.8-7.6
		s-9.4,7.6-18.8,7.6C5.3,9.7,3.1,6.7,0,4.5V100h100V3.2z"/>
	<path class="st1" d="M92.3,87.9c-4.1-0.3-7.3-2.2-9.4-3.9c-1.3-3.2-6.5-9.1-10.1-13.4c-3.5-4.2-7.8-6.1-10.8-5.8
		c-1.3-1-1-1.7-0.9-2.5c0-0.9,10.6-6.6,12-7.3c1.4-0.7,5.8-4,5.8-4s-18.2,10-18.6,10.6c-0.4,0.6-0.3,3.3-0.2,3.8
		c-0.3,0.2-0.5,0.3-0.7,0.6c-0.2,0.3-0.4,0.5-0.5,0.8c-0.4,0.1-3.2,0.4-3.7,0.9c-0.6,0.5-7.1,20.2-7.1,20.2s2.5-4.9,2.9-6.4
		c0.4-1.5,4.1-12.9,5-13.1c0.8-0.2,1.5-0.6,2.7,0.6c0.4,2.8,3.2,6.3,7.6,9.2c4.5,2.9,11.9,7.3,15.2,7.9c1.9,1.6,4.3,4.3,5.3,8.4
		c0,0,0.7-3.3-4.1-8.5c0.1,0,0.2-0.1,0.2-0.2c0.1-0.1,0.2-0.3,0.2-0.4C89.2,89.1,92.3,87.9,92.3,87.9z"/>
	<path class="st1" d="M64.1,26c-1.3-0.5-2-0.5-2.3-0.5c0.6-0.8,1-1.4,1-1.6c0-0.5-3,2-4.3,2.5c-1.3,0.5-3.9,0.1-4.8,0.8
		c-0.9,0.7-0.4,0.7-1.7,0.9s-10,4.4-12.3,5.9c-2.3,1.5-11.1,2.3-18.6,7.4S7,54.2,7,54.2s3.5-1.8,4.6-2.8c1.1-0.9,6.8-3.7,8.2-4.4
		c-0.5,0.8-1.2,1.7-2.3,3.1c-1.6,2-0.7,1.1,1.1-0.3s0.6-0.4,0.2,0.4s-1.8,2.6,0.3,0.3c2.1-2.3,3.3-5.3,3.3-5.8
		c0.2,0,0.4-0.1,0.6-0.1c0.9,0,1.2,0.1,1.5,0.2c0.2,0.3,0.5,0.6,0.7,1c1.1,1.5,1,1.3,2.2,3.3s3.2,2.6,3.2,2.6s0.2-0.4-0.5-1.1
		c-0.6-0.6-1.3-1.6-2.6-3.4c-1.4-1.9,0.2-0.4,1.3,0.2c1.1,0.6,1.5,0.8,3.3,1.7c1.8,0.9,1.2,0.5,0.5,0s-2.3-1.5-4.6-2.8
		c-1.8-1-1.9-1.7-2.1-2.1c0,0,0,0,0.1,0c1.2-0.7,1.7-1,2.2-1c0,0.3,0.1,0.7,0.4,1.1c0.9,1.3,1.8,1.7,4.4,3.9
		c2.6,2.1,2.1,1.3-0.9-1.7s-0.6-0.7,3.1,2c3.7,2.7,1.4,0.3,0.4-0.7c-1-1-4.3-4-4.3-4L30.6,43c0.6-0.3,1.1-0.8,1.8-1.1
		c0.1,0-1.1,0.8,0.7,1.5c1.8,0.7,5.4,2.4,6.1,4.3s1.8,1.4,0.8,0c-1-1.4-2.4-3.1-2.4-3.1s3,2.5,3.4,3c0.5,0.4,0.9,0.3-0.4-0.8
		c-1.3-1.1-1.6-1.8-2.7-2.4c-1-0.6-1.6-0.9-2.2-1.4s-0.4-0.3,0-1.6c1.2,0.2,3.2,1.7,7.8-0.8c0.7,0.5,1.8,1.2,2.3,1.5
		c0.8,0.5,0.5,0.3,2.8,1.5c2.2,1.1,4.1,1.7,4.1,1.7s0.7,2.3,0.6,3.2S52,50.4,52,50.4l1.7-1.1c0,0,0.6-1.9,0.7-2.4
		c0.1-0.5-0.1-1.7-0.6-2.5c-0.5-0.7-3-1.7-3-1.7l-5-2.9c0,0,1.5,0.7,2.5,0.9c1,0.2,1.2,0.2,2.7,0.4c1.5,0.2,1.8,0.2,3.1,0.7
		c1.3,0.4,1.2,1.6,1.9,3.1c0.8,1.5,0.1,0.7,0.4,2.2s-0.7,1.7-1.2,2.5c-0.5,0.8,1-0.7,1.7-1.1s0.1-1.7-0.1-2.1s-0.1-1.7-0.4-2.5
		c-0.2-0.8-2.4-3.3-2.4-3.3l-5.1-0.6l-1.5-0.9c0,0,3.5-0.2,4.2-0.2s0.6,0,2.8-0.3c2.2-0.3,0.8-0.1,1.3,0.2s1.4,1.4,1.7,1.9
		c0.3,0.5,0.7,2.3,1.1,3.7c0.4,1.4,0.3,2.8,0.3,2.8s0.3-1,0.6-2s-0.4-2.9-0.7-3.8c-0.3-0.9-1.2-2.6-1.7-3.3c-0.5-0.7-4-0.4-4.4-0.4
		c-0.3,0-3,0.4-3,0.4s1.9-0.9,3.4-1.7c1.5-0.7,3.5-0.8,3.8-0.8c0.3,0,2.5,1.9,3.4,3s0.3,0.8,0.8,2.2c0.5,1.4,0.5,1.1,0.5,1.1
		s0.3-1.4-0.2-2.9c-0.5-1.5-2.8-3.5-3.8-4c-1-0.5-3.7,0.3-5.2,0.9c-1.5,0.5-2.2,0.3-2.2,0.3s2.6-1.3,3.1-1.6s2-0.7,3.9-1.4
		s1.1,0.3,2.4,1.1c1.3,0.8,2.1,2.6,3,5c0.9,2.4,0.6,1.5,0.7,0.7s-1.7-4.8-3.6-6.4c-1.9-1.6-1.2-0.9-3.2-0.8c-0.8,0-1.8,0.4-2.7,0.8
		c1.2-0.6,2.6-1.3,4-2c2.5-1.2,7.7,4.6,7.7,4.6s-0.1-0.4-1.2-1.5c-0.8-0.8-2.2-2-3.3-3c-2.6-2.4-6.8,0.7-7.3,1
		c0.1-0.1,0.2-0.2,0.3-0.3c2.3-1.9,3.2-2.2,4.8-3.8c0.7-0.7,1.5-1.6,2.2-2.5c0.6,0.2,2,0.6,3.1,1.5c1.4,1,1.3-0.1,0.3-0.3
		c-0.6-0.1-1.5-0.7-2.3-1.2c1,0.3,2.6,0.7,3.7,0.9C67.6,27.4,67.3,27.1,64.1,26z"/>
</g>
</svg>
