<?xml version="1.0" encoding="utf-8"?>
<!-- Generator: Adobe Illustrator 24.0.2, SVG Export Plug-In . SVG Version: 6.00 Build 0)  -->
<svg version="1.1" id="Layer_1" xmlns="http://www.w3.org/2000/svg" xmlns:xlink="http://www.w3.org/1999/xlink" x="0px" y="0px"
	 viewBox="0 0 100 100" style="enable-background:new 0 0 100 100;" xml:space="preserve">
<style type="text/css">
	.st0{fill:#006E90;}
	.st1{fill:#FFFFFF;}
</style>
<g>
	<path class="st0" d="M100,3.2c-4.5,2.1-6.3,6.5-13.4,6.5c-9.4,0-9.4-7.6-18.8-7.6s-9.4,7.6-18.8,7.6s-9.4-7.6-18.8-7.6
		s-9.4,7.6-18.8,7.6C5.3,9.7,3.1,6.7,0,4.5V100h100V3.2z"/>
	<g>
		<path class="st1" d="M43.2,64.3h-5.2L24.8,43.2v21.1h-5.2V34.5h5.2l13.3,21.2V34.5h5.1C43.2,34.5,43.2,64.3,43.2,64.3z"/>
		<path class="st1" d="M56.5,72.4h-9v-1.8l4.2-3.8c1.1-1,1.7-1.8,1.7-2.5c0-0.4-0.1-0.8-0.4-1s-0.7-0.4-1.2-0.4
			c-0.6,0-1,0.2-1.3,0.5s-0.5,0.8-0.5,1.3h-2.7c0-1.1,0.4-2.1,1.3-2.8s1.9-1.1,3.2-1.1c1.4,0,2.5,0.3,3.3,1c0.8,0.6,1.2,1.5,1.2,2.6
			c0,1.1-0.5,2.1-1.6,3.1l-1.5,1.3L51,70.2h5.5V72.4z"/>
		<path class="st1" d="M84.3,50.2c0,2.9-0.5,5.5-1.5,7.7s-2.4,3.9-4.3,5.1c-1.9,1.2-4,1.8-6.5,1.8c-2.4,0-4.6-0.6-6.4-1.8
			c-1.9-1.2-3.3-2.9-4.4-5c-1-2.2-1.5-4.7-1.6-7.5v-1.7c0-2.9,0.5-5.5,1.5-7.7c1-2.2,2.5-3.9,4.4-5.1c1.9-1.2,4-1.8,6.4-1.8
			c2.4,0,4.6,0.6,6.4,1.8c1.9,1.2,3.3,2.8,4.3,5s1.5,4.7,1.6,7.6C84.3,48.5,84.3,50.2,84.3,50.2z M79.1,48.6c0-3.3-0.6-5.8-1.9-7.6
			s-3-2.6-5.3-2.6c-2.2,0-4,0.9-5.3,2.6c-1.3,1.8-1.9,4.2-1.9,7.4v1.7c0,3.3,0.6,5.8,1.9,7.6c1.3,1.8,3,2.7,5.3,2.7
			c2.3,0,4.1-0.9,5.3-2.6c1.2-1.7,1.8-4.3,1.8-7.7V48.6z"/>
	</g>
	<circle class="st1" cx="29.1" cy="21.3" r="3.7"/>
	<circle class="st1" cx="14.8" cy="85.6" r="3.7"/>
	<circle class="st1" cx="79.6" cy="91.4" r="3.7"/>
</g>
</svg>
