<?xml version="1.0" encoding="utf-8"?>
<!-- Generator: Adobe Illustrator 25.2.3, SVG Export Plug-In . SVG Version: 6.00 Build 0)  -->
<svg version="1.1" id="Layer_1" xmlns="http://www.w3.org/2000/svg" xmlns:xlink="http://www.w3.org/1999/xlink" x="0px" y="0px"
	 viewBox="0 0 100 100" style="enable-background:new 0 0 100 100;" xml:space="preserve">
<style type="text/css">
	.st0{fill:#006E90;}
	.st1{fill:none;stroke:#006E90;stroke-width:2;stroke-miterlimit:10;}
</style>
<path class="st0" d="M413.6,227c-3,1.4-4.1,4.2-8.8,4.2c-6.2,0-6.2-5-12.4-5c-6.2,0-6.2,5-12.4,5s-6.2-5-12.4-5c-6.2,0-6.2,5-12.4,5
	c-3.9,0-5.3-1.9-7.3-3.4V248h65.6V227z"/>
<path class="st1" d="M348,216.6c0,0,46.6,0,54.2,0c9.2,0,8.3-11.1,1.1-11.1c-5.1,0-4.9,6.1-1.9,6.1"/>
<path class="st1" d="M348,209.7c0,0,32.8,0,40.4,0c9.2,0,8.3-11.1,1.1-11.1c-5.1,0-4.9,6.1-1.9,6.1"/>
<path class="st1" d="M348,202.7c0,0,17.9,0,25.5,0c9.2,0,8.3-11.1,1.1-11.1c-5.1,0-4.9,6.1-1.9,6.1"/>
<path class="st0" d="M100,83.2c-4.5,2.1-6.3,6.5-13.4,6.5c-9.4,0-9.4-7.6-18.8-7.6c-9.4,0-9.4,7.6-18.8,7.6s-9.4-7.6-18.8-7.6
	c-9.4,0-9.4,7.6-18.8,7.6c-5.9,0-8.1-2.9-11.2-5.2V100h100V83.2z"/>
<g>
	<path class="st0" d="M25.1,15.6c0.6,1.4,1.1,2.7,1.5,4.1c0.4,1.4,0.8,2.7,1.2,4.1c0.7,2.8,1.1,5.6,1.2,8.5c0.1,1.5,0,2.9-0.1,4.4
		c-0.2,1.5-0.4,2.9-0.8,4.3c-0.7,2.8-1.7,5.3-2.5,7.9c-0.8,2.5-1.4,5.1-1.8,7.7c-0.4,2.6-0.6,5.3-0.6,8c0,2.7,0.2,5.4,0.7,8
		c0.2,1.3,0.6,2.6,1.1,3.9c0.5,1.3,1,2.5,1.9,3.6c-0.9-1-1.6-2.2-2.2-3.4c-0.6-1.2-1.1-2.5-1.5-3.8c-0.8-2.6-1.3-5.4-1.5-8.1
		c-0.2-2.7-0.3-5.5-0.2-8.3c0.2-2.8,0.6-5.6,1.2-8.3c0.6-2.7,1.3-5.3,1.7-7.9c0.2-1.3,0.3-2.5,0.3-3.8c0-1.3-0.1-2.5-0.3-3.8
		c-0.3-2.5-1-5-1.8-7.4c-0.4-1.2-0.9-2.4-1.4-3.6c-0.5-1.2-1.1-2.4-1.6-3.4L25.1,15.6z"/>
	<polygon class="st0" points="15.1,20.2 18.9,7 29.7,15.4 	"/>
</g>
<g>
	<path class="st0" d="M49.8,9.9c0.6,1.4,1.1,2.7,1.5,4.1c0.4,1.4,0.8,2.7,1.2,4.1c0.7,2.8,1.1,5.6,1.2,8.5c0.1,1.5,0,2.9-0.1,4.4
		c-0.2,1.5-0.4,2.9-0.8,4.3c-0.7,2.8-1.7,5.3-2.5,7.9c-0.8,2.5-1.4,5.1-1.8,7.7c-0.4,2.6-0.6,5.3-0.6,8c0,2.7,0.2,5.4,0.7,8
		c0.2,1.3,0.6,2.6,1.1,3.9c0.5,1.3,1,2.5,1.9,3.6c-0.9-1-1.6-2.2-2.2-3.4c-0.6-1.2-1.1-2.5-1.5-3.8c-0.8-2.6-1.3-5.4-1.5-8.1
		c-0.2-2.7-0.3-5.5-0.2-8.3c0.2-2.8,0.6-5.6,1.2-8.3c0.6-2.7,1.3-5.3,1.7-7.9c0.2-1.3,0.3-2.5,0.3-3.8c0-1.3-0.1-2.5-0.3-3.8
		c-0.3-2.5-1-5-1.8-7.4c-0.4-1.2-0.9-2.4-1.4-3.6c-0.5-1.2-1.1-2.4-1.6-3.4L49.8,9.9z"/>
	<polygon class="st0" points="41,16.6 44.8,3.5 55.6,11.9 	"/>
</g>
<g>
	<path class="st0" d="M74.4,15.6c0.6,1.4,1.1,2.7,1.5,4.1c0.4,1.4,0.8,2.7,1.2,4.1c0.7,2.8,1.1,5.6,1.2,8.5c0.1,1.5,0,2.9-0.1,4.4
		c-0.2,1.5-0.4,2.9-0.8,4.3c-0.7,2.8-1.7,5.3-2.5,7.9c-0.8,2.5-1.4,5.1-1.8,7.7c-0.4,2.6-0.6,5.3-0.6,8c0,2.7,0.2,5.4,0.7,8
		c0.2,1.3,0.6,2.6,1.1,3.9c0.5,1.3,1,2.5,1.9,3.6c-0.9-1-1.6-2.2-2.2-3.4c-0.6-1.2-1.1-2.5-1.5-3.8c-0.8-2.6-1.3-5.4-1.5-8.1
		c-0.2-2.7-0.3-5.5-0.2-8.3c0.2-2.8,0.6-5.6,1.2-8.3c0.6-2.7,1.3-5.3,1.7-7.9c0.2-1.3,0.3-2.5,0.3-3.8c0-1.3-0.1-2.5-0.3-3.8
		c-0.3-2.5-1-5-1.8-7.4c-0.4-1.2-0.9-2.4-1.4-3.6c-0.5-1.2-1.1-2.4-1.6-3.4L74.4,15.6z"/>
	<polygon class="st0" points="65,20.7 68.8,7.5 79.6,15.9 	"/>
</g>
</svg>
