<?xml version="1.0" encoding="utf-8"?>
<!-- Generator: Adobe Illustrator 24.0.2, SVG Export Plug-In . SVG Version: 6.00 Build 0)  -->
<svg version="1.1" id="Layer_1" xmlns="http://www.w3.org/2000/svg" xmlns:xlink="http://www.w3.org/1999/xlink" x="0px" y="0px"
	 viewBox="0 0 100 100" style="enable-background:new 0 0 100 100;" xml:space="preserve">
<style type="text/css">
	.st0{fill:#006E90;}
	.st1{fill:#FFFFFF;}
</style>
<g>
	<path class="st0" d="M100,3.2c-4.5,2.1-6.3,6.5-13.4,6.5c-9.4,0-9.4-7.6-18.8-7.6s-9.4,7.6-18.8,7.6s-9.4-7.6-18.8-7.6
		s-9.4,7.6-18.8,7.6C5.3,9.7,3.1,6.7,0,4.5V100h100V3.2z"/>
	<polygon class="st1" points="63.6,47.4 85.6,37.3 63.5,27.5 	"/>
	<g>
		<path class="st1" d="M64.6,39.7H53.9v-4.6h10.7L64.6,39.7L64.6,39.7z M47.8,39.7H37.1v-4.6h10.7V39.7z M31,39.7H20.3v-4.6H31V39.7
			z M14.2,39.7H3.6v-4.6h10.7L14.2,39.7L14.2,39.7z"/>
	</g>
	<polygon class="st1" points="36.7,69.2 14.7,79.3 36.9,89.1 	"/>
	<g>
		<path class="st1" d="M96.8,81.4H86.1v-4.6h10.7V81.4z M80,81.4H69.3v-4.6H80V81.4z M63.2,81.4H52.5v-4.6h10.7V81.4z M46.5,81.4
			H35.8v-4.6h10.7L46.5,81.4L46.5,81.4z"/>
	</g>
</g>
</svg>
