<?xml version="1.0" encoding="utf-8"?>
<!-- Generator: Adobe Illustrator 24.0.2, SVG Export Plug-In . SVG Version: 6.00 Build 0)  -->
<svg version="1.1" id="Layer_1" xmlns="http://www.w3.org/2000/svg" xmlns:xlink="http://www.w3.org/1999/xlink" x="0px" y="0px"
	 viewBox="0 0 100 100" style="enable-background:new 0 0 100 100;" xml:space="preserve">
<style type="text/css">
	.st0{fill:#006E90;}
	.st1{fill:#FFFFFF;}
</style>
<g>
	<path class="st0" d="M100,3.2c-4.5,2.1-6.3,6.5-13.4,6.5c-9.4,0-9.4-7.6-18.8-7.6s-9.4,7.6-18.8,7.6s-9.4-7.6-18.8-7.6
		s-9.4,7.6-18.8,7.6C5.3,9.7,3.1,6.7,0,4.5V100h100V3.2z"/>
	<g>
		<path class="st1" d="M12.6,39.9h-2v-9.6l-2.9,1v-1.7l4.7-1.7h0.3L12.6,39.9L12.6,39.9z"/>
		<path class="st1" d="M24.9,39.9h-8.1v-1.4l4-4.4c0.6-0.6,1-1.2,1.2-1.6s0.4-0.9,0.4-1.3c0-0.6-0.2-1-0.5-1.4
			c-0.3-0.4-0.8-0.5-1.3-0.5c-0.6,0-1.1,0.2-1.5,0.6c-0.4,0.4-0.5,0.9-0.5,1.6h-2c0-0.7,0.2-1.4,0.5-2c0.3-0.6,0.8-1,1.4-1.4
			s1.3-0.5,2.1-0.5c1.2,0,2.1,0.3,2.8,0.9c0.7,0.6,1,1.4,1,2.4c0,0.6-0.2,1.2-0.5,1.9c-0.3,0.7-0.9,1.4-1.7,2.2l-2.9,3.1h5.6
			L24.9,39.9L24.9,39.9z"/>
		<path class="st1" d="M45.9,45.5c-0.2,2.5-1.2,4.5-2.8,5.9s-3.8,2.1-6.5,2.1c-1.9,0-3.5-0.4-5-1.3s-2.5-2.2-3.3-3.8
			c-0.8-1.6-1.2-3.5-1.2-5.7v-2.2c0-2.2,0.4-4.2,1.2-5.9s1.9-3,3.4-3.9c1.5-0.9,3.2-1.4,5.1-1.4c2.6,0,4.7,0.7,6.3,2.1
			c1.6,1.4,2.5,3.4,2.8,6h-4.1c-0.2-1.7-0.7-2.9-1.5-3.7s-2-1.1-3.5-1.1c-1.8,0-3.1,0.7-4.1,2c-1,1.3-1.4,3.2-1.5,5.7v2.1
			c0,2.5,0.5,4.5,1.4,5.8c0.9,1.3,2.2,2,4,2c1.6,0,2.8-0.4,3.6-1.1c0.8-0.7,1.3-1.9,1.5-3.6L45.9,45.5L45.9,45.5z"/>
	</g>
	<g>
		<path class="st1" d="M58.5,74h-2v-9.6l-2.9,1v-1.7l4.7-1.7h0.3V74z"/>
		<path class="st1" d="M65,67.1h1.2c0.6,0,1.1-0.2,1.5-0.5c0.4-0.3,0.5-0.8,0.5-1.4c0-0.6-0.2-1-0.4-1.3c-0.3-0.3-0.8-0.5-1.4-0.5
			c-0.5,0-1,0.2-1.3,0.5s-0.5,0.7-0.5,1.2h-2c0-0.6,0.2-1.2,0.5-1.7s0.8-0.9,1.4-1.2c0.6-0.3,1.2-0.4,2-0.4c1.2,0,2.1,0.3,2.8,0.9
			s1,1.4,1,2.5c0,0.5-0.2,1.1-0.5,1.5c-0.3,0.5-0.8,0.8-1.3,1.1c0.7,0.2,1.2,0.6,1.5,1.1c0.3,0.5,0.5,1.1,0.5,1.7
			c0,1.1-0.4,1.9-1.1,2.6s-1.7,1-2.9,1c-1.2,0-2.1-0.3-2.8-0.9c-0.7-0.6-1.1-1.4-1.1-2.4h2c0,0.5,0.2,0.9,0.5,1.3
			c0.3,0.3,0.8,0.5,1.4,0.5c0.6,0,1.1-0.2,1.5-0.5c0.4-0.3,0.5-0.8,0.5-1.4c0-0.6-0.2-1.1-0.6-1.5s-0.9-0.5-1.7-0.5H65V67.1z"/>
		<path class="st1" d="M91.8,79.6c-0.2,2.5-1.2,4.5-2.8,5.9c-1.6,1.4-3.8,2.1-6.4,2.1c-1.9,0-3.5-0.4-5-1.3s-2.5-2.2-3.3-3.8
			s-1.2-3.5-1.2-5.7v-2.2c0-2.2,0.4-4.2,1.2-5.9s1.9-3,3.4-3.9c1.5-0.9,3.2-1.4,5.1-1.4c2.6,0,4.7,0.7,6.3,2.1
			c1.6,1.4,2.5,3.4,2.8,6h-4.1c-0.2-1.7-0.7-2.9-1.5-3.7s-1.9-1.1-3.5-1.1c-1.8,0-3.1,0.7-4.1,1.9c-0.9,1.3-1.4,3.2-1.5,5.7v2.1
			c0,2.6,0.5,4.5,1.4,5.8c0.9,1.3,2.2,2,4,2c1.6,0,2.8-0.4,3.6-1.1c0.8-0.7,1.3-1.9,1.5-3.6L91.8,79.6L91.8,79.6z"/>
	</g>
	<circle class="st1" cx="36.6" cy="16.1" r="3.7"/>
	<circle class="st1" cx="64" cy="34.1" r="3.7"/>
	<circle class="st1" cx="14.8" cy="85.6" r="3.7"/>
	<circle class="st1" cx="46.3" cy="80.7" r="3.7"/>
	<circle class="st1" cx="87" cy="49.5" r="3.7"/>
</g>
</svg>
