<?xml version="1.0" encoding="utf-8"?>
<!-- Generator: Adobe Illustrator 24.0.2, SVG Export Plug-In . SVG Version: 6.00 Build 0)  -->
<svg version="1.1" id="Layer_1" xmlns="http://www.w3.org/2000/svg" xmlns:xlink="http://www.w3.org/1999/xlink" x="0px" y="0px"
	 viewBox="0 0 100 100" style="enable-background:new 0 0 100 100;" xml:space="preserve">
<style type="text/css">
	.st0{fill:#006E90;}
	.st1{fill:#FFFFFF;}
</style>
<g>
	<path class="st0" d="M100,3.2c-4.5,2.1-6.3,6.5-13.4,6.5c-9.4,0-9.4-7.6-18.8-7.6s-9.4,7.6-18.8,7.6s-9.4-7.6-18.8-7.6
		s-9.4,7.6-18.8,7.6C5.3,9.7,3.1,6.7,0,4.5V100h100V3.2z"/>
	<path class="st1" d="M96,69.6c-0.3-0.1-1.1-0.3-1.3-0.6c-0.3-0.6,0.4-1.3,0.7-1.7c0.4-0.5,0.6-0.9,0.7-1.5c0.2-0.8,0.3-1.6,0.3-2.4
		c0-0.5,0.4-1.2-0.3-1.3c-0.3-0.1-0.5,0.1-0.7,0.3c-0.3,0.3-0.8,0.8-1,1.2c-0.2,0.4-0.5,1.2-0.5,1.6c0,0.6,0.1,1.3-0.4,1.8
		c-0.2,0.2-0.4,0.3-0.5,0.6c-0.2,0.3-0.2,0.7-0.3,1.1c-0.5,1.5-2,2.1-3,3.2c-0.1,0.1-0.4,0.6-0.7,0.5c-0.3-0.1-0.4-0.8-0.4-1.1
		c-0.1-0.8,0-1.7,0-2.5c0-0.5-0.1-1.1-0.2-1.6c-0.1-0.4-0.1-0.9-0.2-1.3c-0.1-0.5-0.7-1-1.1-0.4c-0.3,0.3-0.2,0.7-0.2,1.1
		c0,0.6,0,1.1,0.1,1.6c0.2,0.9-0.1,1.8,0.4,2.5c0.3,0.4,0.5,0.8,0.6,1.2c0,0.4-0.2,0.7-0.3,1.1c-0.1,0.3-0.2,0.7-0.4,1
		c-0.2,0.3-0.3,0.6-0.3,1c0,0.3,0,0.6,0,0.9c0,0.2,0,0.4,0,0.6c-0.1,0.4-0.4,0.8-0.6,1.3c-0.2,0.4-0.2,1.1-0.7,1.2
		c-0.2,0-0.6,0-0.8-0.1c-0.2-0.2-0.2-0.4-0.2-0.7c-0.1-0.4-0.1-0.7-0.2-1.1c-0.1-0.4-0.3-2.4-1.2-1.4c-0.4,0.5-0.3,1.2-0.2,1.7
		c0.1,0.4,0.2,0.7,0.3,1.1c0.1,0.2,0.2,0.4,0.1,0.7c-0.1,0.4-0.6,0.6-0.9,0.8c-0.3,0.3-0.6,0.6-0.9,0.9c-0.6,0.6-1.3,1.2-1.5,2.1
		c-0.1,0.5-0.1,1.2-0.7,1.4c-0.5,0.2-1.1,0.1-1.7,0.1c-0.4,0-0.9-0.1-1.3-0.2c-0.4-0.1-0.9-0.2-1.3-0.3c-0.3-0.1-0.6-0.2-0.8-0.3
		c-0.2-0.1-0.3-0.3-0.5-0.4c-0.1-0.1-0.4-0.1-0.5-0.2c0,0,0,0-0.1-0.1c-0.1-0.1-0.1-0.2-0.2-0.3c-0.2-0.3-0.3-0.7-0.3-1.1
		c-0.1-0.5,0.1-0.7,0.3-1.1c0.3-0.5,0.7-0.9,1.1-1.4c0.3-0.3,0.6-0.6,0.9-0.8c0.1-0.1,0.3-0.2,0.4-0.3c0.2-0.2,0.3-0.4,0.6-0.6
		c0.3-0.2,0.7-0.4,1.1-0.2c0.1,0.1,0.2,0.2,0.4,0.3c0.1,0,0.2,0,0.3,0c0.1,0,0.2,0.1,0.4,0.1c0.5,0,0.7-0.5,0.7-0.9
		c0-0.5-0.1-0.8-0.6-0.9c-0.6-0.1-1.3,0-1.9,0.1c-0.6,0.1-1.2,0.6-1.7,1c-0.2,0.2-0.9,0.6-1.2,0.4c-0.3-0.2-0.3-0.9-0.1-1.2
		C73.8,76,73.9,76,74,76c0.2-0.2,0.4-0.2,0.6-0.4c0.2-0.2,0.5-0.3,0.7-0.5c0.2-0.1,0.3-0.3,0.4-0.4c0.1-0.1,0.2-0.1,0.4-0.2
		c0.2-0.1,0.4-0.3,0.6-0.5c0.2-0.2,0.4-0.3,0.6-0.5c0.1-0.1,0.1-0.2,0.2-0.3c0.1-0.1,0.3-0.1,0.4-0.3c0.3-0.3,0.4-1,0.4-1.4
		c0-0.2,0-0.4,0-0.6c0.1-0.2,0.2-0.3,0.3-0.4c0.2-0.2,0.2-0.4,0.3-0.6c0.1-0.1,0.2-0.3,0.3-0.4c0.1-0.2,0.1-0.4,0.1-0.6
		c0.1-0.3,0.2-0.8-0.1-1.1c-0.3-0.3-0.9-0.4-1.3-0.2c-0.5,0.2-0.8,0.8-1.2,1.1c-0.2,0.1-0.2,0.2-0.3,0.4c-0.2,0.4-0.5,0.8-0.8,1.2
		c-0.3,0.5-0.7,0.9-1,1.3c-0.3,0.3-0.4,0.7-0.6,1.1c-0.1,0.2-0.2,0.4-0.4,0.4c-0.5-0.5-0.5-1.3-0.9-1.8c-0.1-0.2-0.2-0.4-0.3-0.6
		c-0.2-0.3-0.2-0.6-0.3-0.9c-0.1-0.4-0.3-1-0.7-1.1c-0.8-0.1-1.1,1.1-1.1,1.6c0,0.4,0,0.7,0.1,1.1s0.3,0.6,0.5,1
		c0.2,0.4,0.3,0.7,0.5,1.1c0.3,0.8,0.7,1.7,0.4,2.5c-0.1,0.3-0.3,0.4-0.3,0.7c0,0.2,0,0.4,0,0.6c0,0.6,0.2,1.1,0.1,1.7
		c0,0.4-0.1,1-0.3,1.4c0,0.2-0.1,0.4-0.3,0.5c-0.4,0.3-1.1-0.2-1.5-0.4c-0.6-0.4-1-1.2-1.5-1.8c-0.8-0.9-1.6-1.4-2.6-1.9
		c-1.3-0.7-1.9-1.8-2.6-3c-0.2-0.2-0.3-0.4-0.4-0.7c-0.3-0.6-0.6-1.3-0.8-2c0-0.1-0.1-0.3-0.1-0.4c0-0.2,0-0.5,0-0.7
		c0-0.3,0.1-0.6,0-0.9c-0.1-0.7,0-1.6,0.4-2.2c0.3-0.5,0.6-0.6,1.1-0.8c0.6-0.3,1.2-0.5,1.8-0.6c0.8-0.1,1.6-0.1,2.4-0.1
		c1.3,0,2.6-0.1,3.8,0.1c0.4,0.1,0.8,0.3,1.2,0.3c0.4,0.1,1,0.3,1.4-0.1c0.3-0.3,0.8-1.3,0.2-1.5c-0.4-0.2-0.9,0-1.2-0.2
		c-0.2-0.1-0.3-0.2-0.6-0.3c-0.2,0-0.4,0-0.6,0c-0.7,0-1.4,0.1-2.1-0.1c-0.2-0.1-0.3-0.2-0.5-0.2c-0.2,0-0.4,0-0.6-0.1
		c-0.3-0.2-0.1-0.4,0.1-0.5c0.3-0.1,0.7-0.3,1-0.3c0.3,0,0.6,0,0.9-0.1c0.4-0.2,0.9-0.2,1.3-0.4c0.8-0.5,2-0.9,1.7-2
		c-0.2,0-0.4,0-0.5,0c-0.3,0-0.6,0-0.9,0c-0.4,0-0.8,0.2-1.2,0.3c-0.4,0.1-0.7,0.5-1.1,0.7c-0.1,0.1-0.3,0.1-0.4,0.1
		c-0.2,0.1-0.3,0.3-0.4,0.4c-0.3,0.2-0.6,0.2-0.9,0.3c-0.4,0-0.7,0.2-1,0.4c-0.2,0.2-0.4,0.3-0.6,0.4c-0.2,0.2-0.3,0.4-0.5,0.6
		c-0.3,0.3-0.6,0.6-1,0.6c-0.2,0-0.8,0.1-1-0.1c-0.5-0.3,0.1-1,0.4-1.3c0.2-0.2,0.4-0.4,0.6-0.6c0.3-0.2,0.6-0.3,0.8-0.6
		c1.3-1,2.5-2.2,3.5-3.5c0.1-0.2,0.2-0.4,0.4-0.5c0.2-0.2,0.4-0.3,0.6-0.4c0.3-0.2,0.6-0.3,1-0.4c0.5-0.1,0.9-0.3,1.4-0.5
		c0.6-0.2,1.2-0.5,1.7-0.5c0.4,0,1-0.1,1.3,0.2c0.1,0.1,0.1,0.3,0.2,0.4c0.1,0.2,0.3,0.3,0.3,0.4c0.5,0.7,0.5,1.7,0.5,2.5
		c0,0.4-0.2,0.8-0.1,1.2c0.1,0.3,0.5,0.6,0.8,0.6c0.4,0,0.6,0.1,0.9-0.2c0.4-0.5,0.4-0.9,0.4-1.5c0-0.4,0-0.8-0.1-1.2
		c-0.1-0.4-0.3-0.6-0.5-1c-0.1-0.3-0.3-0.5-0.4-0.8c0,0-0.1-0.1-0.1-0.1c-0.1-0.1-0.1-0.2-0.1-0.3c-0.1-0.2-0.1-0.3-0.1-0.6
		c0-0.1,0-0.3,0-0.3c0.1-0.3,0-0.1,0.2-0.2c0.4-0.2,0.8,0,1.2-0.1c0.3-0.1,0.7-0.2,1.1-0.3c0.4-0.2,0.7-0.7,0.9-1
		c0.2-0.4,0.3-0.8,0.6-1.1c0.4-0.5,0.9-1,1.4-1.5c0.3-0.2,0.8-0.3,1,0.1c0.4,0.6,0,1.5-0.2,2.1c-0.3,0.8-0.6,1.7-0.8,2.6
		c-0.1,0.3-0.1,0.8,0.1,1.2c0,0.1,0.2,0.2,0.2,0.2c0,0.1,0,0.2,0,0.3c0,0.2,0.2,0.5,0.3,0.7c0.1,0.4,0.2,0.8,0.5,1.1
		c0.3,0.3,0.8,0.3,1.2,0.4c0.4,0.1,1.1,0.4,1.2,0.8c0-0.6-0.1-1.2-0.2-1.8c-0.1-0.6-0.6-1-1.1-1.3c-0.2-0.1-0.3-0.1-0.3-0.3
		c-0.1-0.3,0.2-0.5,0.4-0.7c0.2-0.2,0.5-0.2,0.7-0.4c0.1-0.2,0.2-0.4,0.2-0.6c0-0.4-0.4-0.9-0.7-1.1c-0.3-0.2-0.7-0.2-0.6-0.6
		c0.1-0.6,0.6-1,0.8-1.5c0-0.2,0.1-0.4,0.1-0.6c0-0.2-0.2-0.5-0.2-0.7c-0.2-0.7-0.6-1.4-0.2-2.1c0.3-0.5,0.8-1,1.2-1.5
		c0.4-0.5,0.8-0.9,1.3-1.3c0.4-0.3,0.8-0.4,1.3-0.3c0.3,0.1,0.5,0.2,0.8,0.2c0.5,0,0.9-0.3,1.4-0.5c0.4-0.2,0.8-0.3,1.1-0.6
		c0.3-0.2,0.6-0.4,0.9-0.7c0.2-0.2,0.3-0.4,0.4-0.5c-0.2-0.2-0.6-0.3-0.8-0.3c-0.5-0.1-1,0-1.5,0.2c-0.7,0.3-1.4,0.7-2.2,0.7
		c-0.5,0-0.9,0-1.4,0.2c-0.4,0.1-0.8,0.2-1.2,0.3c-0.3,0-0.4,0-0.6,0.2c-0.4,0.3-0.7,0.8-1,1.2c-0.3,0.3-0.6,0.6-0.8,0.1
		c-0.2-0.4-0.1-1.2,0.1-1.5c0.2-0.5,0.6-0.9,0.8-1.4c0.4-0.8,0.9-1.5,1.4-2.3c0.3-0.5,0.4-0.9,0.5-1.5c0.1-0.5,0.2-0.6,0.7-0.8
		c0.6-0.3,1.1-0.8,1.7-1.1c0.4-0.2,0.6-0.1,1,0c0.3,0.1,0.7,0.3,1.1,0.4c0.4,0.1,0.4,0,0.8,0.2c0.5,0.3,1,0.6,1.6,0.4
		c0.2,0,0.5-0.2,0.7-0.4c0.3-0.4-0.1-0.7-0.4-0.9c-0.8-0.6-1.6-0.8-2.5-1.1c-0.2,0-0.6-0.1-0.7-0.3c-0.1-0.2,0-0.6,0-0.8
		c0.1-0.7,0.1-1.3,0.1-2c0-1.2,0.2-2.4,0.1-3.5c-0.5-0.4-1.2,0.8-1.4,1.2c-0.4,0.8-0.4,1.6-0.6,2.4c-0.1,0.6-0.4,1.2-0.6,1.8
		c-0.2,0.5-0.5,0.7-0.9,1c-0.7,0.5-1.6,0.8-2,1.6c-0.2,0.4-0.3,1-0.4,1.4c-0.1,0.3-0.2,0.9-0.4,1c-0.5-0.3-0.8-1.2-1.1-1.7
		c-0.3-0.5-0.4-1-0.5-1.5c-0.1-0.6,0-1.2,0-1.8c0-0.3,0-0.5-0.2-0.7c-0.1-0.2-0.3-0.3-0.2-0.5c0.1-0.3,0.5-0.6,0.8-0.8
		c0.6-0.5,1-1.2,1.4-1.9c0.3-0.5,0.4-0.9,0.2-1.4c-0.2,0-0.4,0.1-0.5,0.3c-0.4,0.4-0.9,0.9-1.3,1.3c-0.3,0.3-0.8,1-1.2,1.1
		c-0.4,0-0.7-0.4-1-0.6c-0.5-0.6-1-1.1-1.7-1.5c-0.3-0.2-0.7-0.3-1,0.1c-0.5,0.5,0.2,1.4,0.6,1.8c0.6,0.5,1.4,0.7,1.8,1.3
		c0.3,0.5,0.4,1,0.3,1.5C81,34.9,81,35.2,81,35.5c0,0.3-0.1,0.5-0.1,0.8s-0.1,0.5-0.5,0.5c-0.2,0-0.2-0.1-0.3-0.2
		c-0.1-0.1-0.3-0.1-0.4-0.1c-0.1-0.1-0.2-0.2-0.4-0.2c-0.2-0.1-0.4-0.2-0.7-0.3c-0.2-0.1-0.4-0.3-0.6-0.4c-0.1-0.1-0.3-0.1-0.4-0.3
		c-0.2-0.3-0.2-0.9-0.3-1.2c-0.1-0.2-0.2-0.7-0.5-0.5c-0.1,0-0.2,0.2-0.2,0.3s-0.1,0-0.2,0.1c-0.1,0.1,0,0.4,0,0.5
		c0,0.3-0.1,0.5-0.4,0.4c-0.2,0-0.3-0.1-0.4-0.1c-0.1,0-0.3,0-0.4,0c-0.5,0-0.9,0.1-1.4,0.1c-0.4,0-0.8,0-0.9,0.5
		c-0.2,0.9,1.2,0.5,1.6,0.5c0.7,0,1.5,0,2.2,0.3c0.3,0.1,0.5,0.3,0.8,0.4c0.2,0.1,0.4,0.2,0.7,0.3c0.5,0.2,0.9,0.4,1.4,0.5
		c0.5,0.1,1.1,0.5,1.5,0.9c0.1,0.1,0.3,0.3,0.4,0.4c0.1,0,0.2,0,0.2,0c0.2,0.1,0.2,0.3,0.3,0.4c0.3,0.3,0.5,0.6,0.8,0.9
		c0.4,0.7,0,1.4-0.1,2.1c-0.2,1,0.1,2-0.2,3.1c-0.2,0.4-0.3,0.9-0.3,1.4c0,0.4,0.1,0.9,0.2,1.3c-0.1,0.4-0.4,0.6-0.8,0.5
		c-0.7-0.3-1.2-0.8-1.5-1.4c-0.3-0.6-0.6-1.3-0.8-1.9c-0.3-0.5-0.7-1-1.2-1.3c-0.6-0.4-1.2-0.6-1.9-0.7c-0.4-0.2-0.7-0.2-1,0.1
		c0.1,0.5,0.4,0.9,1,1c0.3,0.1,0.6,0.2,0.9,0.3c0.5,0.3,0.9,0.7,1.2,1.2c0.3,0.6,0.1,1.2,0.3,1.8c0.2,0.9,1,1.3,1.3,2
		c0.1,0.3,0.3,1,0.1,1.3c-0.2,0.3-1,0.4-1.3,0.5c-0.3,0.1-0.5,0-0.8,0.3c-0.3,0.3-0.3,0.5-0.4,0.8c-0.3,0.9-1.6,1.4-2.4,1.5
		c-1.2,0.3-2.6,0.2-3.7,0.9c-0.3,0.2-0.7,0.5-0.9,0.4c-0.5-0.2-0.4-1.4-0.5-1.8c-0.2-0.8-0.6-1.6-0.6-2.4c0-0.5,0-1.1,0-1.6
		c0-0.9,0.8-1.5,1.6-1.8c0.5-0.2,1-0.2,1.4,0.2c0.1,0.1,0.3,0.2,0.4,0.3c0.3,0.2,0.5,0.5,0.8,0.7c0.1,0,0.4,0.3,0.5,0.2
		c0.1-0.1,0-0.9,0-0.9c-0.1-0.2-0.1-0.2-0.2-0.3c-0.2-0.1-0.3-0.3-0.5-0.5c-0.3-0.2-0.7-0.3-1-0.4c-0.4-0.2-0.8-0.6-0.8-1.1
		c0-0.4,0.3-0.8,0.4-1.2c0.1-0.5,0.2-1,0.3-1.4c0.1-0.4,0.1-0.9,0.2-1.3c0-0.4-0.1-0.8,0.2-1c0.1-0.1,0.3-0.1,0.4-0.2
		c0.1-0.1,0.2-0.2,0.3-0.2c0.3-0.2,0.7,0,1-0.2c0.2-0.1,0.3-0.4,0.4-0.6c0.2-0.3,0.4-0.6,0.4-1c0-0.7-0.7-0.7-1.2-0.7
		c-0.5,0-1,0-1.3,0.5c-0.1,0.1-0.1,0.3-0.2,0.4c-0.1,0.1-0.2,0.1-0.2,0.2c-0.3,0.3-0.4,0.9-0.5,1.3c-0.1,0.2-0.1,0.4-0.2,0.7
		c-0.1,0.3,0,0.4,0.1,0.7c0.1,0.4-0.1,0.8-0.1,1.2c-0.1,0.5-0.1,0.9-0.4,1.3c-0.2,0.3-0.4,0.7-0.9,0.4c-0.6-0.4-0.3-1.3-0.7-1.8
		c-0.1-0.2-0.4-0.5-0.6-0.5c-0.4-0.2-0.5,0.2-0.5,0.5s0,0.7,0.1,1c0.1,0.5,0.3,1,0.5,1.5c0.2,0.4,0.7,0.5,0.6,1
		c-0.1,0.2-0.2,0.3-0.3,0.5c-0.3,0.3-0.3,0.7-0.3,1c-0.1,0.3-0.1,0.4-0.5,0.4c-0.5-0.1-0.7-0.8-0.8-1.2c-0.1-0.2-0.1-0.5-0.2-0.7
		c-0.1-0.3-0.3-0.6-0.5-0.9c-0.3-0.9-0.7-1.9-1.2-2.8c-0.1-0.2-0.3-0.4-0.3-0.7c-0.1-0.6,0.3-1.4,0.7-1.9c0.4-0.6,0.9-1.1,1.4-1.5
		c0.2-0.1,0.4-0.4,0.6-0.5c0.2-0.1,0.4-0.1,0.6-0.1s0.4,0,0.6,0.1c0.3,0.2,0.3,0.5,0.6,0.7c0.3,0.3,0.4,0.2,0.4-0.2
		c0.1-0.2,0.1-0.3,0.1-0.6c0-0.2,0.1-0.5,0-0.6c-0.1-0.3-0.6-0.3-0.9-0.3c-0.4,0-0.8,0.1-0.8-0.4c0-0.3,0.2-0.5,0.3-0.7
		c0.3-0.3,0.4-0.7,0.7-1c0.2-0.3,0.3-0.5,0.4-0.8c0.1-0.3,0.2-0.5,0.3-0.8c0.1-0.3,0.1-0.5,0.1-0.8c0-0.2,0.1-0.4,0.1-0.7
		c0-0.4,0.3-0.8-0.2-1c-0.2-0.1-0.5,0.2-0.6,0.3c-0.3,0.3-0.5,0.6-0.7,1c-0.2,0.3-0.3,0.6-0.3,0.9c-0.1,0.4,0.1,0.9-0.1,1.3
		c-0.1,0.2-0.1,0.3-0.3,0.2c-0.2-0.1-0.3-0.7-0.3-0.9c-0.1-0.5-0.1-1.2-0.7-1.3c-0.3,0-0.3,0-0.3,0.2c-0.1,0.3-0.2,0.7-0.1,1.1
		c0.1,0.4,0.4,0.7,0.4,1.1c0,0.2,0,0.3,0,0.5c0,0.2,0.1,0.4,0.1,0.6c0,0.2,0,0.5,0,0.7c0,0.3-0.2,0.3-0.4,0.5
		c-0.3,0.2-0.7,0.2-0.9,0.4c-0.3,0.2-0.3,0.5-0.5,0.8c-0.2,0.3-0.3,0.3-0.4,0c-0.2-0.5-0.1-1.1-0.2-1.6c-0.1-0.5-0.3-0.7-0.5-1.1
		c-0.3-0.7-0.6-1.4-1-2.1c-0.1-0.2-0.2-0.4-0.4-0.5c-0.2-0.2-0.4-0.2-0.4-0.5c0.1-0.6,0.7-1.1,0.9-1.8c0.1-0.3,0.1-1.1-0.3-1.3
		c-0.2-0.1-0.5,0-0.6,0.1c-0.2,0-0.3,0-0.5,0.1c-0.3,0.4-0.4,0.9-0.7,1.3c-0.7,0.7-1.8-0.4-2.1-0.9c-0.2-0.4-0.3-0.8-0.4-1.2
		c-0.1-0.4-0.3-0.9-0.5-1.3c-0.2-0.4-0.5-1.1-1-0.5c-0.3,0.5-0.3,1.4-0.3,2c-0.1,1,0.1,1.9,0.9,2.6c0.4,0.3,0.8,0.6,1.3,0.9
		c0.6,0.4,1.3,0.5,1.9,0.9c0.5,0.3,1,1,1.1,1.5c0.1,0.5,0,1,0.2,1.5c0.2,0.5,0.4,0.9,0.7,1.3c0.1,0.1,0.4,0.4,0.2,0.6
		c-0.2,0.2-0.7,0.2-0.9,0.1c-0.3,0-0.9,0-1.1-0.3c-0.2-0.2-0.3-0.6-0.3-0.9c-0.1-0.6,0.1-1.3-0.2-1.9c-0.2-0.4-0.3-0.8-0.8-0.8
		c-0.3,0-0.6,0-0.8,0.2c-0.1,0.2,0,0.4,0,0.6c0,0.2,0,0.4,0,0.6c0,0.3,0.4,0.8-0.1,0.9c-0.2,0.1-0.5-0.1-0.6-0.2
		c-0.4-0.3-0.9-0.7-1.2-1.1c-0.4-0.5-0.8-1.1-1.2-1.7c-0.3-0.4-0.7-1.2-1.3-1.1c-1.3,0.2,0,2.1,0.3,2.6c0.1,0.2,0.2,0.4,0.3,0.6
		c0.2,0.2,0.5,0.4,0.7,0.6c0.2,0.1,0.3,0.3,0.5,0.4c0.6,0.5,1.3,0.8,1.7,1.4c0.2,0.3,0.3,0.4,0.6,0.5c0.2,0.1,0.4,0.1,0.6,0.2
		c0.2,0.1,0.4,0.3,0.6,0.4s0.8,0.5,1.1,0.5c0.1,0,0.2,0,0.3-0.1c0.2-0.1,0.3-0.2,0.5-0.2c0.2,0,0.5,0,0.7,0c0.2,0,0.5,0,0.7,0
		c0.3,0.2,0.4,0.7,0.5,1c0.1,0.3,0.4,1,0.1,1.3c-0.1,0.1-0.4,0.3-0.5,0.3c-0.3,0.1-0.5,0-0.8-0.1c-0.3-0.1-0.7-0.1-1.1-0.2
		c-0.3-0.1-0.7-0.2-1.1-0.3c-0.4-0.1-0.6-0.5-1-0.6c-0.4-0.1-0.8-0.4-1.2-0.6c-0.2-0.1-0.8-0.2-1,0c-0.1,0.2,0,0.6,0.1,0.8
		c0.2,0.5,0.5,0.7,0.8,1.1c0.6,0.7,1.3,1.1,2.2,1.1c0.7,0,1.5,0,2.2,0c0.4,0,0.9,0.1,1.2,0.4c0.2,0.2,0.2,0.3,0.2,0.5
		c0,0.4,0.2,0.7,0.5,1c0.4,0.4,0.8,0.9,0.8,1.5c0,0.2,0,0.6-0.3,0.7c-0.2,0.1-0.7,0.1-0.9,0c-0.4-0.2-0.6-0.9-0.8-1.2
		c-0.2-0.4-0.5-0.7-0.8-1c-0.2-0.2-0.4-0.3-0.7-0.4c-0.2-0.1-0.6-0.2-0.8,0s0,0.8,0.1,1c0.2,0.4,0.5,0.8,0.8,1.2
		c0.3,0.4,0.6,0.8,1,1.2c0.5,0.5,1,0.9,1.8,1c0.5,0.1,1,0,1.6-0.1c0.2,0.3,0.2,0.8,0.4,1.1c0.2,0.2,0.3,0.5,0.5,0.7
		c0.3,0.3,0.7,0.6,0.8,1.1c0.1,0.3,0,0.6,0.1,0.8c0.1,0.4,0.3,0.7,0.4,1.1c0.1,0.2,0.2,0.5,0.2,0.8c-0.1,0.3-0.3,0.5-0.5,0.7
		c-0.2,0.1-0.3,0.3-0.4,0.5c-0.4,0.5-0.8,0.9-1.4,1.2c-0.3,0.2-0.9,0.6-1.3,0.2c-0.2-0.2-0.2-0.5-0.3-0.7c0-0.1-0.1-0.2-0.1-0.4
		c0-0.3,0.3-0.6,0.4-0.9c0.1-0.3,0.2-0.5,0.2-0.8c0-0.2-0.1-0.4-0.1-0.7c0-0.5,0.2-0.9,0.3-1.3c0.1-0.2,0.3-0.6,0.1-0.8
		c-0.1-0.1-0.4,0.2-0.5,0.2c-0.2,0.1-0.3,0.3-0.5,0.5c-0.1,0.1-0.4,0.5-0.4,0.6c0,0.3,0.3,0.5,0.3,0.8c0,0.3,0.1,1.6-0.5,1.3
		c-0.3-0.2-0.4-0.6-0.5-0.9c-0.1-0.3-0.4-0.5-0.5-0.8c-0.1-0.2-0.1-0.4-0.1-0.6c-0.1-0.3,0-0.7,0-1c0-0.3,0-0.6-0.1-0.9
		c0-0.3-0.1-1-0.6-1c-0.2,0-0.4,0.2-0.5,0.4c-0.2,0.3-0.1,0.8-0.1,1.2c0,0.5,0.1,1,0.2,1.5c0.1,0.5,0.3,0.9,0.5,1.4
		c0.1,0.2,0.2,0.4,0.3,0.7c0.1,0.2,0.2,0.5,0.3,0.7c0.2,0.4,0.4,0.7,0.4,1.1c0.1,0.4,0,0.9,0,1.3c0,0.2,0,0.4,0,0.6c0,0,0,0.1,0,0.2
		c0,0-0.1,0-0.1,0.1c-0.2,0.1-0.4,0.2-0.6,0.3c-0.2,0.1-0.4,0.2-0.6,0.3c-0.2,0.2-0.4,0.4-0.5,0.6c-0.3,0.3-0.6,0.7-0.9,1
		c-0.2,0.2-0.4,0.5-0.7,0.3c-0.5-0.2-0.1-1,0-1.3c0-0.3,0.1-0.5-0.1-0.8c-0.1-0.2-0.3-0.3-0.3-0.6s0.2-0.4,0.4-0.6
		c0.1-0.1,0.3-0.2,0.4-0.3c0.1-0.1,0.2-0.3,0.3-0.4c0.4-0.6,1.1-1.2,1-2c-0.5,0-1,0.5-1.3,0.8c-0.2,0.2-0.3,0.3-0.4,0.5
		c-0.1,0.1-0.2,0.3-0.4,0.2c0,0-0.1,0-0.1,0c0,0-0.1,0-0.1,0c-0.2-0.1-0.2-0.5-0.1-0.7c0.1-0.4,0.2-0.8,0.2-1.2c0-0.2,0-0.5,0.1-0.7
		c0.1-0.4,0.2-0.7,0.3-1.1c0.1-0.3,0.1-0.7,0.3-1c0.1-0.3,0.1-0.6,0.1-0.9c0-0.7-0.1-1.4,0.3-2c0.3-0.5,0.9-0.9,0.9-1.6
		c0-0.2-0.2-0.6-0.4-0.7c-0.2,0-0.4,0-0.5,0.1c-0.2,0.1-0.3,0.2-0.4,0.3c-0.2,0.2-0.3,0.4-0.5,0.5c-0.1,0.1-0.2,0.1-0.3,0.2
		c-0.1,0-0.2,0.1-0.3,0.1c0,0-0.1,0.1-0.1,0.1c0,0.1,0,0.1,0,0.1c0,0.1-0.1,0.2,0,0.3c0,0.2,0.1,0.3,0.1,0.5c0,0.1,0,0.3,0,0.4
		c0,0.2-0.1,0.6-0.3,0.6c-0.2,0-0.3-0.2-0.5-0.3c-0.3-0.3-0.5-0.6-0.7-0.9c-0.1-0.1-0.2-0.2-0.3-0.3c-0.1-0.1-0.1-0.2-0.2-0.2
		c-0.1-0.1-0.3-0.1-0.4,0c-0.2,0.2-0.1,0.5-0.1,0.8c0,0.3,0,0.6,0.2,0.8c0.2,0.4,0.6,0.8,1,0.9c0.2,0,0.4,0.1,0.5,0.2
		c0.1,0.1,0.2,0.2,0.3,0.3c0.2,0.2,0.2,0.3,0.2,0.6c0,0.1,0,0.3,0,0.4c0,0.2,0,0.5-0.1,0.8c0,0.1-0.1,0.1-0.1,0.2c0,0,0,0.1-0.1,0.2
		c-0.1,0.2-0.3,0.2-0.5,0.1c-0.1,0-0.2-0.1-0.3-0.2c-0.1,0-0.2,0-0.3,0c-0.2,0-0.3,0.1-0.5,0.1c-0.5,0-1.1-0.2-1.5-0.4
		c-0.3-0.1-0.4-0.4-0.4-0.7c0-0.2-0.1-0.4-0.2-0.7c0-0.1-0.1-0.5-0.2-0.5c-0.3-0.2-0.3,0.1-0.3,0.3c0,0.3,0,0.6,0.1,1
		c0.1,0.6,0.4,1.2,0.7,1.7c0.3,0.4,0.6,0.4,1,0.4c0.3,0,0.6,0,0.8,0.1c0.2,0.1,0.3,0.2,0.4,0.2c0.1,0.1,0.3,0.1,0.4,0.2
		c0.1,0.1,0.1,0.2,0.2,0.2c0.1,0,0.1,0.1,0.2,0.2c0.1,0.2,0.3,0.3,0.3,0.5c0,0.2,0,0.5,0,0.7c-0.1,0.2-0.2,0.5-0.2,0.7
		c0,0.1,0,0.3,0,0.4s0,0.3,0,0.4c0,0.2,0.1,0.4,0.2,0.6c0.1,0.2,0.1,0.5,0.1,0.7c0,0.3,0,0.8-0.3,1c-0.2,0.1-0.4,0-0.6,0
		c-0.1,0-0.2,0-0.2-0.1c-0.2-0.1-0.3-0.2-0.4-0.3c-0.3-0.2-0.4-0.6-0.8-0.8c-0.3-0.2-0.7-0.4-0.9-0.6c-0.2-0.3-0.5-0.6-0.7-0.9
		c-0.1-0.2-0.2-0.3-0.2-0.5c-0.1-0.2-0.1-0.5-0.2-0.7c-0.1-0.1-0.1-0.3-0.2-0.4c-0.1-0.2-0.1-0.3-0.2-0.5c-0.1-0.2-0.3-0.4-0.4-0.4
		c-0.1,0-0.3,0-0.3,0c-0.2,0.1-0.1,0.4-0.1,0.5c0,0.8,0.1,1.5,0.6,2.2c0.4,0.7,1,1.2,1.5,1.9c0.2,0.3,0.4,0.6,0.7,0.8
		c0.2,0.2,0.5,0.3,0.8,0.5c0.4,0.3,0.9,0.5,1.2,0.8c0.2,0.2,0.4,0.5,0.6,0.7c0.2,0.2,0.3,0.3,0.5,0.5c0.2,0.4,0.2,0.7,0.2,1.2
		c-0.1,0.4-0.3,0.8-0.3,1.3c0,0.5,0,1,0,1.5c0,0.5,0,1.2-0.5,1.6c-0.3,0.2-0.5,0.2-0.8,0.2c-0.1,0-0.2,0-0.4,0c-0.1,0-0.3,0-0.4-0.1
		c-0.2-0.1-0.5-0.2-0.7-0.3c-0.8-0.3-1.8-0.5-2.5-1.1c-0.9-0.8-1.4-1.5-2-2.5c-0.6-0.9-1.5-1.7-1.7-2.8c-0.2-0.9,0-1.7,0.2-2.5
		c0.1-0.5,0.2-0.9,0.5-1.3c0.2-0.5,0.5-0.7,0.4-1.3c-0.1-0.5-0.3-1-0.4-1.4c-0.1-0.4-0.4-0.6-0.4-1.1c0-0.3,0.1-0.4,0.2-0.7
		c0.2-0.5,0.2-1,0.2-1.6c0-1.2-0.6-2-1.5-2.8c-0.4-0.3-0.7-0.8-0.4-1.3c0.3-0.7,1.4-0.9,1.9-1.4c0.3-0.4,0.5-0.9,0.7-1.4
		c0.3-0.8,0.9-1.4,1.1-2.2c0.2-0.8,0.3-1.7,0.2-2.5c-0.1-0.7-0.4-1.3-0.5-2c-0.1-0.7-0.5-1.3-0.9-1.9c-0.3-0.4-0.2-0.7-0.3-1.2
		c-0.1-0.9-0.3-1.8-0.7-2.6c-0.2-0.5-0.8-0.8-1-1.3c0-0.2,0-0.5,0-0.7c0-0.3-0.1-0.5-0.2-0.8c-0.1-0.7,0.2-1.6-0.2-2.2
		c-0.2-0.4-0.5-0.8-0.9-0.9c-0.3-0.1-1.2-0.1-1.5,0c-0.5,0.2-0.3,0.6-0.2,1.1c-0.4,0.5-0.9,0.6-1.5,0.3c-0.6,0-1.2-0.2-1.7-0.5
		c-0.6-0.3-1.1-0.6-1.6-1c-0.5-0.4-1.3-1-2-0.8c-0.3,0.8,0.5,1.7,1.1,2.2c0.7,0.6,1.6,0.8,2.3,1.3c1.1,0.8,2.5,0.9,3.4,1.8
		c0.7,0.6,1,1.2,1.5,2c0.4,0.8,0.1,1.7,0.4,2.5c0.4,0.9,0.8,1.8,1.3,2.7c0.3,0.5,0.7,1.1,0.6,1.7c-0.1,0.4-0.5,0.8-0.7,1.2
		c-0.4,0.8-0.3,1.8-0.4,2.7c-0.1,0.4-0.2,1.7-0.8,1.7c-0.2,0-0.3,0-0.4-0.2c-0.1-0.2,0-0.8,0-1c0-0.5,0-1,0.2-1.5
		c0.3-1,0.7-2.1,0.2-3.1c-0.3-0.5-0.7-1-0.9-1.5c-0.2-0.4-0.3-0.8-0.7-1.1c-0.4-0.3-0.6-0.4-0.8-0.9c-0.2-0.5-0.4-1-0.7-1.6
		c-0.3-0.5-0.3-0.8-0.9-0.7c-0.4,0-0.7,0.1-0.7,0.5c-0.1,1.1,2.3,1.6,1.7,2.8c-0.6,0.1-0.8,0-1.3-0.5c-0.3-0.3-0.6-0.7-1-0.8
		c-0.4-0.2-0.8-0.3-1.1-0.5c-0.9-0.5-1.9-1.1-2.7-1.8c-0.5-0.4-1.4-1.2-2-0.7c0,0.7,0.2,1.8,0.8,2.3c0.2,0.2,0.6,0.2,0.9,0.3
		c0.4,0.1,1,0.4,1.4,0.7c0.6,0.4,1.1,1,1.7,1.4c0.5,0.4,0.9,0.7,1.4,1.1c0.6,0.4,1.2,0.8,1.7,1.3c0.5,0.4,1,1,0.9,1.7
		c-0.1,0.6-0.4,1-0.5,1.5c-0.2,0.5-0.2,1.1-0.2,1.6c0,0.8,0,1.5,0,2.3c0,0.6-0.5,1.1-0.4,1.8c0.2,0.9,1.4,1.3,2.1,1.7
		c0.3,0.2,0.4,0.3,0.5,0.7c0,0.2,0,0.4,0,0.6c0.1,0.3,0.3,0.5,0.3,0.7c0.2,0.7-0.6,1.6-1.4,1.4c-0.3-0.1-0.7-0.5-1-0.6
		c-0.3-0.2-0.7-0.4-1-0.6c-0.5-0.3-0.9-1-1.2-1.5c-0.1-0.2-0.8-2-1.3-1.2c-0.1,0.3,0,0.9,0.2,1.1c0.2,0.6,0.5,1.1,0.7,1.7
		c0.2,0.8,1,1.8,1.7,2.2c0.6,0.3,1.3,0.3,2,0.5c0.7,0.2,1.7,0.5,2.2,1.2c0.3,0.4,0.2,0.8-0.1,1.1c-0.2,0.2-0.3,0.3-0.4,0.6
		c-0.1,0.3,0,0.5-0.1,0.8c-0.2,0.4-0.4,0.7-0.6,1.1c-0.2,0.4-0.2,1.1-0.1,1.5c0.1,0.5,0.3,1.1,0.1,1.6c-0.3-0.2-0.7,0-1-0.1
		c-0.3-0.1-0.6-0.6-0.7-0.9c-0.2-0.3-0.3-0.7-0.5-1c-0.2-0.4-0.4-0.7-0.6-1c-0.2-0.5-0.5-0.8-0.7-1.3c-0.2-0.5-0.3-1.3-0.8-1.8
		c-0.3-0.3-0.9-0.6-0.9,0c0,0.3,0.3,0.7,0.4,1c0.1,0.5,0.1,1,0.4,1.5c0.3,0.5,0.6,1,0.5,1.7c-0.2,1-1.7,0.3-2.2-0.1
		c-0.6-0.5-0.7-1.4-0.9-2.1c-0.1-0.6-0.1-1.2-0.2-1.7c-0.1-0.3-0.4-0.6-0.5-0.9C40,57.7,40,57.6,40,57.4c0-0.3-0.2-0.6-0.3-1
		c-0.6-1.5-1-3.2-1.6-4.7c-0.6-1.5,1.3-1.1,1.1-3.4c-0.2-2.2,0.6-2.2,1.3-4.8c0.8-2.6-0.6-4.1-1.7-3.2c-1.1,0.9-0.4,1.3-0.6,4.3
		s-0.9,2.6-2,2.8s-2.2-3.5-3.7-6c-1.6-2.5-3.1-1.7-3.4-2.7c-0.4-0.9,1.1-1.5,1.1-3.4s1.5-2.2,3-3.2c1.5-0.9,2-1.5,2.4-2.2
		c0.4-0.8,0.9-3.2,0.9-4.5s-0.9-1.9-1.7-1.3c-0.8,0.6,0,1.7,0,3.5c0,1.9-2.4,3.2-3.7,3.2c-1.3,0-0.2-1.9,0-4.1s-1.7-2.4-3-3.5
		c-1.3-1.1-1.7-2.4-2.2-5.2s-1.5-2-1.5,0s0,1.9,1.9,5s2.8,2,2.6,6.4c-0.2,4.3-1.3,3.7-1.9,5.8c-0.6,2-1.1,2.8-2.2,3
		c-1.1,0.2-2.4-2.2-3.5-4.7s0.4-2,1.1-3.9s-0.4-2.2-0.6-4.3c-0.2-2-0.8-2.4-0.6-4.3c0.2-1.9-1.5-2.6-1.9,0.8c-0.4,3.4,0.9,3.4,1.1,6
		s-1.5,2-3.9,1.3c-2.4-0.8-2.2-0.2-5.2-1.1s-2.1-0.6-4.5-0.9s-4.1-2-3,0s1.5,1.7,6.5,3s3,0.2,5.8,1.5c2.8,1.3,2.6,2.4,3,4.3
		c0.4,1.9,4.9,4.5,1.3,4.5c-3.5,0-4.3-2.2-5.2-5c-0.9-2.8-3.7-0.8-3.6,0C12,36,14,38.1,17,40.9s3.7,1.7,8.2,1.5s7.1,1.9,9.1,8.2
		c2,6.3,3,6.7,3.7,9.3c0.8,2.6-2.2,2.8-3.2,2s-1.1-0.9-2.6-3c-1.5-2-1.7-2.8-2.4-4.5s-4.7-8.6-2.7-1.9c0.7,2.4,1.9,4.6,3,6.8
		c0.2,0.4,0.4,0.7,0.7,0.9c0.4,0.4,0.7,0.9,1.1,1.3c0.1,0.2,0.3,0.3,0.4,0.4c0.2,0.2,0.6,0.5,0.8,0.7c0.2,0.2,0.2,0.5,0.4,0.8
		c0.1,0.2,0.2,0.3,0.3,0.4c0.2,0.4,0.2,0.5-0.1,0.9c-0.3,0.4-0.5,0.4-1,0.4c-0.4,0-0.7-0.2-1.1-0.2c-0.9,0-1.6-0.6-2.4-0.9
		c-0.4-0.1-0.7-0.4-1-0.5c-0.4-0.2-0.7-0.2-1.2-0.2c-0.4,0-1.1-0.1-1.4,0c-0.3,0.1-0.5,0.7-0.3,1c0.1,0.2,0.6,0.4,0.8,0.5
		c0.5,0.2,0.8,0.3,1.2,0.5c0.8,0.6,1.8,0.9,2.7,1.3c0.4,0.2,0.8,0.3,1.2,0.4c0.3,0.1,0.7,0.2,1,0.2c0.4,0,0.8-0.2,1.3-0.2
		c0.4,0,0.9,0.1,1.4,0c0.7-0.1,1.5-0.3,2.2-0.5c1.8-0.5,3.3,0.6,4.9,0.9c0.6,0.1,1.3,0.2,1.9,0.3c0.6,0.1,1,0.3,1.5,0.4
		c0.3,0.1,0.6,0.1,0.8,0.3c0.5,0.3,0.3,0.8,0.2,1.3c-0.1,0.3-0.3,0.5-0.4,0.8c-0.1,0.3-0.2,0.6-0.3,0.8c-0.4,0.6-1.1,1.2-1.2,1.9
		c0.7,0.3,1.4-0.2,1.9-0.5c0.3-0.2,0.5-0.5,0.8-0.7c0.3-0.2,0.7-0.4,0.9-0.6c0.3-0.3,0.7-0.4,1-0.7c0.3-0.3,0.5-0.4,0.8-0.7
		c0.1-0.1,0.3-0.3,0.5-0.4c0.3-0.1,0.7-0.1,1,0c1,0.3,2,0.7,2.9,1.1c1.5,0.7,3.1,1.4,4.5,2.4c0.9,0.7,1.8,1.5,2.4,2.5
		c0.2,0.4,0.4,0.8,0.6,1.2c0.2,0.4,0.1,0.7,0.3,1.1c0.2,0.5,0.4,1,0.5,1.5c0,0.4,0.1,0.7-0.2,0.8c-0.2,0.1-0.7,0-1,0
		c-0.6,0-1.2-0.3-1.6-0.7c-0.5-0.4-0.7-1.1-1.2-1.5c-0.7-0.6-1.9-0.6-2.8-0.5c-0.4,0-1.2,0.1-0.7,0.7c0.2,0.2,0.4,0.2,0.7,0.2
		c0.3,0.1,0.6,0.2,0.9,0.3c0.6,0.1,1.7,0.3,1.9,1c0.2,0.6-0.1,1.6-0.7,1.9c-0.4,0.2-0.9,0-1.3-0.1c-0.5-0.1-0.9-0.1-1.4,0
		c-0.4,0.1-0.7,0.2-1.1,0.1c-0.5,0-0.9-0.2-1.3-0.2c-0.5,0.1-1.1,0.3-1.6,0.2c-0.1,0-0.2-0.2-0.3-0.2c-0.2-0.1-0.3-0.1-0.4-0.2
		c-0.2-0.2-0.4-0.4-0.6-0.6c-0.3-0.4-0.6-0.8-0.9-1.2c-0.3-0.4-0.7-0.8-1.2-1.1c-0.3-0.2-0.9-0.2-1.2-0.1c-1,0.4,0.3,1.8,0.7,2.2
		c0.3,0.3,0.6,0.5,0.9,0.8c0.1,0.1,0.3,0.2,0.3,0.4c0.1,0.5-0.3,0.3-0.5,0.3c-0.3-0.1-0.5-0.2-0.9-0.4c-0.2-0.1-0.5-0.2-0.8-0.3
		c-0.4-0.1-0.7-0.3-1.1-0.5c-0.2-0.1-0.3-0.1-0.5-0.1c-0.2-0.1-0.4-0.2-0.6-0.3c-0.7-0.3-1.3-0.7-1.9-1.1c-0.3-0.2-0.6-0.4-0.9-0.5
		c-0.4-0.2-0.8-0.3-1.2-0.5c-0.3-0.2-0.5-0.4-0.7-0.6c-0.2-0.2-0.3-0.4-0.3-0.6c-0.1-0.2,0-0.2-0.2-0.4c-0.3-0.4-0.6-0.8-0.8-1.3
		c-0.2-0.6-0.4-1.1-0.8-1.5c-0.3-0.3-1.3-1-1.6-0.5c-0.1,0.2,0.1,0.9,0.2,1.1c0.2,0.5,0.5,1,0.8,1.4c0.2,0.3,0.6,0.7,0.5,1.1
		c0,0.1-0.1,0.3-0.1,0.4c-0.1,0.5-0.1,0.9-0.3,1.4c-0.2,0.3-0.3,0.6-0.7,0.7c-0.5,0.2-1.1,0.1-1.7,0.1c-0.7,0-1.2,0-1.8-0.2
		c-0.6-0.2-0.8-0.5-1.1-1c-0.3-0.5-0.5-1-0.7-1.5c-0.1-0.3-0.2-0.6-0.3-0.9c-0.1-0.2-0.3-0.8-0.5-0.9c-0.6-0.2-0.5,0.2-0.5,0.6
		c0,0.4,0,0.8,0.1,1.2c0.1,0.4,0.4,0.7,0.4,1.1c0,0.2,0.1,1,0,1.2c-0.1,0.2-0.1,0.1-0.3,0.1c-0.4,0-0.8,0-1.2,0
		c-0.6,0-1.2-0.2-1.8-0.4c-0.4-0.1-0.8-0.1-1.1-0.3c-0.3-0.2-0.5-0.4-0.7-0.6c-0.2-0.2-0.5-0.2-0.8-0.3c-0.3-0.2-0.5-0.4-0.8-0.5
		c-0.3-0.2-1-0.9-1.5-0.9c-0.1,0.3-0.1,0.8,0.1,1.1c0.5,0.6,1.2,1.2,1.9,1.6c0.9,0.6,1.6,1.4,2.4,1.9c0.8,0.5,1.5,0.9,2.4,1.3
		c0.6,0.3,1.4,0.1,2,0c0.4-0.1,0.9-0.2,1.3-0.3c0.4-0.2,0.7-0.3,1.2-0.3c0.5,0,1.1,0,1.6,0c0.4,0,0.6,0.1,0.5,0.5
		c-0.1,0.5-0.2,0.8-0.5,1.2c-0.6,0.7-1.5,0.9-2.1,1.6c-0.1,0.2-0.7,0.9-0.5,1.2c0.1,0.1,0.5,0,0.6,0c0.4-0.1,0.7-0.1,1-0.3
		c0.5-0.3,1.1-0.7,1.6-1c0.3-0.2,0.7-0.3,0.9-0.5c0.2-0.2,0.3-0.4,0.5-0.6c0.2-0.2,0.5-0.3,0.6-0.6c0.2-0.4,0.3-0.8,0.5-1.1
		c0.1-0.1,0.2-0.6,0.3-0.7c0.2-0.2,0.9,0.2,1.2,0.2c0.3,0.1,0.6,0.1,0.9,0.2c0.2,0,0.5,0,0.7,0c0.5,0.1,1.1,0.2,1.6,0.4
		c0.7,0.3,1.2,0.7,1.9,1c0.4,0.2,0.7,0.3,1,0.6c0.5,0.4,1.1,0.9,1.8,0.9c0.2,0,0.4-0.1,0.7-0.1c0.7,0,1.3,0.4,2.1,0.1
		c0.2-0.1,0.3-0.2,0.5-0.2c0.1,0,0.2,0,0.3,0c0.2-0.1,0.3-0.3,0.6-0.4c0.7-0.3,1.3-0.7,2-0.7c0.6,0,1.7-0.1,2.1,0.4
		c0.2,0.2,0.1,0.2,0,0.4c-0.2,0.3-0.3,0.4-0.5,0.7c-0.2,0.4-0.5,0.5-0.7,0.8c-0.1,0.3-0.3,0.5-0.5,0.8c-0.3,0.6-0.4,1.3-0.6,1.9
		c-0.1,0.5-0.4,0.8-0.4,1.3c0,0.2-0.1,0.6,0,0.8c0.2,0.4,0.8,0.1,1.1,0c0.6-0.3,0.8-0.9,1.1-1.5c0.4-0.7,0-1.6,0.5-2.2
		c0.5-0.4,1.2-0.5,1.7-0.9c0.3-0.2,0.6-0.3,0.9-0.5c0.3-0.2,0.7-0.6,1-0.8c0.7-0.5,1.4-0.9,2.1-1.4c0.6-0.4,1.1-0.9,1.9-1.1
		c0.9-0.2,1.8,0,2.7,0.3c0.3,0.1,0.6,0.2,0.9,0.3c0.2,0.2,0.4,0.2,0.6,0.3c0.7,0.2,1.2,0.7,1.9,0.8c0.6,0.1,1.3,0.6,1.8,1
		c0.4,0.3,0.8,0.5,1.3,0.7c0.3,0.2,0.6,0.4,0.9,0.6c0.3,0.1,0.7,0.2,0.8,0.6c0.1,0.4-0.3,0.7-0.5,0.9c-0.4,0.4-0.4,0.9-0.8,1.3
		c-0.4,0.5-1,0.1-1.4-0.2c-0.2-0.1-0.3-0.3-0.5-0.4c-0.2-0.2-0.4-0.3-0.7-0.4c-0.2-0.1-0.4-0.3-0.6-0.4c-0.4-0.3-0.8-0.5-1.3-0.6
		c-0.6-0.1-1.1,0-1.6,0.1c-0.1,0.2,0,0.6,0.1,0.8c0.1,0.3,0.4,0.4,0.7,0.5c0.4,0.1,0.9,0.2,1.3,0.2c0.2,0,0.6,0,0.7,0.1
		s0.2,0.4,0.4,0.5c0.2,0.2,0.4,0.2,0.5,0.6c0,0.1,0,0.5,0,0.6C70.3,90,70,89.9,69.9,90c-0.3,0.1-0.5,0.2-0.8,0.2s-0.5-0.1-0.8-0.1
		c-0.5,0-1.1-0.1-1.7,0.1c-0.4,0.1-0.6,0.1-0.9,0.3c-0.2,0.2-0.4,0.4-0.6,0.6c-0.1,0.1-0.2,0.3-0.3,0.4c-0.2,0.1-0.4,0.1-0.6,0.2
		c-0.9,0.4-1.7,1.5-1.2,2.5c0.1,0.3,0.4,0.2,0.6,0.2c0.3,0,0.4-0.2,0.5-0.3c0.2-0.1,0.3-0.2,0.4-0.4c0.2-0.3,0.4-0.6,0.6-0.8
		c0.6-0.6,1-1.1,1.7-1.5c0.5-0.3,1.1-0.5,1.7-0.5c1.4,0,2.9,0.5,4.2,0.1c0.2-0.1,0.4-0.2,0.7-0.3c0.2-0.1,0.4-0.1,0.5-0.2
		c0.2-0.1,0.2-0.2,0.3-0.3c0,0,0.2-0.2,0.3-0.2c0.2-0.3,0.4-0.8,0.6-1.1c0.2-0.2,0.7-0.5,1-0.7c0.7-0.4,1.4-0.8,2.3-0.8
		c0.3,0,0.6,0.1,0.9,0.2c2.1,0.7,4.1,1.5,6,2.6c1.5,0.8,2.9,1.9,3.7,3.5c0.9,2,0.5,4.3-0.1,6.3h7c-0.3-0.7-0.6-1.3-1.1-2
		c-0.7-1-1.6-2.1-2.1-3.2c-0.2-0.5-0.1-1-0.2-1.6c-0.1-0.5-0.3-0.9-0.5-1.3c-0.8-1.3-1.9-2.3-2.9-3.3c-0.2-0.2-0.5-0.7-0.8-0.9
		c-0.5-0.4-1.5-0.7-2.1-0.8c-1.3-0.3-2.6-0.5-3.9-0.9c-0.2-0.1-0.3-0.1-0.4-0.2c-0.2-0.3-0.3-0.7-0.4-1c0-0.2-0.1-0.5,0-0.7
		c0.1-0.3,0.3-0.5,0.5-0.8c0.2-0.3,0.5-0.8,0.8-0.9c0.4-0.1,0.8-0.2,1.2-0.3c0.5-0.1,0.9-0.2,1.4-0.2c0.4,0,0.7-0.2,1-0.1
		c0.3,0.1,0.7,0.2,1.1,0.3c0.3,0.1,0.6,0.1,0.9,0.2c0.4,0.1,0.7,0.3,1.1,0.4c0.8,0.3,1.6,0.6,2.5,0.5c0.4,0,0.8-0.1,1.2-0.2
		c0.4-0.1,0.8-0.1,1.2-0.4c0.3-0.2,0.6-0.3,1-0.5c0.4-0.2,1-0.4,1.1-0.8c0.1-0.3,0-1.1-0.3-1.2c-0.1-0.1-0.6,0-0.7,0
		c-0.4,0-0.7,0.1-1,0.1c-0.4,0.1-0.8,0.3-1.2,0.3c-0.4,0.1-0.7,0.1-1.1,0.1c-0.6,0-1.3,0-1.9,0.1c-0.5,0.1-1.1,0.2-1.6-0.1
		c-0.6-0.3-1-1-0.8-1.6c0.1-0.6,1.1-0.8,1.6-0.8c0.1,0,0.2-0.1,0.4-0.1c0.2,0,0.4,0,0.6,0c0.1,0,0.3-0.2,0.4-0.2
		c0.2-0.1,0.4,0,0.6,0c0.4-0.1,0.8-0.2,1.2-0.3c0.4-0.1,1.1,0,1.5-0.3c0.1-0.1,0.2-0.4,0.3-0.5c0.1-0.2,0.3-0.4,0.5-0.6
		c0.5-0.4,0.9-0.8,0.9-1.4c-1.1-0.4-2.1,0.7-3,1.1c-0.4,0.2-0.9,0.2-1.3,0.3c-0.4,0.1-0.8,0.3-1.3,0.3c-0.8,0.1-1.7-0.3-1.3-1.3
		c0.3-0.8,1.4-1.1,2.2-1.5c0.4-0.2,0.6-0.5,0.8-0.9c0.2-0.4,0.2-0.9,0.5-1.2c0.3-0.4,0.8-0.9,1.3-1c0.3-0.1,0.5,0.1,0.8,0.2
		c0.3,0.1,0.7,0.2,1,0.3c0.6,0.2,1.3,0.2,1.9,0.3c0.3,0.1,0.7,0.1,0.9-0.2c0.1-0.3-0.2-0.7-0.3-1C97.7,69.4,96.8,69.8,96,69.6z"/>
</g>
</svg>
