<?xml version="1.0" encoding="utf-8"?>
<!-- Generator: Adobe Illustrator 24.0.2, SVG Export Plug-In . SVG Version: 6.00 Build 0)  -->
<svg version="1.1" id="Layer_1" xmlns="http://www.w3.org/2000/svg" xmlns:xlink="http://www.w3.org/1999/xlink" x="0px" y="0px"
	 viewBox="0 0 100 100" style="enable-background:new 0 0 100 100;" xml:space="preserve">
<style type="text/css">
	.st0{fill:#006E90;}
	.st1{fill:#FFFFFF;}
</style>
<g>
	<path class="st0" d="M100,3.2c-4.5,2.1-6.3,6.5-13.4,6.5c-9.4,0-9.4-7.6-18.8-7.6s-9.4,7.6-18.8,7.6s-9.4-7.6-18.8-7.6
		s-9.4,7.6-18.8,7.6C5.3,9.7,3.1,6.7,0,4.5V100h100V3.2z"/>
	<circle class="st1" cx="60.6" cy="31.3" r="11.3"/>
	<ellipse transform="matrix(0.664 -0.7477 0.7477 0.664 -23.457 80.5462)" class="st1" cx="77.9" cy="66.4" rx="20.8" ry="5.4"/>
	<path class="st1" d="M48.3,56.7c-2.8-3.4-9-5.3-9-5.3l0,0c-1.1-0.7-2.5-1.4-3.9-1.9c-2.1-0.8-4.1-1.4-5.9-1.6l0,0
		c0,0-4.9-1.9-9.2-1.1C16,47.4,9,57.5,6.3,64.8s0.8,0.1,2.1-1.7c1.3-1.7,9.1-12.9,11.4-12.9c2.1-0.1,2.3,5.3,2.4,6c0,0,0,0,0,0.1v0
		l0,0c0,1.7,0.5,3.4,1.3,4.9c0.7,3,1,6.4,1.5,11c0.5,4.6-1.6,11.1-3.1,16.9c-1.5,5.8-1.3,9.4,1.2,1.4c1.4-4.6,4.5-11.5,7-16.8
		c1.8-3.8,5.2-7.3,5.2-7.3l0,0c2.3-0.6,4.4-1.9,5.9-3.8c0,0,3.8-4.4,5.4-2.9c1.7,1.5,0.5,15,0.4,17.2c-0.1,2.2-2,10,0.5,2.6
		C50,72.2,51.2,60,48.3,56.7z"/>
</g>
</svg>
