<?xml version="1.0" encoding="utf-8"?>
<!-- Generator: Adobe Illustrator 24.0.2, SVG Export Plug-In . SVG Version: 6.00 Build 0)  -->
<svg version="1.1" id="Layer_1" xmlns="http://www.w3.org/2000/svg" xmlns:xlink="http://www.w3.org/1999/xlink" x="0px" y="0px"
	 viewBox="0 0 100 100" style="enable-background:new 0 0 100 100;" xml:space="preserve">
<style type="text/css">
	.st0{fill:#006E90;}
	.st1{fill:#FFFFFF;}
</style>
<path class="st0" d="M100,3.2c-4.5,2.1-6.3,6.5-13.4,6.5c-9.4,0-9.4-7.6-18.8-7.6s-9.4,7.6-18.8,7.6s-9.4-7.6-18.8-7.6
	s-9.4,7.6-18.8,7.6C5.3,9.7,3.1,6.7,0,4.5V100h100V3.2z"/>
<g>
	<path class="st1" d="M31.4,68.6h-5.2L13,47.4v21.1H7.8V38.8H13L26.3,60V38.8h5.1L31.4,68.6L31.4,68.6z"/>
	<path class="st1" d="M50.3,68.6c-0.2-0.4-0.4-1.1-0.6-2.1c-1.6,1.7-3.5,2.5-5.8,2.5c-2.2,0-4-0.6-5.4-1.9c-1.4-1.3-2.1-2.8-2.1-4.7
		c0-2.4,0.9-4.2,2.6-5.4s4.3-1.9,7.5-1.9h3v-1.5c0-1.2-0.3-2.1-1-2.8s-1.6-1-2.9-1c-1.1,0-2.1,0.3-2.8,0.8c-0.7,0.6-1.1,1.3-1.1,2.2
		h-5c0-1.2,0.4-2.3,1.2-3.4c0.8-1.1,1.9-1.9,3.3-2.5c1.4-0.6,2.9-0.9,4.6-0.9c2.6,0,4.7,0.7,6.2,2c1.5,1.3,2.3,3.1,2.4,5.5v10
		c0,2,0.3,3.6,0.8,4.8v0.3L50.3,68.6L50.3,68.6z M44.8,65c1,0,1.9-0.2,2.8-0.7c0.9-0.5,1.5-1.1,2-1.9v-4.2h-2.7
		c-1.8,0-3.2,0.3-4.2,1s-1.4,1.5-1.4,2.7c0,1,0.3,1.7,1,2.3C42.9,64.7,43.7,65,44.8,65z"/>
	<path class="st1" d="M82.9,58.9c-0.3,3.2-1.5,5.7-3.5,7.4c-2,1.8-4.8,2.7-8.2,2.7c-2.4,0-4.5-0.6-6.3-1.7c-1.8-1.1-3.2-2.7-4.2-4.8
		s-1.5-4.5-1.5-7.2v-2.8c0-2.8,0.5-5.3,1.5-7.4s2.4-3.8,4.3-5s4-1.7,6.4-1.7c3.3,0,5.9,0.9,7.9,2.7s3.2,4.3,3.5,7.5h-5.2
		c-0.3-2.1-0.9-3.7-1.9-4.6s-2.5-1.4-4.4-1.4c-2.3,0-4,0.8-5.2,2.5c-1.2,1.6-1.8,4.1-1.8,7.2v2.6c0,3.2,0.6,5.7,1.7,7.4
		s2.8,2.5,5.1,2.5c2,0,3.6-0.5,4.6-1.4c1-0.9,1.7-2.4,1.9-4.6C77.7,58.9,82.9,58.9,82.9,58.9z"/>
	<path class="st1" d="M92.3,68.6h-5V37.1h5V68.6z"/>
</g>
<circle class="st1" cx="26" cy="24.3" r="3.7"/>
<circle class="st1" cx="79.6" cy="89.1" r="3.7"/>
<circle class="st1" cx="22.3" cy="85.3" r="3.7"/>
<circle class="st1" cx="65" cy="28" r="3.7"/>
</svg>
