<?xml version="1.0" encoding="utf-8"?>
<!-- Generator: Adobe Illustrator 24.0.2, SVG Export Plug-In . SVG Version: 6.00 Build 0)  -->
<svg version="1.1" id="Layer_1" xmlns="http://www.w3.org/2000/svg" xmlns:xlink="http://www.w3.org/1999/xlink" x="0px" y="0px"
	 viewBox="0 0 100 100" style="enable-background:new 0 0 100 100;" xml:space="preserve">
<style type="text/css">
	.st0{fill:#006E90;}
</style>
<g>
	<path class="st0" d="M100,54.3c-4.5,2.1-6.3,6.5-13.4,6.5c-9.4,0-9.4-7.6-18.8-7.6c-9.4,0-9.4,7.6-18.8,7.6s-9.4-7.6-18.8-7.6
		c-9.4,0-9.4,7.6-18.8,7.6c-5.9,0-8.1-2.9-11.2-5.2V100H100V54.3z"/>
	<polygon class="st0" points="70.9,47.9 92.9,37.8 70.8,28 	"/>
	<polygon class="st0" points="46.8,28 68.7,17.9 46.6,8.1 	"/>
	<g>
		<path class="st0" d="M46.7,20.3H36v-4.6h10.7V20.3z M29.9,20.3H19.3v-4.6h10.7V20.3z M13.2,20.3H2.5v-4.6h10.7V20.3z"/>
	</g>
	<g>
		<path class="st0" d="M71.8,40.2H61.2v-4.6h10.7V40.2z M55.1,40.2H44.4v-4.6h10.7V40.2z M38.3,40.2H27.7v-4.6h10.7V40.2z
			 M21.6,40.2H10.9v-4.6h10.7V40.2z M4.9,40.2H0v-4.6h4.9V40.2z"/>
	</g>
</g>
</svg>
