<?xml version="1.0" encoding="utf-8"?>
<!-- Generator: Adobe Illustrator 24.0.2, SVG Export Plug-In . SVG Version: 6.00 Build 0)  -->
<svg version="1.1" id="Layer_1" xmlns="http://www.w3.org/2000/svg" xmlns:xlink="http://www.w3.org/1999/xlink" x="0px" y="0px"
	 viewBox="0 0 100 100" style="enable-background:new 0 0 100 100;" xml:space="preserve">
<style type="text/css">
	.st0{fill:#006E90;}
	.st1{fill:#FFFFFF;}
</style>
<g>
	<g>
		<path class="st0" d="M100,3.2c-4.5,2.1-6.3,6.5-13.4,6.5c-9.4,0-9.4-7.6-18.8-7.6s-9.4,7.6-18.8,7.6s-9.4-7.6-18.8-7.6
			s-9.4,7.6-18.8,7.6C5.3,9.7,3.1,6.7,0,4.5V100h100V3.2z"/>
	</g>
	<path class="st1" d="M59.1,24C72.2,28,81.7,40.3,81.7,54.7c0,2.6-0.3,5.2-0.9,7.6l5,3.3c1.1-3.5,1.6-7.2,1.6-11
		c0-18.5-13.3-33.9-30.8-37.2l8.4,3.9L59.1,24z"/>
	<g>
		<path class="st1" d="M13.2,58.4l5.1,3.9c-0.6-2.5-1-5-1-7.6c0-14.5,9.6-26.8,22.8-30.8l0-5.9c-16.4,4.1-28.6,19-28.6,36.7
			c0,4.4,0.8,8.6,2.1,12.5L13.2,58.4z"/>
		<path class="st1" d="M70.5,84.3l1.1-6.3c-5.8,5.4-13.5,8.8-22.1,8.8c-8.3,0-15.8-3.2-21.5-8.3l-5.3,2.8
			c6.9,6.9,16.4,11.2,26.8,11.2c11.3,0,21.4-4.9,28.3-12.8L70.5,84.3z"/>
	</g>
	<g>
		<polygon class="st1" points="17.7,84 16.3,64.3 32,76.4 		"/>
	</g>
	<g>
		<polygon class="st1" points="40.3,13.1 58.2,21.3 40.1,29.3 		"/>
	</g>
	<g>
		<polygon class="st1" points="90.6,68.9 73.8,79.4 77.1,59.9 		"/>
	</g>
	<g>
		<path class="st1" d="M61.2,59.9c-0.3,3.2-1.5,5.6-3.5,7.4c-2,1.8-4.8,2.7-8.2,2.7c-2.4,0-4.5-0.6-6.3-1.7
			c-1.8-1.1-3.2-2.7-4.2-4.8s-1.5-4.5-1.5-7.2v-2.8c0-2.8,0.5-5.3,1.5-7.4s2.4-3.8,4.3-5s4-1.7,6.5-1.7c3.3,0,5.9,0.9,7.9,2.7
			s3.2,4.3,3.5,7.5h-5.2c-0.3-2.1-0.9-3.7-1.9-4.6s-2.5-1.4-4.4-1.4c-2.3,0-4,0.8-5.2,2.5c-1.2,1.6-1.8,4.1-1.8,7.2V56
			c0,3.2,0.6,5.7,1.7,7.4c1.2,1.7,2.8,2.5,5.1,2.5c2,0,3.6-0.5,4.6-1.4c1-0.9,1.7-2.4,1.9-4.6L61.2,59.9L61.2,59.9z"/>
	</g>
</g>
</svg>
