<?xml version="1.0" encoding="utf-8"?>
<!-- Generator: Adobe Illustrator 24.0.2, SVG Export Plug-In . SVG Version: 6.00 Build 0)  -->
<svg version="1.1" id="Layer_1" xmlns="http://www.w3.org/2000/svg" xmlns:xlink="http://www.w3.org/1999/xlink" x="0px" y="0px"
	 viewBox="0 0 100 100" style="enable-background:new 0 0 100 100;" xml:space="preserve">
<style type="text/css">
	.st0{fill:#006E90;}
	.st1{fill:#FFFFFF;}
</style>
<path class="st0" d="M100,3.2c-4.5,2.1-6.3,6.5-13.4,6.5c-9.4,0-9.4-7.6-18.8-7.6s-9.4,7.6-18.8,7.6s-9.4-7.6-18.8-7.6
	s-9.4,7.6-18.8,7.6C5.3,9.7,3.1,6.7,0,4.5V100h100V3.2z"/>
<path class="st1" d="M5.7,17.3c0.7-0.2,21.7-6.2,21.7-6.2l4.3,3.1h6.9l2.6,5.9l-1.9,7.1l-13.1,5.5l-9.8-1l-6.4-6.9H5.7V17.3z"/>
<polygon class="st1" points="60.7,16.9 69,11.1 79,18 86.9,19.5 87.8,22 82.4,26.8 74.3,32.8 65.7,34.5 54.5,28.7 50,24.5 
	53.5,20.4 "/>
<path class="st1" d="M87.8,31.8l5.7,4.5l3.1,1.9l-2.1,5.2l2.1,2.4v5L92.3,53c0,0-7.3,1.7-8.5,1.2c-1.2-0.5-15.5,0-14.9-1.9
	c0.6-1.9,0-4.3,0-4.3l2-6.7l4.5-4l4.3-2.8h3L87.8,31.8z"/>
<path class="st1" d="M55.5,39.7l-11.9-7.9c0,0-4.3-0.2-5.7,1c-1.4,1.2-5.5,0.9-6.7,1.7c-1.2,0.7-3.3,2.6-3.3,2.6l-10.7,2.6l1.4,7.6
	l3.6,3.6c0,0,2.4,0.2,6.2,0s3.8-0.2,8-1s6.3-2.6,8.9-1.2s2.9,3.8,4.8,2.3s4.5-3,5.5-3.9C56.4,46.1,55.5,39.7,55.5,39.7z"/>
<path class="st1" d="M5.7,58.2c1.7,0,8.3,0,8.3,0s5.7,0.7,6.4,0c0.7-0.7,6-1.4,6-1.4s3.1,0.3,4.3,0s2.6,0.8,3.3,0.8
	c0.7,0.1,7.2,3.4,7.2,3.4s-0.7,0.7,0,1.4s0,3.6,0,3.6l-2.9,3.1c0,0-2.1,1.7-3.6,2.4c-1.4,0.7-3.8,3.8-4.8,3.8s-6.7,1.2-8.1,0
	S16.4,71,15.2,71S9,71,8.3,70.8c-0.7-0.2-4.5-0.9-4.3-2.6s0.7-3.1,0-4.5S5.7,58.2,5.7,58.2z"/>
<path class="st1" d="M53.5,61.1l13.1-1.9c0,0,4.1,0.7,6,1.9c1.9,1.2,3.3,2.2,7.2,1.9c3.8-0.2,5,0,5,0s1.4,3.1,3.1,3.3
	c1.7,0.2,4.1,1.6,4.1,1.6l-1.4,5l-6.7,2.9c0,0-7.2,4-8.8,4.5s-10.7,1.2-11.4,0c-0.7-1.2-6.2-4.5-6.2-4.5l-3.8-3.6L50,67.5L53.5,61.1
	z"/>
<path class="st1" d="M26.8,81c0.3,0,0.6,0.1,0.9,0c0.4-0.1,0.9-0.5,1.3-0.7c0.7-0.4,1.4-0.8,2.1-1.1c1.9-0.9,3.6-1.8,5.4-2.8
	c1.2-0.6,2.6-1.5,4-1.7c0.5-0.1,1-0.1,1.5-0.1c0.5,0,0.6,0.2,1.1,0.5c0.6,0.4,0.9,0.7,1.4,1.2c0.8,0.8,1.9,1.3,2.7,2.1
	c1.6,1.8,3.9,2.4,6.1,3.2c0.7,0.2,1.3,0.5,2,0.8c0.8,0.3,1.7,0.6,2.5,0.9c1,0.5,1.7,1.1,2,2.2c0.4,1.6,0.8,3.7,0.2,5.3
	c-0.5,1.3-2.1,2.1-3.3,2.7c-0.8,0.4-1.5,0.8-2.4,1c-1.8,0.6-3.5,1.3-5.2,1.8c-2.7,0.7-6,0.9-8.7,0.3c-1.5-0.4-2.9-0.9-4.2-1.7
	c-1.2-0.7-2.5-1.7-3.7-2.3c-3.3-1.4-6.8-0.2-10.1-2c-0.8-0.4-1.3-0.9-1.1-1.8c0.1-0.7,0.9-1.9,1.3-2.5c0.9-1.3,1.1-2.8,2.2-3.8
	c0.2-0.2,0.4-0.3,0.6-0.5c0.2-0.1,0.4-0.4,0.6-0.5c0.3-0.2,0.6-0.1,0.9-0.3C27.1,81,27.4,80.7,26.8,81z"/>
</svg>
