<?xml version="1.0" encoding="utf-8"?>
<!-- Generator: Adobe Illustrator 24.0.2, SVG Export Plug-In . SVG Version: 6.00 Build 0)  -->
<svg version="1.1" id="Layer_1" xmlns="http://www.w3.org/2000/svg" xmlns:xlink="http://www.w3.org/1999/xlink" x="0px" y="0px"
	 viewBox="0 0 100 100" style="enable-background:new 0 0 100 100;" xml:space="preserve">
<style type="text/css">
	.st0{fill:#006E90;}
	.st1{fill:#FFFFFF;}
</style>
<g>
	<path class="st0" d="M100,3.2c-4.5,2.1-6.3,6.5-13.4,6.5c-9.4,0-9.4-7.6-18.8-7.6s-9.4,7.6-18.8,7.6s-9.4-7.6-18.8-7.6
		s-9.4,7.6-18.8,7.6C5.3,9.7,3.1,6.7,0,4.5V100h100V3.2z"/>
	<circle class="st1" cx="87.2" cy="27.7" r="3.7"/>
	<circle class="st1" cx="26.1" cy="20.2" r="3.7"/>
	<circle class="st1" cx="50" cy="88.7" r="3.7"/>
	<circle class="st1" cx="90.9" cy="37.3" r="3.7"/>
	<circle class="st1" cx="39.5" cy="18.4" r="3.7"/>
	<circle class="st1" cx="32" cy="27.7" r="3.7"/>
	<circle class="st1" cx="43.7" cy="34.4" r="3.7"/>
	<circle class="st1" cx="62.2" cy="32.8" r="3.7"/>
	<circle class="st1" cx="81.5" cy="16.5" r="3.7"/>
	<circle class="st1" cx="93.1" cy="19.7" r="3.7"/>
	<circle class="st1" cx="10" cy="29.9" r="3.7"/>
	<circle class="st1" cx="22" cy="34.4" r="3.7"/>
	<circle class="st1" cx="13.7" cy="18.4" r="3.7"/>
	<circle class="st1" cx="59" cy="16.2" r="3.7"/>
	<circle class="st1" cx="53.7" cy="26.2" r="3.7"/>
	<circle class="st1" cx="70.3" cy="20.2" r="3.7"/>
	<circle class="st1" cx="75.9" cy="33.6" r="3.7"/>
	<polygon class="st1" points="41.8,63.5 50.2,78.2 58.5,63.5 	"/>
	<g>
		<rect x="47.7" y="45.9" class="st1" width="4.6" height="17.6"/>
	</g>
</g>
</svg>
