<?xml version="1.0" encoding="utf-8"?>
<!-- Generator: Adobe Illustrator 24.0.2, SVG Export Plug-In . SVG Version: 6.00 Build 0)  -->
<svg version="1.1" id="Layer_1" xmlns="http://www.w3.org/2000/svg" xmlns:xlink="http://www.w3.org/1999/xlink" x="0px" y="0px"
	 viewBox="0 0 100 100" style="enable-background:new 0 0 100 100;" xml:space="preserve">
<style type="text/css">
	.st0{fill:#006E90;}
	.st1{fill:#FFFFFF;}
</style>
<g>
	<path class="st0" d="M100,29.9c-4.5,2.1-6.3,6.5-13.4,6.5c-9.4,0-9.4-7.6-18.8-7.6s-9.4,7.6-18.8,7.6s-9.4-7.6-18.8-7.6
		s-9.4,7.6-18.8,7.6c-5.9,0-8.1-2.9-11.2-5.2V100h100L100,29.9L100,29.9z"/>
	<g>
		<path class="st1" d="M48.9,53.4c-1.7,0-3.2-0.2-4.7-0.6l1.3-4.3c1,0.3,2.1,0.4,3.4,0.4c1.9,0,3.5-0.3,4.9-1l2,4.1
			C53.7,52.9,51.5,53.4,48.9,53.4z M10.6,53.4c-5.2-0.1-7.9-2.2-10.4-4l-0.2-0.1l2.7-3.6L3,45.8c2.2,1.6,4,3,7.8,3.1L10.6,53.4z
			 M89.4,53.2l-0.7-4.5c2.7-0.4,4.2-1.6,6.1-3c0.6-0.5,1.2-0.9,1.9-1.3l2.5,3.8c-0.6,0.4-1.1,0.8-1.7,1.2
			C95.5,50.9,93.2,52.6,89.4,53.2z M82.8,53c-3.1-0.7-5.1-2.2-6.9-3.6c-0.8-0.6-1.6-1.2-2.4-1.7l2.3-3.9c1.1,0.6,2,1.3,2.9,2
			c1.6,1.2,3.1,2.3,5.2,2.8L82.8,53z M17.2,52.3l-1.7-4.2c1.4-0.6,2.5-1.4,3.7-2.3c1.4-1,2.9-2.2,5-3l1.6,4.2
			c-1.5,0.6-2.6,1.5-3.9,2.4C20.5,50.4,19.1,51.5,17.2,52.3z M38.5,49.7l-0.4-0.3c-2.1-1.6-3.9-3-7.5-3.1l0.2-4.5
			c5,0.2,7.7,2.2,10.1,4l0.4,0.3L38.5,49.7z M60.9,48.5l-2.6-3.7c2.3-1.6,5-3.1,9.5-3.1l0,0c0.5,0,1,0,1.5,0.1L69,46.3
			c-0.4,0-0.7,0-1.1,0l0,0C64.7,46.3,62.9,47.2,60.9,48.5z"/>
	</g>
	<polygon class="st0" points="71.1,24.3 93.1,14.1 70.9,4.3 	"/>
	<g>
		<path class="st0" d="M72,16.6H61.3V12H72V16.6z M55.3,16.6H44.6V12h10.7V16.6z M38.5,16.6H27.8V12h10.7L38.5,16.6L38.5,16.6z
			 M21.7,16.6H11V12h10.7L21.7,16.6L21.7,16.6z M4.9,16.6H0.1V12h4.9V16.6z"/>
	</g>
	<polygon class="st1" points="35.8,72.6 13.8,82.8 36,92.6 	"/>
	<g>
		<path class="st1" d="M95.9,84.9H85.2v-4.6h10.7V84.9z M79.1,84.9H68.4v-4.6h10.7V84.9z M62.3,84.9H51.6v-4.6h10.7V84.9z
			 M45.5,84.9H34.8v-4.6h10.7V84.9z"/>
	</g>
</g>
</svg>
