<svg xmlns="http://www.w3.org/2000/svg" viewBox="0 0 444.4 94.76"><path d="M92.48,35.8l-16-23.14L51,0,51,0,20.57,8.83H20.4L4.52,27.7l-.06.06v.16L0,58.81V59L16,82.1,41.5,94.73l.24,0,30-8.83h.17L87.82,67.06l.06-.07v-.24l4.55-30.14m-8.29,3.88-8.26-24L91.43,35.88ZM13.38,57.83,5,34.26l20.07-5.1Zm.24.73.16-.15.32-.33L25.86,29.43l13,24.46Zm25.5-3.72L38.5,80.21,14.39,59.43ZM26.63,29l31.58,2.89L39.62,53.44Zm32.69,1.78L47.12,9.43l26.55,5ZM74.42,15l8.79,25.37L60.07,31.29ZM66.54,63.34,40.28,54.05,59,32.48ZM58.35,31,26.94,28.12,46.11,9.58ZM40,54.89l26.22,9.28L39.46,80.29ZM66.79,65l-1.7,21-24.83-5ZM59.92,32.27l23.31,9.18L67.57,63ZM76.05,13.53l9.75,14L75.25,14.15ZM75.18,13l-.69.57L61.22,6ZM72,13.12,46.93,8.43l4-7.46Zm-22.24-12L45.92,8.37,24,8.71ZM45.07,9.25,26.13,27.57l-4.91-18ZM20.42,10.34l4.9,17.8L5.46,33.22ZM5.24,28.15l12-14.36L4.77,32.47Zm-.62,7.69,8.1,22.8L.92,58.38ZM1.21,59.35l11.65.27,2.71,20.5Zm12.67.92L37.71,80.8l-21.06.71Zm4.2,22.09,20.45-.7,2.46,12ZM42,94,39.52,81.81l24.09,4.86Zm29.52-8.74-4.72.63L84.18,70.29Zm-5.61.1,1.78-20.77,18.81,2.59Zm2.19-21.62L83.56,42.45,87,66.32Zm19.41.06-3-22.33,7.11-4.54Z" fill="#b9d6f2"/><path d="M16.73,57.79a3.88,3.88,0,0,0-2.15-2.08,3.9,3.9,0,0,0-5,5.18A3.87,3.87,0,0,0,11.71,63a3.94,3.94,0,0,0,3,0,3.9,3.9,0,0,0,2-5.13Z" fill="#006e90"/><path d="M62.45,28.29a4.7,4.7,0,0,0-6.1,7.14,4.6,4.6,0,0,0,3,1.12l.39,0a4.7,4.7,0,0,0,2.7-8.24Z" fill="#006e90"/><path d="M77.36,13.42a3.11,3.11,0,1,0-2.85,4.35,3,3,0,0,0,1.24-.26A3.11,3.11,0,0,0,77.36,13.42Z" fill="#006e90"/><path d="M42.87,52.81a3.12,3.12,0,0,0-4.1-1.61,3.12,3.12,0,0,0,.1,5.75,3.21,3.21,0,0,0,1.14.22,3.17,3.17,0,0,0,1.24-.26A3.13,3.13,0,0,0,42.87,52.81Z" fill="#006e90"/><path d="M86.8,39.7a3.11,3.11,0,1,0-4,4.13,3.05,3.05,0,0,0,1.15.22,3.17,3.17,0,0,0,1.24-.26A3.12,3.12,0,0,0,86.8,39.7Z" fill="#006e90"/><path d="M111.16,42.14A13.8,13.8,0,0,1,107,39.22a1.17,1.17,0,0,1-.1-1.79,1.14,1.14,0,0,1,.84-.39,1.2,1.2,0,0,1,.86.39,9.84,9.84,0,0,0,7.6,3.35,7.76,7.76,0,0,0,4.66-1.33A4.06,4.06,0,0,0,122.68,36a4.26,4.26,0,0,0-.91-2.79,6.85,6.85,0,0,0-2.4-1.81,31.18,31.18,0,0,0-3.78-1.44,23.62,23.62,0,0,1-4.2-1.64,7.8,7.8,0,0,1-2.75-2.4,6.48,6.48,0,0,1-1-3.8,6.29,6.29,0,0,1,1.11-3.67,7.48,7.48,0,0,1,3.12-2.51,11,11,0,0,1,4.62-.92,12.44,12.44,0,0,1,4.47.8,7.92,7.92,0,0,1,3.33,2.28,1.9,1.9,0,0,1,.59,1.13,1.09,1.09,0,0,1-.39.8,1.22,1.22,0,0,1-.86.37.9.9,0,0,1-.66-.27,7.69,7.69,0,0,0-2.81-2,8.93,8.93,0,0,0-3.67-.78,7.85,7.85,0,0,0-4.64,1.27A4,4,0,0,0,110,22a4,4,0,0,0,1.72,3.47,17.93,17.93,0,0,0,4.91,2.22,30.08,30.08,0,0,1,4.52,1.68A7.46,7.46,0,0,1,124,31.83,7.07,7.07,0,0,1,125.14,36,6.06,6.06,0,0,1,124,39.59a7.74,7.74,0,0,1-3.2,2.55,11,11,0,0,1-4.66.94A12.31,12.31,0,0,1,111.16,42.14Z" fill="#404041"/><path d="M134.15,42.34a1.18,1.18,0,0,1-.86.35,1.22,1.22,0,0,1-.88-.33,1.18,1.18,0,0,1-.33-.88V16.6a1.17,1.17,0,0,1,.35-.88,1.28,1.28,0,0,1,.9-.33,1.18,1.18,0,0,1,.86.35,1.19,1.19,0,0,1,.35.86V41.48A1.35,1.35,0,0,1,134.15,42.34Z" fill="#404041"/><path d="M165.9,36.26a12.83,12.83,0,0,1-22.78,0A15.31,15.31,0,0,1,141.44,29a15.35,15.35,0,0,1,1.68-7.25,12.52,12.52,0,0,1,4.64-5,13.6,13.6,0,0,1,13.49,0,12.54,12.54,0,0,1,4.65,5A15.47,15.47,0,0,1,167.57,29,15.43,15.43,0,0,1,165.9,36.26ZM163.73,23a10.28,10.28,0,0,0-18.45,0A13.37,13.37,0,0,0,143.94,29a13.37,13.37,0,0,0,1.34,6.06,10,10,0,0,0,9.23,5.64A10.2,10.2,0,0,0,160,39.26a10.08,10.08,0,0,0,3.74-4.16A13.24,13.24,0,0,0,165.08,29,13.24,13.24,0,0,0,163.73,23Z" fill="#404041"/><path d="M197.17,36.26a12.82,12.82,0,0,1-22.77,0A15.31,15.31,0,0,1,172.72,29a15.35,15.35,0,0,1,1.68-7.25,12.52,12.52,0,0,1,4.64-5,13.6,13.6,0,0,1,13.49,0,12.45,12.45,0,0,1,4.64,5A15.35,15.35,0,0,1,198.85,29,15.31,15.31,0,0,1,197.17,36.26ZM195,23a10.28,10.28,0,0,0-18.45,0A13.37,13.37,0,0,0,175.22,29a13.37,13.37,0,0,0,1.34,6.06,10,10,0,0,0,9.23,5.64,10.2,10.2,0,0,0,5.48-1.48A10.08,10.08,0,0,0,195,35.1,13.24,13.24,0,0,0,196.36,29,13.24,13.24,0,0,0,195,23Z" fill="#404041"/><path d="M226.31,18.39a1.4,1.4,0,0,1-.28.78,1.08,1.08,0,0,1-.89.43,1.18,1.18,0,0,1-.63-.19,12.08,12.08,0,0,0-6.82-2.07A11.12,11.12,0,0,0,212,18.82,10.52,10.52,0,0,0,208,23,12.35,12.35,0,0,0,206.5,29,12.43,12.43,0,0,0,208,35.18a10.63,10.63,0,0,0,4,4.14,11.3,11.3,0,0,0,5.68,1.46,12.08,12.08,0,0,0,6.78-2,1.24,1.24,0,0,1,.67-.19A1.06,1.06,0,0,1,226,39a1.08,1.08,0,0,1,.28.75,1,1,0,0,1-.55.93A14.27,14.27,0,0,1,222,42.4a14.89,14.89,0,0,1-4.33.68,13.74,13.74,0,0,1-6.85-1.77,13.25,13.25,0,0,1-5-5A14.31,14.31,0,0,1,204,29a14.23,14.23,0,0,1,1.83-7.16,13.31,13.31,0,0,1,5-5,13.47,13.47,0,0,1,6.9-1.81,15.05,15.05,0,0,1,4.27.62,13.68,13.68,0,0,1,3.76,1.76A1.09,1.09,0,0,1,226.31,18.39Z" fill="#404041"/><path d="M259,16.38a7,7,0,0,1,2.67,2.77,8.3,8.3,0,0,1,1,4,8.62,8.62,0,0,1-1,4.06A7.27,7.27,0,0,1,259,30.09a7.18,7.18,0,0,1-3.86,1.06h-8.08V41.52a1.17,1.17,0,1,1-2.34,0v-25a1.15,1.15,0,0,1,.34-.84,1.13,1.13,0,0,1,.83-.33h9.25A7.6,7.6,0,0,1,259,16.38Zm-.2,10.87a6.08,6.08,0,0,0,1.41-4.1,5.58,5.58,0,0,0-1.41-3.94,4.75,4.75,0,0,0-3.66-1.52h-8.08V28.88h8.08A4.57,4.57,0,0,0,258.79,27.25Z" fill="#404041"/><path d="M288.24,41.6a1.06,1.06,0,0,1-.35.82,1.2,1.2,0,0,1-.82.31,1.07,1.07,0,0,1-.68-.22,1.31,1.31,0,0,1-.45-.56L283,34.81H270.34L267.45,42a1.08,1.08,0,0,1-1.05.78,1.11,1.11,0,0,1-.82-.27,1.14,1.14,0,0,1-.31-.74V41.6a1,1,0,0,1,0-.35l10.29-25.2a1.16,1.16,0,0,1,1.17-.78,1.18,1.18,0,0,1,.69.22,1.36,1.36,0,0,1,.44.56l10.26,25.08A2.38,2.38,0,0,1,288.24,41.6Zm-17-9.09h10.84l-5.46-13.34Z" fill="#404041"/><path d="M314.76,18.39a1.47,1.47,0,0,1-.27.78,1.14,1.14,0,0,1-1.52.24,12.11,12.11,0,0,0-6.83-2.07,11.12,11.12,0,0,0-5.71,1.48,10.59,10.59,0,0,0-4,4.16A12.46,12.46,0,0,0,295,29a12.43,12.43,0,0,0,1.48,6.14,10.59,10.59,0,0,0,4,4.14,11.24,11.24,0,0,0,5.67,1.46,12.13,12.13,0,0,0,6.79-2,1.21,1.21,0,0,1,.66-.19,1.09,1.09,0,0,1,.9.46,1.11,1.11,0,0,1,.27.75,1,1,0,0,1-.55.93,14.27,14.27,0,0,1-3.74,1.7,14.89,14.89,0,0,1-4.33.68,13.68,13.68,0,0,1-6.84-1.77,13.21,13.21,0,0,1-5-5A14.31,14.31,0,0,1,292.45,29a14.23,14.23,0,0,1,1.83-7.16A13.41,13.41,0,0,1,306.14,15a15,15,0,0,1,4.27.62,13.54,13.54,0,0,1,3.76,1.76A1.07,1.07,0,0,1,314.76,18.39Z" fill="#404041"/><path d="M323.18,42.34a1.17,1.17,0,0,1-.85.35,1.14,1.14,0,0,1-1.21-1.21V16.6a1.14,1.14,0,0,1,.35-.88,1.24,1.24,0,0,1,.89-.33,1.18,1.18,0,0,1,.86.35,1.15,1.15,0,0,1,.35.86V41.48A1.26,1.26,0,0,1,323.18,42.34Z" fill="#404041"/><path d="M348.47,15.72a1.11,1.11,0,0,1,.34.84,1.07,1.07,0,0,1-.34.8,1.13,1.13,0,0,1-.83.33h-13v9.79h11.23a1.16,1.16,0,0,1,.84.31,1.18,1.18,0,0,1,0,1.64,1.16,1.16,0,0,1-.84.31H334.65V41.52a1.13,1.13,0,0,1-1.17,1.17,1.2,1.2,0,0,1-.88-.33,1.14,1.14,0,0,1-.33-.84v-25a1.13,1.13,0,0,1,1.17-1.17h14.2A1.13,1.13,0,0,1,348.47,15.72Z" fill="#404041"/><path d="M357.82,42.34a1.19,1.19,0,0,1-2.07-.86V16.6a1.17,1.17,0,0,1,.35-.88,1.25,1.25,0,0,1,.9-.33,1.21,1.21,0,0,1,.86.35,1.19,1.19,0,0,1,.35.86V41.48A1.35,1.35,0,0,1,357.82,42.34Z" fill="#404041"/><path d="M393.85,45.19a1,1,0,0,1,.31.74A2.18,2.18,0,0,1,393,47.6,9.74,9.74,0,0,1,390.17,49a10.75,10.75,0,0,1-3.14.53A12.35,12.35,0,0,1,383.3,49,24.28,24.28,0,0,1,380,47.6a18.14,18.14,0,0,0-2.46-1.13,7.41,7.41,0,0,0-2.38-.35,3.31,3.31,0,0,0-.92.12,7.62,7.62,0,0,0-1,.39A3.53,3.53,0,0,1,372,47a1.08,1.08,0,0,1-.8-.35,1.17,1.17,0,0,1-.33-.82,1,1,0,0,1,.66-1L376.65,43a12.13,12.13,0,0,1-6-2.24,12.87,12.87,0,0,1-4.08-4.93A15.54,15.54,0,0,1,365.11,29a15.47,15.47,0,0,1,1.67-7.25,12.54,12.54,0,0,1,4.65-5,13.6,13.6,0,0,1,13.49,0,12.52,12.52,0,0,1,4.64,5A15.35,15.35,0,0,1,391.24,29,15.6,15.6,0,0,1,390,35.4a12.93,12.93,0,0,1-3.53,4.79,12,12,0,0,1-5.26,2.58l-4.1,1.36a7.51,7.51,0,0,1,2.05.49c.61.25,1.38.59,2.32,1a18.83,18.83,0,0,0,2.85,1.23,8.72,8.72,0,0,0,2.8.41,6.53,6.53,0,0,0,2.29-.35,10.17,10.17,0,0,0,1.85-.9,3.51,3.51,0,0,0,.74-.58,4.21,4.21,0,0,1,.56-.41,1.11,1.11,0,0,1,.57-.18A1,1,0,0,1,393.85,45.19ZM369,35.1a10.08,10.08,0,0,0,3.74,4.16,10.89,10.89,0,0,0,11,0,10.1,10.1,0,0,0,3.75-4.16A13.37,13.37,0,0,0,388.74,29,13.37,13.37,0,0,0,387.4,23,10.28,10.28,0,0,0,369,23,13.24,13.24,0,0,0,367.6,29,13.24,13.24,0,0,0,369,35.1Z" fill="#404041"/><path d="M418.67,15.72a1.11,1.11,0,0,1,.34.84V32.71a10.3,10.3,0,0,1-1.37,5.22,10.21,10.21,0,0,1-17.74,0,10.3,10.3,0,0,1-1.37-5.22V16.56a1.14,1.14,0,0,1,.33-.84,1.25,1.25,0,0,1,.92-.33,1.17,1.17,0,0,1,.82.33,1.12,1.12,0,0,1,.35.84V32.71a8,8,0,0,0,3.92,6.92,7.6,7.6,0,0,0,3.92,1.07,7.69,7.69,0,0,0,4-1.07,8,8,0,0,0,2.88-2.91,7.75,7.75,0,0,0,1.07-4V16.56a1.17,1.17,0,0,1,.32-.84,1.06,1.06,0,0,1,.82-.33A1.13,1.13,0,0,1,418.67,15.72Z" fill="#404041"/><path d="M444.06,40.74a1.17,1.17,0,0,1,.34.82,1.08,1.08,0,0,1-.34.82,1.16,1.16,0,0,1-.83.31H428.91a1.13,1.13,0,0,1-1.17-1.17v-25a1.13,1.13,0,0,1,1.17-1.17h14.32a1.13,1.13,0,0,1,.83.33,1.15,1.15,0,0,1,.34.84,1.08,1.08,0,0,1-.34.82,1.16,1.16,0,0,1-.83.31h-13v9.79h11.27a1.13,1.13,0,0,1,1.17,1.17,1.08,1.08,0,0,1-.33.82,1.16,1.16,0,0,1-.84.31H430.2V40.39h13A1.11,1.11,0,0,1,444.06,40.74Z" fill="#404041"/><path d="M109.78,64.05a3.82,3.82,0,0,1-1.37-.79.93.93,0,0,1-.35-.69.74.74,0,0,1,.22-.52.74.74,0,0,1,1-.08,3.63,3.63,0,0,0,1,.63,3.19,3.19,0,0,0,1.17.19,2.41,2.41,0,0,0,1.26-.32,1,1,0,0,0,.52-.81,1,1,0,0,0-.52-.91,4.13,4.13,0,0,0-1.65-.5c-1.9-.28-2.85-1.17-2.85-2.66a2.43,2.43,0,0,1,.43-1.42,2.76,2.76,0,0,1,1.17-.92,4,4,0,0,1,1.65-.32,4.82,4.82,0,0,1,1.54.24,3.76,3.76,0,0,1,1.21.66.85.85,0,0,1,.38.68.74.74,0,0,1-.23.53.7.7,0,0,1-.52.23.57.57,0,0,1-.35-.12,3.39,3.39,0,0,0-.94-.5,3.14,3.14,0,0,0-1.09-.23,2.25,2.25,0,0,0-1.26.31,1,1,0,0,0,0,1.64,4.37,4.37,0,0,0,1.45.47,7.71,7.71,0,0,1,1.79.5,2.4,2.4,0,0,1,1,.83,2.61,2.61,0,0,1,.33,1.4,2.32,2.32,0,0,1-.46,1.44,3,3,0,0,1-1.23,1,4.12,4.12,0,0,1-1.65.33A5.28,5.28,0,0,1,109.78,64.05Z" fill="#808081"/><path d="M122.52,56.31l-2.72,3.88v3.18a.76.76,0,0,1-.22.56.74.74,0,0,1-.53.23.79.79,0,0,1-.56-.23.76.76,0,0,1-.22-.56V60l-2.71-3.59a1.06,1.06,0,0,1-.23-.61.73.73,0,0,1,.26-.56.84.84,0,0,1,.57-.23.8.8,0,0,1,.64.36l2.28,3.16,2.15-3.13a.75.75,0,0,1,1.2-.16.82.82,0,0,1,.23.58A.92.92,0,0,1,122.52,56.31Z" fill="#808081"/><path d="M124.77,64.05a3.82,3.82,0,0,1-1.37-.79.93.93,0,0,1-.35-.69.75.75,0,0,1,1.2-.6,3.63,3.63,0,0,0,1,.63,3.19,3.19,0,0,0,1.17.19,2.43,2.43,0,0,0,1.26-.32,1,1,0,0,0,.52-.81,1,1,0,0,0-.52-.91,4.18,4.18,0,0,0-1.65-.5c-1.9-.28-2.85-1.17-2.85-2.66a2.43,2.43,0,0,1,.43-1.42,2.76,2.76,0,0,1,1.17-.92,4,4,0,0,1,1.65-.32,4.82,4.82,0,0,1,1.54.24,3.76,3.76,0,0,1,1.21.66.83.83,0,0,1,.37.68.73.73,0,0,1-.22.53.7.7,0,0,1-.52.23.57.57,0,0,1-.35-.12,3.39,3.39,0,0,0-.94-.5,3.18,3.18,0,0,0-1.09-.23,2.25,2.25,0,0,0-1.26.31,1,1,0,0,0,0,1.64,4.37,4.37,0,0,0,1.45.47,7.86,7.86,0,0,1,1.79.5,2.31,2.31,0,0,1,1,.83,2.52,2.52,0,0,1,.34,1.4,2.32,2.32,0,0,1-.46,1.44,3,3,0,0,1-1.23,1,4.12,4.12,0,0,1-1.65.33A5.28,5.28,0,0,1,124.77,64.05Z" fill="#808081"/><path d="M137.82,55.27a.7.7,0,0,1,.22.54.67.67,0,0,1-.22.54.8.8,0,0,1-.57.2h-2v6.82a.75.75,0,0,1-.25.56.89.89,0,0,1-.61.23.85.85,0,0,1-.6-.23.73.73,0,0,1-.23-.56V56.55h-2.05a.8.8,0,0,1-.57-.21.72.72,0,0,1-.22-.54.69.69,0,0,1,.23-.53.79.79,0,0,1,.56-.21h5.78A.8.8,0,0,1,137.82,55.27Z" fill="#808081"/><path d="M145.12,62.89a.74.74,0,0,1,.23.53.7.7,0,0,1-.23.53.8.8,0,0,1-.57.21H140.2a.79.79,0,0,1-.8-.79V55.85a.77.77,0,0,1,.23-.56.74.74,0,0,1,.57-.23h4.35a.8.8,0,0,1,.57.21.75.75,0,0,1,.23.56.67.67,0,0,1-.23.52.76.76,0,0,1-.57.2H141v2.21H144a.76.76,0,0,1,.56.22.72.72,0,0,1,.23.55.68.68,0,0,1-.22.53.84.84,0,0,1-.57.2H141v2.4h3.52A.78.78,0,0,1,145.12,62.89Zm-3-8.46-1.3-.68a1.25,1.25,0,0,1-.36-.32.65.65,0,0,1-.12-.37.55.55,0,0,1,.22-.46.75.75,0,0,1,.47-.18,1,1,0,0,1,.64.28l1.12,1a.5.5,0,0,1,.18.35.42.42,0,0,1-.15.34.57.57,0,0,1-.4.13A.61.61,0,0,1,142.08,54.43Z" fill="#808081"/><path d="M155.3,55.27a.75.75,0,0,1,.24.57v7.53a.77.77,0,0,1-.81.79.84.84,0,0,1-.59-.22.78.78,0,0,1-.23-.57V58.13l-2.14,3.27a1.22,1.22,0,0,1-.3.26.62.62,0,0,1-.35.08.59.59,0,0,1-.34-.08,1.22,1.22,0,0,1-.3-.26L148.33,58v5.36a.8.8,0,0,1-.2.57.75.75,0,0,1-.55.22.69.69,0,0,1-.53-.23.79.79,0,0,1-.21-.56V55.84a.76.76,0,0,1,.24-.56.78.78,0,0,1,.58-.24.94.94,0,0,1,.39.1.77.77,0,0,1,.3.26l2.83,4.35,2.91-4.35a.87.87,0,0,1,.28-.26.77.77,0,0,1,.93.13Z" fill="#808081"/><path d="M163.2,62.89a.74.74,0,0,1,.23.53.7.7,0,0,1-.23.53.8.8,0,0,1-.57.21h-4.35a.79.79,0,0,1-.57-.23.76.76,0,0,1-.22-.56V55.85a.77.77,0,0,1,.79-.79h4.35a.8.8,0,0,1,.57.21.75.75,0,0,1,.23.56.69.69,0,0,1-.22.52.8.8,0,0,1-.58.2h-3.52v2.21h2.94a.78.78,0,0,1,.57.22.71.71,0,0,1,.22.55.68.68,0,0,1-.22.53.84.84,0,0,1-.57.2h-2.94v2.4h3.52A.78.78,0,0,1,163.2,62.89Z" fill="#808081"/><path d="M169.94,63.93a.83.83,0,0,1-.57.23.78.78,0,0,1-.58-.23.77.77,0,0,1-.23-.56V55.85a.74.74,0,0,1,.24-.56.77.77,0,0,1,.59-.23.73.73,0,0,1,.56.23.74.74,0,0,1,.24.56v7.52A.75.75,0,0,1,169.94,63.93Z" fill="#808081"/><path d="M179.55,55.27a.73.73,0,0,1,.19.52v7.58a.73.73,0,0,1-.23.56.77.77,0,0,1-.56.23,1.13,1.13,0,0,1-.36-.06.47.47,0,0,1-.25-.16l-4.77-6.06v5.55a.73.73,0,0,1-.2.52.71.71,0,0,1-.53.21.66.66,0,0,1-.51-.21.73.73,0,0,1-.19-.52V55.85a.77.77,0,0,1,.79-.79.84.84,0,0,1,.38.08.61.61,0,0,1,.28.2l4.74,6V55.79a.69.69,0,0,1,.2-.52.72.72,0,0,1,1,0Z" fill="#808081"/><path d="M188.24,55.27a.7.7,0,0,1,.22.54.67.67,0,0,1-.22.54.76.76,0,0,1-.57.2h-2v6.82a.72.72,0,0,1-.25.56.91.91,0,0,1-1.21,0,.77.77,0,0,1-.23-.56V56.55h-2a.79.79,0,0,1-.57-.21.69.69,0,0,1-.22-.54.68.68,0,0,1,.22-.53.82.82,0,0,1,.57-.21h5.77A.77.77,0,0,1,188.24,55.27Z" fill="#808081"/><path d="M195.54,62.89a.74.74,0,0,1,.23.53.7.7,0,0,1-.23.53.79.79,0,0,1-.56.21h-4.36a.79.79,0,0,1-.79-.79V55.85a.77.77,0,0,1,.23-.56.73.73,0,0,1,.56-.23H195a.79.79,0,0,1,.56.21.75.75,0,0,1,.23.56.66.66,0,0,1-.22.52.8.8,0,0,1-.57.2h-3.53v2.21h2.94A.77.77,0,0,1,195,59a.72.72,0,0,1,.23.55.69.69,0,0,1-.23.53.81.81,0,0,1-.57.2h-2.94v2.4H195A.77.77,0,0,1,195.54,62.89Zm-3.09-8.46a.4.4,0,0,1-.15-.33.47.47,0,0,1,.18-.35l1.12-1a1,1,0,0,1,.64-.29.7.7,0,0,1,.46.18.58.58,0,0,1,.23.46.7.7,0,0,1-.13.38.85.85,0,0,1-.36.31l-1.3.69a.54.54,0,0,1-.29.07A.57.57,0,0,1,192.45,54.43Z" fill="#808081"/><path d="M204.53,59.47a.77.77,0,0,1,.22.57v2.75a.79.79,0,0,1-.4.71,5.26,5.26,0,0,1-2.8.79,4.75,4.75,0,0,1-4.1-2.34,4.43,4.43,0,0,1-.64-2.34,4.49,4.49,0,0,1,.64-2.35,4.7,4.7,0,0,1,1.73-1.7,4.65,4.65,0,0,1,2.37-.63,4.55,4.55,0,0,1,2.24.52.69.69,0,0,1,.29.27.65.65,0,0,1,.1.36.84.84,0,0,1-.21.57.69.69,0,0,1-.53.24,1.06,1.06,0,0,1-.43-.1,3.67,3.67,0,0,0-1.46-.3,2.94,2.94,0,0,0-1.53.42,3,3,0,0,0-1.11,1.14,3.17,3.17,0,0,0,0,3.12A3.19,3.19,0,0,0,200,62.31a2.94,2.94,0,0,0,1.53.42,4.26,4.26,0,0,0,.78-.07,3.94,3.94,0,0,0,.73-.17V60.8h-1.22a.76.76,0,0,1-.56-.22.7.7,0,0,1-.23-.56.73.73,0,0,1,.23-.56.8.8,0,0,1,.56-.22H204A.75.75,0,0,1,204.53,59.47Z" fill="#808081"/><path d="M213.72,63.16a.73.73,0,0,1,.09.35.7.7,0,0,1-.15.43.75.75,0,0,1-.6.23,1.2,1.2,0,0,1-.57-.14,2.28,2.28,0,0,1-.94-2.17.94.94,0,0,0-.3-.74,1.26,1.26,0,0,0-.88-.28h-2.43v2.53a.89.89,0,0,1-.19.57.65.65,0,0,1-.5.22,1,1,0,0,1-.66-.23.72.72,0,0,1-.28-.56V55.85a.77.77,0,0,1,.23-.56.74.74,0,0,1,.57-.23h3.74a2.4,2.4,0,0,1,1.27.36,2.71,2.71,0,0,1,1,1,2.87,2.87,0,0,1,.36,1.43,2.56,2.56,0,0,1-.35,1.27,2.86,2.86,0,0,1-.91,1,2,2,0,0,1,.89,1.54,1.87,1.87,0,0,1,0,.4,4,4,0,0,0,.11.58.42.42,0,0,0,.23.26A.81.81,0,0,1,213.72,63.16Zm-2.48-3.88a1.48,1.48,0,0,0,.36-.59,2.11,2.11,0,0,0,.15-.8,1.53,1.53,0,0,0-.15-.67,1.27,1.27,0,0,0-.36-.48.69.69,0,0,0-.46-.19h-2.84v3h2.84A.64.64,0,0,0,211.24,59.28Z" fill="#808081"/><path d="M221,62.89a.73.73,0,0,1,.22.53A.69.69,0,0,1,221,64a.8.8,0,0,1-.57.21H216a.79.79,0,0,1-.8-.79V55.85a.77.77,0,0,1,.23-.56.74.74,0,0,1,.57-.23h4.35a.8.8,0,0,1,.57.21.75.75,0,0,1,.22.56.66.66,0,0,1-.22.52.76.76,0,0,1-.57.2h-3.52v2.21h2.94a.76.76,0,0,1,.56.22.72.72,0,0,1,.23.55.68.68,0,0,1-.22.53.84.84,0,0,1-.57.2h-2.94v2.4h3.52A.78.78,0,0,1,221,62.89Zm-3.1-8.46a.4.4,0,0,1-.15-.33.45.45,0,0,1,.19-.35l1.11-1a1,1,0,0,1,.64-.29.73.73,0,0,1,.47.18.57.57,0,0,1,.22.46.68.68,0,0,1-.12.38,1,1,0,0,1-.36.31l-1.3.69a.6.6,0,0,1-.3.07A.57.57,0,0,1,217.86,54.43Z" fill="#808081"/><path d="M232.32,55.66a3.94,3.94,0,0,1,1.34,1.64,6,6,0,0,1,0,4.62,3.91,3.91,0,0,1-1.34,1.63,3.58,3.58,0,0,1-2.1.61h-3.11a.77.77,0,0,1-.56-.23.73.73,0,0,1-.23-.56V55.85a.79.79,0,0,1,.79-.79h3.11A3.65,3.65,0,0,1,232.32,55.66Zm-.48,6.14a3.84,3.84,0,0,0,.59-2.19,3.8,3.8,0,0,0-.59-2.19,2,2,0,0,0-1.75-.87h-2.15v6.11h2.15A2,2,0,0,0,231.84,61.8Z" fill="#808081"/><path d="M237.24,57.12a2.9,2.9,0,0,1-.57.8,1.09,1.09,0,0,1-.73.34.81.81,0,0,1-.46-.13.45.45,0,0,1-.17-.39.38.38,0,0,1,.11-.3.84.84,0,0,1,.23-.12l.17-.07a.59.59,0,0,0,.37-.51.34.34,0,0,0-.14-.26.57.57,0,0,0-.36-.11.64.64,0,0,0-.36.09.5.5,0,0,1-.24-.17A.46.46,0,0,1,235,56a.77.77,0,0,1,.2-.49,1.44,1.44,0,0,1,.48-.36,1.32,1.32,0,0,1,.56-.14,1.12,1.12,0,0,1,.89.36,1.46,1.46,0,0,1,.33,1A1.75,1.75,0,0,1,237.24,57.12Z" fill="#808081"/><path d="M247,62a4.36,4.36,0,0,1-1.58,1.69,4.4,4.4,0,0,1-4.54,0A4.33,4.33,0,0,1,239.3,62a5.17,5.17,0,0,1,0-4.72,4.36,4.36,0,0,1,1.57-1.7,4.47,4.47,0,0,1,4.54,0,4.39,4.39,0,0,1,1.58,1.7A5.17,5.17,0,0,1,247,62ZM245.52,58a2.83,2.83,0,0,0-1-1.13,2.5,2.5,0,0,0-1.4-.41,2.43,2.43,0,0,0-1.41.41,2.77,2.77,0,0,0-1,1.12,3.63,3.63,0,0,0-.35,1.59,3.56,3.56,0,0,0,.35,1.58,2.73,2.73,0,0,0,1,1.13,2.51,2.51,0,0,0,1.41.41,2.43,2.43,0,0,0,1.4-.42,2.74,2.74,0,0,0,1-1.12,3.74,3.74,0,0,0,0-3.16Z" fill="#808081"/><path d="M255.64,60a2.27,2.27,0,0,1,.44,1.44,2.45,2.45,0,0,1-.89,2.16,3.66,3.66,0,0,1-2.1.61h-3.24a.79.79,0,0,1-.57-.23.76.76,0,0,1-.22-.56V55.85a.77.77,0,0,1,.79-.79h3.27c1.65,0,2.47.77,2.47,2.31a2,2,0,0,1-.27,1,2,2,0,0,1-.8.7A2.62,2.62,0,0,1,255.64,60Zm-2-3.09a1,1,0,0,0-.75-.27h-2.14v2h2.18a1,1,0,0,0,.68-.26.88.88,0,0,0,.3-.7A1.07,1.07,0,0,0,253.64,56.86Zm.4,5.48a1.25,1.25,0,0,0,.35-1,1.06,1.06,0,0,0-.41-1,1.91,1.91,0,0,0-1-.24h-2.24v2.51h2.34A1.36,1.36,0,0,0,254,62.34Z" fill="#808081"/><path d="M258.83,64.05a3.78,3.78,0,0,1-1.36-.79.9.9,0,0,1-.35-.69.7.7,0,0,1,.22-.52.67.67,0,0,1,.53-.23.71.71,0,0,1,.44.15,3.82,3.82,0,0,0,1,.63,3.15,3.15,0,0,0,1.17.19,2.39,2.39,0,0,0,1.25-.32,1,1,0,0,0,.53-.81,1,1,0,0,0-.52-.91,4.24,4.24,0,0,0-1.65-.5c-1.9-.28-2.85-1.17-2.85-2.66a2.36,2.36,0,0,1,.43-1.42,2.64,2.64,0,0,1,1.17-.92,4,4,0,0,1,1.65-.32,4.87,4.87,0,0,1,1.54.24,3.82,3.82,0,0,1,1.2.66.85.85,0,0,1,.38.68.77.77,0,0,1-.22.53.71.71,0,0,1-.52.23.55.55,0,0,1-.35-.12,3.47,3.47,0,0,0-1-.5,3.13,3.13,0,0,0-1.08-.23,2.27,2.27,0,0,0-1.27.31.92.92,0,0,0-.45.8.94.94,0,0,0,.46.84,4.37,4.37,0,0,0,1.45.47,7.71,7.71,0,0,1,1.79.5,2.34,2.34,0,0,1,1,.83,2.61,2.61,0,0,1,.34,1.4,2.32,2.32,0,0,1-.47,1.44,2.91,2.91,0,0,1-1.22,1,4.19,4.19,0,0,1-1.65.33A5.34,5.34,0,0,1,258.83,64.05Z" fill="#808081"/><path d="M271,62.89a.7.7,0,0,1,.23.53A.67.67,0,0,1,271,64a.79.79,0,0,1-.56.21h-4.36a.79.79,0,0,1-.79-.79V55.85a.77.77,0,0,1,.23-.56.73.73,0,0,1,.56-.23h4.36a.79.79,0,0,1,.56.21.72.72,0,0,1,.23.56.66.66,0,0,1-.22.52.8.8,0,0,1-.57.2H267v2.21h2.93a.77.77,0,0,1,.57.22.76.76,0,0,1,0,1.08.85.85,0,0,1-.58.2H267v2.4h3.52A.77.77,0,0,1,271,62.89Z" fill="#808081"/><path d="M280.17,63.16a.64.64,0,0,1,.1.35.66.66,0,0,1-.16.43.75.75,0,0,1-.6.23,1.26,1.26,0,0,1-.57-.14,2.29,2.29,0,0,1-.93-2.17.94.94,0,0,0-.31-.74,1.24,1.24,0,0,0-.88-.28h-2.43v2.53a.84.84,0,0,1-.19.57.64.64,0,0,1-.5.22,1,1,0,0,1-.65-.23.69.69,0,0,1-.28-.56V55.85a.77.77,0,0,1,.79-.79h3.74a2.46,2.46,0,0,1,1.28.36,2.69,2.69,0,0,1,.95,1,2.87,2.87,0,0,1,.36,1.43,2.56,2.56,0,0,1-.35,1.27,2.77,2.77,0,0,1-.91,1,2,2,0,0,1,.9,1.54,2.85,2.85,0,0,1,0,.4,4.37,4.37,0,0,0,.1.58.42.42,0,0,0,.23.26A.66.66,0,0,1,280.17,63.16Zm-2.48-3.88a1.61,1.61,0,0,0,.37-.59,2.32,2.32,0,0,0,.14-.8,1.67,1.67,0,0,0-.14-.67,1.4,1.4,0,0,0-.37-.48.66.66,0,0,0-.45-.19h-2.85v3h2.85A.62.62,0,0,0,277.69,59.28Z" fill="#808081"/><path d="M288.71,55.25a.71.71,0,0,1,.24.54.77.77,0,0,1-.08.35l-3.21,7.51a.86.86,0,0,1-.32.38.8.8,0,0,1-.44.13.84.84,0,0,1-.41-.14.77.77,0,0,1-.3-.36L281,56.12a.73.73,0,0,1-.06-.32.7.7,0,0,1,.26-.57.83.83,0,0,1,.53-.21.72.72,0,0,1,.42.13.83.83,0,0,1,.3.38L285,61.67l2.39-6.14a.85.85,0,0,1,.3-.37.8.8,0,0,1,.42-.13A.84.84,0,0,1,288.71,55.25Z" fill="#808081"/><path d="M297.08,63.46a.73.73,0,0,1-.23.55.69.69,0,0,1-.5.21.67.67,0,0,1-.43-.14,1,1,0,0,1-.29-.39L295,62.12h-3.88l-.67,1.58a.82.82,0,0,1-.28.39.71.71,0,0,1-.41.13.7.7,0,0,1-.52-.18.71.71,0,0,1-.17-.49.77.77,0,0,1,0-.25l3.23-7.77a.88.88,0,0,1,.32-.41.66.66,0,0,1,.46-.11.76.76,0,0,1,.44.13.78.78,0,0,1,.29.39l3.2,7.61A1,1,0,0,1,297.08,63.46Zm-5.36-2.84h2.6l-1.31-3Z" fill="#808081"/><path d="M304.08,55.27a.7.7,0,0,1,.22.54.67.67,0,0,1-.22.54.78.78,0,0,1-.57.2h-2v6.82a.72.72,0,0,1-.25.56.87.87,0,0,1-.61.23.85.85,0,0,1-.6-.23.77.77,0,0,1-.23-.56V56.55h-2a.77.77,0,0,1-.57-.21.69.69,0,0,1-.22-.54.68.68,0,0,1,.22-.53.8.8,0,0,1,.57-.21h5.77A.79.79,0,0,1,304.08,55.27Z" fill="#808081"/><path d="M307.05,63.93a.85.85,0,0,1-.58.23.78.78,0,0,1-.57-.23.73.73,0,0,1-.23-.56V55.85a.77.77,0,0,1,.23-.56.81.81,0,0,1,.6-.23.75.75,0,0,1,.56.23.73.73,0,0,1,.23.56v7.52A.74.74,0,0,1,307.05,63.93Z" fill="#808081"/><path d="M317,62a4.29,4.29,0,0,1-1.58,1.69,4.39,4.39,0,0,1-4.53,0A4.29,4.29,0,0,1,309.35,62a5.25,5.25,0,0,1,0-4.72,4.31,4.31,0,0,1,1.58-1.7,4.45,4.45,0,0,1,4.53,0,4.31,4.31,0,0,1,1.58,1.7A5.09,5.09,0,0,1,317,62ZM315.57,58a2.81,2.81,0,0,0-1-1.13,2.52,2.52,0,0,0-1.4-.41,2.49,2.49,0,0,0-1.42.41,2.77,2.77,0,0,0-1,1.12,3.63,3.63,0,0,0-.34,1.59,3.55,3.55,0,0,0,.34,1.58,2.73,2.73,0,0,0,1,1.13,2.57,2.57,0,0,0,1.42.41,2.45,2.45,0,0,0,1.4-.42,2.72,2.72,0,0,0,1-1.12,3.65,3.65,0,0,0,0-3.16Z" fill="#808081"/><path d="M326.52,55.27a.73.73,0,0,1,.2.52v7.58a.79.79,0,0,1-.8.79,1,1,0,0,1-.35-.06.51.51,0,0,1-.26-.16l-4.77-6.06v5.55a.73.73,0,0,1-.2.52.71.71,0,0,1-.53.21.64.64,0,0,1-.5-.21.73.73,0,0,1-.2-.52V55.85a.77.77,0,0,1,.23-.56.73.73,0,0,1,.56-.23.91.91,0,0,1,.39.08.67.67,0,0,1,.28.2l4.73,6V55.79a.73.73,0,0,1,.2-.52.68.68,0,0,1,.51-.21A.66.66,0,0,1,326.52,55.27Z" fill="#808081"/><path d="M338.3,55.66a3.8,3.8,0,0,1,1.34,1.64,5.91,5.91,0,0,1,0,4.62,3.77,3.77,0,0,1-1.34,1.63,3.54,3.54,0,0,1-2.1.61h-3.1a.79.79,0,0,1-.8-.79V55.85a.77.77,0,0,1,.23-.56.74.74,0,0,1,.57-.23h3.1A3.61,3.61,0,0,1,338.3,55.66Zm-.47,6.14a3.84,3.84,0,0,0,.58-2.19,3.72,3.72,0,0,0-.59-2.19,2,2,0,0,0-1.74-.87h-2.15v6.11h2.15A2,2,0,0,0,337.83,61.8Z" fill="#808081"/><path d="M347.31,62.89a.74.74,0,0,1,.23.53.7.7,0,0,1-.23.53.79.79,0,0,1-.56.21h-4.36a.79.79,0,0,1-.79-.79V55.85a.77.77,0,0,1,.23-.56.73.73,0,0,1,.56-.23h4.36a.79.79,0,0,1,.56.21.75.75,0,0,1,.23.56.66.66,0,0,1-.22.52.8.8,0,0,1-.57.2h-3.53v2.21h2.94a.77.77,0,0,1,.57.22.76.76,0,0,1,0,1.08.85.85,0,0,1-.58.2h-2.94v2.4h3.53A.77.77,0,0,1,347.31,62.89Z" fill="#808081"/><path d="M350.3,64.05a3.82,3.82,0,0,1-1.37-.79.93.93,0,0,1-.35-.69.77.77,0,0,1,.75-.75.72.72,0,0,1,.45.15,3.63,3.63,0,0,0,1,.63,3.19,3.19,0,0,0,1.17.19,2.37,2.37,0,0,0,1.25-.32.94.94,0,0,0,.53-.81,1,1,0,0,0-.52-.91,4.24,4.24,0,0,0-1.65-.5c-1.9-.28-2.85-1.17-2.85-2.66a2.43,2.43,0,0,1,.43-1.42,2.76,2.76,0,0,1,1.17-.92,4,4,0,0,1,1.65-.32,4.82,4.82,0,0,1,1.54.24,3.87,3.87,0,0,1,1.21.66.83.83,0,0,1,.37.68.73.73,0,0,1-.22.53.71.71,0,0,1-.52.23.57.57,0,0,1-.35-.12,3.39,3.39,0,0,0-.94-.5,3.18,3.18,0,0,0-1.09-.23,2.23,2.23,0,0,0-1.26.31,1,1,0,0,0,0,1.64,4.37,4.37,0,0,0,1.45.47,7.86,7.86,0,0,1,1.79.5,2.31,2.31,0,0,1,1,.83,2.52,2.52,0,0,1,.34,1.4,2.32,2.32,0,0,1-.46,1.44,3,3,0,0,1-1.23,1,4.12,4.12,0,0,1-1.65.33A5.28,5.28,0,0,1,350.3,64.05Z" fill="#808081"/><path d="M116.32,77.57a4.36,4.36,0,0,1-1.58,1.69,4.4,4.4,0,0,1-4.54,0,4.26,4.26,0,0,1-1.57-1.69,5.17,5.17,0,0,1,0-4.72,4.38,4.38,0,0,1,6.11-1.7,4.39,4.39,0,0,1,1.58,1.7,5.17,5.17,0,0,1,0,4.72Zm-1.47-3.94a2.91,2.91,0,0,0-1-1.13,2.5,2.5,0,0,0-1.4-.41,2.43,2.43,0,0,0-1.41.41,2.77,2.77,0,0,0-1,1.12,3.63,3.63,0,0,0-.35,1.59,3.56,3.56,0,0,0,.35,1.58,2.73,2.73,0,0,0,1,1.13,2.51,2.51,0,0,0,1.41.41,2.43,2.43,0,0,0,1.4-.42,2.88,2.88,0,0,0,1-1.12,3.74,3.74,0,0,0,0-3.16Z" fill="#808081"/><path d="M125.16,71.76a.93.93,0,0,1-.2.54.64.64,0,0,1-.53.27.88.88,0,0,1-.44-.12,3.23,3.23,0,0,0-1.38-.3,3.12,3.12,0,0,0-1.59.39,2.58,2.58,0,0,0-1,1.08,3.39,3.39,0,0,0-.36,1.59,3.09,3.09,0,0,0,.82,2.33,3,3,0,0,0,2.17.79A3,3,0,0,0,124,78a1,1,0,0,1,.41-.11.73.73,0,0,1,.58.29.84.84,0,0,1,.19.53.67.67,0,0,1-.4.64,4.77,4.77,0,0,1-2.16.51,5.1,5.1,0,0,1-2.34-.54,4.13,4.13,0,0,1-1.7-1.59,4.83,4.83,0,0,1-.64-2.55,4.7,4.7,0,0,1,.6-2.38,4.41,4.41,0,0,1,1.67-1.65,4.94,4.94,0,0,1,2.41-.59,4.57,4.57,0,0,1,2.14.51A.7.7,0,0,1,125.16,71.76Z" fill="#808081"/><path d="M132.25,78.49a.74.74,0,0,1,.23.53.7.7,0,0,1-.23.53.8.8,0,0,1-.57.21h-4.35a.79.79,0,0,1-.8-.8V71.45a.77.77,0,0,1,.23-.56.74.74,0,0,1,.57-.23h4.35a.8.8,0,0,1,.57.21.75.75,0,0,1,.23.55.7.7,0,0,1-.22.53.8.8,0,0,1-.58.2h-3.52v2.21h2.94a.76.76,0,0,1,.56.22.76.76,0,0,1,0,1.08.84.84,0,0,1-.57.2h-2.94v2.4h3.52A.78.78,0,0,1,132.25,78.49ZM129.16,70a.41.41,0,0,1-.15-.33.5.5,0,0,1,.18-.36l1.12-1a1,1,0,0,1,.63-.29.73.73,0,0,1,.47.18.57.57,0,0,1,.22.46.68.68,0,0,1-.12.38.85.85,0,0,1-.36.31l-1.3.69a.6.6,0,0,1-.3.07A.54.54,0,0,1,129.16,70Z" fill="#808081"/><path d="M141.17,79.06a.74.74,0,0,1-.22.55.7.7,0,0,1-.5.21.67.67,0,0,1-.43-.14,1.05,1.05,0,0,1-.29-.39l-.68-1.57h-3.87l-.68,1.58a.76.76,0,0,1-.28.39.66.66,0,0,1-.4.13.7.7,0,0,1-.52-.18.67.67,0,0,1-.17-.49,1.13,1.13,0,0,1,0-.25l3.24-7.77a.93.93,0,0,1,.31-.41.7.7,0,0,1,.47-.11.75.75,0,0,1,.73.52l3.2,7.61A1,1,0,0,1,141.17,79.06Zm-5.35-2.84h2.6l-1.32-3Z" fill="#808081"/><path d="M149.69,70.87a.71.71,0,0,1,.19.52V79a.77.77,0,0,1-.22.57.79.79,0,0,1-.57.23,1.13,1.13,0,0,1-.36-.06.52.52,0,0,1-.25-.16l-4.77-6.06V79a.73.73,0,0,1-.2.52.71.71,0,0,1-.53.21.66.66,0,0,1-.51-.21.73.73,0,0,1-.19-.52V71.45a.76.76,0,0,1,.22-.56.77.77,0,0,1,.57-.23.84.84,0,0,1,.38.08.61.61,0,0,1,.28.2l4.74,6V71.39a.68.68,0,0,1,.2-.52.72.72,0,0,1,1,0Z" fill="#808081"/><path d="M153.09,79.65a3.78,3.78,0,0,1-1.36-.79.9.9,0,0,1-.35-.69.7.7,0,0,1,.22-.52.72.72,0,0,1,1-.08,3.82,3.82,0,0,0,1,.63,3.19,3.19,0,0,0,1.17.19,2.39,2.39,0,0,0,1.25-.32,1,1,0,0,0,.53-.81,1,1,0,0,0-.52-.91,4.4,4.4,0,0,0-1.65-.51c-1.9-.27-2.85-1.16-2.85-2.65a2.36,2.36,0,0,1,.43-1.42,2.7,2.7,0,0,1,1.17-.92,4,4,0,0,1,1.65-.32,4.82,4.82,0,0,1,1.54.24,4,4,0,0,1,1.2.65.88.88,0,0,1,.38.69.73.73,0,0,1-.22.53.71.71,0,0,1-.52.23.55.55,0,0,1-.35-.12,3.54,3.54,0,0,0-.94-.5,3.23,3.23,0,0,0-1.09-.23,2.19,2.19,0,0,0-1.27.31,1,1,0,0,0,0,1.64,4.29,4.29,0,0,0,1.45.47,7.61,7.61,0,0,1,1.78.5,2.34,2.34,0,0,1,1,.83,2.52,2.52,0,0,1,.34,1.4,2.38,2.38,0,0,1-.46,1.44,3.09,3.09,0,0,1-1.23,1,4.12,4.12,0,0,1-1.65.33A5.34,5.34,0,0,1,153.09,79.65Z" fill="#808081"/><path d="M169.23,71.26a3.81,3.81,0,0,1,1.34,1.64,6,6,0,0,1,0,4.62,3.84,3.84,0,0,1-1.34,1.63,3.54,3.54,0,0,1-2.1.61H164a.79.79,0,0,1-.8-.8V71.45a.77.77,0,0,1,.23-.56.74.74,0,0,1,.57-.23h3.1A3.61,3.61,0,0,1,169.23,71.26Zm-.47,6.14a3.84,3.84,0,0,0,.58-2.19,3.72,3.72,0,0,0-.59-2.19,2,2,0,0,0-1.75-.87h-2.14v6.11H167A2,2,0,0,0,168.76,77.4Z" fill="#808081"/><path d="M179.53,70.87a.77.77,0,0,1,.21.57v4.7a3.93,3.93,0,0,1-.45,1.91,3.27,3.27,0,0,1-1.28,1.3,3.61,3.61,0,0,1-1.87.47,3.67,3.67,0,0,1-1.88-.47,3.27,3.27,0,0,1-1.28-1.3,3.93,3.93,0,0,1-.45-1.91v-4.7a.78.78,0,0,1,.23-.57.85.85,0,0,1,.6-.23.79.79,0,0,1,.78.8v4.7a2.23,2.23,0,0,0,.27,1.11,1.84,1.84,0,0,0,.74.75,1.9,1.9,0,0,0,1,.26,2.15,2.15,0,0,0,1.05-.26,2,2,0,0,0,.78-.75,2.14,2.14,0,0,0,.29-1.11v-4.7a.81.81,0,0,1,.2-.57.66.66,0,0,1,.53-.23A.69.69,0,0,1,179.53,70.87Z" fill="#808081"/><path d="M192.11,71.76a.93.93,0,0,1-.2.54.65.65,0,0,1-.53.27.88.88,0,0,1-.44-.12,3.23,3.23,0,0,0-1.38-.3,3.12,3.12,0,0,0-1.59.39,2.52,2.52,0,0,0-1,1.08,3.39,3.39,0,0,0-.36,1.59,3.09,3.09,0,0,0,.82,2.33,3,3,0,0,0,2.17.79,3,3,0,0,0,1.38-.3,1,1,0,0,1,.41-.11.7.7,0,0,1,.57.29.85.85,0,0,1,.2.53.7.7,0,0,1-.11.38.62.62,0,0,1-.29.26,4.77,4.77,0,0,1-2.16.51,5.1,5.1,0,0,1-2.34-.54,4.22,4.22,0,0,1-1.71-1.59,4.92,4.92,0,0,1-.63-2.55,4.7,4.7,0,0,1,.6-2.38,4.34,4.34,0,0,1,1.67-1.65,4.92,4.92,0,0,1,2.41-.59,4.59,4.59,0,0,1,2.14.51A.7.7,0,0,1,192.11,71.76Z" fill="#808081"/><path d="M200.69,79.06a.75.75,0,0,1-.23.55.69.69,0,0,1-.5.21.67.67,0,0,1-.43-.14,1.05,1.05,0,0,1-.29-.39l-.67-1.57h-3.88L194,79.3a.82.82,0,0,1-.28.39.71.71,0,0,1-.41.13.7.7,0,0,1-.52-.18.71.71,0,0,1-.17-.49.77.77,0,0,1,0-.25l3.23-7.77a.88.88,0,0,1,.32-.41.68.68,0,0,1,.46-.11.76.76,0,0,1,.44.13.78.78,0,0,1,.29.39l3.2,7.61A1,1,0,0,1,200.69,79.06Zm-5.36-2.84h2.6l-1.31-3Z" fill="#808081"/><path d="M209.2,70.87a.72.72,0,0,1,.2.52V79a.79.79,0,0,1-.8.8,1.13,1.13,0,0,1-.36-.06.52.52,0,0,1-.25-.16l-4.77-6.06V79a.73.73,0,0,1-.2.52.71.71,0,0,1-.53.21.64.64,0,0,1-.5-.21.73.73,0,0,1-.2-.52V71.45a.77.77,0,0,1,.23-.56.73.73,0,0,1,.56-.23.91.91,0,0,1,.39.08.67.67,0,0,1,.28.2L208,77V71.39a.72.72,0,0,1,.2-.52.68.68,0,0,1,.51-.21A.66.66,0,0,1,209.2,70.87Z" fill="#808081"/><path d="M218.55,79.06a.78.78,0,0,1-.22.55.73.73,0,0,1-.51.21.63.63,0,0,1-.42-.14,1,1,0,0,1-.3-.39l-.67-1.57h-3.88l-.67,1.58a.82.82,0,0,1-.28.39.69.69,0,0,1-.41.13.66.66,0,0,1-.51-.18.67.67,0,0,1-.18-.49.77.77,0,0,1,0-.25l3.24-7.77a.86.86,0,0,1,.31-.41.69.69,0,0,1,.47-.11.75.75,0,0,1,.43.13.72.72,0,0,1,.29.39l3.2,7.61A.81.81,0,0,1,218.55,79.06Zm-5.36-2.84h2.6l-1.31-3Z" fill="#808081"/><path d="M225.65,71.26A3.81,3.81,0,0,1,227,72.9a6,6,0,0,1,0,4.62,3.84,3.84,0,0,1-1.34,1.63,3.54,3.54,0,0,1-2.1.61h-3.11a.79.79,0,0,1-.79-.8V71.45a.77.77,0,0,1,.23-.56.73.73,0,0,1,.56-.23h3.11A3.61,3.61,0,0,1,225.65,71.26Zm-.47,6.14a3.84,3.84,0,0,0,.58-2.19,3.8,3.8,0,0,0-.59-2.19,2,2,0,0,0-1.75-.87h-2.14v6.11h2.14A2,2,0,0,0,225.18,77.4Z" fill="#808081"/><path d="M236.08,79.06a.74.74,0,0,1-.22.55.69.69,0,0,1-.5.21.67.67,0,0,1-.43-.14,1.05,1.05,0,0,1-.29-.39L234,77.72h-3.87l-.68,1.58a.81.81,0,0,1-.27.39.71.71,0,0,1-.41.13.7.7,0,0,1-.52-.18.71.71,0,0,1-.17-.49.77.77,0,0,1,0-.25l3.23-7.77a.93.93,0,0,1,.31-.41.7.7,0,0,1,.47-.11.75.75,0,0,1,.73.52l3.2,7.61A1,1,0,0,1,236.08,79.06Zm-5.35-2.84h2.6l-1.31-3Z" fill="#808081"/></svg>