<?xml version="1.0" encoding="utf-8"?>
<!-- Generator: Adobe Illustrator 16.0.0, SVG Export Plug-In . SVG Version: 6.00 Build 0)  -->
<!DOCTYPE svg PUBLIC "-//W3C//DTD SVG 1.1//EN" "http://www.w3.org/Graphics/SVG/1.1/DTD/svg11.dtd">
<svg version="1.1" id="Layer_1" xmlns="http://www.w3.org/2000/svg" xmlns:xlink="http://www.w3.org/1999/xlink" x="0px" y="0px"
	 width="393.664px" height="24.303px" viewBox="0 0 393.664 24.303" enable-background="new 0 0 393.664 24.303"
	 xml:space="preserve">
<g>
	<g>
		<rect fill="#E73137" width="10.223" height="20.818"/>
	</g>
	<g>
		<rect x="32.899" fill="#E73137" width="10.223" height="20.818"/>
	</g>
	<g>
		<path fill="#E73137" d="M20.143,4.328l1.461-2.973l1.45,2.863c0.181,0.303,0.326,0.278,0.616,0.133l1.245-0.616l-0.81,3.999
			c-0.169,0.785,0.278,1.016,0.761,0.482l1.776-1.896l0.47,1.075c0.158,0.326,0.399,0.277,0.713,0.217l1.836-0.387l-0.616,2.32
			l-0.013,0.048c-0.072,0.303-0.217,0.556,0.122,0.701l0.652,0.326l-3.782,3.203c-0.386,0.396-0.253,0.52-0.108,0.967l0.35,1.073
			l-3.527-0.641c-0.435-0.109-0.737-0.109-0.749,0.241l0.145,4.047h-1.062l0.146-4.034c0-0.397-0.303-0.388-1.016-0.241
			l-3.262,0.628l0.423-1.073c0.144-0.412,0.181-0.689-0.146-0.967l-3.866-3.155l0.713-0.435c0.206-0.157,0.217-0.326,0.109-0.677
			l-0.725-2.355l1.861,0.398c0.519,0.121,0.664,0,0.796-0.29l0.52-1.063l1.836,2.079c0.327,0.386,0.786,0.132,0.641-0.424
			l-0.882-4.337l1.365,0.785c0.217,0.133,0.447,0.17,0.58-0.084"/>
	</g>
</g>
<g>
	<path d="M60.185,1.544h6.246v1.055h-5.109v2.613h4.723v0.996h-4.723v2.918h5.197v1.025h-6.334V1.544z"/>
	<path d="M68.249,3.876h1.002v0.891c0.297-0.367,0.611-0.631,0.943-0.791s0.701-0.24,1.107-0.24c0.891,0,1.492,0.311,1.805,0.932
		c0.172,0.34,0.258,0.826,0.258,1.459v4.025h-1.072V6.196c0-0.383-0.057-0.691-0.17-0.926c-0.188-0.391-0.527-0.586-1.02-0.586
		c-0.25,0-0.455,0.025-0.615,0.076c-0.289,0.086-0.543,0.258-0.762,0.516c-0.176,0.207-0.29,0.421-0.343,0.642
		s-0.079,0.536-0.079,0.946v3.287h-1.055V3.876z"/>
	<path d="M75.753,3.876l1.676,5.109l1.746-5.109h1.154l-2.362,6.275h-1.124l-2.314-6.275H75.753z"/>
	<path d="M81.547,1.544h1.072v1.195h-1.072V1.544z M81.547,3.905h1.072v6.246h-1.072V3.905z"/>
	<path d="M84.554,3.876h1.002V4.96c0.082-0.211,0.283-0.468,0.604-0.771s0.689-0.454,1.107-0.454c0.02,0,0.053,0.002,0.1,0.006
		s0.127,0.012,0.24,0.023v1.113c-0.062-0.012-0.12-0.02-0.173-0.023s-0.11-0.006-0.173-0.006c-0.531,0-0.939,0.171-1.225,0.513
		s-0.428,0.735-0.428,1.181v3.609h-1.055V3.876z"/>
	<path d="M93.38,4.502c0.555,0.539,0.832,1.331,0.832,2.377c0,1.011-0.245,1.847-0.733,2.506c-0.488,0.659-1.247,0.989-2.274,0.989
		c-0.857,0-1.538-0.292-2.042-0.875c-0.504-0.584-0.756-1.367-0.756-2.351c0-1.054,0.266-1.893,0.797-2.518
		c0.532-0.624,1.245-0.937,2.141-0.937C92.146,3.694,92.825,3.964,93.38,4.502z M92.725,8.673c0.257-0.528,0.385-1.117,0.385-1.765
		c0-0.585-0.093-1.061-0.278-1.428c-0.293-0.577-0.799-0.866-1.518-0.866c-0.638,0-1.101,0.246-1.391,0.737
		c-0.29,0.492-0.435,1.085-0.435,1.779c0,0.667,0.145,1.223,0.435,1.668c0.29,0.444,0.749,0.667,1.379,0.667
		C91.994,9.466,92.468,9.201,92.725,8.673z"/>
	<path d="M95.819,3.876h1.002v0.891c0.297-0.367,0.611-0.631,0.943-0.791s0.701-0.24,1.107-0.24c0.891,0,1.492,0.311,1.805,0.932
		c0.172,0.34,0.258,0.826,0.258,1.459v4.025h-1.072V6.196c0-0.383-0.057-0.691-0.17-0.926c-0.188-0.391-0.527-0.586-1.02-0.586
		c-0.25,0-0.455,0.025-0.615,0.076c-0.289,0.086-0.543,0.258-0.762,0.516c-0.176,0.207-0.29,0.421-0.343,0.642
		s-0.079,0.536-0.079,0.946v3.287h-1.055V3.876z"/>
	<path d="M102.805,3.876h1.002v0.891c0.297-0.367,0.611-0.631,0.943-0.791s0.701-0.24,1.107-0.24c0.891,0,1.492,0.311,1.805,0.932
		c0.172,0.34,0.258,0.826,0.258,1.459v4.025h-1.072V6.196c0-0.383-0.057-0.691-0.17-0.926c-0.188-0.391-0.527-0.586-1.02-0.586
		c-0.25,0-0.455,0.025-0.615,0.076c-0.289,0.086-0.543,0.258-0.762,0.516c-0.176,0.207-0.29,0.421-0.343,0.642
		s-0.079,0.536-0.079,0.946v3.287h-1.055V3.876z"/>
	<path d="M113.667,4.049c0.416,0.209,0.732,0.479,0.949,0.812c0.21,0.316,0.35,0.686,0.419,1.107
		c0.062,0.289,0.093,0.75,0.093,1.383h-4.564c0.02,0.639,0.168,1.15,0.448,1.536c0.279,0.386,0.711,0.579,1.296,0.579
		c0.546,0,0.982-0.183,1.308-0.548c0.182-0.211,0.311-0.457,0.387-0.735h1.037c-0.027,0.23-0.118,0.487-0.272,0.771
		s-0.327,0.515-0.517,0.694c-0.318,0.312-0.711,0.523-1.18,0.633c-0.252,0.062-0.537,0.094-0.855,0.094
		c-0.776,0-1.434-0.284-1.974-0.853c-0.54-0.568-0.81-1.364-0.81-2.388c0-1.008,0.271-1.826,0.815-2.455
		c0.543-0.629,1.254-0.943,2.131-0.943C112.822,3.735,113.251,3.84,113.667,4.049z M114.044,6.513
		c-0.042-0.457-0.142-0.822-0.296-1.096c-0.287-0.508-0.765-0.762-1.435-0.762c-0.48,0-0.883,0.175-1.208,0.524
		s-0.498,0.794-0.517,1.333H114.044z"/>
	<path d="M116.776,3.876h1.043v0.891c0.25-0.309,0.477-0.533,0.68-0.674c0.348-0.238,0.742-0.357,1.184-0.357
		c0.5,0,0.902,0.123,1.207,0.369c0.172,0.141,0.328,0.348,0.469,0.621c0.234-0.336,0.51-0.585,0.826-0.747s0.672-0.243,1.066-0.243
		c0.844,0,1.418,0.305,1.723,0.914c0.164,0.328,0.246,0.77,0.246,1.324v4.178h-1.096V5.792c0-0.418-0.104-0.705-0.313-0.861
		s-0.464-0.234-0.765-0.234c-0.414,0-0.771,0.139-1.069,0.416s-0.448,0.74-0.448,1.389v3.65h-1.072V6.056
		c0-0.426-0.051-0.736-0.152-0.932c-0.16-0.293-0.459-0.439-0.896-0.439c-0.398,0-0.761,0.154-1.087,0.463s-0.489,0.867-0.489,1.676
		v3.328h-1.055V3.876z"/>
	<path d="M130.96,4.049c0.416,0.209,0.732,0.479,0.949,0.812c0.21,0.316,0.35,0.686,0.419,1.107c0.062,0.289,0.093,0.75,0.093,1.383
		h-4.564c0.02,0.639,0.168,1.15,0.448,1.536c0.279,0.386,0.711,0.579,1.296,0.579c0.546,0,0.982-0.183,1.308-0.548
		c0.182-0.211,0.311-0.457,0.387-0.735h1.037c-0.027,0.23-0.118,0.487-0.272,0.771s-0.327,0.515-0.517,0.694
		c-0.318,0.312-0.711,0.523-1.18,0.633c-0.252,0.062-0.537,0.094-0.855,0.094c-0.776,0-1.434-0.284-1.974-0.853
		c-0.54-0.568-0.81-1.364-0.81-2.388c0-1.008,0.271-1.826,0.815-2.455c0.543-0.629,1.254-0.943,2.131-0.943
		C130.116,3.735,130.545,3.84,130.96,4.049z M131.338,6.513c-0.042-0.457-0.142-0.822-0.296-1.096
		c-0.287-0.508-0.765-0.762-1.435-0.762c-0.48,0-0.883,0.175-1.208,0.524s-0.498,0.794-0.517,1.333H131.338z"/>
	<path d="M134.07,3.876h1.002v0.891c0.297-0.367,0.611-0.631,0.943-0.791s0.701-0.24,1.107-0.24c0.891,0,1.492,0.311,1.805,0.932
		c0.172,0.34,0.258,0.826,0.258,1.459v4.025h-1.072V6.196c0-0.383-0.057-0.691-0.17-0.926c-0.188-0.391-0.527-0.586-1.02-0.586
		c-0.25,0-0.455,0.025-0.615,0.076c-0.289,0.086-0.543,0.258-0.762,0.516c-0.176,0.207-0.29,0.421-0.343,0.642
		s-0.079,0.536-0.079,0.946v3.287h-1.055V3.876z"/>
	<path d="M141.267,2.124h1.066v1.752h1.002v0.861h-1.002v4.096c0,0.219,0.074,0.365,0.223,0.439c0.082,0.043,0.219,0.064,0.41,0.064
		c0.051,0,0.105-0.001,0.164-0.004s0.127-0.009,0.205-0.02v0.838c-0.121,0.035-0.247,0.061-0.378,0.076s-0.272,0.023-0.425,0.023
		c-0.492,0-0.826-0.126-1.002-0.378s-0.264-0.579-0.264-0.981V4.737h-0.85V3.876h0.85V2.124z"/>
	<path d="M152.224,4.049c0.416,0.209,0.732,0.479,0.949,0.812c0.21,0.316,0.35,0.686,0.419,1.107
		c0.062,0.289,0.093,0.75,0.093,1.383h-4.564c0.02,0.639,0.168,1.15,0.448,1.536c0.279,0.386,0.711,0.579,1.296,0.579
		c0.546,0,0.982-0.183,1.308-0.548c0.182-0.211,0.311-0.457,0.387-0.735h1.037c-0.027,0.23-0.118,0.487-0.272,0.771
		s-0.327,0.515-0.517,0.694c-0.318,0.312-0.711,0.523-1.18,0.633c-0.252,0.062-0.537,0.094-0.855,0.094
		c-0.776,0-1.434-0.284-1.974-0.853c-0.54-0.568-0.81-1.364-0.81-2.388c0-1.008,0.271-1.826,0.815-2.455
		c0.543-0.629,1.254-0.943,2.131-0.943C151.38,3.735,151.809,3.84,152.224,4.049z M152.602,6.513
		c-0.042-0.457-0.142-0.822-0.296-1.096c-0.287-0.508-0.765-0.762-1.435-0.762c-0.48,0-0.883,0.175-1.208,0.524
		s-0.498,0.794-0.517,1.333H152.602z"/>
	<path d="M155.545,2.124h1.066v1.752h1.002v0.861h-1.002v4.096c0,0.219,0.074,0.365,0.223,0.439c0.082,0.043,0.219,0.064,0.41,0.064
		c0.051,0,0.105-0.001,0.164-0.004s0.127-0.009,0.205-0.02v0.838c-0.121,0.035-0.247,0.061-0.378,0.076s-0.272,0.023-0.425,0.023
		c-0.492,0-0.826-0.126-1.002-0.378s-0.264-0.579-0.264-0.981V4.737h-0.85V3.876h0.85V2.124z"/>
	<path d="M66.162,13.17c0.594,0.574,0.925,1.227,0.99,1.957h-1.137c-0.126-0.555-0.379-0.994-0.757-1.318s-0.908-0.486-1.591-0.486
		c-0.833,0-1.505,0.299-2.017,0.895s-0.768,1.51-0.768,2.742c0,1.008,0.231,1.826,0.693,2.453c0.462,0.629,1.152,0.941,2.069,0.941
		c0.844,0,1.487-0.33,1.928-0.99c0.234-0.348,0.409-0.805,0.524-1.371h1.137c-0.101,0.906-0.433,1.666-0.996,2.279
		c-0.676,0.738-1.587,1.107-2.734,1.107c-0.989,0-1.819-0.303-2.491-0.908c-0.884-0.801-1.326-2.039-1.326-3.711
		c0-1.271,0.332-2.312,0.996-3.125c0.718-0.885,1.708-1.326,2.971-1.326C64.731,12.31,65.567,12.596,66.162,13.17z"/>
	<path d="M68.911,12.514h1.055v3.211c0.25-0.316,0.475-0.539,0.674-0.668c0.34-0.223,0.764-0.334,1.271-0.334
		c0.91,0,1.527,0.318,1.852,0.955c0.176,0.348,0.264,0.83,0.264,1.447v4.025h-1.084v-3.955c0-0.461-0.059-0.799-0.176-1.014
		c-0.191-0.344-0.551-0.516-1.078-0.516c-0.438,0-0.834,0.15-1.189,0.451s-0.533,0.869-0.533,1.705v3.328h-1.055V12.514z"/>
	<path d="M79.26,17.354c0.242-0.031,0.404-0.133,0.486-0.305c0.047-0.094,0.07-0.229,0.07-0.406c0-0.359-0.128-0.621-0.383-0.785
		c-0.255-0.162-0.621-0.244-1.097-0.244c-0.55,0-0.939,0.15-1.169,0.447c-0.129,0.166-0.212,0.41-0.251,0.736h-0.984
		c0.02-0.775,0.27-1.314,0.752-1.619c0.482-0.303,1.041-0.455,1.677-0.455c0.737,0,1.336,0.141,1.797,0.422
		c0.457,0.281,0.685,0.719,0.685,1.312v3.615c0,0.109,0.022,0.197,0.067,0.264s0.14,0.1,0.284,0.1c0.047,0,0.1-0.002,0.158-0.008
		s0.121-0.016,0.188-0.027v0.779c-0.164,0.047-0.289,0.076-0.375,0.088s-0.203,0.018-0.352,0.018c-0.363,0-0.627-0.129-0.791-0.387
		c-0.086-0.137-0.146-0.33-0.182-0.58c-0.215,0.281-0.523,0.525-0.926,0.732s-0.846,0.311-1.33,0.311
		c-0.582,0-1.058-0.176-1.427-0.529s-0.554-0.795-0.554-1.326c0-0.58,0.182-1.031,0.545-1.352c0.363-0.318,0.84-0.516,1.43-0.59
		L79.26,17.354z M77.04,20.204c0.223,0.174,0.486,0.262,0.791,0.262c0.371,0,0.73-0.086,1.078-0.258
		c0.586-0.283,0.879-0.75,0.879-1.396v-0.85c-0.129,0.082-0.294,0.152-0.497,0.207s-0.401,0.094-0.597,0.117l-0.637,0.082
		c-0.382,0.051-0.669,0.131-0.862,0.238c-0.326,0.184-0.489,0.477-0.489,0.877C76.706,19.788,76.817,20.028,77.04,20.204z"/>
	<path d="M82.883,14.875h1.002v0.891c0.297-0.367,0.611-0.631,0.943-0.791s0.701-0.24,1.107-0.24c0.891,0,1.492,0.311,1.805,0.932
		c0.172,0.34,0.258,0.826,0.258,1.459v4.025h-1.072v-3.955c0-0.383-0.057-0.691-0.17-0.926c-0.188-0.391-0.527-0.586-1.02-0.586
		c-0.25,0-0.455,0.025-0.615,0.076c-0.289,0.086-0.543,0.258-0.762,0.516c-0.176,0.207-0.29,0.422-0.343,0.643
		s-0.079,0.535-0.079,0.945v3.287h-1.055V14.875z"/>
	<path d="M93.357,15.127c0.198,0.137,0.401,0.336,0.607,0.598v-0.791h0.973v5.707c0,0.797-0.117,1.426-0.351,1.887
		c-0.436,0.852-1.259,1.277-2.47,1.277c-0.674,0-1.24-0.15-1.7-0.453s-0.716-0.777-0.771-1.422h1.072
		c0.05,0.281,0.151,0.498,0.303,0.65c0.237,0.234,0.61,0.352,1.119,0.352c0.804,0,1.331-0.285,1.579-0.855
		c0.148-0.336,0.216-0.936,0.204-1.799c-0.21,0.32-0.463,0.559-0.759,0.715c-0.295,0.156-0.687,0.234-1.173,0.234
		c-0.677,0-1.27-0.24-1.777-0.723s-0.762-1.281-0.762-2.395c0-1.051,0.256-1.871,0.768-2.461s1.129-0.885,1.853-0.885
		C92.563,14.764,92.992,14.885,93.357,15.127z M93.486,16.258c-0.319-0.375-0.725-0.562-1.218-0.562
		c-0.739,0-1.244,0.348-1.516,1.043c-0.144,0.371-0.216,0.857-0.216,1.459c0,0.707,0.143,1.246,0.429,1.615
		c0.285,0.369,0.669,0.553,1.151,0.553c0.753,0,1.284-0.342,1.591-1.025c0.171-0.387,0.256-0.838,0.256-1.354
		C93.964,17.209,93.805,16.633,93.486,16.258z"/>
	<path d="M100.73,15.049c0.416,0.209,0.732,0.479,0.949,0.811c0.21,0.316,0.35,0.686,0.419,1.107
		c0.062,0.289,0.093,0.75,0.093,1.383h-4.564c0.02,0.639,0.168,1.15,0.448,1.537c0.279,0.385,0.711,0.578,1.296,0.578
		c0.546,0,0.982-0.182,1.308-0.547c0.182-0.211,0.311-0.457,0.387-0.736h1.037c-0.027,0.23-0.118,0.488-0.272,0.771
		s-0.327,0.514-0.517,0.693c-0.318,0.312-0.711,0.523-1.18,0.633c-0.252,0.062-0.537,0.094-0.855,0.094
		c-0.776,0-1.434-0.283-1.974-0.852c-0.54-0.568-0.81-1.365-0.81-2.389c0-1.008,0.271-1.826,0.815-2.455
		c0.543-0.629,1.254-0.943,2.131-0.943C99.886,14.735,100.315,14.84,100.73,15.049z M101.108,17.512
		c-0.042-0.457-0.142-0.822-0.296-1.096c-0.287-0.508-0.765-0.762-1.435-0.762c-0.48,0-0.883,0.176-1.208,0.525
		s-0.498,0.793-0.517,1.332H101.108z"/>
	<path d="M103.84,14.875h1.043v0.891c0.25-0.309,0.477-0.533,0.68-0.674c0.348-0.238,0.742-0.357,1.184-0.357
		c0.5,0,0.902,0.123,1.207,0.369c0.172,0.141,0.328,0.348,0.469,0.621c0.234-0.336,0.51-0.584,0.826-0.746s0.672-0.244,1.066-0.244
		c0.844,0,1.418,0.305,1.723,0.914c0.164,0.328,0.246,0.77,0.246,1.324v4.178h-1.096v-4.359c0-0.418-0.104-0.705-0.313-0.861
		s-0.464-0.234-0.765-0.234c-0.414,0-0.771,0.139-1.069,0.416s-0.448,0.74-0.448,1.389v3.65h-1.072v-4.096
		c0-0.426-0.051-0.736-0.152-0.932c-0.16-0.293-0.459-0.439-0.896-0.439c-0.398,0-0.761,0.154-1.087,0.463s-0.489,0.867-0.489,1.676
		v3.328h-1.055V14.875z"/>
	<path d="M118.024,15.049c0.416,0.209,0.732,0.479,0.949,0.811c0.21,0.316,0.35,0.686,0.419,1.107
		c0.062,0.289,0.093,0.75,0.093,1.383h-4.564c0.02,0.639,0.168,1.15,0.448,1.537c0.279,0.385,0.711,0.578,1.296,0.578
		c0.546,0,0.982-0.182,1.308-0.547c0.182-0.211,0.311-0.457,0.387-0.736h1.037c-0.027,0.23-0.118,0.488-0.272,0.771
		s-0.327,0.514-0.517,0.693c-0.318,0.312-0.711,0.523-1.18,0.633c-0.252,0.062-0.537,0.094-0.855,0.094
		c-0.776,0-1.434-0.283-1.974-0.852c-0.54-0.568-0.81-1.365-0.81-2.389c0-1.008,0.271-1.826,0.815-2.455
		c0.543-0.629,1.254-0.943,2.131-0.943C117.18,14.735,117.609,14.84,118.024,15.049z M118.402,17.512
		c-0.042-0.457-0.142-0.822-0.296-1.096c-0.287-0.508-0.765-0.762-1.435-0.762c-0.48,0-0.883,0.176-1.208,0.525
		s-0.498,0.793-0.517,1.332H118.402z"/>
	<path d="M121.134,14.875h1.002v0.891c0.297-0.367,0.611-0.631,0.943-0.791s0.701-0.24,1.107-0.24c0.891,0,1.492,0.311,1.805,0.932
		c0.172,0.34,0.258,0.826,0.258,1.459v4.025h-1.072v-3.955c0-0.383-0.057-0.691-0.17-0.926c-0.188-0.391-0.527-0.586-1.02-0.586
		c-0.25,0-0.455,0.025-0.615,0.076c-0.289,0.086-0.543,0.258-0.762,0.516c-0.176,0.207-0.29,0.422-0.343,0.643
		s-0.079,0.535-0.079,0.945v3.287h-1.055V14.875z"/>
	<path d="M128.331,13.124h1.066v1.752h1.002v0.861h-1.002v4.096c0,0.219,0.074,0.365,0.223,0.439
		c0.082,0.043,0.219,0.064,0.41,0.064c0.051,0,0.105,0,0.164-0.004c0.059-0.002,0.127-0.008,0.205-0.02v0.838
		c-0.121,0.035-0.247,0.061-0.378,0.076s-0.272,0.023-0.425,0.023c-0.492,0-0.826-0.125-1.002-0.377s-0.264-0.58-0.264-0.982v-4.154
		h-0.85v-0.861h0.85V13.124z"/>
	<path d="M139.558,15.209c0.443,0.344,0.71,0.936,0.8,1.775h-1.025c-0.062-0.387-0.205-0.707-0.428-0.963s-0.58-0.385-1.072-0.385
		c-0.672,0-1.152,0.328-1.441,0.984c-0.188,0.424-0.281,0.949-0.281,1.574c0,0.627,0.133,1.156,0.398,1.586
		c0.266,0.428,0.684,0.643,1.254,0.643c0.438,0,0.784-0.133,1.04-0.398c0.256-0.268,0.433-0.633,0.53-1.096h1.025
		c-0.117,0.832-0.41,1.441-0.879,1.826s-1.068,0.576-1.799,0.576c-0.82,0-1.475-0.299-1.963-0.898s-0.732-1.35-0.732-2.248
		c0-1.102,0.268-1.959,0.803-2.572s1.217-0.92,2.045-0.92C138.539,14.694,139.114,14.866,139.558,15.209z"/>
	<path d="M141.753,12.543h1.055v8.607h-1.055V12.543z"/>
	<path d="M144.702,12.543h1.072v1.195h-1.072V12.543z M144.702,14.905h1.072v6.246h-1.072V14.905z"/>
	<path d="M147.68,14.875h1.043v0.891c0.25-0.309,0.477-0.533,0.68-0.674c0.348-0.238,0.742-0.357,1.184-0.357
		c0.5,0,0.902,0.123,1.207,0.369c0.172,0.141,0.328,0.348,0.469,0.621c0.234-0.336,0.51-0.584,0.826-0.746s0.672-0.244,1.066-0.244
		c0.844,0,1.418,0.305,1.723,0.914c0.164,0.328,0.246,0.77,0.246,1.324v4.178h-1.096v-4.359c0-0.418-0.104-0.705-0.313-0.861
		s-0.464-0.234-0.765-0.234c-0.414,0-0.771,0.139-1.069,0.416s-0.448,0.74-0.448,1.389v3.65h-1.072v-4.096
		c0-0.426-0.051-0.736-0.152-0.932c-0.16-0.293-0.459-0.439-0.896-0.439c-0.398,0-0.761,0.154-1.087,0.463s-0.489,0.867-0.489,1.676
		v3.328h-1.055V14.875z"/>
	<path d="M161.352,17.354c0.242-0.031,0.404-0.133,0.486-0.305c0.047-0.094,0.07-0.229,0.07-0.406c0-0.359-0.128-0.621-0.383-0.785
		c-0.255-0.162-0.621-0.244-1.097-0.244c-0.55,0-0.939,0.15-1.169,0.447c-0.129,0.166-0.212,0.41-0.251,0.736h-0.984
		c0.02-0.775,0.27-1.314,0.752-1.619c0.482-0.303,1.041-0.455,1.677-0.455c0.737,0,1.336,0.141,1.797,0.422
		c0.457,0.281,0.685,0.719,0.685,1.312v3.615c0,0.109,0.022,0.197,0.067,0.264s0.14,0.1,0.284,0.1c0.047,0,0.1-0.002,0.158-0.008
		s0.121-0.016,0.188-0.027v0.779c-0.164,0.047-0.289,0.076-0.375,0.088s-0.203,0.018-0.352,0.018c-0.363,0-0.627-0.129-0.791-0.387
		c-0.086-0.137-0.146-0.33-0.182-0.58c-0.215,0.281-0.523,0.525-0.926,0.732s-0.846,0.311-1.33,0.311
		c-0.582,0-1.058-0.176-1.427-0.529s-0.554-0.795-0.554-1.326c0-0.58,0.182-1.031,0.545-1.352c0.363-0.318,0.84-0.516,1.43-0.59
		L161.352,17.354z M159.131,20.204c0.223,0.174,0.486,0.262,0.791,0.262c0.371,0,0.73-0.086,1.078-0.258
		c0.586-0.283,0.879-0.75,0.879-1.396v-0.85c-0.129,0.082-0.294,0.152-0.497,0.207s-0.401,0.094-0.597,0.117l-0.637,0.082
		c-0.382,0.051-0.669,0.131-0.862,0.238c-0.326,0.184-0.489,0.477-0.489,0.877C158.797,19.788,158.908,20.028,159.131,20.204z"/>
	<path d="M165.185,13.124h1.066v1.752h1.002v0.861h-1.002v4.096c0,0.219,0.074,0.365,0.223,0.439
		c0.082,0.043,0.219,0.064,0.41,0.064c0.051,0,0.105,0,0.164-0.004c0.059-0.002,0.127-0.008,0.205-0.02v0.838
		c-0.121,0.035-0.247,0.061-0.378,0.076s-0.272,0.023-0.425,0.023c-0.492,0-0.826-0.125-1.002-0.377s-0.264-0.58-0.264-0.982v-4.154
		h-0.85v-0.861h0.85V13.124z"/>
	<path d="M168.62,12.543h1.072v1.195h-1.072V12.543z M168.62,14.905h1.072v6.246h-1.072V14.905z"/>
	<path d="M175.138,15.127c0.195,0.141,0.382,0.348,0.562,0.621v-0.873h0.996v8.777h-1.055V20.43
		c-0.176,0.281-0.418,0.506-0.729,0.672s-0.697,0.248-1.162,0.248c-0.667,0-1.264-0.262-1.791-0.785
		c-0.527-0.523-0.79-1.32-0.79-2.391c0-1.004,0.247-1.828,0.74-2.473s1.132-0.967,1.917-0.967
		C174.346,14.735,174.783,14.866,175.138,15.127z M172.5,19.463c0.269,0.652,0.751,0.979,1.445,0.979
		c0.733,0,1.238-0.344,1.515-1.031c0.152-0.379,0.228-0.863,0.228-1.453c0-0.543-0.084-0.996-0.251-1.359
		c-0.285-0.621-0.786-0.932-1.503-0.932c-0.456,0-0.847,0.199-1.173,0.596s-0.488,1.008-0.488,1.836
		C172.272,18.641,172.348,19.096,172.5,19.463z"/>
	<path d="M179.639,14.875v4.166c0,0.32,0.049,0.582,0.148,0.785c0.183,0.375,0.523,0.562,1.021,0.562
		c0.715,0,1.202-0.328,1.461-0.984c0.141-0.352,0.211-0.834,0.211-1.447v-3.082h1.055v6.275h-0.996l0.012-0.926
		c-0.134,0.238-0.301,0.439-0.5,0.604c-0.395,0.328-0.874,0.492-1.437,0.492c-0.878,0-1.476-0.299-1.794-0.896
		c-0.172-0.32-0.259-0.748-0.259-1.283v-4.266H179.639z"/>
	<path d="M189.446,15.049c0.416,0.209,0.732,0.479,0.949,0.811c0.21,0.316,0.35,0.686,0.419,1.107
		c0.062,0.289,0.093,0.75,0.093,1.383h-4.564c0.02,0.639,0.168,1.15,0.448,1.537c0.279,0.385,0.711,0.578,1.296,0.578
		c0.546,0,0.982-0.182,1.308-0.547c0.182-0.211,0.311-0.457,0.387-0.736h1.037c-0.027,0.23-0.118,0.488-0.272,0.771
		s-0.327,0.514-0.517,0.693c-0.318,0.312-0.711,0.523-1.18,0.633c-0.252,0.062-0.537,0.094-0.855,0.094
		c-0.776,0-1.434-0.283-1.974-0.852c-0.54-0.568-0.81-1.365-0.81-2.389c0-1.008,0.271-1.826,0.815-2.455
		c0.543-0.629,1.254-0.943,2.131-0.943C188.602,14.735,189.031,14.84,189.446,15.049z M189.824,17.512
		c-0.042-0.457-0.142-0.822-0.296-1.096c-0.287-0.508-0.765-0.762-1.435-0.762c-0.48,0-0.883,0.176-1.208,0.525
		s-0.498,0.793-0.517,1.332H189.824z"/>
	<path d="M202.43,13.17c0.595,0.574,0.925,1.227,0.99,1.957h-1.137c-0.127-0.555-0.379-0.994-0.757-1.318s-0.908-0.486-1.591-0.486
		c-0.833,0-1.505,0.299-2.017,0.895s-0.768,1.51-0.768,2.742c0,1.008,0.231,1.826,0.693,2.453c0.462,0.629,1.152,0.941,2.069,0.941
		c0.845,0,1.487-0.33,1.929-0.99c0.233-0.348,0.408-0.805,0.523-1.371h1.137c-0.101,0.906-0.433,1.666-0.996,2.279
		c-0.676,0.738-1.587,1.107-2.734,1.107c-0.988,0-1.818-0.303-2.49-0.908c-0.884-0.801-1.326-2.039-1.326-3.711
		c0-1.271,0.332-2.312,0.996-3.125c0.718-0.885,1.708-1.326,2.971-1.326C200.999,12.31,201.835,12.596,202.43,13.17z"/>
	<path d="M208.543,17.354c0.242-0.031,0.404-0.133,0.486-0.305c0.047-0.094,0.07-0.229,0.07-0.406c0-0.359-0.128-0.621-0.383-0.785
		c-0.256-0.162-0.621-0.244-1.097-0.244c-0.55,0-0.939,0.15-1.17,0.447c-0.128,0.166-0.212,0.41-0.251,0.736h-0.984
		c0.02-0.775,0.271-1.314,0.752-1.619c0.481-0.303,1.041-0.455,1.677-0.455c0.737,0,1.336,0.141,1.797,0.422
		c0.456,0.281,0.685,0.719,0.685,1.312v3.615c0,0.109,0.022,0.197,0.067,0.264s0.14,0.1,0.284,0.1c0.047,0,0.1-0.002,0.158-0.008
		s0.121-0.016,0.188-0.027v0.779c-0.164,0.047-0.289,0.076-0.375,0.088s-0.203,0.018-0.352,0.018c-0.363,0-0.627-0.129-0.791-0.387
		c-0.086-0.137-0.146-0.33-0.182-0.58c-0.215,0.281-0.523,0.525-0.926,0.732s-0.846,0.311-1.33,0.311
		c-0.582,0-1.058-0.176-1.427-0.529s-0.554-0.795-0.554-1.326c0-0.58,0.182-1.031,0.545-1.352c0.363-0.318,0.84-0.516,1.43-0.59
		L208.543,17.354z M206.322,20.204c0.223,0.174,0.486,0.262,0.791,0.262c0.371,0,0.73-0.086,1.078-0.258
		c0.586-0.283,0.879-0.75,0.879-1.396v-0.85c-0.129,0.082-0.294,0.152-0.497,0.207s-0.401,0.094-0.597,0.117l-0.637,0.082
		c-0.383,0.051-0.67,0.131-0.862,0.238c-0.326,0.184-0.489,0.477-0.489,0.877C205.988,19.788,206.1,20.028,206.322,20.204z"/>
	<path d="M212.165,14.875h1.002v0.891c0.297-0.367,0.611-0.631,0.943-0.791s0.701-0.24,1.107-0.24c0.891,0,1.492,0.311,1.805,0.932
		c0.172,0.34,0.258,0.826,0.258,1.459v4.025h-1.072v-3.955c0-0.383-0.057-0.691-0.17-0.926c-0.188-0.391-0.527-0.586-1.02-0.586
		c-0.25,0-0.455,0.025-0.615,0.076c-0.289,0.086-0.543,0.258-0.762,0.516c-0.176,0.207-0.29,0.422-0.343,0.643
		s-0.079,0.535-0.079,0.945v3.287h-1.055V14.875z"/>
	<path d="M222.515,17.354c0.242-0.031,0.404-0.133,0.486-0.305c0.047-0.094,0.07-0.229,0.07-0.406c0-0.359-0.128-0.621-0.383-0.785
		c-0.256-0.162-0.621-0.244-1.097-0.244c-0.55,0-0.939,0.15-1.17,0.447c-0.128,0.166-0.212,0.41-0.251,0.736h-0.984
		c0.02-0.775,0.271-1.314,0.752-1.619c0.481-0.303,1.041-0.455,1.677-0.455c0.737,0,1.336,0.141,1.797,0.422
		c0.456,0.281,0.685,0.719,0.685,1.312v3.615c0,0.109,0.022,0.197,0.067,0.264s0.14,0.1,0.284,0.1c0.047,0,0.1-0.002,0.158-0.008
		s0.121-0.016,0.188-0.027v0.779c-0.164,0.047-0.289,0.076-0.375,0.088s-0.203,0.018-0.352,0.018c-0.363,0-0.627-0.129-0.791-0.387
		c-0.086-0.137-0.146-0.33-0.182-0.58c-0.215,0.281-0.523,0.525-0.926,0.732s-0.846,0.311-1.33,0.311
		c-0.582,0-1.058-0.176-1.427-0.529s-0.554-0.795-0.554-1.326c0-0.58,0.182-1.031,0.545-1.352c0.363-0.318,0.84-0.516,1.43-0.59
		L222.515,17.354z M220.294,20.204c0.223,0.174,0.486,0.262,0.791,0.262c0.371,0,0.73-0.086,1.078-0.258
		c0.586-0.283,0.879-0.75,0.879-1.396v-0.85c-0.129,0.082-0.294,0.152-0.497,0.207s-0.401,0.094-0.597,0.117l-0.637,0.082
		c-0.383,0.051-0.67,0.131-0.862,0.238c-0.326,0.184-0.489,0.477-0.489,0.877C219.96,19.788,220.071,20.028,220.294,20.204z"/>
	<path d="M229.585,15.069c0.187,0.117,0.398,0.322,0.636,0.615v-3.17h1.014v8.637h-0.949v-0.873
		c-0.245,0.387-0.535,0.666-0.87,0.838c-0.334,0.172-0.718,0.258-1.149,0.258c-0.696,0-1.3-0.293-1.81-0.881
		s-0.765-1.371-0.765-2.348c0-0.914,0.232-1.705,0.697-2.375s1.13-1.006,1.993-1.006C228.86,14.764,229.262,14.866,229.585,15.069z
		 M227.23,19.774c0.283,0.453,0.738,0.68,1.364,0.68c0.485,0,0.885-0.209,1.197-0.629c0.313-0.42,0.47-1.023,0.47-1.809
		c0-0.793-0.161-1.379-0.483-1.76c-0.323-0.381-0.722-0.572-1.195-0.572c-0.529,0-0.957,0.203-1.286,0.609
		c-0.328,0.406-0.492,1.004-0.492,1.793C226.805,18.758,226.946,19.321,227.23,19.774z"/>
	<path d="M236.486,17.354c0.242-0.031,0.404-0.133,0.486-0.305c0.047-0.094,0.07-0.229,0.07-0.406c0-0.359-0.128-0.621-0.383-0.785
		c-0.256-0.162-0.621-0.244-1.097-0.244c-0.55,0-0.939,0.15-1.17,0.447c-0.128,0.166-0.212,0.41-0.251,0.736h-0.984
		c0.02-0.775,0.271-1.314,0.752-1.619c0.481-0.303,1.041-0.455,1.677-0.455c0.737,0,1.336,0.141,1.797,0.422
		c0.456,0.281,0.685,0.719,0.685,1.312v3.615c0,0.109,0.022,0.197,0.067,0.264s0.14,0.1,0.284,0.1c0.047,0,0.1-0.002,0.158-0.008
		s0.121-0.016,0.188-0.027v0.779c-0.164,0.047-0.289,0.076-0.375,0.088s-0.203,0.018-0.352,0.018c-0.363,0-0.627-0.129-0.791-0.387
		c-0.086-0.137-0.146-0.33-0.182-0.58c-0.215,0.281-0.523,0.525-0.926,0.732s-0.846,0.311-1.33,0.311
		c-0.582,0-1.058-0.176-1.427-0.529s-0.554-0.795-0.554-1.326c0-0.58,0.182-1.031,0.545-1.352c0.363-0.318,0.84-0.516,1.43-0.59
		L236.486,17.354z M234.266,20.204c0.223,0.174,0.486,0.262,0.791,0.262c0.371,0,0.73-0.086,1.078-0.258
		c0.586-0.283,0.879-0.75,0.879-1.396v-0.85c-0.129,0.082-0.294,0.152-0.497,0.207s-0.401,0.094-0.597,0.117l-0.637,0.082
		c-0.383,0.051-0.67,0.131-0.862,0.238c-0.326,0.184-0.489,0.477-0.489,0.877C233.932,19.788,234.043,20.028,234.266,20.204z"/>
</g>
<g>
	<path d="M257.293,2.042h6.246v1.055h-5.109v2.613h4.723v0.996h-4.723v2.918h5.197v1.025h-6.334V2.042z"/>
	<path d="M265.357,4.374h1.002v0.891c0.297-0.367,0.611-0.631,0.943-0.791s0.701-0.24,1.107-0.24c0.891,0,1.492,0.311,1.805,0.932
		c0.172,0.34,0.258,0.826,0.258,1.459v4.025H269.4V6.694c0-0.383-0.057-0.691-0.17-0.926c-0.188-0.391-0.527-0.586-1.02-0.586
		c-0.25,0-0.455,0.025-0.615,0.076c-0.289,0.086-0.543,0.258-0.762,0.516c-0.176,0.207-0.291,0.421-0.344,0.642
		s-0.078,0.536-0.078,0.946v3.287h-1.055V4.374z"/>
	<path d="M272.861,4.374l1.676,5.109l1.746-5.109h1.154l-2.362,6.275h-1.124l-2.314-6.275H272.861z"/>
	<path d="M278.654,2.042h1.072v1.195h-1.072V2.042z M278.654,4.403h1.072v6.246h-1.072V4.403z"/>
	<path d="M281.662,4.374h1.002v1.084c0.082-0.211,0.283-0.468,0.604-0.771s0.689-0.454,1.107-0.454c0.02,0,0.053,0.002,0.1,0.006
		s0.127,0.012,0.24,0.023v1.113c-0.062-0.012-0.12-0.02-0.173-0.023s-0.11-0.006-0.173-0.006c-0.531,0-0.939,0.171-1.225,0.513
		s-0.428,0.735-0.428,1.181v3.609h-1.055V4.374z"/>
	<path d="M290.488,5c0.555,0.539,0.832,1.331,0.832,2.377c0,1.011-0.245,1.847-0.734,2.506c-0.488,0.659-1.246,0.989-2.273,0.989
		c-0.857,0-1.539-0.292-2.043-0.875c-0.504-0.584-0.756-1.367-0.756-2.351c0-1.054,0.266-1.893,0.797-2.518
		c0.531-0.624,1.244-0.937,2.141-0.937C289.254,4.192,289.934,4.461,290.488,5z M289.833,9.17c0.257-0.528,0.386-1.117,0.386-1.765
		c0-0.585-0.094-1.061-0.279-1.428c-0.293-0.577-0.799-0.866-1.518-0.866c-0.637,0-1.101,0.246-1.391,0.737
		c-0.289,0.492-0.434,1.085-0.434,1.779c0,0.667,0.145,1.223,0.434,1.668c0.29,0.444,0.75,0.667,1.379,0.667
		C289.102,9.963,289.576,9.699,289.833,9.17z"/>
	<path d="M292.927,4.374h1.002v0.891c0.297-0.367,0.611-0.631,0.943-0.791s0.701-0.24,1.107-0.24c0.891,0,1.492,0.311,1.805,0.932
		c0.172,0.34,0.258,0.826,0.258,1.459v4.025h-1.072V6.694c0-0.383-0.057-0.691-0.17-0.926c-0.188-0.391-0.527-0.586-1.02-0.586
		c-0.25,0-0.455,0.025-0.615,0.076c-0.289,0.086-0.543,0.258-0.762,0.516c-0.176,0.207-0.29,0.421-0.343,0.642
		s-0.079,0.536-0.079,0.946v3.287h-1.055V4.374z"/>
	<path d="M299.912,4.374h1.043v0.891c0.25-0.309,0.477-0.533,0.68-0.674c0.348-0.238,0.742-0.357,1.184-0.357
		c0.5,0,0.902,0.123,1.207,0.369c0.172,0.141,0.328,0.348,0.469,0.621c0.234-0.336,0.51-0.585,0.826-0.747s0.672-0.243,1.066-0.243
		c0.844,0,1.418,0.305,1.723,0.914c0.164,0.328,0.246,0.77,0.246,1.324v4.178h-1.096V6.29c0-0.418-0.104-0.705-0.312-0.861
		s-0.465-0.234-0.766-0.234c-0.414,0-0.77,0.139-1.068,0.416s-0.449,0.74-0.449,1.389v3.65h-1.072V6.553
		c0-0.426-0.051-0.736-0.152-0.932c-0.16-0.293-0.459-0.439-0.896-0.439c-0.398,0-0.76,0.154-1.086,0.463s-0.49,0.867-0.49,1.676
		v3.328h-1.055V4.374z"/>
	<path d="M314.097,4.546c0.415,0.209,0.731,0.479,0.949,0.812c0.21,0.316,0.35,0.686,0.419,1.107
		c0.062,0.289,0.094,0.75,0.094,1.383h-4.564c0.02,0.639,0.168,1.15,0.447,1.536s0.711,0.579,1.297,0.579
		c0.547,0,0.982-0.183,1.309-0.548c0.182-0.211,0.311-0.457,0.387-0.735h1.037c-0.027,0.23-0.118,0.487-0.272,0.771
		s-0.327,0.515-0.517,0.694c-0.318,0.312-0.711,0.523-1.18,0.633c-0.252,0.062-0.537,0.094-0.855,0.094
		c-0.776,0-1.434-0.284-1.974-0.853s-0.81-1.364-0.81-2.388c0-1.008,0.271-1.826,0.815-2.455s1.254-0.943,2.132-0.943
		C313.252,4.233,313.682,4.337,314.097,4.546z M314.475,7.01c-0.043-0.457-0.142-0.822-0.297-1.096
		c-0.286-0.508-0.765-0.762-1.435-0.762c-0.48,0-0.884,0.175-1.208,0.524c-0.326,0.35-0.498,0.794-0.518,1.333H314.475z"/>
	<path d="M317.207,4.374h1.002v0.891c0.297-0.367,0.611-0.631,0.943-0.791s0.701-0.24,1.107-0.24c0.891,0,1.492,0.311,1.805,0.932
		c0.172,0.34,0.258,0.826,0.258,1.459v4.025h-1.072V6.694c0-0.383-0.057-0.691-0.17-0.926c-0.188-0.391-0.527-0.586-1.02-0.586
		c-0.25,0-0.455,0.025-0.615,0.076c-0.289,0.086-0.543,0.258-0.762,0.516c-0.176,0.207-0.291,0.421-0.344,0.642
		s-0.078,0.536-0.078,0.946v3.287h-1.055V4.374z"/>
	<path d="M324.403,2.622h1.066v1.752h1.002v0.861h-1.002v4.096c0,0.219,0.074,0.365,0.223,0.439c0.082,0.043,0.219,0.064,0.41,0.064
		c0.051,0,0.105-0.001,0.164-0.004s0.127-0.009,0.205-0.02v0.838c-0.121,0.035-0.247,0.061-0.378,0.076s-0.272,0.023-0.425,0.023
		c-0.492,0-0.826-0.126-1.002-0.378s-0.264-0.579-0.264-0.981V5.235h-0.85V4.374h0.85V2.622z"/>
	<path d="M334.848,6.851c0.242-0.031,0.404-0.133,0.486-0.304c0.047-0.095,0.07-0.229,0.07-0.406c0-0.36-0.128-0.622-0.383-0.785
		c-0.256-0.163-0.621-0.244-1.097-0.244c-0.55,0-0.939,0.149-1.169,0.447c-0.129,0.165-0.213,0.41-0.252,0.736h-0.984
		c0.02-0.775,0.27-1.315,0.752-1.619s1.041-0.455,1.677-0.455c0.737,0,1.337,0.141,1.797,0.422c0.456,0.281,0.685,0.719,0.685,1.312
		v3.615c0,0.109,0.022,0.197,0.067,0.264s0.14,0.1,0.284,0.1c0.047,0,0.1-0.003,0.158-0.009s0.121-0.015,0.188-0.026v0.779
		c-0.164,0.047-0.289,0.076-0.375,0.088s-0.203,0.018-0.352,0.018c-0.363,0-0.627-0.129-0.791-0.387
		c-0.086-0.137-0.146-0.33-0.182-0.58c-0.215,0.281-0.523,0.525-0.926,0.732s-0.846,0.311-1.33,0.311
		c-0.582,0-1.058-0.177-1.427-0.529c-0.369-0.354-0.554-0.795-0.554-1.326c0-0.581,0.182-1.031,0.545-1.352
		c0.363-0.319,0.84-0.517,1.43-0.591L334.848,6.851z M332.627,9.701c0.223,0.175,0.486,0.263,0.791,0.263
		c0.371,0,0.73-0.086,1.078-0.258c0.586-0.284,0.879-0.75,0.879-1.397V7.459c-0.129,0.082-0.295,0.151-0.497,0.206
		s-0.401,0.094-0.597,0.117l-0.637,0.082c-0.383,0.051-0.67,0.131-0.862,0.239c-0.326,0.184-0.489,0.476-0.489,0.877
		C332.293,9.286,332.404,9.525,332.627,9.701z"/>
	<path d="M338.471,4.374h1.002v0.891c0.297-0.367,0.611-0.631,0.943-0.791s0.701-0.24,1.107-0.24c0.891,0,1.492,0.311,1.805,0.932
		c0.172,0.34,0.258,0.826,0.258,1.459v4.025h-1.072V6.694c0-0.383-0.057-0.691-0.17-0.926c-0.188-0.391-0.527-0.586-1.02-0.586
		c-0.25,0-0.455,0.025-0.615,0.076c-0.289,0.086-0.543,0.258-0.762,0.516c-0.176,0.207-0.291,0.421-0.344,0.642
		s-0.078,0.536-0.078,0.946v3.287h-1.055V4.374z"/>
	<path d="M348.904,4.567c0.187,0.117,0.398,0.322,0.636,0.615v-3.17h1.014v8.637h-0.949V9.776c-0.245,0.387-0.535,0.666-0.87,0.838
		c-0.334,0.172-0.718,0.258-1.149,0.258c-0.696,0-1.3-0.294-1.81-0.882s-0.765-1.37-0.765-2.347c0-0.914,0.232-1.706,0.697-2.376
		c0.466-0.67,1.13-1.005,1.993-1.005C348.18,4.262,348.581,4.364,348.904,4.567z M346.55,9.272c0.284,0.453,0.738,0.68,1.364,0.68
		c0.485,0,0.885-0.21,1.197-0.63c0.313-0.42,0.47-1.022,0.47-1.808c0-0.793-0.161-1.38-0.483-1.761
		c-0.323-0.381-0.722-0.571-1.195-0.571c-0.529,0-0.957,0.203-1.285,0.609c-0.329,0.406-0.493,1.004-0.493,1.793
		C346.124,8.256,346.266,8.819,346.55,9.272z"/>
	<path d="M263.27,13.668c0.594,0.574,0.925,1.227,0.99,1.957h-1.137c-0.127-0.555-0.379-0.994-0.757-1.318s-0.908-0.486-1.591-0.486
		c-0.832,0-1.505,0.298-2.018,0.895c-0.512,0.596-0.768,1.51-0.768,2.741c0,1.009,0.23,1.827,0.693,2.454
		c0.463,0.628,1.152,0.941,2.069,0.941c0.845,0,1.487-0.33,1.929-0.99c0.234-0.348,0.408-0.805,0.523-1.371h1.137
		c-0.101,0.906-0.433,1.666-0.996,2.279c-0.676,0.738-1.587,1.107-2.734,1.107c-0.988,0-1.818-0.303-2.49-0.909
		c-0.885-0.801-1.326-2.038-1.326-3.711c0-1.271,0.332-2.312,0.996-3.125c0.719-0.884,1.709-1.325,2.971-1.325
		C261.839,12.807,262.675,13.094,263.27,13.668z"/>
	<path d="M266.049,13.042h1.055v8.607h-1.055V13.042z"/>
	<path d="M268.997,13.042h1.072v1.195h-1.072V13.042z M268.997,15.403h1.072v6.246h-1.072V15.403z"/>
	<path d="M271.975,15.374h1.043v0.891c0.25-0.309,0.477-0.533,0.68-0.674c0.348-0.238,0.742-0.357,1.184-0.357
		c0.5,0,0.902,0.123,1.207,0.369c0.172,0.141,0.328,0.348,0.469,0.621c0.234-0.336,0.51-0.585,0.826-0.747s0.672-0.243,1.066-0.243
		c0.844,0,1.418,0.305,1.723,0.914c0.164,0.328,0.246,0.77,0.246,1.324v4.178h-1.096V17.29c0-0.418-0.104-0.705-0.312-0.861
		s-0.465-0.234-0.766-0.234c-0.414,0-0.77,0.139-1.068,0.416s-0.449,0.74-0.449,1.389v3.65h-1.072v-4.096
		c0-0.426-0.051-0.736-0.152-0.932c-0.16-0.293-0.459-0.439-0.896-0.439c-0.398,0-0.76,0.154-1.086,0.463s-0.49,0.867-0.49,1.676
		v3.328h-1.055V15.374z"/>
	<path d="M285.646,17.851c0.242-0.031,0.404-0.133,0.486-0.304c0.047-0.095,0.07-0.229,0.07-0.406c0-0.36-0.128-0.622-0.383-0.785
		c-0.256-0.163-0.621-0.244-1.097-0.244c-0.55,0-0.939,0.149-1.169,0.447c-0.129,0.165-0.213,0.41-0.252,0.736h-0.984
		c0.02-0.775,0.27-1.315,0.752-1.619s1.041-0.455,1.677-0.455c0.737,0,1.337,0.141,1.797,0.422c0.456,0.281,0.685,0.719,0.685,1.312
		v3.615c0,0.109,0.022,0.197,0.067,0.264s0.14,0.1,0.284,0.1c0.047,0,0.1-0.003,0.158-0.009s0.121-0.015,0.188-0.026v0.779
		c-0.164,0.047-0.289,0.076-0.375,0.088s-0.203,0.018-0.352,0.018c-0.363,0-0.627-0.129-0.791-0.387
		c-0.086-0.137-0.146-0.33-0.182-0.58c-0.215,0.281-0.523,0.525-0.926,0.732s-0.846,0.311-1.33,0.311
		c-0.582,0-1.058-0.177-1.427-0.529c-0.369-0.354-0.554-0.795-0.554-1.326c0-0.581,0.182-1.031,0.545-1.352
		c0.363-0.319,0.84-0.517,1.43-0.591L285.646,17.851z M283.426,20.701c0.223,0.175,0.486,0.263,0.791,0.263
		c0.371,0,0.73-0.086,1.078-0.258c0.586-0.284,0.879-0.75,0.879-1.397v-0.849c-0.129,0.082-0.295,0.151-0.497,0.206
		s-0.401,0.094-0.597,0.117l-0.637,0.082c-0.383,0.051-0.67,0.131-0.862,0.239c-0.326,0.184-0.489,0.476-0.489,0.877
		C283.092,20.286,283.203,20.525,283.426,20.701z"/>
	<path d="M289.48,13.622h1.066v1.752h1.002v0.861h-1.002v4.096c0,0.219,0.074,0.365,0.223,0.439c0.082,0.043,0.219,0.064,0.41,0.064
		c0.051,0,0.105-0.001,0.164-0.004s0.127-0.009,0.205-0.02v0.838c-0.121,0.035-0.248,0.061-0.379,0.076s-0.271,0.023-0.424,0.023
		c-0.492,0-0.826-0.126-1.002-0.378s-0.264-0.579-0.264-0.981v-4.154h-0.85v-0.861h0.85V13.622z"/>
	<path d="M296.791,15.546c0.416,0.209,0.732,0.479,0.949,0.812c0.21,0.316,0.35,0.686,0.42,1.107
		c0.062,0.289,0.093,0.75,0.093,1.383h-4.564c0.02,0.639,0.169,1.15,0.448,1.536c0.278,0.386,0.711,0.579,1.296,0.579
		c0.546,0,0.982-0.183,1.308-0.548c0.183-0.211,0.312-0.457,0.388-0.735h1.037c-0.027,0.23-0.118,0.487-0.272,0.771
		s-0.326,0.515-0.517,0.694c-0.317,0.312-0.712,0.523-1.181,0.633c-0.252,0.062-0.537,0.094-0.854,0.094
		c-0.776,0-1.435-0.284-1.974-0.853c-0.54-0.568-0.81-1.364-0.81-2.388c0-1.008,0.271-1.826,0.815-2.455
		c0.543-0.629,1.254-0.943,2.131-0.943C295.947,15.233,296.376,15.337,296.791,15.546z M297.169,18.01
		c-0.042-0.457-0.142-0.822-0.296-1.096c-0.287-0.508-0.766-0.762-1.436-0.762c-0.48,0-0.883,0.175-1.209,0.524
		c-0.324,0.35-0.497,0.794-0.517,1.333H297.169z"/>
	<path d="M309.775,13.668c0.594,0.574,0.925,1.227,0.99,1.957h-1.137c-0.127-0.555-0.379-0.994-0.757-1.318
		s-0.908-0.486-1.591-0.486c-0.832,0-1.505,0.298-2.018,0.895c-0.512,0.596-0.768,1.51-0.768,2.741c0,1.009,0.23,1.827,0.693,2.454
		c0.463,0.628,1.152,0.941,2.069,0.941c0.845,0,1.487-0.33,1.929-0.99c0.234-0.348,0.408-0.805,0.523-1.371h1.137
		c-0.101,0.906-0.433,1.666-0.996,2.279c-0.676,0.738-1.587,1.107-2.734,1.107c-0.988,0-1.818-0.303-2.49-0.909
		c-0.885-0.801-1.326-2.038-1.326-3.711c0-1.271,0.332-2.312,0.996-3.125c0.719-0.884,1.709-1.325,2.971-1.325
		C308.345,12.807,309.181,13.094,309.775,13.668z"/>
	<path d="M312.525,13.012h1.055v3.211c0.25-0.316,0.475-0.539,0.674-0.668c0.34-0.223,0.764-0.334,1.271-0.334
		c0.91,0,1.527,0.318,1.852,0.955c0.176,0.348,0.264,0.83,0.264,1.447v4.025h-1.084v-3.955c0-0.461-0.059-0.799-0.176-1.014
		c-0.191-0.344-0.551-0.516-1.078-0.516c-0.438,0-0.834,0.15-1.189,0.451s-0.533,0.869-0.533,1.705v3.328h-1.055V13.012z"/>
	<path d="M322.874,17.851c0.242-0.031,0.404-0.133,0.486-0.304c0.047-0.095,0.07-0.229,0.07-0.406c0-0.36-0.128-0.622-0.383-0.785
		s-0.621-0.244-1.097-0.244c-0.55,0-0.939,0.149-1.17,0.447c-0.129,0.165-0.212,0.41-0.251,0.736h-0.984
		c0.02-0.775,0.271-1.315,0.752-1.619s1.041-0.455,1.677-0.455c0.737,0,1.336,0.141,1.797,0.422
		c0.457,0.281,0.685,0.719,0.685,1.312v3.615c0,0.109,0.022,0.197,0.067,0.264s0.14,0.1,0.284,0.1c0.047,0,0.1-0.003,0.158-0.009
		s0.121-0.015,0.188-0.026v0.779c-0.164,0.047-0.289,0.076-0.375,0.088s-0.203,0.018-0.352,0.018c-0.363,0-0.627-0.129-0.791-0.387
		c-0.086-0.137-0.146-0.33-0.182-0.58c-0.215,0.281-0.523,0.525-0.926,0.732s-0.846,0.311-1.33,0.311
		c-0.582,0-1.058-0.177-1.427-0.529c-0.369-0.354-0.554-0.795-0.554-1.326c0-0.581,0.182-1.031,0.545-1.352
		c0.363-0.319,0.84-0.517,1.43-0.591L322.874,17.851z M320.653,20.701c0.223,0.175,0.486,0.263,0.791,0.263
		c0.371,0,0.73-0.086,1.078-0.258c0.586-0.284,0.879-0.75,0.879-1.397v-0.849c-0.129,0.082-0.294,0.151-0.497,0.206
		s-0.401,0.094-0.597,0.117l-0.638,0.082c-0.381,0.051-0.669,0.131-0.861,0.239c-0.326,0.184-0.489,0.476-0.489,0.877
		C320.319,20.286,320.431,20.525,320.653,20.701z"/>
	<path d="M326.496,15.374h1.002v0.891c0.297-0.367,0.611-0.631,0.943-0.791s0.701-0.24,1.107-0.24c0.891,0,1.492,0.311,1.805,0.932
		c0.172,0.34,0.258,0.826,0.258,1.459v4.025h-1.072v-3.955c0-0.383-0.057-0.691-0.17-0.926c-0.188-0.391-0.527-0.586-1.02-0.586
		c-0.25,0-0.455,0.025-0.615,0.076c-0.289,0.086-0.543,0.258-0.762,0.516c-0.176,0.207-0.289,0.421-0.342,0.642
		s-0.08,0.536-0.08,0.946v3.287h-1.055V15.374z"/>
	<path d="M336.971,15.625c0.199,0.137,0.401,0.336,0.607,0.598v-0.791h0.973v5.707c0,0.797-0.117,1.426-0.351,1.887
		c-0.437,0.852-1.259,1.277-2.47,1.277c-0.674,0-1.24-0.151-1.699-0.454c-0.46-0.303-0.717-0.776-0.771-1.421h1.072
		c0.051,0.281,0.151,0.498,0.303,0.65c0.237,0.234,0.61,0.352,1.119,0.352c0.805,0,1.33-0.285,1.579-0.855
		c0.147-0.336,0.216-0.936,0.204-1.799c-0.21,0.32-0.463,0.559-0.759,0.715s-0.687,0.234-1.173,0.234
		c-0.678,0-1.27-0.241-1.777-0.724s-0.762-1.28-0.762-2.394c0-1.051,0.256-1.871,0.768-2.461s1.129-0.885,1.854-0.885
		C336.178,15.262,336.605,15.383,336.971,15.625z M337.1,16.756c-0.318-0.375-0.725-0.562-1.218-0.562
		c-0.739,0-1.243,0.348-1.516,1.043c-0.144,0.371-0.216,0.857-0.216,1.459c0,0.707,0.143,1.245,0.429,1.614
		c0.285,0.369,0.669,0.554,1.151,0.554c0.754,0,1.284-0.342,1.592-1.025c0.17-0.387,0.256-0.838,0.256-1.354
		C337.578,17.708,337.419,17.131,337.1,16.756z"/>
	<path d="M344.344,15.546c0.416,0.209,0.732,0.479,0.949,0.812c0.211,0.316,0.35,0.686,0.42,1.107
		c0.062,0.289,0.094,0.75,0.094,1.383h-4.564c0.02,0.639,0.168,1.15,0.447,1.536s0.711,0.579,1.297,0.579
		c0.546,0,0.982-0.183,1.308-0.548c0.183-0.211,0.312-0.457,0.388-0.735h1.037c-0.027,0.23-0.119,0.487-0.273,0.771
		s-0.326,0.515-0.516,0.694c-0.318,0.312-0.712,0.523-1.181,0.633c-0.252,0.062-0.537,0.094-0.854,0.094
		c-0.777,0-1.435-0.284-1.975-0.853c-0.539-0.568-0.809-1.364-0.809-2.388c0-1.008,0.271-1.826,0.814-2.455
		c0.544-0.629,1.254-0.943,2.132-0.943C343.5,15.233,343.93,15.337,344.344,15.546z M344.723,18.01
		c-0.043-0.457-0.143-0.822-0.297-1.096c-0.287-0.508-0.766-0.762-1.436-0.762c-0.48,0-0.883,0.175-1.208,0.524
		s-0.497,0.794-0.517,1.333H344.723z"/>
	<path d="M357.328,13.668c0.595,0.574,0.926,1.227,0.99,1.957h-1.137c-0.126-0.555-0.379-0.994-0.756-1.318
		c-0.379-0.324-0.908-0.486-1.592-0.486c-0.832,0-1.504,0.298-2.017,0.895c-0.513,0.596-0.769,1.51-0.769,2.741
		c0,1.009,0.231,1.827,0.693,2.454c0.463,0.628,1.152,0.941,2.07,0.941c0.844,0,1.486-0.33,1.928-0.99
		c0.234-0.348,0.408-0.805,0.523-1.371h1.137c-0.1,0.906-0.432,1.666-0.996,2.279c-0.676,0.738-1.586,1.107-2.733,1.107
		c-0.989,0-1.819-0.303-2.491-0.909c-0.884-0.801-1.326-2.038-1.326-3.711c0-1.271,0.332-2.312,0.996-3.125
		c0.719-0.884,1.709-1.325,2.971-1.325C355.898,12.807,356.734,13.094,357.328,13.668z"/>
	<path d="M363.441,17.851c0.242-0.031,0.404-0.133,0.486-0.304c0.047-0.095,0.07-0.229,0.07-0.406c0-0.36-0.128-0.622-0.383-0.785
		c-0.256-0.163-0.621-0.244-1.097-0.244c-0.55,0-0.939,0.149-1.169,0.447c-0.129,0.165-0.213,0.41-0.252,0.736h-0.984
		c0.02-0.775,0.27-1.315,0.752-1.619s1.041-0.455,1.677-0.455c0.737,0,1.337,0.141,1.797,0.422c0.456,0.281,0.685,0.719,0.685,1.312
		v3.615c0,0.109,0.022,0.197,0.067,0.264s0.14,0.1,0.284,0.1c0.047,0,0.1-0.003,0.158-0.009s0.121-0.015,0.188-0.026v0.779
		c-0.164,0.047-0.289,0.076-0.375,0.088s-0.203,0.018-0.352,0.018c-0.363,0-0.627-0.129-0.791-0.387
		c-0.086-0.137-0.146-0.33-0.182-0.58c-0.215,0.281-0.523,0.525-0.926,0.732s-0.846,0.311-1.33,0.311
		c-0.582,0-1.058-0.177-1.427-0.529c-0.369-0.354-0.554-0.795-0.554-1.326c0-0.581,0.182-1.031,0.545-1.352
		c0.363-0.319,0.84-0.517,1.43-0.591L363.441,17.851z M361.221,20.701c0.223,0.175,0.486,0.263,0.791,0.263
		c0.371,0,0.73-0.086,1.078-0.258c0.586-0.284,0.879-0.75,0.879-1.397v-0.849c-0.129,0.082-0.295,0.151-0.497,0.206
		s-0.401,0.094-0.597,0.117l-0.637,0.082c-0.383,0.051-0.67,0.131-0.862,0.239c-0.326,0.184-0.489,0.476-0.489,0.877
		C360.887,20.286,360.998,20.525,361.221,20.701z"/>
	<path d="M367.064,15.374h1.002v0.891c0.297-0.367,0.611-0.631,0.943-0.791s0.701-0.24,1.107-0.24c0.891,0,1.492,0.311,1.805,0.932
		c0.172,0.34,0.258,0.826,0.258,1.459v4.025h-1.072v-3.955c0-0.383-0.057-0.691-0.17-0.926c-0.188-0.391-0.527-0.586-1.02-0.586
		c-0.25,0-0.455,0.025-0.615,0.076c-0.289,0.086-0.543,0.258-0.762,0.516c-0.176,0.207-0.291,0.421-0.344,0.642
		s-0.078,0.536-0.078,0.946v3.287h-1.055V15.374z"/>
	<path d="M377.413,17.851c0.242-0.031,0.404-0.133,0.486-0.304c0.047-0.095,0.07-0.229,0.07-0.406c0-0.36-0.128-0.622-0.383-0.785
		s-0.621-0.244-1.097-0.244c-0.55,0-0.939,0.149-1.17,0.447c-0.129,0.165-0.212,0.41-0.251,0.736h-0.984
		c0.02-0.775,0.271-1.315,0.752-1.619s1.041-0.455,1.677-0.455c0.737,0,1.336,0.141,1.797,0.422
		c0.457,0.281,0.685,0.719,0.685,1.312v3.615c0,0.109,0.022,0.197,0.067,0.264s0.14,0.1,0.284,0.1c0.047,0,0.1-0.003,0.158-0.009
		s0.121-0.015,0.188-0.026v0.779c-0.164,0.047-0.289,0.076-0.375,0.088s-0.203,0.018-0.352,0.018c-0.363,0-0.627-0.129-0.791-0.387
		c-0.086-0.137-0.146-0.33-0.182-0.58c-0.215,0.281-0.523,0.525-0.926,0.732s-0.846,0.311-1.33,0.311
		c-0.582,0-1.058-0.177-1.427-0.529c-0.369-0.354-0.554-0.795-0.554-1.326c0-0.581,0.182-1.031,0.545-1.352
		c0.363-0.319,0.84-0.517,1.43-0.591L377.413,17.851z M375.192,20.701c0.223,0.175,0.486,0.263,0.791,0.263
		c0.371,0,0.73-0.086,1.078-0.258c0.586-0.284,0.879-0.75,0.879-1.397v-0.849c-0.129,0.082-0.294,0.151-0.497,0.206
		s-0.401,0.094-0.597,0.117l-0.638,0.082c-0.381,0.051-0.669,0.131-0.861,0.239c-0.326,0.184-0.489,0.476-0.489,0.877
		C374.858,20.286,374.97,20.525,375.192,20.701z"/>
	<path d="M384.483,15.567c0.187,0.117,0.399,0.322,0.636,0.615v-3.17h1.014v8.637h-0.949v-0.873
		c-0.244,0.387-0.535,0.666-0.869,0.838c-0.335,0.172-0.719,0.258-1.15,0.258c-0.696,0-1.299-0.294-1.809-0.882
		s-0.766-1.37-0.766-2.347c0-0.914,0.232-1.706,0.697-2.376c0.466-0.67,1.13-1.005,1.994-1.005
		C383.76,15.262,384.16,15.364,384.483,15.567z M382.129,20.272c0.284,0.453,0.738,0.68,1.364,0.68c0.485,0,0.886-0.21,1.198-0.63
		s0.469-1.022,0.469-1.808c0-0.793-0.16-1.38-0.483-1.761s-0.722-0.571-1.195-0.571c-0.528,0-0.957,0.203-1.285,0.609
		c-0.329,0.406-0.493,1.004-0.493,1.793C381.703,19.256,381.846,19.819,382.129,20.272z"/>
	<path d="M391.385,17.851c0.242-0.031,0.404-0.133,0.486-0.304c0.047-0.095,0.07-0.229,0.07-0.406c0-0.36-0.128-0.622-0.383-0.785
		c-0.256-0.163-0.621-0.244-1.097-0.244c-0.55,0-0.939,0.149-1.169,0.447c-0.129,0.165-0.213,0.41-0.252,0.736h-0.984
		c0.02-0.775,0.27-1.315,0.752-1.619s1.041-0.455,1.677-0.455c0.737,0,1.337,0.141,1.797,0.422c0.456,0.281,0.685,0.719,0.685,1.312
		v3.615c0,0.109,0.022,0.197,0.067,0.264s0.14,0.1,0.284,0.1c0.047,0,0.1-0.003,0.158-0.009s0.121-0.015,0.188-0.026v0.779
		c-0.164,0.047-0.289,0.076-0.375,0.088s-0.203,0.018-0.352,0.018c-0.363,0-0.627-0.129-0.791-0.387
		c-0.086-0.137-0.146-0.33-0.182-0.58c-0.215,0.281-0.523,0.525-0.926,0.732s-0.846,0.311-1.33,0.311
		c-0.582,0-1.058-0.177-1.427-0.529c-0.369-0.354-0.554-0.795-0.554-1.326c0-0.581,0.182-1.031,0.545-1.352
		c0.363-0.319,0.84-0.517,1.43-0.591L391.385,17.851z M389.164,20.701c0.223,0.175,0.486,0.263,0.791,0.263
		c0.371,0,0.73-0.086,1.078-0.258c0.586-0.284,0.879-0.75,0.879-1.397v-0.849c-0.129,0.082-0.295,0.151-0.497,0.206
		s-0.401,0.094-0.597,0.117l-0.637,0.082c-0.383,0.051-0.67,0.131-0.862,0.239c-0.326,0.184-0.489,0.476-0.489,0.877
		C388.83,20.286,388.941,20.525,389.164,20.701z"/>
</g>
</svg>
