<?xml version="1.0" encoding="utf-8"?>
<!-- Generator: Adobe Illustrator 18.1.1, SVG Export Plug-In . SVG Version: 6.00 Build 0)  -->
<svg version="1.1" id="Layer_1" xmlns="http://www.w3.org/2000/svg" xmlns:xlink="http://www.w3.org/1999/xlink" x="0px" y="0px"
	 viewBox="0 0 165.274 69.56" enable-background="new 0 0 165.274 69.56" xml:space="preserve">
<g>
	<g>
		<path fill="#AA2125" d="M37.871,42.719c0,1.399,0.036,2.448,0.108,3.147c0.072,0.7,0.193,1.26,0.362,1.682
			c0.169,0.422,0.374,0.766,0.615,1.031c0.241,0.266,0.584,0.506,1.031,0.723c0.446,0.217,1.139,0.447,2.08,0.687v1.772H26.912
			v-1.772c1.326-0.337,2.254-0.711,2.785-1.121c0.53-0.41,0.898-1.036,1.103-1.881c0.204-0.844,0.307-2.266,0.307-4.268V27.563
			H10.996v15.156c0,1.616,0.054,2.797,0.163,3.545c0.108,0.748,0.289,1.339,0.543,1.772c0.253,0.434,0.627,0.796,1.121,1.085
			c0.494,0.29,1.296,0.579,2.405,0.868v1.772H0v-1.772c1.495-0.386,2.496-0.814,3.002-1.284c0.506-0.47,0.838-1.139,0.995-2.007
			c0.157-0.868,0.235-2.194,0.235-3.979V11.43c0-1.664-0.06-2.876-0.181-3.635c-0.121-0.76-0.32-1.35-0.597-1.772
			C3.177,5.601,2.809,5.263,2.351,5.01C1.893,4.757,1.109,4.473,0,4.16V2.387h15.228V4.16c-1.061,0.266-1.827,0.531-2.297,0.796
			c-0.47,0.266-0.845,0.597-1.121,0.995c-0.278,0.398-0.483,0.995-0.615,1.791c-0.133,0.796-0.199,2.026-0.199,3.69v12.805h20.111
			V11.43c0-2.098-0.103-3.532-0.307-4.304c-0.205-0.772-0.549-1.362-1.031-1.772c-0.483-0.41-1.435-0.808-2.858-1.194V2.387h15.156
			V4.16c-1.351,0.338-2.291,0.718-2.821,1.14c-0.53,0.422-0.892,1.055-1.085,1.899c-0.193,0.844-0.289,2.255-0.289,4.232V42.719z"/>
		<path fill="#AA2125" d="M65.192,46.589l-0.542-0.145c-2.098,2.147-4.069,3.666-5.914,4.558c-1.845,0.892-3.804,1.339-5.878,1.339
			c-1.833,0-3.449-0.356-4.847-1.067c-1.399-0.711-2.472-1.712-3.219-3.002c-0.748-1.29-1.121-2.779-1.121-4.467
			c0-3.521,1.742-6.24,5.227-8.157c3.485-1.917,8.711-3.032,15.681-3.346V29.95c0-2.508-0.241-4.485-0.724-5.932
			c-0.483-1.447-1.242-2.508-2.279-3.183c-1.037-0.675-2.424-1.013-4.16-1.013c-1.881,0-3.394,0.495-4.539,1.483
			c-1.146,0.989-2.008,2.472-2.586,4.449h-4.738v-4.702c2.315-1.206,4.244-2.092,5.787-2.659c1.543-0.566,3.086-1.013,4.63-1.338
			c1.543-0.325,3.111-0.488,4.702-0.488c2.387,0,4.304,0.38,5.751,1.14c1.447,0.759,2.532,1.923,3.255,3.49
			c0.724,1.568,1.085,3.931,1.085,7.09v12.588c0,1.785,0.012,3.044,0.036,3.78c0.024,0.736,0.096,1.417,0.217,2.044
			c0.12,0.627,0.301,1.127,0.543,1.501c0.241,0.374,0.597,0.693,1.067,0.959c0.47,0.266,1.236,0.543,2.297,0.832v1.772h-9.911
			L65.192,46.589z M64.577,35.267c-4.896,0.049-8.561,0.7-10.996,1.953c-2.436,1.254-3.653,3.147-3.653,5.679
			c0,1.374,0.277,2.459,0.832,3.255c0.555,0.796,1.254,1.345,2.098,1.646c0.844,0.302,1.844,0.452,3.002,0.452
			c1.639,0,3.129-0.398,4.467-1.194c1.339-0.796,2.381-1.809,3.129-3.038c0.747-1.23,1.121-2.447,1.121-3.653V35.267z"/>
		<path fill="#AA2125" d="M88.41,31.614h1.157c0.796,0,1.447-0.084,1.953-0.253c0.602-0.217,1.266-0.584,1.989-1.103
			c0.724-0.518,1.748-1.393,3.075-2.623c1.109-1.037,1.947-1.917,2.514-2.641c0.566-0.724,0.959-1.386,1.176-1.989
			c0.193-0.506,0.289-1.013,0.289-1.519c0-0.724-0.223-1.29-0.669-1.7c-0.446-0.41-1.176-0.687-2.189-0.832v-1.772h15.59v1.772
			c-1.11,0.217-2.291,0.712-3.545,1.483c-1.254,0.772-2.544,1.785-3.87,3.039l-8.32,7.885l10.417,13.6
			c1.206,1.592,2.297,2.767,3.273,3.527c0.977,0.759,2.044,1.26,3.201,1.501v1.772h-13.89v-1.772
			c0.627-0.072,1.091-0.211,1.393-0.416c0.301-0.205,0.452-0.548,0.452-1.031c0-0.362-0.066-0.717-0.199-1.067
			c-0.133-0.349-0.404-0.826-0.814-1.429c-0.41-0.602-1.157-1.651-2.243-3.147l-4.305-5.787c-0.82-1.085-1.405-1.796-1.754-2.134
			c-0.35-0.337-0.718-0.579-1.103-0.724c-0.386-0.145-0.904-0.217-1.555-0.217H88.41v8.681c0,2.074,0.096,3.515,0.289,4.322
			c0.193,0.808,0.561,1.423,1.103,1.845c0.543,0.422,1.429,0.79,2.659,1.103v1.772h-14.36v-1.772
			c1.206-0.313,2.044-0.639,2.514-0.977c0.47-0.337,0.807-0.742,1.013-1.212c0.204-0.47,0.349-1.109,0.434-1.917
			c0.084-0.808,0.127-1.863,0.127-3.165V12.443c0-2.315-0.018-3.93-0.054-4.847c-0.036-0.916-0.133-1.694-0.289-2.333
			c-0.157-0.639-0.374-1.14-0.651-1.501c-0.277-0.362-0.651-0.651-1.121-0.868c-0.47-0.217-1.32-0.434-2.55-0.651V0.362L86.24,0
			h2.171V31.614z"/>
		<path fill="#AA2125" d="M136.656,46.589l-0.544-0.145c-2.097,2.147-4.069,3.666-5.914,4.558c-1.844,0.892-3.804,1.339-5.878,1.339
			c-1.833,0-3.448-0.356-4.847-1.067c-1.399-0.711-2.472-1.712-3.219-3.002c-0.748-1.29-1.121-2.779-1.121-4.467
			c0-3.521,1.742-6.24,5.227-8.157c3.484-1.917,8.711-3.032,15.68-3.346V29.95c0-2.508-0.24-4.485-0.723-5.932
			c-0.483-1.447-1.242-2.508-2.278-3.183c-1.037-0.675-2.424-1.013-4.16-1.013c-1.882,0-3.394,0.495-4.54,1.483
			c-1.145,0.989-2.007,2.472-2.586,4.449h-4.739v-4.702c2.315-1.206,4.244-2.092,5.787-2.659c1.543-0.566,3.086-1.013,4.63-1.338
			c1.543-0.325,3.111-0.488,4.702-0.488c2.388,0,4.305,0.38,5.752,1.14c1.446,0.759,2.532,1.923,3.256,3.49
			c0.723,1.568,1.085,3.931,1.085,7.09v12.588c0,1.785,0.012,3.044,0.036,3.78c0.023,0.736,0.096,1.417,0.217,2.044
			c0.12,0.627,0.301,1.127,0.542,1.501c0.241,0.374,0.597,0.693,1.067,0.959c0.47,0.266,1.235,0.543,2.297,0.832v1.772h-9.91
			L136.656,46.589z M136.04,35.267c-4.895,0.049-8.561,0.7-10.995,1.953c-2.437,1.254-3.653,3.147-3.653,5.679
			c0,1.374,0.276,2.459,0.832,3.255c0.554,0.796,1.254,1.345,2.097,1.646c0.845,0.302,1.845,0.452,3.002,0.452
			c1.64,0,3.128-0.398,4.468-1.194c1.338-0.796,2.381-1.809,3.128-3.038c0.748-1.23,1.121-2.447,1.121-3.653V35.267z"/>
		<path fill="#AA2125" d="M150.142,49.989c0.94-0.289,1.61-0.542,2.007-0.76c0.398-0.217,0.735-0.518,1.012-0.904
			c0.277-0.385,0.494-0.977,0.651-1.772c0.156-0.796,0.235-2.038,0.235-3.726V27.056c0-1.543-0.024-2.785-0.072-3.726
			c-0.049-0.94-0.217-1.694-0.506-2.261c-0.29-0.566-0.73-0.989-1.32-1.266c-0.591-0.277-1.429-0.512-2.514-0.705v-1.917
			l8.428-0.325h2.206v25.863c0,2.074,0.096,3.515,0.289,4.322c0.193,0.808,0.561,1.423,1.103,1.845
			c0.542,0.422,1.429,0.79,2.658,1.103v1.772h-14.179V49.989z"/>
	</g>
	<g>
		<path fill="#AA2125" d="M158.625,10.468c-0.653-0.655-1.117-2.16-2.262-2.21c-0.019-0.003-0.038-0.005-0.057-0.005
			c-0.148,0-0.162-0.012-0.331,0.003l-0.002,0.004c-1.124,0.073-1.586,1.558-2.234,2.208c-0.823,0.826-1.951,0.191-2.065,2.16
			c-0.086,1.501,0.65,2.214,1.81,2.296c1.16,0.082,2.036-0.629,2.574-0.656c0.121-0.016,0.122-0.011,0.248,0
			c0.537,0.027,1.414,0.738,2.574,0.656c1.16-0.082,1.896-0.795,1.81-2.296C160.576,10.66,159.448,11.295,158.625,10.468z"/>
		<path fill="#AA2125" d="M154.564,2.295c1.136,0.151,0.963,1.616,1.054,2.309c0.091,0.69,0.203,1.543-0.251,1.833
			c-0.481,0.307-1.179-0.078-1.593-0.478c-0.128-0.124-1.193-0.777-0.842-2.183C153.141,2.941,153.933,2.212,154.564,2.295z"/>
		<path fill="#AA2125" d="M154.227,0c0,0-0.758,1.05-0.519,1.618c0.169,0.403,0.805,0.402,0.852-0.054S154.388,0.308,154.227,0z"/>
		<path fill="#AA2125" d="M149.406,4.417c0,0-0.446,1.215-0.063,1.698c0.272,0.342,0.884,0.169,0.806-0.282
			C150.07,5.381,149.644,4.67,149.406,4.417z"/>
		<path fill="#AA2125" d="M150.297,6.488c0.612-0.195,1.495,0.251,1.908,0.954c0.328,0.559,0.657,1.481-0.1,2.134
			c-0.594,0.512-1.475,0.592-2.008,0.226C149.075,9.102,149.192,6.839,150.297,6.488z"/>
		<path fill="#AA2125" d="M157.879,2.295c-1.136,0.151-0.963,1.616-1.054,2.309c-0.09,0.69-0.202,1.543,0.251,1.833
			c0.482,0.307,1.179-0.078,1.593-0.478c0.129-0.124,1.194-0.777,0.842-2.183C159.302,2.941,158.511,2.212,157.879,2.295z"/>
		<path fill="#AA2125" d="M158.216,0c0,0,0.758,1.05,0.519,1.618c-0.169,0.403-0.805,0.402-0.852-0.054
			C157.837,1.108,158.055,0.308,158.216,0z"/>
		<path fill="#AA2125" d="M162.742,4.417c0,0,0.446,1.215,0.063,1.698c-0.272,0.342-0.884,0.169-0.806-0.282
			C162.078,5.381,162.504,4.67,162.742,4.417z"/>
		<path fill="#AA2125" d="M161.851,6.488c-0.612-0.195-1.495,0.251-1.908,0.954c-0.328,0.559-0.657,1.481,0.1,2.134
			c0.594,0.512,1.475,0.592,2.008,0.226C163.072,9.102,162.955,6.839,161.851,6.488z"/>
	</g>
	<g>
		<path fill="#231F20" d="M1.27,64.635c0,0.524,0.121,0.915,0.364,1.173c0.242,0.257,0.621,0.386,1.137,0.386
			c0.398,0,0.74-0.073,1.026-0.221c0.286-0.147,0.502-0.356,0.649-0.627c0.147-0.271,0.221-0.592,0.221-0.965
			c0-0.264-0.047-0.497-0.14-0.698c-0.093-0.202-0.234-0.394-0.422-0.578s-0.46-0.395-0.815-0.633
			c-0.32-0.217-0.587-0.43-0.799-0.64c-0.212-0.21-0.381-0.445-0.507-0.705c-0.126-0.26-0.188-0.55-0.188-0.87
			c0-0.511,0.123-0.961,0.37-1.351c0.247-0.39,0.595-0.691,1.046-0.903c0.45-0.212,0.97-0.318,1.559-0.318
			c0.399,0,0.768,0.027,1.108,0.081c0.34,0.054,0.716,0.146,1.127,0.276l-0.364,1.67H6.019c-0.017-0.368-0.074-0.657-0.169-0.867
			c-0.095-0.21-0.232-0.36-0.409-0.451s-0.414-0.136-0.708-0.136c-0.36,0-0.676,0.074-0.949,0.221
			c-0.273,0.148-0.481,0.348-0.624,0.601c-0.143,0.253-0.214,0.536-0.214,0.848c0,0.225,0.039,0.427,0.117,0.604
			c0.078,0.178,0.202,0.352,0.374,0.523c0.171,0.171,0.421,0.369,0.75,0.594c0.425,0.295,0.748,0.558,0.971,0.789
			c0.223,0.232,0.388,0.478,0.494,0.737c0.106,0.26,0.159,0.561,0.159,0.903c0,0.524-0.127,0.991-0.38,1.4
			c-0.253,0.409-0.611,0.726-1.072,0.949c-0.461,0.223-0.987,0.334-1.576,0.334c-0.403,0-0.831-0.03-1.283-0.091
			c-0.453-0.061-0.867-0.143-1.244-0.247l0.39-1.787H1.27z"/>
		<path fill="#231F20" d="M11.418,62.004c-0.009-0.329-0.036-0.567-0.081-0.715s-0.119-0.257-0.221-0.331
			c-0.102-0.074-0.246-0.111-0.432-0.111c-0.437,0-0.831,0.174-1.179,0.523c-0.349,0.349-0.633,0.842-0.854,1.481
			c-0.221,0.639-0.331,1.253-0.331,1.842c0,0.182,0.016,0.353,0.049,0.513c0.032,0.16,0.089,0.299,0.169,0.416
			c0.08,0.117,0.186,0.209,0.318,0.276C8.987,65.966,9.155,66,9.358,66c0.394,0,0.735-0.075,1.023-0.224
			c0.288-0.149,0.592-0.384,0.913-0.705l0.396,0.396c-0.407,0.451-0.817,0.779-1.231,0.987c-0.414,0.208-0.859,0.312-1.335,0.312
			c-0.628,0-1.104-0.186-1.429-0.559c-0.325-0.372-0.487-0.914-0.487-1.624c0-0.463,0.087-0.972,0.26-1.527
			c0.173-0.554,0.427-1.042,0.76-1.462c0.333-0.42,0.723-0.734,1.169-0.942c0.446-0.208,0.923-0.312,1.429-0.312
			c0.346,0,0.649,0.02,0.906,0.059c0.258,0.039,0.486,0.084,0.686,0.136L12.1,62.004H11.418z"/>
		<path fill="#231F20" d="M14.439,65.032c-0.048,0.221-0.078,0.382-0.091,0.484c-0.013,0.102-0.02,0.188-0.02,0.257
			c0,0.13,0.022,0.232,0.065,0.305c0.043,0.074,0.111,0.13,0.202,0.169c0.091,0.039,0.24,0.069,0.448,0.091l-0.058,0.318h-2.014
			l0.981-4.379c0.056-0.251,0.095-0.451,0.117-0.601c0.022-0.15,0.033-0.274,0.033-0.374c0-0.126-0.019-0.223-0.055-0.292
			c-0.037-0.069-0.099-0.121-0.185-0.156c-0.087-0.034-0.236-0.056-0.448-0.065l0.071-0.344l1.585-0.059h0.383L14.439,65.032z
			 M16.044,57.898l-0.299,1.26h-1.15l0.299-1.26H16.044z"/>
		<path fill="#231F20" d="M21.3,65.363c-0.321,0.351-0.628,0.628-0.923,0.831c-0.295,0.204-0.589,0.349-0.884,0.435
			s-0.619,0.13-0.975,0.13c-0.342,0-0.637-0.055-0.883-0.166c-0.247-0.11-0.452-0.262-0.614-0.455
			c-0.162-0.193-0.283-0.422-0.36-0.689c-0.078-0.266-0.117-0.555-0.117-0.867c0-0.463,0.083-0.96,0.25-1.491
			c0.167-0.53,0.419-1.007,0.757-1.429s0.743-0.749,1.215-0.981c0.472-0.232,0.975-0.348,1.507-0.348
			c0.524,0,0.917,0.106,1.179,0.318c0.262,0.212,0.393,0.544,0.393,0.994c0,0.736-0.346,1.289-1.036,1.657
			c-0.691,0.368-1.716,0.552-3.076,0.552c-0.052,0.26-0.078,0.542-0.078,0.845c0,0.455,0.089,0.785,0.267,0.991
			C18.099,65.897,18.389,66,18.792,66c0.398,0,0.76-0.087,1.085-0.26c0.325-0.173,0.665-0.44,1.02-0.799L21.3,65.363z
			 M17.843,63.304c0.398-0.004,0.748-0.027,1.049-0.068c0.301-0.041,0.56-0.097,0.777-0.169c0.216-0.071,0.396-0.157,0.539-0.257
			c0.143-0.099,0.257-0.209,0.341-0.328c0.085-0.119,0.143-0.245,0.176-0.377s0.049-0.27,0.049-0.413
			c0-0.264-0.062-0.471-0.185-0.62c-0.123-0.15-0.306-0.224-0.549-0.224c-0.303,0-0.601,0.109-0.894,0.328
			c-0.292,0.219-0.55,0.513-0.773,0.884S17.973,62.845,17.843,63.304z"/>
		<path fill="#231F20" d="M28.219,66.656h-2.047l0.825-3.3c0.052-0.212,0.103-0.446,0.153-0.702c0.05-0.255,0.075-0.485,0.075-0.689
			c0-0.307-0.053-0.528-0.159-0.663c-0.106-0.134-0.272-0.202-0.497-0.202c-0.182,0-0.378,0.071-0.588,0.211
			c-0.21,0.141-0.43,0.351-0.66,0.63c-0.23,0.279-0.423,0.563-0.581,0.851c-0.158,0.288-0.28,0.638-0.367,1.049l-0.591,2.813h-1.124
			l0.988-4.437c0.022-0.1,0.051-0.247,0.087-0.442c0.037-0.195,0.055-0.357,0.055-0.487c0-0.121-0.019-0.216-0.055-0.283
			c-0.037-0.067-0.1-0.117-0.188-0.15c-0.089-0.032-0.239-0.055-0.451-0.068l0.078-0.344l1.475-0.059h0.37l-0.435,1.689l0.078,0.026
			c0.424-0.598,0.834-1.04,1.228-1.329c0.394-0.288,0.788-0.432,1.182-0.432c0.42,0,0.738,0.116,0.955,0.348
			c0.217,0.232,0.325,0.575,0.325,1.03c0,0.156-0.014,0.326-0.042,0.51c-0.028,0.184-0.059,0.348-0.094,0.49l-0.546,2.313
			c-0.074,0.312-0.111,0.559-0.111,0.741c0,0.13,0.022,0.232,0.065,0.305c0.043,0.074,0.111,0.13,0.202,0.169
			c0.091,0.039,0.24,0.069,0.448,0.091L28.219,66.656z"/>
		<path fill="#231F20" d="M33.988,62.004c-0.009-0.329-0.036-0.567-0.081-0.715c-0.045-0.147-0.119-0.257-0.221-0.331
			c-0.102-0.074-0.246-0.111-0.432-0.111c-0.437,0-0.831,0.174-1.179,0.523c-0.349,0.349-0.633,0.842-0.854,1.481
			c-0.221,0.639-0.331,1.253-0.331,1.842c0,0.182,0.016,0.353,0.049,0.513c0.032,0.16,0.089,0.299,0.169,0.416
			c0.08,0.117,0.186,0.209,0.318,0.276c0.132,0.067,0.3,0.101,0.503,0.101c0.394,0,0.735-0.075,1.023-0.224
			c0.288-0.149,0.592-0.384,0.913-0.705l0.396,0.396c-0.407,0.451-0.817,0.779-1.231,0.987c-0.414,0.208-0.859,0.312-1.335,0.312
			c-0.628,0-1.104-0.186-1.429-0.559c-0.325-0.372-0.487-0.914-0.487-1.624c0-0.463,0.087-0.972,0.26-1.527
			c0.173-0.554,0.427-1.042,0.76-1.462c0.333-0.42,0.723-0.734,1.169-0.942c0.446-0.208,0.923-0.312,1.429-0.312
			c0.346,0,0.649,0.02,0.906,0.059c0.258,0.039,0.486,0.084,0.686,0.136l-0.318,1.468H33.988z"/>
		<path fill="#231F20" d="M40.264,65.363c-0.321,0.351-0.628,0.628-0.923,0.831c-0.295,0.204-0.589,0.349-0.884,0.435
			c-0.295,0.087-0.619,0.13-0.975,0.13c-0.342,0-0.637-0.055-0.883-0.166c-0.247-0.11-0.452-0.262-0.614-0.455
			s-0.283-0.422-0.36-0.689c-0.078-0.266-0.117-0.555-0.117-0.867c0-0.463,0.083-0.96,0.25-1.491
			c0.167-0.53,0.419-1.007,0.757-1.429s0.743-0.749,1.215-0.981c0.472-0.232,0.975-0.348,1.507-0.348
			c0.524,0,0.917,0.106,1.179,0.318c0.262,0.212,0.393,0.544,0.393,0.994c0,0.736-0.346,1.289-1.036,1.657
			c-0.691,0.368-1.716,0.552-3.076,0.552c-0.052,0.26-0.078,0.542-0.078,0.845c0,0.455,0.089,0.785,0.267,0.991
			C37.063,65.897,37.353,66,37.756,66c0.398,0,0.76-0.087,1.085-0.26c0.325-0.173,0.665-0.44,1.02-0.799L40.264,65.363z
			 M36.808,63.304c0.398-0.004,0.748-0.027,1.049-0.068c0.301-0.041,0.56-0.097,0.777-0.169c0.216-0.071,0.396-0.157,0.539-0.257
			c0.143-0.099,0.257-0.209,0.341-0.328c0.085-0.119,0.143-0.245,0.176-0.377c0.032-0.132,0.049-0.27,0.049-0.413
			c0-0.264-0.062-0.471-0.185-0.62c-0.123-0.15-0.306-0.224-0.549-0.224c-0.303,0-0.601,0.109-0.894,0.328
			c-0.292,0.219-0.55,0.513-0.773,0.884S36.937,62.845,36.808,63.304z"/>
		<path fill="#231F20" d="M46.644,66.767c-0.671,0-1.192-0.188-1.562-0.565c-0.37-0.377-0.556-0.918-0.556-1.624
			c0-0.26,0.033-0.565,0.097-0.916c0.082-0.455,0.199-0.858,0.351-1.208c0.195-0.437,0.445-0.815,0.75-1.134
			c0.306-0.318,0.656-0.561,1.053-0.728c0.396-0.167,0.822-0.25,1.276-0.25c0.498,0,0.906,0.095,1.225,0.286
			c0.318,0.19,0.549,0.449,0.692,0.776c0.143,0.327,0.215,0.705,0.215,1.134c0,0.386-0.054,0.797-0.162,1.234
			c-0.156,0.641-0.383,1.185-0.682,1.631c-0.299,0.446-0.673,0.785-1.124,1.017C47.765,66.651,47.241,66.767,46.644,66.767z
			 M45.663,64.856c0,0.477,0.098,0.828,0.296,1.056c0.197,0.227,0.495,0.341,0.893,0.341c0.424,0,0.801-0.191,1.13-0.572
			s0.589-0.915,0.78-1.601c0.19-0.686,0.286-1.29,0.286-1.809c0-0.468-0.091-0.82-0.273-1.056c-0.182-0.236-0.466-0.354-0.851-0.354
			c-0.451,0-0.844,0.188-1.179,0.565c-0.336,0.377-0.6,0.916-0.793,1.618C45.759,63.745,45.663,64.35,45.663,64.856z"/>
		<path fill="#231F20" d="M56.857,66.656H54.81l0.825-3.3c0.052-0.212,0.103-0.446,0.153-0.702c0.05-0.255,0.075-0.485,0.075-0.689
			c0-0.307-0.053-0.528-0.159-0.663c-0.106-0.134-0.272-0.202-0.497-0.202c-0.182,0-0.378,0.071-0.588,0.211
			c-0.21,0.141-0.43,0.351-0.66,0.63c-0.23,0.279-0.423,0.563-0.581,0.851c-0.158,0.288-0.28,0.638-0.367,1.049l-0.591,2.813h-1.124
			l0.988-4.437c0.022-0.1,0.051-0.247,0.087-0.442c0.037-0.195,0.055-0.357,0.055-0.487c0-0.121-0.019-0.216-0.055-0.283
			c-0.037-0.067-0.1-0.117-0.188-0.15c-0.089-0.032-0.239-0.055-0.451-0.068l0.078-0.344l1.475-0.059h0.37l-0.435,1.689l0.078,0.026
			c0.424-0.598,0.834-1.04,1.228-1.329c0.394-0.288,0.788-0.432,1.182-0.432c0.42,0,0.738,0.116,0.955,0.348
			c0.217,0.232,0.325,0.575,0.325,1.03c0,0.156-0.014,0.326-0.042,0.51c-0.028,0.184-0.059,0.348-0.094,0.49l-0.546,2.313
			c-0.074,0.312-0.111,0.559-0.111,0.741c0,0.13,0.022,0.232,0.065,0.305c0.043,0.074,0.111,0.13,0.202,0.169
			c0.091,0.039,0.24,0.069,0.448,0.091L56.857,66.656z"/>
		<path fill="#231F20" d="M65.166,65.461c-0.355,0.429-0.706,0.753-1.052,0.971c-0.347,0.219-0.715,0.328-1.104,0.328
			c-0.459,0-0.801-0.117-1.026-0.351c-0.225-0.234-0.338-0.574-0.338-1.02c0-0.273,0.039-0.578,0.117-0.916l0.806-3.372h-0.968
			l0.071-0.331c0.255-0.03,0.458-0.085,0.607-0.166c0.15-0.08,0.275-0.186,0.377-0.318c0.102-0.132,0.196-0.304,0.283-0.516
			c0.087-0.212,0.195-0.522,0.325-0.929h0.897l-0.358,1.605h2.06l-0.143,0.656h-2.066l-0.624,2.521
			c-0.173,0.702-0.26,1.226-0.26,1.572c0,0.264,0.057,0.465,0.172,0.601C63.055,65.932,63.223,66,63.444,66
			c0.199,0,0.408-0.077,0.627-0.231s0.458-0.387,0.718-0.698L65.166,65.461z"/>
		<path fill="#231F20" d="M71.435,66.656h-2.04l0.819-3.3c0.061-0.238,0.114-0.48,0.159-0.724c0.045-0.245,0.068-0.467,0.068-0.666
			c0-0.312-0.052-0.534-0.156-0.666c-0.104-0.132-0.279-0.198-0.526-0.198c-0.178,0-0.374,0.074-0.588,0.221
			c-0.214,0.147-0.441,0.372-0.679,0.672c-0.238,0.301-0.428,0.589-0.569,0.864c-0.141,0.275-0.252,0.603-0.334,0.984l-0.591,2.813
			h-1.124l1.67-7.426c0.048-0.217,0.081-0.374,0.101-0.471c0.02-0.098,0.034-0.188,0.042-0.27c0.009-0.082,0.013-0.156,0.013-0.221
			c0-0.182-0.055-0.31-0.166-0.383c-0.111-0.073-0.309-0.115-0.595-0.123l0.078-0.338l1.644-0.058h0.377l-1.117,4.502l0.078,0.026
			c0.407-0.542,0.795-0.936,1.163-1.183c0.368-0.247,0.743-0.37,1.124-0.37c0.42,0,0.739,0.116,0.955,0.348
			c0.217,0.232,0.325,0.575,0.325,1.03c0,0.277-0.043,0.611-0.13,1.001l-0.546,2.313c-0.043,0.186-0.073,0.336-0.091,0.449
			c-0.017,0.113-0.026,0.21-0.026,0.292c0,0.134,0.023,0.238,0.068,0.312c0.045,0.074,0.115,0.129,0.208,0.166
			c0.093,0.037,0.241,0.066,0.445,0.087L71.435,66.656z"/>
		<path fill="#231F20" d="M77.718,65.363c-0.321,0.351-0.628,0.628-0.923,0.831c-0.295,0.204-0.589,0.349-0.884,0.435
			s-0.619,0.13-0.975,0.13c-0.342,0-0.637-0.055-0.883-0.166c-0.247-0.11-0.452-0.262-0.614-0.455s-0.283-0.422-0.36-0.689
			c-0.078-0.266-0.117-0.555-0.117-0.867c0-0.463,0.083-0.96,0.25-1.491c0.167-0.53,0.419-1.007,0.757-1.429
			s0.743-0.749,1.215-0.981c0.472-0.232,0.975-0.348,1.507-0.348c0.524,0,0.917,0.106,1.179,0.318
			c0.262,0.212,0.393,0.544,0.393,0.994c0,0.736-0.346,1.289-1.036,1.657c-0.691,0.368-1.716,0.552-3.076,0.552
			c-0.052,0.26-0.078,0.542-0.078,0.845c0,0.455,0.089,0.785,0.267,0.991C74.517,65.897,74.807,66,75.21,66
			c0.398,0,0.76-0.087,1.085-0.26c0.325-0.173,0.665-0.44,1.02-0.799L77.718,65.363z M74.261,63.304
			c0.398-0.004,0.748-0.027,1.049-0.068c0.301-0.041,0.56-0.097,0.777-0.169c0.216-0.071,0.396-0.157,0.539-0.257
			c0.143-0.099,0.257-0.209,0.341-0.328c0.085-0.119,0.143-0.245,0.176-0.377s0.049-0.27,0.049-0.413
			c0-0.264-0.062-0.471-0.185-0.62c-0.123-0.15-0.306-0.224-0.549-0.224c-0.303,0-0.601,0.109-0.894,0.328
			c-0.292,0.219-0.55,0.513-0.773,0.884S74.391,62.845,74.261,63.304z"/>
		<path fill="#231F20" d="M89.132,58.015l-0.39,1.76h-0.624c-0.035-0.533-0.15-0.917-0.348-1.153
			c-0.197-0.236-0.514-0.354-0.952-0.354c-0.364,0-0.706,0.107-1.026,0.321c-0.321,0.215-0.624,0.524-0.91,0.929
			c-0.286,0.405-0.535,0.879-0.747,1.423c-0.212,0.544-0.375,1.098-0.487,1.663c-0.113,0.565-0.169,1.075-0.169,1.53
			c0,0.706,0.116,1.224,0.348,1.556c0.232,0.331,0.595,0.497,1.088,0.497c0.325,0,0.608-0.049,0.851-0.146
			c0.243-0.097,0.47-0.262,0.682-0.494c0.212-0.232,0.422-0.556,0.63-0.971h0.623l-0.396,1.845c-0.442,0.121-0.868,0.208-1.28,0.26
			c-0.412,0.052-0.834,0.078-1.267,0.078c-0.537,0-0.994-0.111-1.371-0.334c-0.377-0.223-0.661-0.546-0.851-0.968
			c-0.191-0.422-0.286-0.93-0.286-1.524c0-0.312,0.022-0.615,0.065-0.91c0.052-0.364,0.134-0.76,0.247-1.189
			c0.143-0.532,0.323-1.018,0.539-1.455c0.234-0.463,0.5-0.873,0.799-1.228c0.281-0.329,0.587-0.604,0.916-0.825
			c0.303-0.204,0.63-0.362,0.981-0.474s0.723-0.169,1.117-0.169c0.394,0,0.759,0.024,1.095,0.072
			C88.347,57.803,88.721,57.89,89.132,58.015z"/>
		<path fill="#231F20" d="M91.276,66.767c-0.671,0-1.192-0.188-1.562-0.565c-0.37-0.377-0.556-0.918-0.556-1.624
			c0-0.26,0.033-0.565,0.097-0.916c0.082-0.455,0.199-0.858,0.351-1.208c0.195-0.437,0.445-0.815,0.75-1.134
			c0.306-0.318,0.656-0.561,1.053-0.728c0.396-0.167,0.822-0.25,1.276-0.25c0.498,0,0.906,0.095,1.225,0.286
			c0.318,0.19,0.549,0.449,0.692,0.776c0.143,0.327,0.215,0.705,0.215,1.134c0,0.386-0.054,0.797-0.162,1.234
			c-0.156,0.641-0.383,1.185-0.682,1.631c-0.299,0.446-0.673,0.785-1.124,1.017C92.398,66.651,91.874,66.767,91.276,66.767z
			 M90.295,64.856c0,0.477,0.098,0.828,0.296,1.056c0.197,0.227,0.495,0.341,0.893,0.341c0.424,0,0.801-0.191,1.13-0.572
			c0.329-0.381,0.589-0.915,0.78-1.601c0.19-0.686,0.286-1.29,0.286-1.809c0-0.468-0.091-0.82-0.273-1.056
			c-0.182-0.236-0.466-0.354-0.851-0.354c-0.451,0-0.844,0.188-1.179,0.565c-0.336,0.377-0.6,0.916-0.793,1.618
			C90.392,63.745,90.295,64.35,90.295,64.856z"/>
		<path fill="#231F20" d="M100.781,60.763l0.598-0.429l0.416,0.104L100.8,64.85c-0.061,0.26-0.102,0.46-0.123,0.601
			c-0.022,0.141-0.033,0.257-0.033,0.348c0,0.178,0.05,0.306,0.15,0.387c0.099,0.08,0.29,0.131,0.572,0.153l-0.058,0.318h-1.858
			l0.409-1.631l-0.085-0.026c-0.416,0.607-0.81,1.05-1.183,1.332c-0.372,0.282-0.766,0.422-1.182,0.422
			c-0.477,0-0.846-0.18-1.108-0.539c-0.262-0.36-0.393-0.864-0.393-1.514c0-0.416,0.048-0.833,0.143-1.25
			c0.095-0.418,0.239-0.814,0.432-1.189c0.193-0.375,0.423-0.705,0.692-0.991c0.268-0.286,0.579-0.513,0.932-0.682
			c0.353-0.169,0.737-0.253,1.153-0.253c0.269,0,0.524,0.031,0.767,0.094C100.27,60.492,100.521,60.603,100.781,60.763z
			 M100.209,62.699c0.039-0.177,0.065-0.331,0.078-0.461c0.013-0.13,0.02-0.271,0.02-0.422c0-0.338-0.071-0.584-0.214-0.737
			c-0.143-0.154-0.381-0.231-0.715-0.231c-0.182,0-0.355,0.029-0.52,0.088c-0.165,0.058-0.331,0.156-0.5,0.292
			c-0.169,0.136-0.33,0.315-0.484,0.536c-0.154,0.221-0.294,0.49-0.419,0.806c-0.126,0.316-0.223,0.655-0.292,1.017
			c-0.069,0.362-0.104,0.714-0.104,1.056c0,0.451,0.062,0.787,0.185,1.01c0.123,0.223,0.33,0.334,0.62,0.334
			c0.134,0,0.274-0.03,0.419-0.091c0.145-0.06,0.306-0.172,0.484-0.334s0.379-0.402,0.604-0.718c0.204-0.29,0.365-0.577,0.484-0.861
			c0.119-0.283,0.218-0.618,0.295-1.004L100.209,62.699z"/>
		<path fill="#231F20" d="M106.647,61.959c-0.048-0.39-0.159-0.672-0.335-0.848c-0.175-0.175-0.447-0.263-0.815-0.263
			c-0.204,0-0.388,0.038-0.552,0.114c-0.165,0.076-0.295,0.186-0.39,0.331c-0.095,0.145-0.143,0.315-0.143,0.51
			c0,0.16,0.032,0.306,0.097,0.439c0.065,0.132,0.174,0.269,0.328,0.412c0.154,0.143,0.369,0.308,0.647,0.494
			c0.42,0.281,0.715,0.554,0.884,0.819c0.169,0.264,0.253,0.57,0.253,0.916c0,0.407-0.098,0.753-0.292,1.036
			c-0.195,0.284-0.461,0.495-0.799,0.634c-0.338,0.139-0.719,0.208-1.143,0.208c-0.381,0-0.738-0.028-1.069-0.084
			s-0.653-0.128-0.965-0.214l0.305-1.403h0.507c0.03,0.398,0.144,0.696,0.341,0.893s0.484,0.295,0.861,0.295
			c0.386,0,0.686-0.096,0.903-0.289c0.216-0.193,0.325-0.447,0.325-0.763c0-0.186-0.033-0.353-0.098-0.5
			c-0.065-0.147-0.167-0.288-0.305-0.422c-0.139-0.134-0.336-0.288-0.591-0.461c-0.273-0.186-0.494-0.362-0.663-0.526
			c-0.169-0.164-0.3-0.345-0.393-0.542c-0.093-0.197-0.14-0.415-0.14-0.653c0-0.359,0.089-0.671,0.266-0.936
			c0.178-0.264,0.43-0.465,0.757-0.604c0.327-0.139,0.709-0.208,1.147-0.208c0.714,0,1.345,0.093,1.891,0.279l-0.299,1.339H106.647z
			"/>
		<path fill="#231F20" d="M111.825,65.461c-0.355,0.429-0.706,0.753-1.052,0.971c-0.347,0.219-0.715,0.328-1.104,0.328
			c-0.459,0-0.801-0.117-1.026-0.351c-0.225-0.234-0.338-0.574-0.338-1.02c0-0.273,0.039-0.578,0.117-0.916l0.806-3.372h-0.968
			l0.071-0.331c0.255-0.03,0.458-0.085,0.607-0.166c0.15-0.08,0.275-0.186,0.377-0.318c0.102-0.132,0.196-0.304,0.283-0.516
			c0.087-0.212,0.195-0.522,0.325-0.929h0.897l-0.358,1.605h2.06l-0.143,0.656h-2.066l-0.624,2.521
			c-0.173,0.702-0.26,1.226-0.26,1.572c0,0.264,0.057,0.465,0.172,0.601c0.115,0.136,0.283,0.205,0.503,0.205
			c0.199,0,0.408-0.077,0.627-0.231c0.219-0.154,0.458-0.387,0.718-0.698L111.825,65.461z"/>
		<path fill="#231F20" d="M117.452,60.763l0.598-0.429l0.416,0.104l-0.994,4.411c-0.061,0.26-0.102,0.46-0.123,0.601
			c-0.022,0.141-0.033,0.257-0.033,0.348c0,0.178,0.05,0.306,0.15,0.387c0.099,0.08,0.29,0.131,0.572,0.153l-0.058,0.318h-1.858
			l0.409-1.631l-0.085-0.026c-0.416,0.607-0.81,1.05-1.183,1.332c-0.372,0.282-0.766,0.422-1.182,0.422
			c-0.477,0-0.846-0.18-1.108-0.539s-0.393-0.864-0.393-1.514c0-0.416,0.048-0.833,0.143-1.25c0.095-0.418,0.239-0.814,0.432-1.189
			c0.193-0.375,0.423-0.705,0.692-0.991c0.268-0.286,0.579-0.513,0.932-0.682c0.353-0.169,0.737-0.253,1.153-0.253
			c0.269,0,0.524,0.031,0.767,0.094C116.941,60.492,117.192,60.603,117.452,60.763z M116.88,62.699
			c0.039-0.177,0.065-0.331,0.078-0.461c0.013-0.13,0.02-0.271,0.02-0.422c0-0.338-0.071-0.584-0.214-0.737
			s-0.381-0.231-0.715-0.231c-0.182,0-0.355,0.029-0.52,0.088c-0.165,0.058-0.331,0.156-0.5,0.292
			c-0.169,0.136-0.33,0.315-0.484,0.536c-0.154,0.221-0.294,0.49-0.419,0.806c-0.126,0.316-0.223,0.655-0.292,1.017
			c-0.069,0.362-0.104,0.714-0.104,1.056c0,0.451,0.062,0.787,0.185,1.01c0.123,0.223,0.33,0.334,0.62,0.334
			c0.134,0,0.274-0.03,0.419-0.091c0.145-0.06,0.306-0.172,0.484-0.334c0.178-0.162,0.379-0.402,0.604-0.718
			c0.204-0.29,0.365-0.577,0.484-0.861c0.119-0.283,0.218-0.618,0.295-1.004L116.88,62.699z"/>
		<path fill="#231F20" d="M122.311,57.366h0.384l-1.69,7.666c-0.047,0.208-0.078,0.365-0.091,0.471
			c-0.013,0.106-0.019,0.196-0.019,0.269c0,0.13,0.022,0.232,0.065,0.305c0.043,0.074,0.111,0.13,0.202,0.169
			c0.091,0.039,0.24,0.069,0.448,0.091l-0.052,0.318h-2.027l1.676-7.458c0.043-0.19,0.073-0.333,0.091-0.429
			c0.017-0.095,0.03-0.186,0.038-0.273c0.009-0.087,0.013-0.162,0.013-0.227c0-0.13-0.024-0.229-0.072-0.296
			c-0.048-0.067-0.116-0.116-0.205-0.146c-0.089-0.03-0.248-0.052-0.477-0.065l0.078-0.338L122.311,57.366z"/>
		<path fill="#231F20" d="M134.317,57.788h2.047l-0.072,0.318c-0.164,0.035-0.282,0.073-0.354,0.117
			c-0.072,0.043-0.136,0.108-0.195,0.195c-0.058,0.087-0.117,0.222-0.176,0.406c-0.058,0.184-0.133,0.484-0.224,0.9l-1.111,5.041
			c-0.057,0.255-0.093,0.458-0.11,0.607c-0.018,0.149-0.026,0.285-0.026,0.406c0,0.195,0.049,0.332,0.146,0.413
			c0.097,0.08,0.261,0.129,0.49,0.146l-0.072,0.318h-2.599l0.072-0.318c0.164-0.026,0.288-0.068,0.37-0.127
			c0.082-0.059,0.152-0.14,0.208-0.244c0.057-0.104,0.108-0.23,0.156-0.38c0.047-0.149,0.119-0.439,0.214-0.867l0.864-3.918
			c0.113-0.515,0.255-1.068,0.429-1.657h-0.091c-0.125,0.234-0.25,0.458-0.373,0.672c-0.124,0.214-0.307,0.523-0.549,0.926
			l-2.956,4.879h-0.708l-0.624-4.873l-0.175-1.748h-0.13c-0.164,1.087-0.33,2.007-0.494,2.761l-0.623,2.833
			c-0.073,0.329-0.121,0.574-0.143,0.734c-0.022,0.16-0.033,0.31-0.033,0.448c0,0.195,0.049,0.332,0.146,0.413
			c0.097,0.08,0.261,0.129,0.49,0.146l-0.072,0.318h-2.273l0.071-0.318c0.164-0.026,0.288-0.068,0.37-0.127
			c0.082-0.059,0.152-0.14,0.208-0.244c0.057-0.104,0.108-0.23,0.156-0.38c0.047-0.149,0.119-0.439,0.214-0.867l1.105-5.002
			c0.043-0.186,0.078-0.364,0.104-0.533c0.026-0.169,0.039-0.34,0.039-0.513c0-0.204-0.052-0.345-0.156-0.425
			c-0.104-0.08-0.264-0.127-0.481-0.14l0.071-0.318h2.32l0.741,6.302L134.317,57.788z"/>
		<path fill="#231F20" d="M141.464,60.763l0.598-0.429l0.416,0.104l-0.994,4.411c-0.061,0.26-0.102,0.46-0.124,0.601
			c-0.022,0.141-0.033,0.257-0.033,0.348c0,0.178,0.05,0.306,0.149,0.387s0.29,0.131,0.572,0.153l-0.059,0.318h-1.858l0.409-1.631
			l-0.084-0.026c-0.416,0.607-0.81,1.05-1.183,1.332c-0.373,0.282-0.766,0.422-1.182,0.422c-0.477,0-0.846-0.18-1.108-0.539
			c-0.262-0.36-0.393-0.864-0.393-1.514c0-0.416,0.047-0.833,0.143-1.25c0.095-0.418,0.239-0.814,0.432-1.189
			c0.192-0.375,0.423-0.705,0.692-0.991c0.268-0.286,0.579-0.513,0.932-0.682s0.738-0.253,1.154-0.253
			c0.268,0,0.524,0.031,0.766,0.094C140.953,60.492,141.204,60.603,141.464,60.763z M140.892,62.699
			c0.039-0.177,0.065-0.331,0.078-0.461c0.013-0.13,0.019-0.271,0.019-0.422c0-0.338-0.072-0.584-0.215-0.737
			c-0.143-0.154-0.381-0.231-0.714-0.231c-0.182,0-0.355,0.029-0.52,0.088c-0.164,0.058-0.331,0.156-0.5,0.292
			c-0.169,0.136-0.33,0.315-0.484,0.536c-0.153,0.221-0.293,0.49-0.419,0.806c-0.126,0.316-0.223,0.655-0.292,1.017
			c-0.069,0.362-0.104,0.714-0.104,1.056c0,0.451,0.062,0.787,0.185,1.01c0.123,0.223,0.33,0.334,0.621,0.334
			c0.134,0,0.274-0.03,0.419-0.091c0.145-0.06,0.306-0.172,0.484-0.334c0.177-0.162,0.379-0.402,0.604-0.718
			c0.204-0.29,0.365-0.577,0.484-0.861c0.119-0.283,0.218-0.618,0.296-1.004L140.892,62.699z"/>
		<path fill="#231F20" d="M145.628,60.387h0.39l-0.455,1.598l0.078,0.026c0.411-0.567,0.813-0.987,1.205-1.26
			c0.392-0.273,0.796-0.409,1.211-0.409c0.316,0,0.581,0.024,0.793,0.071l-0.311,1.455h-0.67c-0.034-0.225-0.089-0.396-0.162-0.513
			c-0.073-0.117-0.188-0.176-0.344-0.176c-0.169,0-0.364,0.087-0.585,0.26c-0.221,0.174-0.446,0.412-0.675,0.715
			c-0.23,0.303-0.402,0.583-0.517,0.838c-0.115,0.255-0.202,0.539-0.263,0.851l-0.591,2.813h-1.124l0.987-4.437
			c0.091-0.407,0.136-0.717,0.136-0.929c0-0.121-0.019-0.216-0.058-0.283c-0.039-0.067-0.102-0.117-0.188-0.15
			c-0.087-0.032-0.234-0.055-0.442-0.068l0.072-0.344L145.628,60.387z"/>
		<path fill="#231F20" d="M149.123,67.215c-0.082,0.099-0.152,0.198-0.208,0.296c-0.057,0.097-0.097,0.192-0.12,0.283
			c-0.024,0.091-0.036,0.199-0.036,0.325c0,0.325,0.117,0.562,0.351,0.711c0.234,0.15,0.587,0.224,1.059,0.224
			c0.429,0,0.786-0.076,1.072-0.227c0.286-0.152,0.528-0.384,0.727-0.698c0.199-0.314,0.374-0.702,0.523-1.163
			c0.149-0.461,0.302-1.077,0.458-1.848l-0.091-0.02c-0.42,0.576-0.81,0.996-1.169,1.26c-0.359,0.264-0.747,0.396-1.163,0.396
			c-0.472,0-0.839-0.178-1.101-0.533c-0.262-0.355-0.393-0.862-0.393-1.52c0-0.481,0.063-0.955,0.188-1.423
			c0.126-0.468,0.301-0.89,0.527-1.267c0.225-0.377,0.479-0.69,0.763-0.939c0.284-0.249,0.584-0.434,0.9-0.556
			s0.646-0.182,0.987-0.182c0.273,0,0.531,0.032,0.773,0.097c0.243,0.065,0.487,0.176,0.734,0.331l0.597-0.429l0.416,0.104
			l-0.675,3.047c-0.048,0.217-0.097,0.461-0.149,0.734l-0.169,0.851c-0.204,1.022-0.366,1.726-0.487,2.112
			c-0.148,0.446-0.321,0.819-0.52,1.117c-0.187,0.273-0.408,0.501-0.663,0.686c-0.255,0.184-0.551,0.326-0.887,0.425
			c-0.336,0.1-0.731,0.149-1.186,0.149c-1.637,0-2.456-0.477-2.456-1.429c0-0.243,0.074-0.463,0.221-0.663
			c0.148-0.199,0.383-0.409,0.708-0.63L149.123,67.215z M150.988,65.987c0.221,0,0.441-0.076,0.66-0.227
			c0.219-0.152,0.453-0.392,0.702-0.721c0.249-0.329,0.443-0.643,0.581-0.942c0.138-0.299,0.257-0.671,0.354-1.117
			c0.097-0.446,0.146-0.834,0.146-1.163c0-0.338-0.072-0.584-0.215-0.737s-0.381-0.231-0.714-0.231c-0.182,0-0.355,0.029-0.52,0.088
			c-0.164,0.058-0.331,0.156-0.5,0.292c-0.169,0.136-0.331,0.315-0.484,0.536c-0.154,0.221-0.293,0.49-0.419,0.806
			c-0.125,0.316-0.223,0.655-0.292,1.017c-0.069,0.362-0.104,0.714-0.104,1.056c0,0.451,0.065,0.787,0.195,1.01
			C150.507,65.875,150.711,65.987,150.988,65.987z"/>
		<path fill="#231F20" d="M157.446,65.032c-0.048,0.221-0.078,0.382-0.091,0.484c-0.013,0.102-0.02,0.188-0.02,0.257
			c0,0.13,0.022,0.232,0.065,0.305c0.043,0.074,0.11,0.13,0.201,0.169c0.091,0.039,0.24,0.069,0.449,0.091l-0.059,0.318h-2.014
			l0.981-4.379c0.057-0.251,0.095-0.451,0.117-0.601c0.022-0.15,0.032-0.274,0.032-0.374c0-0.126-0.018-0.223-0.055-0.292
			c-0.037-0.069-0.099-0.121-0.185-0.156c-0.086-0.034-0.236-0.056-0.448-0.065l0.071-0.344l1.585-0.059h0.383L157.446,65.032z
			 M159.05,57.898l-0.299,1.26h-1.15l0.299-1.26H159.05z"/>
		<path fill="#231F20" d="M165.144,66.656h-2.047l0.825-3.3c0.052-0.212,0.103-0.446,0.153-0.702
			c0.05-0.255,0.075-0.485,0.075-0.689c0-0.307-0.053-0.528-0.159-0.663c-0.106-0.134-0.272-0.202-0.497-0.202
			c-0.182,0-0.378,0.071-0.588,0.211c-0.21,0.141-0.43,0.351-0.66,0.63c-0.23,0.279-0.423,0.563-0.581,0.851
			c-0.158,0.288-0.281,0.638-0.367,1.049l-0.591,2.813h-1.124l0.987-4.437c0.022-0.1,0.051-0.247,0.088-0.442
			c0.037-0.195,0.055-0.357,0.055-0.487c0-0.121-0.018-0.216-0.055-0.283c-0.037-0.067-0.1-0.117-0.188-0.15
			c-0.089-0.032-0.24-0.055-0.452-0.068l0.078-0.344l1.475-0.059h0.37l-0.436,1.689l0.078,0.026c0.425-0.598,0.833-1.04,1.228-1.329
			c0.394-0.288,0.789-0.432,1.183-0.432c0.42,0,0.738,0.116,0.955,0.348c0.216,0.232,0.325,0.575,0.325,1.03
			c0,0.156-0.014,0.326-0.042,0.51c-0.029,0.184-0.06,0.348-0.094,0.49l-0.546,2.313c-0.073,0.312-0.11,0.559-0.11,0.741
			c0,0.13,0.022,0.232,0.065,0.305c0.044,0.074,0.111,0.13,0.202,0.169c0.091,0.039,0.24,0.069,0.448,0.091L165.144,66.656z"/>
	</g>
</g>
</svg>
