<?xml version="1.0" encoding="UTF-8"?>
<svg id="Calque_2" data-name="Calque 2" xmlns="http://www.w3.org/2000/svg" viewBox="0 0 65.41 26.1">
  <defs>
    <style>
      .cls-1 {
        fill: #e2e2e2;
      }

      .cls-2 {
        fill: #303030;
      }

      .cls-3 {
        fill: none;
        stroke: #303030;
        stroke-linecap: round;
        stroke-miterlimit: 10;
      }
    </style>
  </defs>
  <g id="Calque_1-2" data-name="Calque 1">
    <g>
      <rect class="cls-1" width="65.41" height="26.1" rx="4.25" ry="4.25"/>
      <path class="cls-2" d="m47.47,1.23c.78,0,1.42.63,1.42,1.42v2.84h5.32c1.76,0,3.19,1.43,3.19,3.19v12.06c0,1.76-1.43,3.19-3.19,3.19h-13.47c-1.76,0-3.19-1.43-3.19-3.19v-12.06c0-1.76,1.43-3.19,3.19-3.19h5.32v-2.84c0-.78.63-1.42,1.42-1.42Zm-.71,17.02c-.39,0-.71.32-.71.71s.32.71.71.71h1.42c.39,0,.71-.32.71-.71s-.32-.71-.71-.71h-1.42Zm-1.77-5.67c0-.98-.79-1.77-1.77-1.77s-1.77.79-1.77,1.77.79,1.77,1.77,1.77,1.77-.79,1.77-1.77Zm6.74,1.77c.98,0,1.77-.79,1.77-1.77s-.79-1.77-1.77-1.77-1.77.79-1.77,1.77.79,1.77,1.77,1.77Zm-16.31-3.19h.71v8.51h-.71c-1.17,0-2.13-.95-2.13-2.13v-4.25c0-1.17.95-2.13,2.13-2.13Zm24.11,0c1.17,0,2.13.95,2.13,2.13v4.25c0,1.17-.95,2.13-2.13,2.13h-.71v-8.51h.71Z"/>
      <path class="cls-2" d="m24.35,13.27c.64,0,1.16.52,1.16,1.16v.23h3.47c.64,0,1.16.52,1.16,1.16s-.52,1.16-1.16,1.16h-.12l-.09.26c-.52,1.41-1.3,2.7-2.29,3.79.05.03.1.06.16.09l1.09.65c.55.33.72,1.04.4,1.59s-1.04.72-1.59.4l-1.09-.65c-.26-.16-.51-.32-.76-.49-.61.43-1.27.81-1.97,1.12l-.21.09c-.58.26-1.27,0-1.53-.59s0-1.27.59-1.53l.21-.09c.37-.17.73-.35,1.07-.57l-.71-.71c-.45-.45-.45-1.19,0-1.64s1.19-.45,1.64,0l.85.85.03.03c.72-.76,1.3-1.64,1.72-2.6h-6.2c-.64,0-1.16-.52-1.16-1.16s.52-1.16,1.16-1.16h3.01v-.23c0-.64.52-1.16,1.16-1.16h0Z"/>
      <path class="cls-2" d="m16.31,11.82l-3.29-7.4c-.16-.37-.53-.61-.94-.61s-.78.24-.94.61l-3.29,7.4c-.23.52,0,1.13.52,1.36s1.13,0,1.36-.52l.46-1.03h3.78l.46,1.03c.23.52.84.75,1.36.52.52-.23.75-.84.52-1.36Zm-5.21-2.26l.98-2.2.98,2.2h-1.95Z"/>
      <g>
        <path class="cls-3" d="m25.55,10.09c-.45-1.35-1.4-3.11-3.41-4.16-2.68-1.4-5.31-.49-5.75-.32"/>
        <polygon class="cls-2" points="26.68 9.42 25.94 11.91 24.16 10.02 26.68 9.42"/>
      </g>
      <g>
        <path class="cls-3" d="m10.51,16.29c.45,1.35,1.4,3.11,3.41,4.16,2.68,1.4,5.31.49,5.75.32"/>
        <polygon class="cls-2" points="9.38 16.95 10.12 14.47 11.9 16.35 9.38 16.95"/>
      </g>
    </g>
  </g>
</svg>