<svg xmlns="http://www.w3.org/2000/svg" width="383.435" height="328.668" viewBox="0 0 383.435 328.668">
  <g id="Group_4" data-name="Group 4" transform="translate(0 -8.631)">
    <g id="outline_atlantic" transform="translate(-1.046 50.002)">
      <path id="Path_320" data-name="Path 320" d="M384.481,6.816V274.907l-203.6-.366v.3l-29.018-.047.1-58.057,3.937.007.007-2.9,4.967.007.02-13.92,75.575.136v-1.992l22.872.041.129-71.021,2.48.007.027-15.485-10.436-.02.047-26.843-114.2,21.483L116.992,6.816Z" fill="#52a79b"/>
      <g id="Gulf">
        <path id="Path_321" data-name="Path 321" d="M263.366,86l-.224,122.545-8.911-.014-.014,9.521-19.659-.034.014-7.373-23.034-.041.02-10.131-20.276-.041.014-4.608-15.356-.027-.014,7.373-11.06-.02-.014,7.983-7.99-.014-.014,7.678L154.4,218.8l-.068,35.022-21.5-.041.061-36.242,10.755.02.034-18.433,11.67.027.02-8.911,4.906.007.027-13.513,8.9.014.047-24.573,22.113.041.02-11.358,20.269.034.034-18.121,10.748.02.041-23.034,22.424.041.027-13.825Z" fill="#e1e1e1"/>
        <g id="Canada">
          <path id="Path_322" data-name="Path 322" d="M232.525,159.546c-1.457-1.084-2.948-2.311-4.886-2.148a38.5,38.5,0,0,1-6.255-.407,17.345,17.345,0,0,0-2.446-.041c-2.453.142-4.906.285-7.353.5a20.391,20.391,0,0,0-5.36.956,7.075,7.075,0,0,0-2.385,1.308c-.529.481-1.281.983-1.111,1.742s1.138.779,1.843.854a10.891,10.891,0,0,0,1.626-.041,14.381,14.381,0,0,1,6.675,1.084c1.071.481,2.209.827,3.165,1.172a12.421,12.421,0,0,0,1.545.034c1.809-.2,3.619-.285,5.421-.325a25.257,25.257,0,0,0,6.709-1.2,7.977,7.977,0,0,0,2.711-1.308,1.45,1.45,0,0,0,.1-2.182Z" fill="#bec0c2" stroke="#bec0c2" stroke-miterlimit="10" stroke-width="0.678"/>
          <path id="Path_323" data-name="Path 323" d="M243.117,184.139c-.088-.258-.2-.508-.285-.766-.678-2.094-.8-4.066.854-5.862a2.081,2.081,0,0,0,.278-.461c.122-.237.23-.562-.075-.678a.854.854,0,0,0-.718.237,7.312,7.312,0,0,0-2.121,5.13c-.068.468-.2,1.186-.251,1.9a1.518,1.518,0,0,0,.678,1.4c.42.291.854.834,1.43.522S243.287,184.654,243.117,184.139Z" fill="#bec0c2" stroke="#bec0c2" stroke-miterlimit="10" stroke-width="0.678"/>
          <path id="Path_324" data-name="Path 324" d="M29.079,188c-.352-.258-.678-.034-.969.2-.468.42-.908.874-1.355,1.355a.786.786,0,0,0-.088,1.186.745.745,0,0,0,.976.115c.806-.393,1.728-.678,1.64-1.762C29.357,188.625,29.4,188.232,29.079,188Z" fill="#bec0c2" stroke="#bec0c2" stroke-miterlimit="10" stroke-width="0.678"/>
          <path id="Path_325" data-name="Path 325" d="M119.224,277.625c2.182-1.355,2.2-1.355,1.823-3.836-.041-.264-.061-.535-.095-.8a1.918,1.918,0,0,0-2.345.881,4.222,4.222,0,0,0-.786,2.27C117.774,277.171,117.828,277.252,119.224,277.625Z" fill="#bec0c2" stroke="#bec0c2" stroke-miterlimit="10" stroke-width="0.678"/>
          <path id="Path_326" data-name="Path 326" d="M232.525,159.546c-1.457-1.084-2.948-2.311-4.886-2.148a38.5,38.5,0,0,1-6.255-.407,17.345,17.345,0,0,0-2.446-.041c-2.453.142-4.906.285-7.353.5a20.391,20.391,0,0,0-5.36.956,7.075,7.075,0,0,0-2.385,1.308c-.529.481-1.281.983-1.111,1.742s1.138.779,1.843.854a10.891,10.891,0,0,0,1.626-.041,14.381,14.381,0,0,1,6.675,1.084c1.071.481,2.209.827,3.165,1.172a12.421,12.421,0,0,0,1.545.034c1.809-.2,3.619-.285,5.421-.325a25.257,25.257,0,0,0,6.709-1.2,7.977,7.977,0,0,0,2.711-1.308,1.45,1.45,0,0,0,.1-2.182Z" fill="#bec0c2" stroke="#bec0c2" stroke-miterlimit="10" stroke-width="0.678"/>
          <path id="Path_327" data-name="Path 327" d="M243.117,184.139c-.088-.258-.2-.508-.285-.766-.678-2.094-.8-4.066.854-5.862a2.081,2.081,0,0,0,.278-.461c.122-.237.23-.562-.075-.678a.854.854,0,0,0-.718.237,7.312,7.312,0,0,0-2.121,5.13c-.068.468-.2,1.186-.251,1.9a1.518,1.518,0,0,0,.678,1.4c.42.291.854.834,1.43.522S243.287,184.654,243.117,184.139Z" fill="#bec0c2" stroke="#bec0c2" stroke-miterlimit="10" stroke-width="0.678"/>
          <path id="Path_328" data-name="Path 328" d="M29.079,188c-.352-.258-.678-.034-.969.2-.468.42-.908.874-1.355,1.355a.786.786,0,0,0-.088,1.186.745.745,0,0,0,.976.115c.806-.393,1.728-.678,1.64-1.762C29.357,188.625,29.4,188.232,29.079,188Z" fill="#bec0c2" stroke="#bec0c2" stroke-miterlimit="10" stroke-width="0.678"/>
          <path id="Path_329" data-name="Path 329" d="M119.224,277.625c2.182-1.355,2.2-1.355,1.823-3.836-.041-.264-.061-.535-.095-.8a1.918,1.918,0,0,0-2.345.881,4.222,4.222,0,0,0-.786,2.27C117.774,277.171,117.828,277.252,119.224,277.625Z" fill="#bec0c2" stroke="#bec0c2" stroke-miterlimit="10" stroke-width="0.678"/>
          <path id="Path_330" data-name="Path 330" d="M246.736,101.388a.488.488,0,0,0,.115-.678c-1.464-.468-2.236.949-3.388,1.254a5.2,5.2,0,0,0-.678.352,6.1,6.1,0,0,0-.61.42,19.09,19.09,0,0,1-3.605,2.426,5.326,5.326,0,0,0-.644.346,6.31,6.31,0,0,0-.6.413c-.542.407-1.071.827-1.626,1.206l-1.1.623c-.095.047-.183.1-.278.142a6.5,6.5,0,0,0-.644.339c-.149.095-.291.2-.434.3l-46.76,26.9-.251.115a5.384,5.384,0,0,0-.6.291,9.235,9.235,0,0,1-1.111.522,3.124,3.124,0,0,1-.569.1c-.6-.183-.549-.773-.745-1.206a1.491,1.491,0,0,0-.38-.535c-.42-.312-.962-.386-1.355-.678a1.749,1.749,0,0,1-.3-.474,1.823,1.823,0,0,1,.434-1.132c.359-.63,1.166-1.1.745-2.033-2.345-.813-2.833-.583-3.124,1.565a9.318,9.318,0,0,0-.1,2.711,14.008,14.008,0,0,0,2.148,4.242c.21.4.678.779.434,1.233-.278.562-.779.169-1.193.108a3.118,3.118,0,0,1-2.636-2.487,1.884,1.884,0,0,0-.488-.522c-.508-.3-1.084-.44-1.6-.732-.2-.122-.4-.244-.6-.352a3.965,3.965,0,0,0-1.708-.637c-2.08-.908-4.324.386-6.411-.44a14.842,14.842,0,0,0-2.555-.576c-1.037-.095-1.6-.881-2.25-1.552-1.172-.82-1.091-2.263-1.667-3.388a1.613,1.613,0,0,0-2.182-.752,2.765,2.765,0,0,0-.562.407,5.983,5.983,0,0,1-.678.63.908.908,0,0,1-.793.034,3.084,3.084,0,0,1-.434-.352,7.2,7.2,0,0,1-.718-1.355c-.251-.474-.488-.956-.745-1.43a1.959,1.959,0,0,0-.427-.488c-.427-.278-.922-.461-1.355-.779a2.379,2.379,0,0,1-.678-.976c-.054-.2-.095-.413-.142-.623a14.536,14.536,0,0,0-.339-3.2c-.041-.244-.081-.488-.142-.725a4.883,4.883,0,0,1,.172-2.342c.374-1.46,1.653-3,1.9-4.828-.623-.935-1.389-.752-2.189-.271-.183.129-.373.237-.562.359a1.179,1.179,0,0,1-.935-.271,14.23,14.23,0,0,1-1.992-1.735c-.718-.983-1.064-2.365-2.616-2.46a2.25,2.25,0,0,0-.732.2c-1.206.542-2.745,1.715-2.128-1.152a2.563,2.563,0,0,0-1.24-2.711,3.911,3.911,0,0,0-.617-.386,6.689,6.689,0,0,1-1.8-1.355.359.359,0,0,1,.081-.59c.5-.319.854.217,1.3.332,1.7.759,1.437.163,3.273.468,1.87-.352,1.037-1.355.569-2.311a3.334,3.334,0,0,0-.535-.535,13.9,13.9,0,0,1-1.647-1.233,2.941,2.941,0,0,1-.522-.827,10.334,10.334,0,0,0-.583-2.291c-.108-.183-.217-.359-.346-.535.854-1.274,1.769,0,2.657-.054,1.565.522,2.765,1.9,4.547,1.9,1.4.041,2.765-.678,4.188.373,2.3,1.654,3.022,1.355,4.283-1.172.169-.156.352-.3.535-.461a4.323,4.323,0,0,0,.508-.488,2.785,2.785,0,0,0,.339-.623c.23-.535.285-1.186.949-1.437,1.4-.393,2.528.474,3.775.806a3.016,3.016,0,0,0,2.223-.38,3.566,3.566,0,0,1,4.066-.678,2.51,2.51,0,0,0,3.524-1.559.983.983,0,0,0-.359-.644c-.928-.4-1.8-.847-1.83-2.033-.813-1.281.752-1.389,1.023-2.318a4.859,4.859,0,0,0-.183-1.159,4.154,4.154,0,0,0-.285-.678c-.21-.44.115-1.931-.075-2.379-.725-1.111-3.3,0-.481-3.517-1.979-.352-4.473.678-4.466-1.166a12.449,12.449,0,0,0-.752-1.213c-.122-.2-.244-.407-.373-.6a3.151,3.151,0,0,0-.895-1.145c-.745-.583-2.65-1.2-1.762-2.141,2.711-2.839-1-2.4-2.67-2.141a1.857,1.857,0,0,1-.854.2.881.881,0,0,1-.325-.678,2.033,2.033,0,0,0-.352-1.193c-.678-.386-1.532-.156-2.094-.786-.156-.149-.3-.3-.44-.468a.847.847,0,0,1,0-.915c.529-.522,1.172-1,.644-1.891a2.379,2.379,0,0,0-.488-.522,19.829,19.829,0,0,1-2.2-1.633c-.867-1.823-.434-3.876-1.03-5.754a3.809,3.809,0,0,0-.285-.678c.271-3.1-3.022-3.341-1.769-5.842a1.945,1.945,0,0,0-.332-.678c-.617-5.333-3.978-4.357-6.208-6.3a3.07,3.07,0,0,0-.745-.047c-1.437.19-2.711-.481-4.066-.678a1.111,1.111,0,0,1-.529-.739c.9-2.033.034-4.656,1.843-6.465a1.355,1.355,0,0,0-.068-1.118,1.532,1.532,0,0,0-1.281-.312c-.678.088-1.355.068-1.565-.712s.278-1.193.752-1.626c.264-.251.576-.454.834-.678.63-.6,1.708-1.071,1.281-2.155a1.979,1.979,0,0,0-2.277-1.132,1.355,1.355,0,0,0-.623.413c-.678,1.044-.9,2.494-2.453,2.778l-.312-.1-.59-.319a2.453,2.453,0,0,0-1.355-.251,2.826,2.826,0,0,0-.678.2c-.217.095-.434.183-.644.291-.969.108-1.891.786-2.928.278-.38-1.355.678-1.193,1.416-1.288s1.572-.21,1.742-1.023c.19-.922-.806-1.044-1.355-1.464l-.542-.454c-.156-.176-.312-.352-.474-.522-.3-.373-.583-.759-.861-1.145-1.037-.678-.129-4.479-2.934-2.216-2.887.4-2.494-1.986-3.036-3.585-.163-.312-.339-.617-.5-.928-.346-.678.108-1.355-.183-2.033a4.493,4.493,0,0,0-3.856-.569v.034a.542.542,0,0,0-.041.569c.454.319,1,.678.881,1.274-.264,1.294-.075,2.114,1.491,1.986a.26.26,0,0,1,.169.176c.007.068.061.42,0,.474a2.128,2.128,0,0,1-1.565.156c-.928-.088-1.274.583-1.579,1.233s0,.989.569,1.308a24.958,24.958,0,0,0,3.483,1.586c.786.115,1.355.969,2.291.61a.393.393,0,0,1,.515.434c0,.332-.3.413-.562.474-.786.2-1.579.373-2.372.569-.258.061-.562.169-.495.481a1.22,1.22,0,0,0,.468.617c.359.258.779.427,1.138.678.088.061.068.312.061.468s-.142.136-.217.142h-.82c-.271,0-.576.041-.59.4s.312.6.678.745c.522.468.237,1.45,1.1,1.7.678.515.075,1.715,1.138,2.033-.244.149-.474,0-.678-.075a1.308,1.308,0,0,0-.956.156c-.034,0-.068.068-.1.217a.5.5,0,0,0,.129.427h0c.047,0,.088.068.122.19a.325.325,0,0,1-.176.346h0c-.434.569.136.806.386,1.152a1.037,1.037,0,0,1,.251.108c.2.169.495.332.549.542s-.217.461-.5.508l-1.891.291c-.481.075-.874.258-.895.827A1.152,1.152,0,0,0,119.7,39.8a9.291,9.291,0,0,0,1.294.413c.278.542.983.827.935,1.9-.542-1.565-1.931-.867-2.711-1.532-2.582-.535-3.07-.149-3.036,2.413a2.914,2.914,0,0,0,.081.806c.176.59.2,1.274.84,1.633.264.149.806.075.59.6-.061.142-.474.23-.678.2a1.139,1.139,0,0,0-1.423.9.508.508,0,0,1-.63.359c-.752-.264-1.017.047-.928.739a1.66,1.66,0,0,1-.5,1.62c-1.355,1.464-2.907,2.989-2.4,5.36,0,.095-.19.332-.3.332a.678.678,0,0,1-.454-.23,2.338,2.338,0,0,1-.6-1.755,4.886,4.886,0,0,0-.542-.583,1.83,1.83,0,0,1-.468-.081c-.935.881-.745,2.128-1.01,3.151.034-.895.556-1.87-.129-2.806h0a6.707,6.707,0,0,1-.488-.6h0a4.743,4.743,0,0,1-.413-.623,8.582,8.582,0,0,0-.529-.908c-.576-.752-.806-.8-1.491-.271a4.513,4.513,0,0,0-.678.806,24.547,24.547,0,0,1,.874,3.47A8.491,8.491,0,0,0,103.19,51.5a4.357,4.357,0,0,1-2.711-2.467c-.935-1.708-1.5-1.857-3.341-1.132-1.437.562-2.819,1.274-4.269,1.8a5.5,5.5,0,0,0-2.257,1.8c-.908,1.064-.942,2.318-1.186,3.551-1.132.468-1.742-.488-2.528-.949-.285-.393-.61-.319-.895-.041a2.711,2.711,0,0,1-2.243.827c-.359,0-.827,0-.969-.339s.23-.583.556-.759c.678-.393,1.4-.813,2.1-1.227s.637-1.064.908-1.626-.366-.718-.576-1.064c-.312-.515-.732-1.023-.379-1.748.678.285,1.355.515,1.992.82s.678,1.111,1.457,1.247c.678-1.227.149-2.426-.108-3.612,0-.142-.264-.23-.386-.359-1.145-1.145-1.152-1.471-.041-2.535.224-.2.739-.169.556-.678a2.277,2.277,0,0,0-2.9.61c-.623.678-1.26.42-1.355-.6a1.687,1.687,0,0,0-.9-1.532c-.59-.319-.59-.867-.407-1.416a8.605,8.605,0,0,1,.474-.976c.339-.732.258-1.22-.678-1.233-.529,0-.447-.42-.474-.773-.061-1-.108-2.033-1.308-2.4-.678.3-.759-.393-1.1-.644l-.413-.068c-.888.21-1.776.413-2.711.61a6.167,6.167,0,0,0,2.27-2.46c.84-1.2.129-2.033-.678-2.839a.767.767,0,0,0-1.355.163.413.413,0,0,1-.183.19c-.156.061-.366.163-.481.108a.481.481,0,0,1-.149-.44c1.03-1.416.461-2.507-.678-3.49a.854.854,0,0,1-.169-.21c-.2-.325-.332-.678-.054-1,.678-.759.23-1.355-.264-1.918a1.071,1.071,0,0,1,0-1.477c.19-.278.454-.556.319-.956-.075-.047-.163-.142-.224-.129-.529.129-1.05.278-1.572.42a1.894,1.894,0,0,1-2.568-1.233,4.608,4.608,0,0,0-.8-1.355c-.495-.549-1.247-.766-1.572-.23-.84,1.389-1.979,1.4-3.449,1.355-1.355-.061-2.711-.468-4.066.041-.983.366-1.01.285-2.535-.2-.942.542-1.518-.806-2.433-.481-.271.1-.678,0-.678-.217,0-1.111-1.1-1.023-1.667-1.5-.244-.2-.915-.129-.956-.291-.136-.6.556-.529.854-.806.129-.122.352-.3.325-.4-.312-1,.461-1.45.989-2.033a.488.488,0,0,0-.068-.718,1.461,1.461,0,0,0-2.372.623c-.224.732-.434,1.355-1.267,1.6-.481.129-1.01.874-1.416.244-.569-.874.481-.935.908-1.281.136-.115.332-.156.474-.264.386-.291.237-.63.047-.942a1.193,1.193,0,0,0-1.071-.725c-.508.041-.867-.041-1.037-.583-.224-.725-.806-.915-1.5-.942a10.457,10.457,0,0,1-1.355-.176c-.59-.474-.393,2.121-1.308.332a4.427,4.427,0,0,0-.678-2.426c-.379-.454-.718-.508-1.139-.23a1.172,1.172,0,0,1-1.477,0,22.438,22.438,0,0,1-2.358-1.477,4.025,4.025,0,0,0-2.162-1,7.9,7.9,0,0,1-1.572-.366c-1.823-.637-1.837-.678-2.711,1.186a3.388,3.388,0,0,1-.969,1.267,3.124,3.124,0,0,0-1.023,1.233,2.575,2.575,0,0,1-2.3,1.606c-.678.075-.413.623-.291,1.037a1.464,1.464,0,0,0,.989.678,3.524,3.524,0,0,1-2.2-.271c-.556-.21-1.01-.881-1.728-.413a1.071,1.071,0,0,1-1.247.129,1.678,1.678,0,0,0-2.372.6,10.165,10.165,0,0,1-1.26,1.43c-.495.447-.773.23-.773-.407,0-.779-.61-.745-1.139-.874-.725-.169-1.057.827-1.708.583s-1.044-.752-1.654-.922a5.5,5.5,0,0,0-2.155-.169,2.826,2.826,0,0,1-2.087-.285c-.427-.285-.867-.108-1.315,0a9.013,9.013,0,0,1-1.891.264c-1.078,0-2.352-.285-3.158.285a6.878,6.878,0,0,0-2,2.853A2.867,2.867,0,0,1,1.83,16.325c-.522.291-.468.9-.434,1.477a18.214,18.214,0,0,0,2.711,7.631c.44.806.786,1.687,2.033,1.233.366-.129.542.352.773.623.556.678.718.678,1.139-.075s.623-1.355,1.477-1.457a24.347,24.347,0,0,1,2.433-.2.942.942,0,0,1,.962.813c-1.186.766-2.839.678-3.72,2.033.312.63-.678,1.023-.3,1.66.034.352-.075.745.271,1a2.467,2.467,0,0,0,.481.244c.271.115.461.291.413.6s-.332.339-.61.379c-1.565.217-1.572.224-.915,1.545.237.481.827.983.535,1.477-.718,1.2-.19,2.711-1.071,3.863a10.348,10.348,0,0,0-1.091,2.155A.732.732,0,0,0,7.59,42.45c.813-.047,1.626-.149,2.446-.21a1.166,1.166,0,0,1,1.24,1.321c0,.251-.244.481-.319.739-.278,1,.224,1.559,1.233,1.4.495-.081.969-.556,1.491-.068-.061.678-.678,1.05-.949,1.606-.44.874-.5,1.355.3,1.9,1.206.867,1.5,2.2,2.114,3.388.23.44-.034.678-.23.949s-.1.6.2.529c.861-.217,2.169.068,2.033-1.518a.271.271,0,0,1,.129-.224,2.067,2.067,0,0,1,.718-.251.588.588,0,0,1,.393.312,1.355,1.355,0,0,1,.054,1.294c-.407.678-.739,1.464-1.152,2.169s-.081.962.352,1.4c.678.678.623.712,0,1.477a1.355,1.355,0,0,1-.21.176c-.529.447-.407.908-.095,1.443a4.547,4.547,0,0,0,1.687,1.315.481.481,0,0,1,.081.468.678.678,0,0,1-.413.271,2.358,2.358,0,0,1-.535,0c-.82.21-1.511-.956-2.318-.271-.678.6.115,1.579-.5,2.318-.386.454.1.786.562.956s.949.088,1,.752c-.237.454-.468.949-.752,1.4-.617,1.01-1.654,1.945-1.8,3-.176,1.274-.942,2.324-.935,3.646a2.67,2.67,0,0,1-1.139,2.094c-.495.366-.278.82.041,1.166a11.741,11.741,0,0,0,1.03.881c.888.773.881.779-.115,1.958a8.884,8.884,0,0,0,.84.617c1.193.678,2.67,1.05,3.531,2.033,1.071,1.186,2.419,1.091,3.639,1.586A12.876,12.876,0,0,1,23.9,85.828,6.505,6.505,0,0,0,27.6,87.421c.454,0,.556.346.44.766a.922.922,0,0,0,.339.969c2.263,2.141,3.761,4.879,5.618,7.339a17.267,17.267,0,0,1,2.711,5.333,59.729,59.729,0,0,1,2.48,9.189c.969.542.617-.786,1.172-.827.813.678,1.986,1.247,2.189,2.277a2.632,2.632,0,0,0,2.1,2.162,4.208,4.208,0,0,1,2.033,1.233.352.352,0,0,1-.183.6c-.407.129-1.037-.19-1.227.291-.291.752-.976.678-1.5,1-1.078.61-2.521-.271-3.355.678s-.332,2.3-1.118,3.266a2.636,2.636,0,0,0-.319.745,11.216,11.216,0,0,0-1.172,4.371c0,.393-.38.786-.59,1.186a11.74,11.74,0,0,0-2.033,3.165,4.377,4.377,0,0,1-.718,1.274c-.407.678-1.532,1.1-.793,2.209h0c.962.576-.061.8-.21,1.179a3.463,3.463,0,0,0-.928.549c-1.044,1.26-2.033,2.555-3.05,3.836-1.084.576-2.392.59-3.388,1.321a61.239,61.239,0,0,1-8.241,7.929,2.582,2.582,0,0,1,1.355,2.446,1.491,1.491,0,0,0,.4.969,1.274,1.274,0,0,1,.413,1.45,1,1,0,0,0,.183.766A5.557,5.557,0,0,0,23.5,157.2c.332.075.759-.081,1.01.217a1.22,1.22,0,0,1,.047,1.294.576.576,0,0,0,.393.834c.352.142.712.352.637.779-.224,1.294.535,2.033,1.423,2.711.42.339.251.6-.447.752s-.989.495-.82,1.01a.841.841,0,0,0,.095.258c.515.745.59,1.748,1.355,2.358.481.407.373.678,0,1.091-1.227,1.213-1.206,1.2.447,1.979.644.3,1.538.461,1.776,1.159s.922,1.064,1.355,1.586c1.159,1.355,2.263,2.751,1.85,4.791-.23,1.1-.068,1.118,1.057,1.443a3.172,3.172,0,0,1,2.656,3.531,7.278,7.278,0,0,0,.061,2.169,2.291,2.291,0,0,1-.278,1.877c-.529.712,0,1.884-.725,2.236-1.2.6-.739,1.308-.535,2.128.034.149-.291.42-.495.583-1.45,1.206-1.437,1.166.312,2.128.678.386,1.6.678,1.809,1.559a15.539,15.539,0,0,1,.291,5.943.806.806,0,0,1-.562.508.766.766,0,0,1-.63-.346,13.323,13.323,0,0,1-1.071-3.388c-.19-.976-.569-1.152-1.559-.956-.264.054-.515.183-.786.23-.427.075-.718-.1-.678-.562,0-.678-.068-1.274-.84-1.5-1.545.2-1.023,1.355-.915,2.182a40.3,40.3,0,0,0,1.355,6.241l.407.881a8.051,8.051,0,0,0,1.111,1.355,4.066,4.066,0,0,1-.156.718l.474,1.037,8.261,46.848,7.034,12.022a6.946,6.946,0,0,0,3.646,1.945c4.317.759,8.369,2.575,12.727,3.2a4.981,4.981,0,0,0,2.656-.122c.718,0,1.457.217,2.114-.258,5.116-.041,8.288,3.632,11.934,6.35a30.826,30.826,0,0,0,2.867,1.986c.339.468.922.352,1.355.549,2.609,1.4,5.069,1.423,7.454-.61a17.762,17.762,0,0,1,3.727-2.623h0c1.355-.617,2.894-.2,4.256-.759,2.806.481,5.5,1.471,8.369,1.748a5.985,5.985,0,0,0,4.534-.895c.2.075.352.142.522.217a3.28,3.28,0,0,0,1.945-1.22,15.079,15.079,0,0,1,4.418-4.744,3.388,3.388,0,0,0,1.166-1.823c.081-.237.176-.461.264-.678-.041.2-.095.4-.122.617a8.2,8.2,0,0,0-.461,3.951c.576,2.236-.535,3.3-2.182,4.236-3.5,1.24-5.055,4.473-7.109,7.136-1.071,1.389-.5,2.2,1.355,1.721a8.81,8.81,0,0,1,.989-.393c4.161-1.017,8.315-2.033,12.483-3.009a3.524,3.524,0,0,0,2.155-1.037.678.678,0,0,1,.969-.176,1.518,1.518,0,0,0,1.3.163c2.291-.6,4.595-1.159,6.878-1.789,1.308-.359,1.294-.407.752-1.721-.142-.339-.3-.678-.061-1.023a1.355,1.355,0,0,1,.678-.4.542.542,0,0,1,.434.224,1.749,1.749,0,0,1,.149.515c.529,1.572.637,1.694,2.033,1.355,2.033-.488,4.066-1.01,6.1-1.6,1.647-.481,2.155-1.274,2.087-3.043,0-.535-.176-1.078-.156-1.613s.251-1.01.786-.935a2.245,2.245,0,0,0,2.548-1.572.678.678,0,0,1,.962-.2,2.514,2.514,0,0,1,.61.535c.325.312.678.718,1.139.339a1.267,1.267,0,0,0,.332-1.26,2.481,2.481,0,0,0-.291-.759c-.434-.793.061-.82.678-.962.854-.19.915-.488.386-1.017a2.965,2.965,0,0,0-.42-.352c-.922-.623-.827-1.281-.237-2.094a4.067,4.067,0,0,1,.867-1.037c1-.678,1.355-1.41.678-2.507a.867.867,0,0,1,.047-.773c.854-1.281.373-2.4-.332-3.524a18.688,18.688,0,0,1-1.05-1.911,3.194,3.194,0,0,1-.23-3.138,4.364,4.364,0,0,0,.217-3.951,9.271,9.271,0,0,1-.169-5.638,10.281,10.281,0,0,0,0-4.337c-.386-2.033-.678-4.127-1.01-6.194a8.064,8.064,0,0,1,2.23-7.5,8.811,8.811,0,0,1,1.24-1.071c1.979-1.308,3.429-3.26,5.523-4.446a3.592,3.592,0,0,0,1.423-1.62c.576-1.389,1.83-2.27,2.446-3.605a2.148,2.148,0,0,1,2.033-1.125c.827-.034.915.739,1.166,1.308a1.674,1.674,0,0,0,1.457,1.071h.318a1.951,1.951,0,0,0,.535-.325l.041-.047a3.11,3.11,0,0,1,1.071-1.511H175.4a2.711,2.711,0,0,1,.678-.5h-.041a3.063,3.063,0,0,1,.678-.488h0c1.1-1.674,1.694-3.388.63-5.34-.752-1.308-2.623-2.324-1.118-4.229.244-.169.678-.088,1-.122a1.939,1.939,0,0,0,.481-.59,1.126,1.126,0,0,0,0-.21c-.264-1.755,1.023-1.972,2.169-2.358a1.423,1.423,0,0,0,1.355-.319.5.5,0,0,1,.678-.1,8.627,8.627,0,0,0,5.177.352,5.314,5.314,0,0,0,1.016-1.01h-.041a2.934,2.934,0,0,1,.678-.495l-.041.034a3.226,3.226,0,0,0,2.406-2.25,2.426,2.426,0,0,0-.237-.861c0-.454-.149-1.078.23-1.294,1.288-.725,1.979-2.365,3.734-2.379a4.946,4.946,0,0,0,1.308-.379c.644-.2,1.138-.454,1.24-1.254a1.531,1.531,0,0,1,1.647-1.145,20.425,20.425,0,0,1,3.266.271,6.492,6.492,0,0,0,2.975-.176c1.389-.44,2.345-1.355,2.155-2.765a2.263,2.263,0,0,1,1.03-2.514,2.229,2.229,0,0,0,1.111-2.548,2.181,2.181,0,0,1,1.26-2.446c1.315-.834,1.355-1.355.82-2.785-.285-.739-.325-1.715-1.166-2.087a5.773,5.773,0,0,0-2.826-.915c-.407.041-.895.393-1.206-.183-.169-.312.522-.562,1.321-.461.542.068,1.084.115,1.633.129a.6.6,0,0,0,.393-.3.535.535,0,0,0-.034-.474c-1.782-1.247-3.456-2.711-5.916-2.209a3.815,3.815,0,0,1-1.633-.095,8.457,8.457,0,0,0-6.058,1.01,8.707,8.707,0,0,1-1.484.678c-4.337,1.294-7.454,4.507-10.965,7.068a4.743,4.743,0,0,0-1,1.288,58.153,58.153,0,0,1-7.543,9.006c-1.965,2.033-3.781,4.188-5.6,6.357a4.242,4.242,0,0,0-1.125,2.44,2.033,2.033,0,0,1-1.233,1.965,1.477,1.477,0,0,0-.881,1.281c-.115.725-.251,1.443-.339,2.162A3.678,3.678,0,0,1,164.12,205a3.131,3.131,0,0,0-1,.908,37.921,37.921,0,0,1-8.132,7.658,15.872,15.872,0,0,0-2.135,1.715,10.328,10.328,0,0,0-2.711,5.53c-.2,1.166.637,2.548-.874,3.388-.088.047-.108.359-.054.508.271.766-.115,1.4-.3,2.1-.474,1.843-1.077,3.693-.678,5.652a3.49,3.49,0,0,1-.291,2.128,18.194,18.194,0,0,0-.922,2.277c-.549,1.9-1.681,3.673-1.159,5.808.136.556-.319,1.017-.623,1.471-.888.373-1.186,1.355-1.931,1.884l1.355-1.911c-1.179-.339-1.667.454-2.033,1.355-.156.42.271.562.637.61a.617.617,0,0,1-.108.075,16.02,16.02,0,0,1-2.778,2.846,9.38,9.38,0,0,0,.922-1.654,38.184,38.184,0,0,1,2.433-4.527,6.675,6.675,0,0,0,1.071-3.063c.407-2.141.42-4.357,1.294-6.418a2.833,2.833,0,0,0,.061-1.613c-.495-2.141-.346-4.351-.712-6.492a2.379,2.379,0,0,1,1.193-2.751,2.365,2.365,0,0,0,1.281-1.965c.142-2.318,1.572-4.066,2.8-5.835a47.064,47.064,0,0,1,3.951-4.893c1.891-2.08,3.476-4.466,5.862-6.1a3.341,3.341,0,0,0,1.593-1.809c.251-.922-.38-1.532-.745-2.257-.644-1.274-.6-1.843.569-2.846.678-.583.942-1.139.535-1.87-.881-1.586-.468-2.568,1.044-3.571a2.928,2.928,0,0,0,1.532-3.016,2.069,2.069,0,0,1,1.572-2.894c.332-.108.583-.44.895-.63.678-.407.739-.786.285-1.5s.759-.922.84-1.5c.183-1.423,1.281-1.884,2.352-2.392a20.216,20.216,0,0,0,3.836-2.087,2.033,2.033,0,0,0,.827-2.4,28.912,28.912,0,0,0-1.064-3.388c-.413-.976-1.355-1.857.176-2.711.129-.068.095-.495.075-.752a10.978,10.978,0,0,0-.176-1.9c-.237-.976,0-1.6,1.023-1.85.454-.115,1.017-.373.895-.854-.291-1.125.786-1.992.393-3.172-.23-.678.678-1.152,1.24-.617,1.213,1.152,2.3.786,3.388-.054l2.609-2.033c1.45-1.111,2.88-2.243,4.351-3.327a6.722,6.722,0,0,1,1.877-1.091,8.668,8.668,0,0,0,4.4-2.589,1.172,1.172,0,0,1,1.477-.318,2.263,2.263,0,0,0,2.751-.542,6.225,6.225,0,0,1,4.873-2.033,9.446,9.446,0,0,0,1.877-.352,3.605,3.605,0,0,0,2.446-1.6,7.847,7.847,0,0,1,4.357-3.151,30.578,30.578,0,0,0,5.211-2.365,3.486,3.486,0,0,1,3.619-.352c.6.312,1.05.061,1.267-.569a5.238,5.238,0,0,1,.332-1.03.989.989,0,0,1,.678-.271.636.636,0,0,1,.413.312,2.379,2.379,0,0,1,.271.752c.047.264,0,.542.034.813s.095.59.434.59a1.037,1.037,0,0,0,.732-.217c1.43-1.972,3.077-3.795,4.066-6.045.319-.678.637-.827,1.213-.461,1.166.732,1.186.745,1.992-.108a7.361,7.361,0,0,1,2.657-2.3c1.179-.427,1.9-.983,1.6-2.358,0-.075.251-.224.386-.339.061,0,.136,0,.217-.136s0-.224-.149-.359c-.352-.291-.745-.61-.617-1.111a1.22,1.22,0,0,1,.915-.9.739.739,0,0,1,.264-.041c1.227.108,1.6-.678,1.64-1.667.081-2.25.962-4.425.617-6.723a.9.9,0,0,1,.23-.725,1.139,1.139,0,0,0,.19-1.66c-.379-.6-.413-1.206.4-1.552.468-.2.339-.542.176-.881s-.325-.556-.081-.739c.969-.739.386-1.355-.041-2.08-.562-.928-.515-.949.488-1.925a9.642,9.642,0,0,1,1.111-1.172c.583-.4.19-1.084.495-1.437.488-.562.962.366,1.457.2a2.792,2.792,0,0,0,1.633-1.355A5.123,5.123,0,0,0,246.736,101.388ZM126.387,262.153c-.888,1.193-1.9,2.318-2.711,3.537a23.543,23.543,0,0,1,5.476-6.878C128.271,259.978,127.241,260.994,126.387,262.153Zm5.943-7.387a13.378,13.378,0,0,1,3.734-2.826,33.949,33.949,0,0,0-3.734,2.826Z" fill="#bec0c2" stroke="#bec0c2" stroke-miterlimit="10" stroke-width="0.678"/>
          <path id="Path_331" data-name="Path 331" d="M230.634,200.844c.861-.522,1.708-1.152,2.772-.569.623.332.752-.278,1.1-.481.915-.556,1.057-.6,1.735.359a1.457,1.457,0,0,0,1.62.678,15.011,15.011,0,0,0,6.878-3.131c1.023-.773,2.033-1.565,3.029-2.338.3-.23.718-.393,1.01-.163.42.339.251.854,0,1.227-.529.854-1.118,1.66-1.681,2.487a5.937,5.937,0,0,0-.122,5.049c.393.739.285,1.213-.359,1.572a2.489,2.489,0,0,1-.488.237c-.949.285-1.891.834-2.894.6s-.962-1.45-1.477-2.162a4.353,4.353,0,0,0-.562-.556c-.108.068-.23.1-.244.163-.108.508-.041,1.132-.325,1.5a2.33,2.33,0,0,1-1.748.617,9.057,9.057,0,0,1-5.327-.623,4.155,4.155,0,0,0-1.864-.291c-1.565,0-3.144.088-3.87-1.782-.068-.176-.454-.319-.678-.319-.549,0-1.091.129-1.633.136a.813.813,0,0,1-.881-1.057,16.664,16.664,0,0,1,.529-1.83,3.754,3.754,0,0,0,.244-2.643c-.23-.678.2-1.233.42-1.816a.773.773,0,0,1,1.355-.115,6.33,6.33,0,0,1,1.193,3.3,4.5,4.5,0,0,0,1.193,2.338C230.052,201.542,230.689,202.253,230.634,200.844Z" fill="#bec0c2" stroke="#bec0c2" stroke-miterlimit="10" stroke-width="0.678"/>
          <path id="Path_332" data-name="Path 332" d="M268.015,207.505c-.535-.678-1.1.1-1.6.427a5.857,5.857,0,0,0-.637.529,1.934,1.934,0,0,1-2.575,0c.678-.481,1.389-.895,2.033-1.4a.847.847,0,0,0-.244-1.518c-.84-.339-1.708-.63-2.541-.983-1.078-.454-1-.434-1.708.861-.454.827-.854,1.66-2.291,1.308-1.227-.3-1.321,0-1.579-.854-.129-.44-.237-.881-.4-1.308a.9.9,0,0,0-.8-.637,1,1,0,0,0-.935.468,4.873,4.873,0,0,0-1.071,2.487,3.768,3.768,0,0,1-2.189,3.219,20.186,20.186,0,0,0-1.728,1.355c-.095.061-.312,0-.454-.068s-.108-.149-.108-.23a3.533,3.533,0,0,1,.088-.535c.3-1.416-.088-1.9-1.416-1.62-2.033.427-3.87,1.152-4.425,3.483-.142.59-.637.556-1.1.474a.766.766,0,0,0-1.1-.068c-.224.278-.481.6-.854.522-.481-.081-.42-.549-.352-.867a7.7,7.7,0,0,1,.434-1.24c.088-.237.278-.474,0-.678a.84.84,0,0,0-.989-.095,1.993,1.993,0,0,0-.718.745.806.806,0,0,1-1.3.407,2.778,2.778,0,0,0-3.239-.108,3.659,3.659,0,0,1-1.044.183h0a2.541,2.541,0,0,1,0,2.257,3.958,3.958,0,0,1-.908,1.1v.034a31.463,31.463,0,0,0-1.538,5.028c-.82,1.288-1,2.894-2.033,4.1a.976.976,0,0,0,.1,1.254,1.355,1.355,0,0,0,1.437.529,2.114,2.114,0,0,0,1.62-1.647c.149-.678-.2-1.525.6-1.952.678-.366,1.41.129,2.121,0h.271c3.022-1.274,5.381-3.883,8.81-4.33.976-.319,1.213.59,1.748,1.044a3.694,3.694,0,0,1,.339.434.942.942,0,0,1,.183.4s-.176.041-.169.061a2.035,2.035,0,0,1-.224-.373,1.484,1.484,0,0,0-.617-.678,2.148,2.148,0,0,0-1.471-.068,23.887,23.887,0,0,0-3.89,2.392,2.761,2.761,0,0,0-1.091,3.734,6.335,6.335,0,0,0,.874,1.023c-.386-.23-.725-.522-1.111-.752-.59-.264-1.45-.19-1.355-1.267.142-1.3-.5-1.559-1.6-1.05-.237.271-.678.535-.678.806a3.536,3.536,0,0,1-1.525,2.711,37.461,37.461,0,0,0-3.89,4.208c-1.457,1.877-3.009,3.666-4.588,5.421a42.789,42.789,0,0,0-2.887,3.287c-1.986,2.711-3.3,5.679-2.582,9.176a9.6,9.6,0,0,1-.061,2.711,6.567,6.567,0,0,0,2.162,5.421c.461.441.786.163.8-.488a.5.5,0,0,1,.759-.474,3.885,3.885,0,0,1,2.338,1.769,5.713,5.713,0,0,0,1.5,1.925c1,.854,1.667.827,2.575-.169s1.857-2.033.745-3.571c-.386-.529-.047-1.233.38-1.762s.989-.054,1.477.034.82-.075.84-.461c.075-1.8,1.037-3.273,1.715-4.859a12.1,12.1,0,0,1,.759-2.033c.61-.922,1.789-1.491,1.654-2.853,1.22-.847.922-2.033.732-3.212-.068-.447-.264-.874-.373-1.315a2.887,2.887,0,0,1,.271-2.121,1.721,1.721,0,0,1,1.545-.956c.745,0,.678-.712.834-1.2.278-.779,1.077-.956,1.355-.258.617,1.457,1.66,1.464,2.928,1.22.617-.115,1.023-.339.928-1.05a4.124,4.124,0,0,1,1.715-4.324c1.355-.888,2.033-2.657,3.842-2.948l.264-.054a22.324,22.324,0,0,0,3.585-1.355,3.524,3.524,0,0,0,2.453-2.629,4.354,4.354,0,0,1,1.742-3c.752-.434,1.064-.888.678-1.762-.156-.339.169-.678.569-.779s.888-.176,1.355-.264.928-.407.82-.9c-.271-1.186.542-1.593,1.288-2.128.583-.42,1.288-.908.4-1.715-.2-.183-.156-.366.122-.346a1.45,1.45,0,0,0,1.728-1.308c1.437.183,1.41-1.389,2.284-1.945a1.518,1.518,0,0,0,.19-1.979Z" fill="#bec0c2" stroke="#bec0c2" stroke-miterlimit="10" stroke-width="0.678"/>
          <path id="Path_333" data-name="Path 333" d="M274.5,193.816c1.355-.956.556-1.823-.047-2.711-.359-.522-.806-.983-1.186-1.491a1.213,1.213,0,0,0-1.674-.413l-1.22.6c-.678.264-1.762.1-2.033.983h-.346a3.765,3.765,0,0,0-.149-.678c-.461.23-.928.244-1.118-.3a11.053,11.053,0,0,1-.454-3.5c0-1.193-.156-2.46-1.355-3.111a8.573,8.573,0,0,1-2.3-1.87.962.962,0,0,0-1.559.4,8.751,8.751,0,0,0-.291,1.355,6.887,6.887,0,0,1-.346,1.864,6.367,6.367,0,0,0-.264,4.249,10.183,10.183,0,0,1-.319,6.16c-.759,1.64-.413,3.2,0,4.8a3.951,3.951,0,0,0,2.175,2.663c1.05.542,2.121,1.023,3.192,1.532a.908.908,0,0,0,1.227-.23c.773-1.355,1.972-1.45,3.307-1.355.366,0,.827-.122.867-.515.142-1.416,1.145-2.148,2.033-3.05,1.023-.989,2.033-2.141,1.355-3.849a1.315,1.315,0,0,1,.508-1.532Z" fill="#bec0c2" stroke="#bec0c2" stroke-miterlimit="10" stroke-width="0.678"/>
          <path id="Path_334" data-name="Path 334" d="M336.806,141.784a8.22,8.22,0,0,0-1.24-3.578,11.738,11.738,0,0,1-1.938-6.729,3.856,3.856,0,0,0-2.189-4.032c-.6-.339-1.179-1.084-1.918-.522-.6.454-.142,1.166-.054,1.776a4.683,4.683,0,0,1-.678,3.659c-.454.623-1.193.712-1.586.1-.888-1.4-2.3-2.656-1.355-4.615a1.044,1.044,0,0,0,0-.542,35.086,35.086,0,0,1-.339-5.72c0-.2-.291-.407-.454-.6a2.311,2.311,0,0,0-.535.522,18.169,18.169,0,0,0-1.857,5.692c-.319,2.033-.834,4.066,0,6.1-.407.136-.678.2-.915.3a2.109,2.109,0,0,1-2.453-.678c-.691-.678-.488-1.233-.251-1.992a2.331,2.331,0,0,0-1.26-2.989c-1.471-.678-1.43-1.769-1.145-2.941a9.7,9.7,0,0,1,1.8-4.235,5.625,5.625,0,0,0,1.233-3.544c0-.407-.149-.813-.576-.678-.834.2-.84-.251-.854-.834,0-.474-.427-.678-.725-.461-1.308,1.078-2.812,2.067-2.2,4.215a1.809,1.809,0,0,1-.806,2.135c-.488.3-1.24.136-1.281-.42-.075-1.057-.623-1.43-1.572-1.457a4.949,4.949,0,0,0-.549,0c-1.66.122-2.474-1-2.711-2.46a6.892,6.892,0,0,1,0-2.175c.122-.9.291-1.8.352-2.711.156-2.236-.935-3.233-3.111-2.961a12.537,12.537,0,0,0-4.12,1.41,8.417,8.417,0,0,1-3.646.962c-1.118,0-1.2.108-1.179,1.172,0,.454.061.908.088,1.355.061.779-.264,1.186-1.091,1.166a.678.678,0,0,0-.732.678c0,.834-.481.895-1.145,1.1-.84.258.678,1.355-.379,1.715-.481.366-.42.874-.366,1.389,0,.129.075.183.21.156.359-.068-.183.271-.183.325a4.447,4.447,0,0,0-.739-2.548c-.481-.393-.359-.969-.468-1.484a2.711,2.711,0,0,0-.407-.962c-.427-.6-.976-.264-1.45-.068s-.522.623-.169,1.037c.142.678-.136.766-.678.529-1.321.576-2.46,1.572-3.985,1.66-1.4.461-1.315-.583-1.423-1.423-.23-.142-.447-.3-.678-.434-1.044-.569-1.206-.827-.644-1.586a13.384,13.384,0,0,0,1.511-2.894.739.739,0,0,0-.251-.956.861.861,0,0,0-1.023,0,4.317,4.317,0,0,0-.806.725,1.953,1.953,0,0,1-2.392.745c-.678-.271-1.206.176-1.667.678-.156.163-.393.522-.637.149-.515-.793-.874-.393-1.118.156a7.848,7.848,0,0,1-1.755,2.419,4.886,4.886,0,0,0-1.45,3.117c-.21,1.9-.623,3.775-.983,5.659a1.037,1.037,0,0,1-.468.623c-.278.142-.447-.115-.535-.386-1.511-4.52-2.67-9.088-1.816-13.913a7.387,7.387,0,0,0-.224-3.246,32.032,32.032,0,0,0-1.05-3.388,5.55,5.55,0,0,1-.352-2.9,10.537,10.537,0,0,1,.529-3.388,1.857,1.857,0,0,0-.352-1.809c-.312-.44-.786-.393-1.24-.352s-.569-.312-.82-.569c-.752-.793-1.389-.752-1.918.095a8.236,8.236,0,0,0-.6,1.227,51.739,51.739,0,0,1-3.043,6.4,4.906,4.906,0,0,0-.644,2.9c.156,2.08.095,4.208,1.111,6.133a1.6,1.6,0,0,1-.237,1.992c-.847.989-1.552,2.033-.468,3.388a.725.725,0,0,1,.047.529c-.312,1.308.19,2.514.434,3.761a77.4,77.4,0,0,1,1.538,9.149,2.785,2.785,0,0,0,.827,1.958c.434.386.413.678-.142.942-.895.678-.556,1.809-.867,2.711-.474,1.355.149,2.087,1.728,2.291a1.206,1.206,0,0,1,1.084.637c.359.678,0,1.321-.942,1.586-.508.149-1.118-.149-1.552.325s-.217,1.227-.169,1.83c.081,1,.271,1.986.44,2.968.129.718.319,1.423.447,2.141.1.6-.217.867-.976.576a1.166,1.166,0,0,0-1.443.352,4.005,4.005,0,0,0-.915,2.514,1.071,1.071,0,0,0,1.491,1.064,8.3,8.3,0,0,0,3-2.324.793.793,0,0,1,1.01-.088.712.712,0,0,1,.23.962,12.943,12.943,0,0,0-1.186,5.293,14.55,14.55,0,0,1-.346,2.711c-.258,1.1-.583,2.128.718,2.846a1.586,1.586,0,0,1,.562.908c.617,1.938,1.355,1.708,2.867,1.145a4.189,4.189,0,0,0,2.555-1.83c1.193-2.135,3.266-3.388,5.062-4.9a3.063,3.063,0,0,1,2.263-.84c1.545.224,2.609-.569,3.761-1.288a11.934,11.934,0,0,1,3-1.294,6.144,6.144,0,0,0,3.632-2.263,4.208,4.208,0,0,1,1.26-1,25.3,25.3,0,0,1,7.753-3.327c1.308-.325,2.643-.935,3.8.373.054.061.183.129.237.108,1.26-.529,2.48.2,3.72.1.718-.061,1.071-.522.949-1.315s-.278-1.43-.386-2.148c-.2-1.355.095-1.8,1.423-2.155a17.9,17.9,0,0,1,4.886-.366.474.474,0,0,1,.325.773c-.779.623-1.572,1.233-2.379,1.816a2.392,2.392,0,0,0-1.159,3.022,9.07,9.07,0,0,0,.617,1.511c.678,1.41.6,1.857-.393,2.853a4.168,4.168,0,0,1-1.606,1.01,1.869,1.869,0,0,0-1.355,2.3c.122,1.213.407,1.769,1.606,1.83a3.131,3.131,0,0,0,2.406-1.125c1.03-1.03,2.033-2.108,3.009-3.172a2.033,2.033,0,0,0,.569-2.033c-.63-2.087-.163-4.351-1.132-6.269a2.575,2.575,0,0,1,1.552-.82,7.6,7.6,0,0,0,2.562-1.538c.786-.678.827-1.355,0-2.033a12.537,12.537,0,0,1-2.575-2.907,4.263,4.263,0,0,1,.827-.678,1.368,1.368,0,0,0,.806-1.992,1.41,1.41,0,0,1-.129-.529c0-.427.2-.678.678-.6.962.115,1.8.915,2.887.468.325-.129.678.169.881.508a9.487,9.487,0,0,1,.678,1.477,1.559,1.559,0,0,0,1.64,1.152c.678,0,1.057.366.834,1.037a4.107,4.107,0,0,0,.407,3.653,3.3,3.3,0,0,1-.319,4.276.716.716,0,0,0,.59,1.132,3.429,3.429,0,0,0,3.388-2.609,11.159,11.159,0,0,0,0-1.9,5.768,5.768,0,0,1,.291-2.765c.854.562,1.633,1.179,2.5,1.633,1.6.847,2.27,2.033,1.674,3.8-.047.136.095.332.163.529a3.708,3.708,0,0,0,.773.095,8.234,8.234,0,0,0,1.355-.224C335.98,145.762,336.955,144.346,336.806,141.784Z" fill="#bec0c2" stroke="#bec0c2" stroke-miterlimit="10" stroke-width="0.678"/>
          <path id="Path_335" data-name="Path 335" d="M151.122,120.627Z" fill="#bec0c2" stroke="#bec0c2" stroke-miterlimit="10" stroke-width="0.678"/>
          <path id="Path_336" data-name="Path 336" d="M151.685,124.551v.034Z" fill="#bec0c2" stroke="#bec0c2" stroke-miterlimit="10" stroke-width="0.678"/>
          <path id="Path_337" data-name="Path 337" d="M128.244,26.721Z" fill="#bec0c2" stroke="#bec0c2" stroke-miterlimit="10" stroke-width="0.678"/>
          <path id="Path_338" data-name="Path 338" d="M133.679,31.336h.034Z" fill="#bec0c2" stroke="#bec0c2" stroke-miterlimit="10" stroke-width="0.678"/>
          <path id="Path_339" data-name="Path 339" d="M161.762,38.086a3.859,3.859,0,0,1,.779.149c.339.42.434,1.355,1.233.935.637-.332,0-.908-.081-1.355a2.372,2.372,0,0,0-.373-.678h0a2.08,2.08,0,0,0-1.111-1.078.806.806,0,0,0-.739,0A1.355,1.355,0,0,0,161,37.476C161.077,37.95,161.4,38.031,161.762,38.086Z" fill="#bec0c2" stroke="#bec0c2" stroke-miterlimit="10" stroke-width="0.678"/>
          <path id="Path_340" data-name="Path 340" d="M176.969,53.245a.569.569,0,0,0,.678-.258c.095-.149.2-.291.278-.447a.678.678,0,0,0-.129-.949,1.071,1.071,0,0,0-.678-.264c-.44.041-.461.447-.515.82a3.05,3.05,0,0,0,0,.495C176.623,52.893,176.63,53.184,176.969,53.245Z" fill="#bec0c2" stroke="#bec0c2" stroke-miterlimit="10" stroke-width="0.678"/>
          <path id="Path_341" data-name="Path 341" d="M175.2,49.857c.325.142.59,0,.678-.393h0a1.545,1.545,0,0,0,0-1.227.678.678,0,0,0-.366-.312c-.318-.108-.434.149-.495.386a9.667,9.667,0,0,0-.156,1C174.99,49.471,175.044,49.789,175.2,49.857Z" fill="#bec0c2" stroke="#bec0c2" stroke-miterlimit="10" stroke-width="0.678"/>
          <path id="Path_342" data-name="Path 342" d="M276.595,101.36c.346.047.44-.244.549-.481a5.142,5.142,0,0,0,.19-.623,3.607,3.607,0,0,0-1.511-3.436.739.739,0,0,0-.989,0,1.132,1.132,0,0,0-.325.678,6.8,6.8,0,0,0,1.606,3.653.766.766,0,0,0,.481.21Z" fill="#bec0c2" stroke="#bec0c2" stroke-miterlimit="10" stroke-width="0.678"/>
          <path id="Path_343" data-name="Path 343" d="M119.881,9.406a.956.956,0,0,0-.515-1.132c-.549-.264-1.179-.373-1.728-.637a2.12,2.12,0,0,0-2.033.332.806.806,0,0,0,0,1.355,1.965,1.965,0,0,0,1.667.319c.678.088,1.172.19,1.708.224A.813.813,0,0,0,119.881,9.406Z" fill="#bec0c2" stroke="#bec0c2" stroke-miterlimit="10" stroke-width="0.678"/>
          <path id="Path_344" data-name="Path 344" d="M293.313,113.172c.312.3.678.834,1.1.508.989-.678,1.315-1.87,1.8-2.792-.129-.5-.237-.881-.63-.983a.718.718,0,0,0-.82.515,2.337,2.337,0,0,0-.21.773c-.081.678-.468.84-1.071.969C292.71,112.339,292.7,112.583,293.313,113.172Z" fill="#bec0c2" stroke="#bec0c2" stroke-miterlimit="10" stroke-width="0.678"/>
          <path id="Path_345" data-name="Path 345" d="M298.429,109.377a.461.461,0,0,0,.678-.244c.122-.339.21-.678.3-.989a4.927,4.927,0,0,0,0-1.132.908.908,0,0,0-.5-.556.942.942,0,0,0-.766.088,1.593,1.593,0,0,0,.285,2.833Z" fill="#bec0c2" stroke="#bec0c2" stroke-miterlimit="10" stroke-width="0.678"/>
          <path id="Path_346" data-name="Path 346" d="M257.8,81.552a1.078,1.078,0,0,1-.041-.264c.108-.129.2-.264.149-.373-.115-.258-.339-.21-.556-.149-.63.529-1.443,0-2.1.359a3.8,3.8,0,0,1-3.144-.047c-.3-.095-.813-.054-.678-.59a.759.759,0,0,1,.59-.44,7.309,7.309,0,0,0,4.473-1.593c.217-.149.535-.237.373-.562a1.355,1.355,0,0,0-.549-.542,1.491,1.491,0,0,0-1.511-.095c-1.186.813-2.833.725-3.788,2.033-.271.359-.84.285-1.254,0a1.206,1.206,0,0,1-.386-1.22c.054-.678.6-1.1.888-1.66a.454.454,0,0,0-.678-.156c-.989-.508-1.01-.522-.461-1.193.217-.264.644-.42.495-.854a.9.9,0,0,1,.63-1.267c.2-.081.217-.23.115-.447-.291-.637-1.294-1.05-1.776-.678-.359.271-.678.623-1.01.908-.495.386-.989.373-1.152,0a1.05,1.05,0,0,1,.237-1.24,3.044,3.044,0,0,1,.678-.42c.956-.508.942-1.491,1.091-2.345.122-.678-.678-.678-1.05-1.057s-.84-.942-1.281-1.355a.779.779,0,0,0-.989-.115c-.237.129-.434.332-.678.468-.962.583-.962.576-1.837-.583a2.774,2.774,0,0,0-1.958-.928q-.619.665-1.3,1.267c-.264.217-.481-.041-.522-.325a6.724,6.724,0,0,1,0-.935c-.6.359-1.078.678-1.606.962s-.834-.061-1.057-.495c-.122-.291-.291-.332-.515-.095-.515.339-.895.888-1.62.908s-.827.61-.881,1.166a7.867,7.867,0,0,0,.6,2.914,3.617,3.617,0,0,1,.346,2.121.9.9,0,0,1-.481.562,1.01,1.01,0,0,1-.739-.2c-.569-.386-.637-1.064-.874-1.647s-.617-.854-1.118-.176a.468.468,0,0,1-.712.081,1.172,1.172,0,0,1-.183-.725,1.918,1.918,0,0,1,1.213-1.681c.44-.224.779-.535.678-1.044-.149-.827-.461-1.66-1.355-1.843a9.63,9.63,0,0,1-4.595-2.616c-.312-.285-.745-.244-.766.264,0,.678-.217,1.044-.9,1.091s-1.45.1-2.175.122a2.3,2.3,0,0,0-2.433,1.769,1.41,1.41,0,0,1-.759,1.044c-.481.163-.522.522-.44.949,1.355,1.118,2.087-.122,2.928-.806a6.876,6.876,0,0,1-2.88,2.494,5.693,5.693,0,0,0-3.022,6.553,2.785,2.785,0,0,1-.515,2.277c-2,2.955-4.595,5.591-4.283,9.664.108,1.416-1.355,2.169-2.636,2.711a1.085,1.085,0,0,1,.081-.251c.095-.156.21-.3.3-.447a1.857,1.857,0,0,0,.122-1.423c-.244-1.233,1.213-1.891,1.044-3.1-3.077-1.884-6.309-.434-9.488-.447,2.067-.068,3.964-.854,5.95-1.159,1.139-.122,1.525-.854,1.552-1.884a11.663,11.663,0,0,1,3.937-4.6,6.987,6.987,0,0,0,2.833-4.12v-.271a1.8,1.8,0,0,1,1.084-2.135,5.367,5.367,0,0,0,1.911-1.484c-.054-.495.38-1.023-.183-1.6a17.477,17.477,0,0,0-3.775,3.673l-.176-.068c-1.6.258-2.114,1.911-3.822,2.867a20.418,20.418,0,0,1,3.117-3.172c1.626-1.437,3.47-2.663,4.561-4.629.3-.332.637-.678.922-1s.359-.468-.136-.773c-.678-.42-.678-.881-.163-1.186q1.532-.895,3.124-1.687c.759-.373,1.45-.779,1.654-1.681a.434.434,0,0,0-.63-.183c-.576-.054-.854-.366-.535-.874a1.911,1.911,0,0,1,.881-.59c.468-.2,1.152-.169,1.1-.922-.034-.508-.515-.678-.9-.942-1.077-.678-1.471-.522-2.128.637-.136.237-.183.522-.339.739a.678.678,0,0,1-.935.244c-.752-.312-1.057-1.267-2.033-1.355a10.433,10.433,0,0,1-.156,1.057,1.274,1.274,0,0,1-1.213.922.949.949,0,0,1-1-1.01c.1-.779.678-1.26,1.044-1.87a.468.468,0,0,0-.291-.678,1.023,1.023,0,0,0-.766,0,.915.915,0,0,0-.407.678c0,1.213-1.091,1.864-1.355,2.9-.44,1.613-1.837.617-2.711,1.03-.244.115-.481.251-.739.346-1.484.562-2.128.373-3.022-.834-.529-.718-.678-1.674-1.45-2.236a1.9,1.9,0,0,0-.481.251,3.388,3.388,0,0,0-.969,2.433c0,.461-.461.8-.915.2-1.83.678-.678,2.433-1.281,3.565a2.27,2.27,0,0,1-.562,1.565c-.149.129-.217-.359-.393-.508a5.131,5.131,0,0,1,0-3.443,13.873,13.873,0,0,1,.508-1.525c.095-.312-.115-.508-.319-.678a.733.733,0,0,0-.745,0c-.908.373-.942,1.525-1.762,1.979-.515.332-1.213-.217-1.681.352-.319.9-.786,1.8.19,2.636a.813.813,0,0,1,.047.718c-.149.366-.522.42-.9.407a.861.861,0,0,1-.942-.745,6.027,6.027,0,0,1-.034-1.308c0-.393,0-.732-.474-.752s-.59.285-.678.678a7.648,7.648,0,0,1-.3.739h0a1.057,1.057,0,0,0-.6,1.111h0a.793.793,0,0,1-.176.427l-.962-.136a.508.508,0,0,1,.1-.515.718.718,0,0,0,.474-.637h0a.434.434,0,0,1,.061-.319,5.644,5.644,0,0,0,.4-.678.508.508,0,0,0-.21-.678c-.3-.163-.474.081-.549.346a6.938,6.938,0,0,0-.122.766h0c-.678-.108-.806-.678-.847-1.213a5.869,5.869,0,0,1,.956-3.619,1.572,1.572,0,0,0,0-1.274.522.522,0,0,0-.4-.237.45.45,0,0,0-.325.3,7.852,7.852,0,0,0,.169,1.023.915.915,0,0,1-.271,0c-1.078-.278-1.43-1.565-2.521-1.864-.122,0-.149-.474-.176-.725a5.977,5.977,0,0,0-.075-1.057c-.21-.678-.678-.745-1.24-.359l-.786.562a.285.285,0,0,1,0-.325h0c-.061-.163-.115-.461-.176-.461-1.023,0-2.08-.366-3.016.352l-.881,1.6c-.569-.108-1.213-.088-1.511-.752h0a.508.508,0,0,0-.569-.447,3.8,3.8,0,0,0-2.419,1.05,1.355,1.355,0,0,1-1.5.346h0a1.613,1.613,0,0,1,.732-1.457.725.725,0,0,0,.678-.413h0l.407-.108c.291.047.59-.047.522-.346-.136-.6-.542-.549-.969-.258h0l-1.01.068h0l-.569-.176a3.39,3.39,0,0,1,.047-.678c0-1.044-.3-2.25-1.078-2.616-1.227-.583-.678-1.992-1.586-2.514a5.137,5.137,0,0,0-1.5-.339v-.047h0c.386-.752-.23-1.355-.352-2.033s-.529-.8-1.118-.8h-.224a1.355,1.355,0,0,1-.556-1.078,1.023,1.023,0,0,0-.495-.82c-.169-.041-.332-.075-.5-.1h0l-.983-.163-1.687-.224c.047-.149.088-.3.136-.447h0c.339,0,.949-.149.806-.352-.495-.678-.678-1.708-1.667-2.033l-1.172.339h0l-.6-.095h0c-.3-.2-.678-.325-.861-.6a1.925,1.925,0,0,0-1.606-.847c-.474-.21-.834-.732-1.471-.569a.915.915,0,0,1-.522,0,.793.793,0,0,1-.562-.834c.068-.617.42-.4.745-.217a2.115,2.115,0,0,0,.237.136c.332.129.745.291.888-.149a.678.678,0,0,0-.508-.861c-1.145-.278-2.291-.413-3.124.725-1.22,1.7-1.782-.237-2.663-.474a2.318,2.318,0,0,0-.874-1.1,1.985,1.985,0,0,0,.047-.488c-.136-.271-.312-.312-.529-.088-.427.59-1.159.6-1.735.9-1.579.447-1.43,1.931-1.843,3.1a.515.515,0,0,1-.4.332c-.122-1.477,1.213-2.467,1.355-3.876a3.377,3.377,0,0,0-.047-.366l-.515-.549c.047-.271,0-.63.149-.786a1.887,1.887,0,0,0,.136-2.88c-.237-.3-.122-.874-.169-1.321-1.735-.535-2.392.678-3.036,1.884-.325.617-.332.617-.508.637-1.62.23-1.62.23-1.83,2.094h-.041a.773.773,0,0,0,0-.393,1.471,1.471,0,0,0-.786-.861c-.075-.061-.176-.122-.176-.183a.264.264,0,0,1,.142-.21c1.958-.637,2.955-1.87,2.541-4.005-.291-1.084-.291-1.084-1.159-.8-.732-.041-.773-.2-.3-1.1a1.138,1.138,0,0,0-.678-1.064,1.85,1.85,0,0,0-1.017,0c-.108,0-.163.454-.156.678s0,.535-.359.488-.583-.373-1-.285c-.6.136-.535-.325-.352-.6.529-.813.515-1.3-.617-1.355-.115,0-.271-.393-.312-.617-.075-.5-.325-.874-.827-.888a.989.989,0,0,0-.983.766c-.163.556-.427.983-1.078,1a2.555,2.555,0,0,0-1.152.725c-.3,0-.366,1-.9.237a4.649,4.649,0,0,0,2.04-1.755c.149-.583.278-1.159-.3-1.6-.434-.386-1.132-.3-1.5-.813a.434.434,0,0,1-.075-.352c-.332-.766-.813-.623-1.193-.1-.766,1.084-1.077-1.206-1.8-.21-.163-.44.42-.725.258-1.166a1.044,1.044,0,0,0-.752-.8l-1.017-.291-.637-.407a.725.725,0,0,0-.359-.047c-1.159.644-1.464-.576-2.141-.983.081-.461.6-1.091-.42-1.145-.474-.271-1.152.359-1.532-.346-.041-1.172-.895-1.355-1.911-1.477-.149.569-.3,1.152-.447,1.735a.678.678,0,0,1-.481-.556c-.19-.881.379-2.291-1.43-2.033-.075,0-.251-.23-.251-.352,0-.447.075-.888.081-1.355,0-.278-.129-.495-.44-.339-.149.075-.23.264-.346.4-2.162,2.338-2.033,3.158.5,4.412a1.355,1.355,0,0,1,.488.556,2.134,2.134,0,0,1-.237.258,2.494,2.494,0,0,0,.088,1.355c.163.312.339.617.5.928.542,1.6.149,3.985,3.036,3.585,2.806-2.263,1.9,1.552,2.934,2.216.278.386.562.773.861,1.145.163.169.319.346.474.522l.542.454c.373.285.949.44,1.22.8a.542.542,0,0,1,.19.6.976.976,0,0,1-.488.712l-.095.054h-.061a3.592,3.592,0,0,1-1.159.285c-.766.095-1.8-.068-1.416,1.288,1.037.508,1.958-.169,2.928-.278.21-.108.427-.2.644-.291a2.826,2.826,0,0,1,.678-.2,2.453,2.453,0,0,1,1.355.251l.59.319.312.1c1.552-.285,1.776-1.735,2.453-2.778a1.355,1.355,0,0,1,.623-.413,1.979,1.979,0,0,1,2.277,1.132.431.431,0,0,1,0,.047.786.786,0,0,1,0,.766c-.21.556-.867.915-1.308,1.355-.258.251-.569.454-.834.678-.474.434-.976.895-.752,1.626s.895.8,1.565.712a2.033,2.033,0,0,1,.285,0,.976.976,0,0,1,.623,0,1.911,1.911,0,0,1,.312.3l.061.041.054.136a.807.807,0,0,1,.088.6,1.254,1.254,0,0,1-.075.38,4.744,4.744,0,0,0-1.213,2.982,2.372,2.372,0,0,1-.081.786,8.5,8.5,0,0,1-.522,2.711,1.111,1.111,0,0,0,.529.739c1.355.21,2.656.881,4.066.678a3.07,3.07,0,0,1,.745.047,1.888,1.888,0,0,0,.183.142.678.678,0,0,1,.427.291h0c2.189,1.355,5.028,1,5.584,5.848a1.945,1.945,0,0,1,.332.678c-.041.075-.054.136-.088.2a1.356,1.356,0,0,1-.19.725c-.115,1.694,2.277,2.25,2.033,4.913a3.808,3.808,0,0,1,.285.678c.6,1.877.163,3.931,1.03,5.753a19.829,19.829,0,0,0,2.2,1.633,2.378,2.378,0,0,1,.488.522,1.2,1.2,0,0,1,.2.623.522.522,0,0,1-.291.678,7.136,7.136,0,0,1-.549.562.847.847,0,0,0,0,.915c.142.163.285.319.44.468.495.556,1.233.44,1.85.678a1.124,1.124,0,0,1,.183.088h.061a.97.97,0,0,1,.142.081,1.2,1.2,0,0,1,0,.156,2.473,2.473,0,0,1,.2.942.935.935,0,0,0,.3.678h.237a2.711,2.711,0,0,0,.637-.176c1.667-.258,5.354-.678,2.67,2.141-.888.942,1.017,1.559,1.762,2.141a1.607,1.607,0,0,1,.183.19.508.508,0,0,1,.169.169,4.262,4.262,0,0,1,.542.786c.129.2.251.4.373.6a12.448,12.448,0,0,1,.752,1.213,1.589,1.589,0,0,0,0,.264,2.033,2.033,0,0,1,.081.3c.5,1.057,2.623.291,4.357.6-2.819,3.51-.244,2.406.481,3.517.19.447-.136,1.938.075,2.379a4.156,4.156,0,0,1,.285.678,4.857,4.857,0,0,1,.183,1.159c-.271.928-1.837,1.037-1.023,2.318,0,1.206.9,1.654,1.83,2.033a.983.983,0,0,1,.359.644,2.51,2.51,0,0,1-3.524,1.559,3.694,3.694,0,0,0-4.066.678,3.016,3.016,0,0,1-2.223.38c-1.247-.332-2.379-1.2-3.775-.806-.678.251-.718.9-.949,1.437a2.784,2.784,0,0,1-.339.623,4.322,4.322,0,0,1-.508.488c-.183.156-.366.3-.535.461a5.983,5.983,0,0,1-1.247,1.87c-.434.515-1.023.529-1.809.054a8.734,8.734,0,0,1-1.227-.752c-1.423-1.03-2.792-.332-4.188-.373-1.782,0-2.982-1.355-4.547-1.9-.888.068-1.8-1.22-2.657.054.129.176.237.352.346.535a9.88,9.88,0,0,1,.583,2.291,2.941,2.941,0,0,0,.522.827,13.9,13.9,0,0,0,1.647,1.233,3.335,3.335,0,0,1,.535.535,10.512,10.512,0,0,1,.515,1.037.956.956,0,0,1-.115,1.01.678.678,0,0,1-.881.244h-.088c-1.837-.3-1.572.291-3.273-.468-.447-.115-.8-.678-1.3-.332a.359.359,0,0,0-.081.59,6.689,6.689,0,0,0,1.8,1.355,3.909,3.909,0,0,1,.617.386,2.577,2.577,0,0,1,1.24,2.711c-.617,2.867.922,1.694,2.128,1.152a2.25,2.25,0,0,1,.732-.2c1.552.095,1.9,1.477,2.616,2.46a14.23,14.23,0,0,0,1.992,1.735,1.179,1.179,0,0,0,.935.271c.19-.122.38-.23.562-.359.678-.407,1.315-.59,1.87-.095l.169.081a1.241,1.241,0,0,1,.054.169,1.415,1.415,0,0,0,.095.115,1.358,1.358,0,0,1-.034.163,1.5,1.5,0,0,1-.258.983c-.678,1.979-2.23,3.72-1.782,6.025.061.237.1.481.142.725a14.535,14.535,0,0,1,.339,3.2c.047.21.088.42.142.623a2.379,2.379,0,0,0,.678.976,12.417,12.417,0,0,0,1.355.779,1.958,1.958,0,0,1,.427.488c.258.474.495.956.745,1.43a7.2,7.2,0,0,0,.718,1.355,3.084,3.084,0,0,0,.434.352.908.908,0,0,0,.793-.034,5.983,5.983,0,0,0,.678-.63,2.765,2.765,0,0,1,.562-.407,1.979,1.979,0,0,1,.542-.149.847.847,0,0,1,1.077.278,2.534,2.534,0,0,1,.562.623c.576,1.111.495,2.555,1.667,3.388.678.678,1.213,1.457,2.25,1.552a14.842,14.842,0,0,1,2.555.576c2.087.827,4.33-.468,6.411.44a3.965,3.965,0,0,1,1.681.63c.2.108.407.23.6.352.515.291,1.091.434,1.6.732a1.884,1.884,0,0,1,.488.522,3.118,3.118,0,0,0,2.636,2.487c.346.047.759.332,1.05.081l.054-.068a.434.434,0,0,0,.088-.122c.224-.454-.224-.834-.434-1.233a14.008,14.008,0,0,1-2.209-4.229,9.318,9.318,0,0,1,.1-2.711,6.653,6.653,0,0,1,.2-1,.936.936,0,0,1,.054-.2l.081-.169a.085.085,0,0,1,.034-.068,1.128,1.128,0,0,1,1.355-.522,1.769,1.769,0,0,1,1.308.359l.1.034a.56.56,0,0,1,0,.1.183.183,0,0,1,.054.047.427.427,0,0,1,0,.678c-.142.461-.569.806-.806,1.227a1.823,1.823,0,0,0-.434,1.132,1.749,1.749,0,0,0,.3.474c.42.318.962.393,1.355.678a1.491,1.491,0,0,1,.38.535c.2.434.149,1.023.745,1.206a3.124,3.124,0,0,0,.569-.1,9.238,9.238,0,0,0,1.111-.522,5.383,5.383,0,0,1,.6-.291l.251-.115,46.76-26.9c.142-.1.285-.2.434-.3a6.508,6.508,0,0,1,.644-.339c.095-.041.183-.095.278-.142l1.1-.623c.556-.379,1.084-.8,1.626-1.206a6.306,6.306,0,0,1,.6-.413,5.32,5.32,0,0,1,.644-.346,19.09,19.09,0,0,0,3.605-2.426,6.1,6.1,0,0,1,.61-.42,5.2,5.2,0,0,1,.678-.352c.935-.244,1.62-1.179,2.6-1.355a10.8,10.8,0,0,1,1.9-1.1c.217-.108.434-.21.644-.325l.3-.163c.2-.115.4-.23.59-.359l.285-.19.556-.366c1.193-.549,1.552,1.355,2.711.922.339-.515.3-1.355.983-1.559.935-.325,1.023-.881.678-1.687a9.437,9.437,0,0,1-.461-1.267.766.766,0,0,1,.352-.935c.386-.224.84-.339,1.22-.576.21-.129.495-.522.44-.623-.745-1.274.108-1.972.9-2.711a.63.63,0,0,0,.156-.5c-.413-1.355,1.227-2.643.2-4.066-.2-.278.2-.427.427-.542.888-.427.82-1.355,1-2.1S258.046,82.047,257.8,81.552ZM144.013,34.487c-.169.108-.237,0-.054-.088a.543.543,0,0,0,0-.1C144.068,34.324,144.176,34.385,144.013,34.487Z" fill="#bec0c2" stroke="#bec0c2" stroke-miterlimit="10" stroke-width="0.678"/>
          <path id="Path_347" data-name="Path 347" d="M233.616,210.324c.678-.271,1.355-.529,2-.861a.779.779,0,0,0,.38-.935.84.84,0,0,0-.644-.366c-.813,0-1.633.054-2.446.088-.468,0-.535.359-.623.725a4.653,4.653,0,0,1-.352.773c-.6-.319-1.152-.63-1.721-.895-.861-.4-.969-.339-1.355.847-.129.4-.291.678-.725.515a1.694,1.694,0,0,0-1.247-.23c-.935.244-.346-.427-.379-.752-.088-.867-.495-.474-.867-.2-.8.346-.752-.393-.989-.773-.739-.854-1.355.739-2.128.054-.156-.928-.291-1.884-.5-2.826a1.172,1.172,0,0,0-1.294-1.05,2.033,2.033,0,0,0-.556.549,2.78,2.78,0,0,0-.081.474,3.768,3.768,0,0,1-.759,1.633,1.606,1.606,0,0,0,.244-1.755c-.176-.2-.325-.461-.549-.562-.474-.23-1.179-.23-1.355-.793a3.639,3.639,0,0,1,.068-1.593c.061-.332.346-.63.434-.969a1.091,1.091,0,0,0-.1-.759c-.718-1.152-2.541-1.321-3.131-.129-.529,1.077-1.125.962-1.945.712-.63.678-1.66.84-2.033,1.471a7.17,7.17,0,0,0,.759-1.857c.42-.6.84-1.186,1.254-1.782a8.787,8.787,0,0,0,1.308-5.482c0-.942-.352-1.213-1.5-1.491-.264-.068-.542-.088-.61-.4s.251-.38.488-.5c.915-.468.908-.481.169-1.037a3.317,3.317,0,0,1-.393-.264c-1.125-1.1-1.125-1.111-2.291-.237-.21.156-.468.407-.63.068a1.254,1.254,0,0,0-1.8-.678,2.033,2.033,0,0,0-1.091,1.782c-.108.813-.19,1.626-.352,2.433s-.373,1.715-1.355,1.8c-.874.068-1.1-.766-1.471-1.4-.989-1.735-1.87-2.033-3.761-1.626-1.742.373-3.483,1.145-5.306.183-.447-.237-.922.122-1.132.529a4.066,4.066,0,0,1-2.033,2.094c-.535,1.315-1.044,2.65-2.711,2.948l.041-.034a2.934,2.934,0,0,0-.678.495h.041c-.373.3-.583.766-1.017,1.01a8.627,8.627,0,0,1-5.177-.352.5.5,0,0,0-.678.1,1.423,1.423,0,0,1-1.355.319c-1.145.386-2.433.6-2.169,2.358.183,1.247-1,.583-1.477.922-1.5,1.9.366,2.921,1.118,4.229,1.064,1.931.468,3.666-.63,5.34h0a3.063,3.063,0,0,0-.678.488h.041a2.711,2.711,0,0,0-.678.5h.041a3.09,3.09,0,0,0-1.071,1.525c.041.413.149.745.678.576.888-.447,1.437-1.41,2.487-1.626a1.464,1.464,0,0,0,1.24-1.565c0-.881.556-1.267,1.267-1.586a3.334,3.334,0,0,1,3.144.122,12.754,12.754,0,0,1,1.355.888,2.392,2.392,0,0,0,2.033.59c.522-.115.813.291.989.739s.217,1.037.529,1.227a3.843,3.843,0,0,1,1.647,2.385,1.281,1.281,0,0,0,.454.678c1.044.637,1.254,1.755,1.6,2.765.522,1.532.678,3.219,1.938,4.425a.678.678,0,0,1,.2.495c-.312,1.647.61,2.711,1.64,3.8a2.853,2.853,0,0,1,.386,1.01c.244.779.461,1.565.732,2.338.413,1.206.915,1.511,2.263,1.24a3.565,3.565,0,0,1,2.643.176c.332.19.617.549.366.881-.678.942-.264,1.5.556,1.958.495.278,1.03.556.956,1.193-.142,1.125.508,1.4,1.416,1.511,1.45.183,2.894.379,4.33.61a2.1,2.1,0,0,0,1.986-.576c.562-.542,1.125-1.206,2.114-.949.38.1.678-.23.888-.529a5.971,5.971,0,0,1,2.446-1.735l-.969-2.067a.317.317,0,0,1-.041-.061c.088-.136.183-.325.264-.325,1.159.075,2.46.562,3.429.19s1.484-1.762,2.494-2.392a3.443,3.443,0,0,0,1.281-1.681c.468-1.071,1.1-2.074,1.62-3.124a9.426,9.426,0,0,1,2.108-2.785c-.3-1.545,1.321-1.728,1.891-2.657.325-.535.678-1.05,1.037-1.572-.3-.739.291-1.491-.034-2.23,0-.068-.061-.115-.081-.176.2.38.366.806.922.806.569-.278.745-.867,1.05-1.355.115-.2.23-.393.339-.59s.264-.373.386-.556a3.958,3.958,0,0,0,.908-1.1,2.541,2.541,0,0,0,0-2.257C233.013,211.138,232.932,210.6,233.616,210.324Zm-18.582,19.1c.759,1.247.075,2.643.407,3.937C214.587,232.139,215.129,230.743,215.034,229.428Zm13.554-14.075a9.083,9.083,0,0,1,.806,1.064c-.285-.434-.644-.766-.827-1.064Z" fill="#bec0c2" stroke="#bec0c2" stroke-miterlimit="10" stroke-width="0.678"/>
        </g>
      </g>
      <text id="Qubec" transform="translate(110.753 211.653) rotate(0.1)" fill="#404041" font-size="11" font-family="Muli-ExtraBold, Muli" font-weight="800"><tspan x="0" y="0">Qubec</tspan></text>
      <circle id="Ellipse_22" data-name="Ellipse 22" cx="1.593" cy="1.593" r="1.593" transform="translate(152.742 210.209)" fill="#404041" stroke="#404041" stroke-miterlimit="10" stroke-width="0.678"/>
      <text id="Halifax" transform="translate(204.652 229.157) rotate(0.1)" fill="#404041" font-size="11" font-family="Muli-ExtraBold, Muli" font-weight="800"><tspan x="0" y="0">Halifax</tspan></text>
      <circle id="Ellipse_23" data-name="Ellipse 23" cx="1.593" cy="1.593" r="1.593" transform="translate(245.997 227.714)" fill="#404041" stroke="#404041" stroke-miterlimit="10" stroke-width="0.678"/>
      <text id="St._John_s" data-name="St. Johns" transform="translate(333.804 124.72) rotate(0.1)" fill="#404041" font-size="11" font-family="Muli-ExtraBold, Muli" font-weight="800"><tspan x="0" y="0" letter-spacing="-0.01em">S</tspan><tspan y="0" letter-spacing="0.02em">t</tspan><tspan y="0">. Joh</tspan><tspan y="0" letter-spacing="-0.02em">n</tspan><tspan y="0" letter-spacing="-0.03em"></tspan><tspan y="0">s</tspan></text>
      <circle id="Ellipse_24" data-name="Ellipse 24" cx="1.593" cy="1.593" r="1.593" transform="translate(330.721 125.96)" fill="#404041" stroke="#404041" stroke-miterlimit="10" stroke-width="0.678"/>
    </g>
    <text id="Atlantic_RA" data-name="Atlantic RA" transform="translate(15.271 40.631)" fill="#404041" font-size="32" font-family="Quicksand-Light, Quicksand" font-weight="300"><tspan x="0" y="0">Atlantic RA</tspan></text>
  </g>
</svg>
