<svg id="logo_EN" data-name="logo EN" xmlns="http://www.w3.org/2000/svg" width="291.885" height="299.105" viewBox="0 0 291.885 299.105">
  <path id="Path_164" data-name="Path 164" d="M291.885,113l-50.462-73.05L161.034.079,160.866,0,64.932,27.875H64.38L14.273,87.412l-.187.217v.483L0,185.614v.552l50.6,72.991,80.389,39.869.76.079,94.76-27.855h.562l50.1-59.6.187-.217v-.769l14.361-95.105m-26.168,12.231L239.489,52.08l49.091,61.155ZM42.216,182.477l-26.3-74.372L79.254,92.028Zm.769,2.318.513-.473.986-1.055L81.632,92.9l40.875,77.173Zm80.5-11.738-1.973,80.063L45.373,187.567ZM84.028,91.466l99.682,9.144-58.659,68.059ZM187.212,97.1,148.744,29.739,232.526,45.59Zm47.671-49.89,27.737,80.1-72.991-28.6ZM210.007,199.9l-82.855-29.334L186.117,102.5ZM184.174,97.847l-99.14-9.075,60.5-58.521Zm-57.919,75.4L209,202.52l-84.443,50.906ZM210.816,205,205.43,271.25,127.054,255.4Zm-21.7-103.154,73.593,28.989-49.437,67.9Zm50.9-59.133L270.787,86.9,237.5,44.653Zm-2.732-1.845-2.17,1.8-41.9-23.791Zm-10.041.562L148.1,26.632,160.708,3.068Zm-70.2-37.867L145,26.415,75.95,27.48Zm-14.8,25.645L82.47,87.007,66.964,30.331ZM64.449,32.629,79.9,88.822,17.242,104.831ZM16.522,88.852,54.467,43.538,15.012,102.483Zm-1.973,24.274,25.567,72L2.9,184.253ZM3.807,187.33l36.772.829,8.572,64.706Zm40,2.89L119.015,255l-66.481,2.259Zm13.267,69.716,64.538-2.209,7.753,37.936Zm75.467,36.712-7.8-38.468,76.009,15.308Zm93.152-27.618L210.8,271l54.891-49.2Zm-17.686.3,5.622-65.534,59.35,8.157Zm6.9-68.217,48.825-67.162,10.722,75.339Zm61.263.2-9.607-70.486L289,116.539Z" fill="#fff"/>
  <path id="Path_165" data-name="Path 165" d="M53.195,184.808a12.27,12.27,0,1,0,.168,9.42,12.27,12.27,0,0,0-.168-9.42Z" transform="translate(-0.405 -2.42)" fill="#fff"/>
  <path id="Path_166" data-name="Path 166" d="M199.472,90.471a14.819,14.819,0,1,0-19.234,22.548,14.549,14.549,0,0,0,9.509,3.512h1.233a14.8,14.8,0,0,0,8.493-26.01Z" transform="translate(-2.387 -1.185)" fill="#fff"/>
  <path id="Path_167" data-name="Path 167" d="M247.288,42.857a9.864,9.864,0,1,0-5.1,12.882A9.864,9.864,0,0,0,247.288,42.857Z" transform="translate(-3.114 -0.502)" fill="#fff"/>
  <path id="Path_168" data-name="Path 168" d="M136.894,168.905a9.864,9.864,0,1,0-18.011,7.812,9.726,9.726,0,0,0,5.4,5.218,9.6,9.6,0,0,0,3.61.7,9.864,9.864,0,0,0,9.006-13.73Z" transform="translate(-1.604 -2.21)" fill="#fff"/>
  <path id="Path_169" data-name="Path 169" d="M277.49,126.918a9.821,9.821,0,1,0-12.625,13.05,10.032,10.032,0,0,0,3.62.69,9.678,9.678,0,0,0,3.946-.819A9.864,9.864,0,0,0,277.49,126.918Z" transform="translate(-3.527 -1.65)" fill="#fff"/>
</svg>
