<svg xmlns="http://www.w3.org/2000/svg" width="355.37" height="106.947" viewBox="0 0 355.37 106.947"><path d="M104.438,40.431,86.386,14.3,57.623,0h-.064L23.231,9.971h-.193L5.106,31.28l-.064.08v.177L0,66.42v.193l18.109,26.1,28.763,14.233h.273l33.9-9.971h.169L99.147,75.667l.064-.072v-.273l5.138-34.038m-9.368,4.374L85.694,18.639l17.57,21.888ZM15.109,65.3,5.693,38.694l22.668-5.725Zm.273.8.177-.161.37-.386L29.205,33.242,43.832,60.855Zm28.844-4.189-.708,28.651L16.243,67.111ZM30.074,32.736,65.736,36l-21,24.357Zm36.917,2.018L53.216,10.63,83.194,16.3ZM84.054,16.886l9.923,28.659L67.843,35.333Zm-8.9,54.68L45.489,61.113l21.1-24.429ZM65.937,35.011,30.468,31.795,52.115,10.888ZM45.175,61.989,74.783,72.467,44.564,90.68ZM75.434,73.351,73.5,97.041,45.465,91.372ZM67.666,36.442,94,46.816,76.31,71.108ZM85.879,15.278,96.9,31.087,84.979,15.97Zm-.981-.667-.8.643-14.94-8.5Zm-3.586.193L52.991,9.521,57.5,1.1ZM56.192,1.271,51.865,9.448l-24.727.386ZM50.9,10.453,29.511,31.135l-5.548-20.28ZM23.062,11.676l5.532,20.1L6.168,37.512ZM5.91,31.779l13.581-16.2L5.388,36.668Zm-.692,8.684,9.143,25.732L1.037,65.937ZM1.359,67l13.163.3,3.064,23.15Zm14.313,1.037L42.618,91.243l-23.786.8Zm4.752,24.928,23.086-.8,2.774,13.573Zm27.018,13.179-2.79-13.75,27.2,5.484Zm33.331-9.866-5.331.708,19.645-17.6Zm-6.328.1,2.01-23.448,21.237,2.919Zm2.469-24.4L94.387,47.941,98.223,74.9Zm21.92.064L95.4,46.824l8.041-5.122Z" fill="#c6e3df"/><path d="M21.437,80.517a4.4,4.4,0,1,0-4.021,6.16,4.286,4.286,0,0,0,1.753-.37,4.4,4.4,0,0,0,2.292-5.79Z" transform="translate(-2.548 -15.255)" fill="#52a79b"/><path d="M85.563,39.417a5.307,5.307,0,1,0-3.482,9.328h.442a5.307,5.307,0,0,0,3.04-9.328Z" transform="translate(-15.042 -7.469)" fill="#52a79b"/><path d="M107.009,18.335a3.514,3.514,0,1,0-1.825,4.624A3.514,3.514,0,0,0,107.009,18.335Z" transform="translate(-19.642 -3.177)" fill="#52a79b"/><path d="M58.559,73.665a3.516,3.516,0,1,0-4.511,4.68,3.594,3.594,0,0,0,1.295.249,3.409,3.409,0,0,0,1.391-.3,3.514,3.514,0,0,0,1.825-4.632Z" transform="translate(-10.151 -14.016)" fill="#52a79b"/><path d="M120.27,55.236a3.514,3.514,0,1,0-4.519,4.672,3.619,3.619,0,0,0,1.295.241,3.41,3.41,0,0,0,1.4-.289A3.522,3.522,0,0,0,120.27,55.236Z" transform="translate(-22.24 -10.406)" fill="#52a79b"/><g transform="translate(120.743 16.885)"><path d="M175.336,24.865a1.721,1.721,0,0,1-.306.876,1.254,1.254,0,0,1-1.013.482,1.367,1.367,0,0,1-.708-.217,13.67,13.67,0,0,0-7.7-2.332,12.633,12.633,0,0,0-6.433,1.673,11.949,11.949,0,0,0-4.535,4.688,14.016,14.016,0,0,0-1.608,6.851,14.048,14.048,0,0,0,1.673,6.94,11.941,11.941,0,0,0,4.559,4.664,12.665,12.665,0,0,0,6.433,1.656,13.67,13.67,0,0,0,7.663-2.292,1.4,1.4,0,0,1,.748-.225,1.214,1.214,0,0,1,1.013.531,1.246,1.246,0,0,1,.306.8,1.15,1.15,0,0,1-.611,1.061,16.26,16.26,0,0,1-4.23,1.914,16.6,16.6,0,0,1-4.889.8,15.423,15.423,0,0,1-7.816-1.962,14.973,14.973,0,0,1-5.629-5.629,16.155,16.155,0,0,1-2.091-8.234,15.994,15.994,0,0,1,2.075-8.041,15.061,15.061,0,0,1,5.589-5.685,15.23,15.23,0,0,1,7.8-2.042,16.886,16.886,0,0,1,4.825.7,15.608,15.608,0,0,1,4.246,1.986,1.222,1.222,0,0,1,.643,1.029Z" transform="translate(-150.157 -21.028)" fill="#404041"/><path d="M192.952,51.985a1.311,1.311,0,0,1-.965.394,1.335,1.335,0,0,1-.989-.37,1.359,1.359,0,0,1-.378-1v-28.1a1.351,1.351,0,0,1,.394-1,1.415,1.415,0,0,1,1.013-.37,1.343,1.343,0,0,1,1.367,1.367v28.1a1.5,1.5,0,0,1-.442.973Z" transform="translate(-158.083 -21.106)" fill="#404041"/><path d="M231.6,45a14.474,14.474,0,0,1-25.732,0A17.256,17.256,0,0,1,204,36.859a17.385,17.385,0,0,1,1.89-8.194,14.08,14.08,0,0,1,5.243-5.629,15.334,15.334,0,0,1,15.238,0,14.136,14.136,0,0,1,5.243,5.629,17.385,17.385,0,0,1,1.89,8.194A17.256,17.256,0,0,1,231.6,45Zm-2.412-15a11.394,11.394,0,0,0-4.286-4.688,12.279,12.279,0,0,0-12.375,0,11.4,11.4,0,0,0-4.23,4.688,15.012,15.012,0,0,0-1.52,6.851,15.013,15.013,0,0,0,1.52,6.851,11.258,11.258,0,0,0,10.453,6.361,11.523,11.523,0,0,0,6.192-1.673,11.394,11.394,0,0,0,4.23-4.688,15.013,15.013,0,0,0,1.52-6.851,15.014,15.014,0,0,0-1.536-6.851Z" transform="translate(-160.703 -21)" fill="#404041"/><path d="M275.749,45a14.474,14.474,0,0,1-25.732,0,17.264,17.264,0,0,1-1.9-8.146,17.393,17.393,0,0,1,1.9-8.194,14.08,14.08,0,0,1,5.243-5.629,15.334,15.334,0,0,1,15.238,0,14.193,14.193,0,0,1,5.243,5.629,17.482,17.482,0,0,1,1.89,8.194A17.353,17.353,0,0,1,275.749,45Zm-2.412-15a11.619,11.619,0,0,0-20.835,0,15.013,15.013,0,0,0-1.52,6.851,15.013,15.013,0,0,0,1.52,6.851,11.77,11.77,0,0,0,20.907,0,15.789,15.789,0,0,0-.1-13.7Z" transform="translate(-169.346 -21)" fill="#404041"/><path d="M296.887,51.652a15.664,15.664,0,0,1-4.736-3.3,1.327,1.327,0,0,1-.113-2.026,1.27,1.27,0,0,1,.949-.442,1.319,1.319,0,0,1,.965.442,11.121,11.121,0,0,0,8.6,3.787,8.765,8.765,0,0,0,5.259-1.5A4.607,4.607,0,0,0,309.9,44.7a4.824,4.824,0,0,0-1.029-3.152,7.727,7.727,0,0,0-2.71-2.051,34.967,34.967,0,0,0-4.278-1.608,25.789,25.789,0,0,1-4.728-1.849,8.692,8.692,0,0,1-3.112-2.71,7.333,7.333,0,0,1-1.182-4.286,7.076,7.076,0,0,1,1.254-4.141,8.419,8.419,0,0,1,3.522-2.839A12.415,12.415,0,0,1,302.854,21a14.1,14.1,0,0,1,5.042.9,9.047,9.047,0,0,1,3.763,2.581,2.131,2.131,0,0,1,.667,1.279,1.254,1.254,0,0,1-.442.9,1.383,1.383,0,0,1-.973.418,1.045,1.045,0,0,1-.748-.306,8.62,8.62,0,0,0-3.168-2.292,10.116,10.116,0,0,0-4.141-.885,8.917,8.917,0,0,0-5.243,1.423,4.535,4.535,0,0,0-2.026,3.9,4.487,4.487,0,0,0,1.97,3.924,20.538,20.538,0,0,0,5.548,2.517,33.66,33.66,0,0,1,5.114,1.89,8.459,8.459,0,0,1,3.216,2.758,7.969,7.969,0,0,1,1.254,4.688,6.924,6.924,0,0,1-1.295,4.077,8.845,8.845,0,0,1-3.611,2.879,12.5,12.5,0,0,1-5.267,1.061,13.951,13.951,0,0,1-5.629-1.061Z" transform="translate(-177.868 -20.998)" fill="#404041"/><path d="M163.285,74.959a.37.37,0,0,1-.072.233.338.338,0,0,1-.273.145.554.554,0,0,1-.217-.072,6.208,6.208,0,0,0-3.562-1.142,5.347,5.347,0,0,0-2.79.756,5.42,5.42,0,0,0-2.01,2.075,6.361,6.361,0,0,0,0,5.983,5.42,5.42,0,0,0,4.825,2.822,6.176,6.176,0,0,0,3.546-1.118.322.322,0,0,1,.217-.072.346.346,0,0,1,.289.145.354.354,0,0,1,.072.217.346.346,0,0,1-.145.289,6.715,6.715,0,0,1-1.817.868,6.973,6.973,0,0,1-2.163.362,6.087,6.087,0,0,1-3.16-.852,6.16,6.16,0,0,1-2.292-2.34,6.867,6.867,0,0,1,0-6.626,6.24,6.24,0,0,1,2.292-2.348,6.16,6.16,0,0,1,3.16-.8,6.9,6.9,0,0,1,2.107.322,6.722,6.722,0,0,1,1.849.909.354.354,0,0,1,.145.249Z" transform="translate(-150.69 -31.278)" fill="#808081"/><path d="M177.844,86a.3.3,0,0,1-.1.249.4.4,0,0,1-.273.088.41.41,0,0,1-.225-.056.37.37,0,0,1-.137-.177l-1.52-3.723v.04h-6.047L168.074,86.1a.322.322,0,0,1-.33.233.346.346,0,0,1-.257-.088.3.3,0,0,1-.121-.217.281.281,0,0,1,0-.177l4.865-11.965a.338.338,0,0,1,.137-.193.466.466,0,0,1,.2,0,.346.346,0,0,1,.362.233L177.756,85.9a.6.6,0,0,1,.088.1ZM169.8,81.7h5.468l-2.758-6.811Z" transform="translate(-153.525 -31.319)" fill="#808081"/><path d="M192.83,73.754a.354.354,0,0,1,.088.241V85.9a.386.386,0,0,1-.1.3.4.4,0,0,1-.273.1.346.346,0,0,1-.29-.145l-8.13-11.113V85.993a.257.257,0,0,1-.1.217.322.322,0,0,1-.241.088.314.314,0,0,1-.249-.088.274.274,0,0,1-.1-.217V74.012a.314.314,0,0,1,.1-.265.306.306,0,0,1,.225-.1.338.338,0,0,1,.265.129l8.21,11.185V74a.33.33,0,0,1,.1-.241.306.306,0,0,1,.241-.1A.314.314,0,0,1,192.83,73.754Z" transform="translate(-156.674 -31.312)" fill="#808081"/><path d="M208.735,86a.305.305,0,0,1-.113.249.386.386,0,0,1-.273.088.426.426,0,0,1-.225-.056.37.37,0,0,1-.137-.177l-1.512-3.723v.04h-6.007L199.005,86.1a.322.322,0,0,1-.322.233.354.354,0,0,1-.265-.088.424.424,0,0,1-.121-.394l4.825-11.965a.37.37,0,0,1,.137-.193.507.507,0,0,1,.209,0,.362.362,0,0,1,.362.233L208.654,85.9a.338.338,0,0,1,.08.1Zm-8.041-4.3h5.476L203.4,74.887Z" transform="translate(-159.585 -31.319)" fill="#808081"/><path d="M222.287,74.518a5.146,5.146,0,0,1,1.753,2.308,8.516,8.516,0,0,1,.571,3.152,8.652,8.652,0,0,1-.571,3.216,5.026,5.026,0,0,1-1.745,2.268,4.881,4.881,0,0,1-2.927.8h-4.7a.354.354,0,0,1-.362-.362V74.011a.338.338,0,0,1,.1-.249.362.362,0,0,1,.257-.113h4.7A4.825,4.825,0,0,1,222.287,74.518Zm.4,9.513a6.585,6.585,0,0,0,1.158-4.021,7.583,7.583,0,0,0-.5-2.814,4.415,4.415,0,0,0-1.536-2.026,4.326,4.326,0,0,0-2.621-.8h-4.125V85.582h4.125a4.085,4.085,0,0,0,3.5-1.552Z" transform="translate(-162.724 -31.311)" fill="#808081"/><path d="M231.117,86.194a.338.338,0,0,1-.249.1.362.362,0,0,1-.281-.1.394.394,0,0,1-.1-.273V74.036a.362.362,0,0,1,.1-.273.37.37,0,0,1,.273-.113.386.386,0,0,1,.273.113.362.362,0,0,1,.1.273V85.921A.418.418,0,0,1,231.117,86.194Z" transform="translate(-165.893 -31.312)" fill="#808081"/><path d="M244.923,86a.306.306,0,0,1-.113.249.386.386,0,0,1-.273.088.426.426,0,0,1-.225-.056.37.37,0,0,1-.137-.177l-1.512-3.723v.04h-6.055L235.145,86.1a.314.314,0,0,1-.322.233.354.354,0,0,1-.265-.088.424.424,0,0,1-.121-.394l4.825-11.965a.369.369,0,0,1,.137-.193.507.507,0,0,1,.209,0,.362.362,0,0,1,.362.233L244.794,85.9a.338.338,0,0,1,.129.1Zm-8.041-4.3h5.476l-2.766-6.811Z" transform="translate(-166.664 -31.319)" fill="#808081"/><path d="M259.9,73.754A.329.329,0,0,1,260,74V85.9a.386.386,0,0,1-.113.3.394.394,0,0,1-.273.1.346.346,0,0,1-.289-.145l-8.13-11.113V85.993a.273.273,0,0,1-.1.217.338.338,0,0,1-.249.088.33.33,0,0,1-.249-.088.3.3,0,0,1-.088-.217V74.012a.338.338,0,0,1,.1-.265.313.313,0,0,1,.225-.1.354.354,0,0,1,.273.129l8.2,11.185V74a.354.354,0,0,1,.346-.346A.3.3,0,0,1,259.9,73.754Z" transform="translate(-169.814 -31.312)" fill="#808081"/><path d="M273.5,86.194a.338.338,0,0,1-.249.1.362.362,0,0,1-.281-.1.394.394,0,0,1-.1-.273V74.036a.362.362,0,0,1,.1-.273.37.37,0,0,1,.273-.113.386.386,0,0,1,.273.113.362.362,0,0,1,.1.273V85.921A.418.418,0,0,1,273.5,86.194Z" transform="translate(-174.195 -31.312)" fill="#808081"/><path d="M287.71,73.754A.354.354,0,0,1,287.8,74V85.9a.386.386,0,0,1-.1.3.394.394,0,0,1-.273.1.346.346,0,0,1-.289-.145l-8.138-11.113V85.993a.273.273,0,0,1-.1.217.354.354,0,0,1-.249.088.314.314,0,0,1-.249-.088.265.265,0,0,1-.088-.217V74.011a.338.338,0,0,1,.1-.265.305.305,0,0,1,.225-.1.37.37,0,0,1,.273.129l8.2,11.185V74a.33.33,0,0,1,.1-.241.322.322,0,0,1,.249-.1A.3.3,0,0,1,287.71,73.754Z" transform="translate(-175.26 -31.312)" fill="#808081"/><path d="M302.54,73.755a.314.314,0,0,1,.113.241.346.346,0,0,1-.1.257.386.386,0,0,1-.257.088H298.27v11.6a.354.354,0,0,1-.1.257.346.346,0,0,1-.249.1.338.338,0,0,1-.265-.1.378.378,0,0,1-.1-.257v-11.6h-4.021a.338.338,0,0,1-.249-.1.33.33,0,0,1,0-.482.338.338,0,0,1,.249-.1h8.789A.338.338,0,0,1,302.54,73.755Z" transform="translate(-178.173 -31.312)" fill="#808081"/><path d="M315.412,85.688a.354.354,0,0,1,0,.515.362.362,0,0,1-.249.1h-6.811a.354.354,0,0,1-.362-.362V74.012a.338.338,0,0,1,.1-.249.362.362,0,0,1,.257-.113h6.811a.362.362,0,1,1,0,.724H308.73v5.042h5.629a.362.362,0,1,1,0,.724H308.73v5.444h6.433a.338.338,0,0,1,.249.1Z" transform="translate(-181.074 -31.312)" fill="#808081"/><path d="M329.967,80.144a.338.338,0,0,1,.1.249v4.535a.346.346,0,0,1-.169.322,7.238,7.238,0,0,1-1.809.885,6.819,6.819,0,0,1-5.331-.531,6.1,6.1,0,0,1-2.316-2.316,7.108,7.108,0,0,1,0-6.69,6.12,6.12,0,0,1,2.316-2.324,6.642,6.642,0,0,1,3.329-.8,7.55,7.55,0,0,1,1.93.241,5.476,5.476,0,0,1,1.608.732.362.362,0,0,1,.161.314.338.338,0,0,1-.113.257.362.362,0,0,1-.225.1.571.571,0,0,1-.241-.072,6.385,6.385,0,0,0-3.144-.8,5.9,5.9,0,0,0-2.959.74,5.267,5.267,0,0,0-2.034,2.059,6.433,6.433,0,0,0,0,5.967,5.323,5.323,0,0,0,2.066,1.986,5.9,5.9,0,0,0,2.959.74,5.685,5.685,0,0,0,1.689-.265,6.434,6.434,0,0,0,1.608-.692V80.747h-3.257a.37.37,0,0,1-.249-.1.362.362,0,0,1-.113-.257.37.37,0,0,1,.362-.362h3.618A.338.338,0,0,1,329.967,80.144Z" transform="translate(-183.35 -31.276)" fill="#808081"/><path d="M345.509,85.921a.362.362,0,0,1-.1.265.567.567,0,0,1-.41.1,1.93,1.93,0,0,1-.8-.917,5.516,5.516,0,0,1-.289-2.107,2.292,2.292,0,0,0-.8-2.026,3.152,3.152,0,0,0-1.841-.555h-4.23v5.291a.386.386,0,0,1-.764,0V74.012a.386.386,0,0,1,.362-.362h4.776a3.956,3.956,0,0,1,1.857.426,3.136,3.136,0,0,1,1.721,2.847,3.41,3.41,0,0,1-.643,2.083,3.217,3.217,0,0,1-1.673,1.174,2.662,2.662,0,0,1,1.423,1.069,3.354,3.354,0,0,1,.563,1.978,6.271,6.271,0,0,0,.153,1.7,1.262,1.262,0,0,0,.458.675A.362.362,0,0,1,345.509,85.921Zm-3.972-6a3.056,3.056,0,0,0,1.93-.9,2.815,2.815,0,0,0,.8-2.083,2.412,2.412,0,0,0-.8-1.841,3.016,3.016,0,0,0-2.115-.724h-4.278v5.548Z" transform="translate(-186.614 -31.312)" fill="#808081"/><path d="M360.237,85.992a.3.3,0,0,1-.1.249.386.386,0,0,1-.273.088.426.426,0,0,1-.225-.056.37.37,0,0,1-.137-.177l-1.5-3.755v.04h-6.055l-1.463,3.683a.322.322,0,0,1-.322.233.354.354,0,0,1-.265-.088.424.424,0,0,1-.121-.394l4.825-11.965a.37.37,0,0,1,.137-.193.507.507,0,0,1,.209,0,.362.362,0,0,1,.362.233l4.825,11.965A.355.355,0,0,1,360.237,85.992Zm-8.041-4.3h5.476l-2.766-6.811Z" transform="translate(-189.256 -31.311)" fill="#808081"/><path d="M372.644,73.755a.306.306,0,0,1,.1.241.338.338,0,0,1-.1.257.394.394,0,0,1-.265.088h-4.021v11.6A.354.354,0,0,1,368,86.3a.33.33,0,0,1-.257-.1.386.386,0,0,1-.1-.257v-11.6h-4.021a.338.338,0,0,1-.249-.1.314.314,0,0,1,0-.482.338.338,0,0,1,.249-.1H372.4A.354.354,0,0,1,372.644,73.755Z" transform="translate(-191.901 -31.312)" fill="#808081"/><path d="M385.522,85.688a.354.354,0,0,1,0,.515.362.362,0,0,1-.249.1h-6.811a.354.354,0,0,1-.362-.362V74.012a.338.338,0,0,1,.1-.249.362.362,0,0,1,.257-.113h6.795a.362.362,0,1,1,0,.724h-6.433v5.042h5.629a.362.362,0,1,1,0,.724h-5.629v5.444h6.433a.338.338,0,0,1,.265.1Z" transform="translate(-194.808 -31.312)" fill="#808081"/><path d="M398.817,74.518a5.146,5.146,0,0,1,1.753,2.308,8.516,8.516,0,0,1,.571,3.152,8.653,8.653,0,0,1-.571,3.216,5.026,5.026,0,0,1-1.745,2.268,4.881,4.881,0,0,1-2.927.8h-4.7a.354.354,0,0,1-.362-.362V74.011a.338.338,0,0,1,.1-.249.362.362,0,0,1,.257-.113h4.7a4.825,4.825,0,0,1,2.919.868Zm.41,9.513a6.634,6.634,0,0,0,1.15-4.021,7.753,7.753,0,0,0-.491-2.814,4.527,4.527,0,0,0-1.536-2.026,4.366,4.366,0,0,0-2.629-.8H391.6V85.582h4.125a4.109,4.109,0,0,0,3.506-1.552Z" transform="translate(-197.303 -31.311)" fill="#808081"/><path d="M164.156,105.783a5.669,5.669,0,0,1-2.147,2.308,6.361,6.361,0,0,1-6.248,0,5.629,5.629,0,0,1-2.139-2.308,7.776,7.776,0,0,1,0-6.755,5.629,5.629,0,0,1,2.139-2.308,6.361,6.361,0,0,1,6.248,0,5.669,5.669,0,0,1,2.147,2.308A7.848,7.848,0,0,1,164.156,105.783ZM163.5,99.35a4.906,4.906,0,0,0-1.874-2.042,5.54,5.54,0,0,0-5.476,0,4.889,4.889,0,0,0-1.866,2.042,7.068,7.068,0,0,0,0,6.031,4.889,4.889,0,0,0,1.866,2.042,5.54,5.54,0,0,0,5.476,0,4.905,4.905,0,0,0,1.874-2.042A7.149,7.149,0,0,0,163.5,99.35Z" transform="translate(-150.685 -35.67)" fill="#808081"/><path d="M180.527,97.42a.354.354,0,0,1-.072.233.322.322,0,0,1-.265.145.555.555,0,0,1-.217-.072,6.288,6.288,0,0,0-3.522-1.142,5.476,5.476,0,0,0-4.825,2.83,6.433,6.433,0,0,0,0,5.983,5.436,5.436,0,0,0,2.018,2.075,5.348,5.348,0,0,0,2.79.756,6.2,6.2,0,0,0,3.546-1.126.322.322,0,0,1,.217-.072.338.338,0,0,1,.281.145.354.354,0,0,1,.072.217.346.346,0,0,1-.145.289,6.538,6.538,0,0,1-1.809.868,6.972,6.972,0,0,1-2.163.362,6.087,6.087,0,0,1-3.2-.868,6.24,6.24,0,0,1-2.3-2.34,6.923,6.923,0,0,1,0-6.626,6.24,6.24,0,0,1,2.3-2.292,6.087,6.087,0,0,1,3.216-.885,7.157,7.157,0,0,1,2.107.322,6.835,6.835,0,0,1,1.849.909A.338.338,0,0,1,180.527,97.42Z" transform="translate(-154.062 -35.67)" fill="#808081"/><path d="M193.532,108.158a.362.362,0,0,1,.113.257.338.338,0,0,1-.113.257.362.362,0,0,1-.249.1h-6.811a.354.354,0,0,1-.257-.1.338.338,0,0,1-.1-.249V96.482a.346.346,0,0,1,.1-.249.362.362,0,0,1,.257-.113h6.787a.346.346,0,0,1,.249.113.354.354,0,0,1,.113.249.338.338,0,0,1-.113.265.362.362,0,0,1-.249.08h-6.433v5.042h5.629a.362.362,0,1,1,0,.724h-5.629v5.492h6.433A.338.338,0,0,1,193.532,108.158Z" transform="translate(-157.2 -35.713)" fill="#808081"/><path d="M207.844,108.413a.306.306,0,0,1-.113.249.378.378,0,0,1-.265.088.41.41,0,0,1-.225-.056.321.321,0,0,1-.137-.177l-1.52-3.723H199.53l-1.463,3.683a.314.314,0,0,1-.322.233.37.37,0,0,1-.265-.088.322.322,0,0,1-.113-.217.281.281,0,0,1,0-.177l4.825-11.965a.354.354,0,0,1,.137-.185.426.426,0,0,1,.209-.048.346.346,0,0,1,.362.233l4.825,11.965A.6.6,0,0,1,207.844,108.413Zm-8.041-4.3h5.476L202.513,97.3Z" transform="translate(-159.402 -35.695)" fill="#808081"/><path d="M222.83,96.225a.354.354,0,0,1,.088.241v11.909a.378.378,0,0,1-.113.3.386.386,0,0,1-.265.1.362.362,0,0,1-.289-.137l-8.13-11.113v10.944a.281.281,0,0,1-.1.217.322.322,0,0,1-.241.088.338.338,0,0,1-.257-.088.3.3,0,0,1-.088-.217V96.482a.322.322,0,0,1,.1-.265.306.306,0,0,1,.225-.1.354.354,0,0,1,.265.129l8.21,11.185V96.466a.33.33,0,0,1,.1-.241.338.338,0,0,1,.241-.1A.346.346,0,0,1,222.83,96.225Z" transform="translate(-162.551 -35.713)" fill="#808081"/><path d="M245.968,105.783a5.629,5.629,0,0,1-2.139,2.308,6.377,6.377,0,0,1-6.256,0,5.709,5.709,0,0,1-2.139-2.308,7.848,7.848,0,0,1,0-6.755,5.709,5.709,0,0,1,2.139-2.308,6.377,6.377,0,0,1,6.256,0,5.629,5.629,0,0,1,2.139,2.308A7.776,7.776,0,0,1,245.968,105.783Zm-.659-6.433a4.889,4.889,0,0,0-1.866-2.042,5.54,5.54,0,0,0-5.476,0,4.905,4.905,0,0,0-1.874,2.042,7.149,7.149,0,0,0,0,6.031,4.905,4.905,0,0,0,1.874,2.042,5.54,5.54,0,0,0,5.476,0,4.889,4.889,0,0,0,1.866-2.042A7.148,7.148,0,0,0,245.308,99.35Z" transform="translate(-166.712 -35.67)" fill="#808081"/><path d="M261.389,103.2a3.217,3.217,0,0,1,.692,2.155,3.136,3.136,0,0,1-1.037,2.525,3.908,3.908,0,0,1-2.646.885h-4.986a.354.354,0,0,1-.257-.1.338.338,0,0,1-.1-.249V96.481a.346.346,0,0,1,.1-.249.362.362,0,0,1,.257-.113h4.825a3.217,3.217,0,0,1,2.316.8,2.959,2.959,0,0,1,.868,2.235,3.45,3.45,0,0,1-.507,1.841,2.6,2.6,0,0,1-1.407,1.126A3.08,3.08,0,0,1,261.389,103.2Zm-1.359-5.725a2.565,2.565,0,0,0-1.849-.635h-4.366v5.082h4.374a2.509,2.509,0,0,0,1.817-.732,2.758,2.758,0,0,0,.692-2.018,2.227,2.227,0,0,0-.667-1.7Zm.466,9.891a2.863,2.863,0,0,0,0-4.021,3.369,3.369,0,0,0-2.187-.675h-4.495v5.412h4.5A3.329,3.329,0,0,0,260.5,107.368Z" transform="translate(-170.312 -35.712)" fill="#808081"/><path d="M268.273,108.46a6.908,6.908,0,0,1-1.97-1.439.37.37,0,0,1-.113-.273.41.41,0,0,1,.129-.273.362.362,0,0,1,.273-.137.4.4,0,0,1,.306.161,4.656,4.656,0,0,0,1.673,1.262,4.889,4.889,0,0,0,2.034.434,3.78,3.78,0,0,0,2.292-.667,2.1,2.1,0,0,0,.9-1.769,2.3,2.3,0,0,0-.466-1.431,3.531,3.531,0,0,0-1.11-.893,15.875,15.875,0,0,0-1.8-.748,18.24,18.24,0,0,1-1.938-.8,3.4,3.4,0,0,1-1.2-1.029,3.1,3.1,0,0,1,0-3.361,3.265,3.265,0,0,1,1.391-1.134,4.913,4.913,0,0,1,2.1-.418,5.331,5.331,0,0,1,2.018.386,3.675,3.675,0,0,1,1.52,1.094.8.8,0,0,1,.185.386.362.362,0,0,1-.137.257.442.442,0,0,1-.3.121.289.289,0,0,1-.233-.113,3.6,3.6,0,0,0-1.3-1.029,4.085,4.085,0,0,0-1.753-.378,3.812,3.812,0,0,0-2.284.651,2.059,2.059,0,0,0-.917,1.769,2.01,2.01,0,0,0,.442,1.319,3.418,3.418,0,0,0,1.11.876,16.33,16.33,0,0,0,1.665.7,15.753,15.753,0,0,1,2,.8,3.53,3.53,0,0,1,1.27,1.1,3.216,3.216,0,0,1,.523,1.914,2.67,2.67,0,0,1-.49,1.552,3.281,3.281,0,0,1-1.4,1.15,4.889,4.889,0,0,1-2.083.426,5.508,5.508,0,0,1-2.34-.466Z" transform="translate(-172.886 -35.678)" fill="#808081"/><path d="M287.44,108.158a.354.354,0,0,1,.1.257.33.33,0,0,1-.1.257.378.378,0,0,1-.257.1h-6.811a.338.338,0,0,1-.249-.1.346.346,0,0,1-.113-.249V96.482a.354.354,0,0,1,.113-.249.346.346,0,0,1,.249-.113h6.811a.362.362,0,0,1,.257.113.346.346,0,0,1,.1.249.338.338,0,0,1-.1.265.378.378,0,0,1-.257.1H280.75v5.042h5.629a.362.362,0,0,1,.257.113.37.37,0,0,1,0,.515.378.378,0,0,1-.257.1H280.75v5.476h6.433A.354.354,0,0,1,287.44,108.158Z" transform="translate(-175.593 -35.713)" fill="#808081"/><path d="M301.949,108.391a.362.362,0,0,1-.1.265.346.346,0,0,1-.249.1.322.322,0,0,1-.161,0,1.93,1.93,0,0,1-.8-.917,5.493,5.493,0,0,1-.289-2.1,2.3,2.3,0,0,0-.8-2.034,3.152,3.152,0,0,0-1.841-.555h-4.189v5.3a.346.346,0,0,1-.113.249.354.354,0,0,1-.265.1.362.362,0,0,1-.273-.1.346.346,0,0,1-.113-.249V96.482a.354.354,0,0,1,.113-.249.346.346,0,0,1,.249-.113h4.776a4.021,4.021,0,0,1,1.857.426,3.217,3.217,0,0,1,1.246,1.166,3.136,3.136,0,0,1,.458,1.681,3.409,3.409,0,0,1-.643,2.083,3.216,3.216,0,0,1-1.673,1.174,2.661,2.661,0,0,1,1.423,1.069,3.361,3.361,0,0,1,.563,1.986,6.239,6.239,0,0,0,.153,1.689,1.263,1.263,0,0,0,.458.675.362.362,0,0,1,.217.322Zm-3.972-6a3.056,3.056,0,0,0,1.93-.9,2.814,2.814,0,0,0,.8-2.083,2.412,2.412,0,0,0-.8-1.841,3.015,3.015,0,0,0-2.131-.74h-4.262v5.548Z" transform="translate(-178.089 -35.713)" fill="#808081"/><path d="M316.44,96.216a.305.305,0,0,1,.1.233.594.594,0,0,1-.04.177l-4.953,11.909a.346.346,0,0,1-.338.233.386.386,0,0,1-.209-.056.322.322,0,0,1-.137-.177l-4.881-11.853a.434.434,0,0,1-.056-.217.33.33,0,0,1,.1-.241.37.37,0,0,1,.249-.1.426.426,0,0,1,.394.289l4.591,11.04,4.608-11.089a.378.378,0,0,1,.346-.241A.354.354,0,0,1,316.44,96.216Z" transform="translate(-180.671 -35.713)" fill="#808081"/><path d="M322.847,108.664a.338.338,0,0,1-.249.1.362.362,0,0,1-.281-.1.394.394,0,0,1-.1-.273V96.506a.362.362,0,0,1,.1-.273.386.386,0,0,1,.547,0,.362.362,0,0,1,.1.273v11.885a.418.418,0,0,1-.129.273Z" transform="translate(-183.861 -35.713)" fill="#808081"/><path d="M337,96.225a.322.322,0,0,1,.088.241v11.909a.37.37,0,0,1-.1.3.394.394,0,0,1-.273.1.362.362,0,0,1-.289-.137l-8.13-11.113v10.944a.273.273,0,0,1-.1.217.354.354,0,0,1-.249.088.314.314,0,0,1-.249-.088.265.265,0,0,1-.088-.217V96.482a.346.346,0,0,1,.1-.265.314.314,0,0,1,.225-.1.354.354,0,0,1,.273.129l8.2,11.185V96.466a.33.33,0,0,1,.1-.241.37.37,0,0,1,.249-.1.33.33,0,0,1,.249.1Z" transform="translate(-184.917 -35.713)" fill="#808081"/><path d="M353.135,102.624a.362.362,0,0,1,.1.249v4.535a.362.362,0,0,1-.161.33,7.445,7.445,0,0,1-1.817.876,6.5,6.5,0,0,1-1.994.314,6.618,6.618,0,0,1-3.337-.8,6.023,6.023,0,0,1-2.308-2.316,7.052,7.052,0,0,1,0-6.69,6.1,6.1,0,0,1,2.308-2.324,6.7,6.7,0,0,1,3.337-.8,7.446,7.446,0,0,1,1.922.241,5.629,5.629,0,0,1,1.608.732.362.362,0,0,1,.161.314.313.313,0,0,1-.121.257.346.346,0,0,1-.225.1.539.539,0,0,1-.233-.064,6.312,6.312,0,0,0-3.144-.852,5.878,5.878,0,0,0-2.959.74,5.219,5.219,0,0,0-2.034,2.059,6.433,6.433,0,0,0,0,5.967,5.218,5.218,0,0,0,2.034,2.059,5.878,5.878,0,0,0,2.959.74,5.943,5.943,0,0,0,1.689-.257,6.939,6.939,0,0,0,1.568-.7V103.3h-3.257a.338.338,0,0,1-.249-.1.362.362,0,0,1-.113-.257.37.37,0,0,1,.362-.362h3.618A.338.338,0,0,1,353.135,102.624Z" transform="translate(-187.887 -35.688)" fill="#808081"/><path d="M366.174,108.46a7.02,7.02,0,0,1-1.97-1.439.362.362,0,0,1-.1-.273.378.378,0,0,1,.129-.273.338.338,0,0,1,.265-.137.4.4,0,0,1,.314.161,4.632,4.632,0,0,0,1.665,1.262,4.922,4.922,0,0,0,2.034.434,3.8,3.8,0,0,0,2.3-.667,2.123,2.123,0,0,0,.9-1.769,2.3,2.3,0,0,0-.475-1.431,3.361,3.361,0,0,0-1.11-.893,15.644,15.644,0,0,0-1.793-.748,18.5,18.5,0,0,1-1.946-.8,3.377,3.377,0,0,1-1.19-1.029,2.871,2.871,0,0,1-.5-1.753,2.79,2.79,0,0,1,.491-1.608,3.217,3.217,0,0,1,1.391-1.134,4.873,4.873,0,0,1,2.091-.418,5.348,5.348,0,0,1,2.026.386,3.78,3.78,0,0,1,1.52,1.094.8.8,0,0,1,.177.386.33.33,0,0,1-.137.257.426.426,0,0,1-.3.121.3.3,0,0,1-.233-.113,3.6,3.6,0,0,0-1.27-1.061,4.02,4.02,0,0,0-1.753-.378,3.852,3.852,0,0,0-2.284.651,2.05,2.05,0,0,0-.909,1.769,2.011,2.011,0,0,0,.442,1.319,3.257,3.257,0,0,0,1.11.876,14.9,14.9,0,0,0,1.665.7,16.265,16.265,0,0,1,2,.8,3.506,3.506,0,0,1,1.262,1.1,3.161,3.161,0,0,1,.531,1.914,2.734,2.734,0,0,1-.491,1.552,3.386,3.386,0,0,1-1.4,1.15,4.93,4.93,0,0,1-2.091.426A5.533,5.533,0,0,1,366.174,108.46Z" transform="translate(-192.065 -35.678)" fill="#808081"/><path d="M384.874,96.617l-4.125,5.629v6.184a.338.338,0,0,1-.1.249.362.362,0,0,1-.273.1.378.378,0,0,1-.273-.1.337.337,0,0,1-.1-.249v-6.111l-4.141-5.677a.354.354,0,0,1-.072-.233.321.321,0,0,1,.121-.233.362.362,0,0,1,.257-.1.346.346,0,0,1,.314.161l3.9,5.331,3.9-5.331a.346.346,0,0,1,.314-.161.314.314,0,0,1,.257.113.378.378,0,0,1,.1.225.516.516,0,0,1-.072.209Z" transform="translate(-194.353 -35.703)" fill="#808081"/><path d="M389.924,108.452a7.02,7.02,0,0,1-1.97-1.439.362.362,0,0,1-.1-.273.378.378,0,0,1,.121-.306.338.338,0,0,1,.265-.137.4.4,0,0,1,.314.161,4.591,4.591,0,0,0,1.673,1.262,4.881,4.881,0,0,0,2.026.434,3.787,3.787,0,0,0,2.3-.667,2.1,2.1,0,0,0,.9-1.769,2.3,2.3,0,0,0-.466-1.431,3.474,3.474,0,0,0-1.118-.893,15.65,15.65,0,0,0-1.793-.748,18.492,18.492,0,0,1-1.946-.8,3.451,3.451,0,0,1-1.19-1.029,2.87,2.87,0,0,1-.5-1.753,2.79,2.79,0,0,1,.491-1.608,3.216,3.216,0,0,1,1.391-1.134,4.913,4.913,0,0,1,2.1-.418,5.331,5.331,0,0,1,2.018.386,3.723,3.723,0,0,1,1.52,1.094.8.8,0,0,1,.177.386.346.346,0,0,1-.129.257.458.458,0,0,1-.3.121.314.314,0,0,1-.241-.113A3.643,3.643,0,0,0,394.17,97a4.085,4.085,0,0,0-1.753-.378,3.86,3.86,0,0,0-2.292.651,2.067,2.067,0,0,0-.909,1.769,2.011,2.011,0,0,0,.442,1.319,3.418,3.418,0,0,0,1.11.877,14.906,14.906,0,0,0,1.665.7,15.754,15.754,0,0,1,2,.8,3.53,3.53,0,0,1,1.271,1.1,3.216,3.216,0,0,1,.523,1.914,2.734,2.734,0,0,1-.491,1.552,3.329,3.329,0,0,1-1.4,1.15,4.929,4.929,0,0,1-2.091.426,5.533,5.533,0,0,1-2.324-.434Z" transform="translate(-196.717 -35.67)" fill="#808081"/><path d="M409.606,96.228a.313.313,0,0,1,.113.241.338.338,0,0,1-.1.257.418.418,0,0,1-.265.088h-4.021v11.6a.346.346,0,0,1-.113.249.338.338,0,0,1-.249.1.346.346,0,0,1-.265-.1.362.362,0,0,1-.1-.249V96.832h-4.021a.378.378,0,0,1-.257-.1.337.337,0,0,1-.1-.249.305.305,0,0,1,.1-.241.386.386,0,0,1,.257-.1h8.781A.37.37,0,0,1,409.606,96.228Z" transform="translate(-199.143 -35.717)" fill="#808081"/><path d="M422.49,108.158a.354.354,0,0,1,.1.257.33.33,0,0,1-.1.257.378.378,0,0,1-.257.1h-6.811a.338.338,0,0,1-.249-.1.346.346,0,0,1-.113-.249V96.482a.354.354,0,0,1,.113-.249.346.346,0,0,1,.249-.113h6.827a.362.362,0,0,1,.257.113.346.346,0,0,1,.1.249.338.338,0,0,1-.1.265.378.378,0,0,1-.257.08h-6.433v5.042h5.629a.362.362,0,0,1,.257.113.37.37,0,0,1,0,.515.378.378,0,0,1-.257.1h-5.629v5.492h6.433a.354.354,0,0,1,.241.072Z" transform="translate(-202.048 -35.713)" fill="#808081"/><path d="M439.082,96.24a.37.37,0,0,1,.088.241v11.933a.321.321,0,0,1-.121.249.386.386,0,0,1-.531,0,.346.346,0,0,1-.113-.249V97.631l-4.656,7.044a.29.29,0,0,1-.257.145.322.322,0,0,1-.289-.145l-4.68-7.068v10.831a.338.338,0,0,1-.1.249.354.354,0,0,1-.257.1.33.33,0,0,1-.257-.1.338.338,0,0,1-.1-.249V96.481a.354.354,0,0,1,.1-.241.3.3,0,0,1,.241-.121.386.386,0,0,1,.346.169l5,7.446,5.01-7.446a.33.33,0,0,1,.338-.169.434.434,0,0,1,.241.121Z" transform="translate(-204.543 -35.713)" fill="#808081"/></g></svg>