<svg xmlns="http://www.w3.org/2000/svg" width="383.685" height="329.127" viewBox="0 0 383.685 329.127">
  <g id="Group_3" data-name="Group 3" transform="translate(-0.085 -8.631)">
    <g id="outline_stlaurent" transform="translate(-0.93 25.164)">
      <text id="Québec" transform="translate(111.318 211.795)" fill="#404041" font-size="11" font-family="Muli-ExtraBold, Muli" font-weight="800"><tspan x="0" y="0">Québec</tspan></text>
      <circle id="Ellipse_19" data-name="Ellipse 19" cx="1.6" cy="1.6" r="1.6" transform="translate(153.394 210.263)" fill="#404041" stroke="#404041" stroke-miterlimit="10" stroke-width="0.678"/>
      <text id="Halifax" transform="translate(205.463 229.165)" fill="#404041" font-size="11" font-family="Muli-ExtraBold, Muli" font-weight="800"><tspan x="0" y="0">Hali</tspan><tspan y="0" letter-spacing="-0.01em">f</tspan><tspan y="0">ax</tspan></text>
      <circle id="Ellipse_20" data-name="Ellipse 20" cx="1.6" cy="1.6" r="1.6" transform="translate(246.887 227.639)" fill="#404041" stroke="#404041" stroke-miterlimit="10" stroke-width="0.678"/>
      <g id="Group_26" data-name="Group 26" transform="translate(0 25)">
        <g id="Gulf">
          <path id="Path_293" data-name="Path 293" d="M264.033,85.6V208.412h-8.922v9.539h-19.7v-7.383H212.324V200.412H192v-4.624H176.621v7.39H165.536v8.007h-8.007v7.688h-2.461v35.1H133.522v-36.32H144.3V199.178H156v-8.922h4.922V176.709h8.922V152.078H192V140.695h20.319V122.539H223.1V99.453h22.468V85.6Z" fill="#52a79b"/>
          <g id="Canada">
            <path id="Path_294" data-name="Path 294" d="M233.267,159.326c-1.458-1.078-2.963-2.312-4.9-2.142a37.928,37.928,0,0,1-6.271-.4,18.517,18.517,0,0,0-2.454,0c-2.454.149-4.915.3-7.363.515a20.523,20.523,0,0,0-5.376.97,7.112,7.112,0,0,0-2.38,1.315c-.529.481-1.288.983-1.112,1.749s1.139.78,1.844.854a11.02,11.02,0,0,0,1.634-.047,14.346,14.346,0,0,1,6.692,1.071c1.078.481,2.217.827,3.173,1.173a12.423,12.423,0,0,0,1.546.034c1.817-.21,3.627-.292,5.424-.339a24.97,24.97,0,0,0,6.712-1.214,7.966,7.966,0,0,0,2.712-1.315,1.464,1.464,0,0,0,.122-2.224Z" fill="#bec0c2" stroke="#bec0c2" stroke-miterlimit="10" stroke-width="0.678"/>
            <path id="Path_295" data-name="Path 295" d="M243.925,183.984c-.088-.258-.2-.508-.285-.773-.678-2.088-.814-4.109.841-5.871a1.879,1.879,0,0,0,.285-.461c.115-.244.224-.563-.081-.678a.881.881,0,0,0-.719.244,7.3,7.3,0,0,0-2.115,5.146c-.068.468-.2,1.186-.251,1.905a1.539,1.539,0,0,0,.678,1.41c.427.292.861.827,1.437.515S244.074,184.5,243.925,183.984Z" fill="#bec0c2" stroke="#bec0c2" stroke-miterlimit="10" stroke-width="0.678"/>
            <path id="Path_296" data-name="Path 296" d="M29.431,188.235c-.359-.251-.678-.034-.976.21-.468.42-.908.881-1.356,1.356a.793.793,0,0,0-.088,1.193.746.746,0,0,0,.976.115c.814-.4,1.736-.678,1.647-1.77C29.709,188.859,29.75,188.479,29.431,188.235Z" fill="#bec0c2" stroke="#bec0c2" stroke-miterlimit="10" stroke-width="0.678"/>
            <path id="Path_297" data-name="Path 297" d="M119.928,277.891c2.183-1.356,2.2-1.356,1.824-3.844-.041-.264-.068-.536-.1-.8a1.912,1.912,0,0,0-2.339.881,4.156,4.156,0,0,0-.786,2.278C118.477,277.444,118.532,277.519,119.928,277.891Z" fill="#bec0c2" stroke="#bec0c2" stroke-miterlimit="10" stroke-width="0.678"/>
            <path id="Path_298" data-name="Path 298" d="M233.267,159.326c-1.458-1.078-2.963-2.312-4.9-2.142a37.928,37.928,0,0,1-6.271-.4,18.517,18.517,0,0,0-2.454,0c-2.454.149-4.915.3-7.363.515a20.523,20.523,0,0,0-5.376.97,7.112,7.112,0,0,0-2.38,1.315c-.529.481-1.288.983-1.112,1.749s1.139.78,1.844.854a11.02,11.02,0,0,0,1.634-.047,14.346,14.346,0,0,1,6.692,1.071c1.078.481,2.217.827,3.173,1.173a12.423,12.423,0,0,0,1.546.034c1.817-.21,3.627-.292,5.424-.339a24.97,24.97,0,0,0,6.712-1.214,7.966,7.966,0,0,0,2.712-1.315,1.464,1.464,0,0,0,.122-2.224Z" fill="#bec0c2" stroke="#bec0c2" stroke-miterlimit="10" stroke-width="0.678"/>
            <path id="Path_299" data-name="Path 299" d="M243.925,183.984c-.088-.258-.2-.508-.285-.773-.678-2.088-.814-4.109.841-5.871a1.879,1.879,0,0,0,.285-.461c.115-.244.224-.563-.081-.678a.881.881,0,0,0-.719.244,7.3,7.3,0,0,0-2.115,5.146c-.068.468-.2,1.186-.251,1.905a1.539,1.539,0,0,0,.678,1.41c.427.292.861.827,1.437.515S244.074,184.5,243.925,183.984Z" fill="#bec0c2" stroke="#bec0c2" stroke-miterlimit="10" stroke-width="0.678"/>
            <path id="Path_300" data-name="Path 300" d="M29.431,188.235c-.359-.251-.678-.034-.976.21-.468.42-.908.881-1.356,1.356a.793.793,0,0,0-.088,1.193.746.746,0,0,0,.976.115c.814-.4,1.736-.678,1.647-1.77C29.709,188.859,29.75,188.479,29.431,188.235Z" fill="#bec0c2" stroke="#bec0c2" stroke-miterlimit="10" stroke-width="0.678"/>
            <path id="Path_301" data-name="Path 301" d="M119.928,277.891c2.183-1.356,2.2-1.356,1.824-3.844-.041-.264-.068-.536-.1-.8a1.912,1.912,0,0,0-2.339.881,4.156,4.156,0,0,0-.786,2.278C118.477,277.444,118.532,277.519,119.928,277.891Z" fill="#bec0c2" stroke="#bec0c2" stroke-miterlimit="10" stroke-width="0.678"/>
            <path id="Path_302" data-name="Path 302" d="M247.4,101.019a.481.481,0,0,0,.115-.678c-1.464-.461-2.231.956-3.39,1.261a5.587,5.587,0,0,0-.678.359,5.491,5.491,0,0,0-.617.42,18.846,18.846,0,0,1-3.607,2.441,5.321,5.321,0,0,0-.644.346,6.106,6.106,0,0,0-.61.42c-.536.4-1.071.827-1.627,1.207l-1.092.631c-.095.047-.183.1-.285.142a5.738,5.738,0,0,0-.637.339c-.149.095-.292.2-.434.305l-46.849,27.038-.244.115a6.1,6.1,0,0,0-.6.292,8.423,8.423,0,0,1-1.119.529,3.16,3.16,0,0,1-.563.1c-.6-.176-.556-.766-.759-1.207a1.492,1.492,0,0,0-.38-.536c-.42-.312-.963-.386-1.356-.678a1.559,1.559,0,0,1-.3-.475,1.871,1.871,0,0,1,.427-1.132c.366-.631,1.166-1.105.746-2.034-2.353-.814-2.841-.583-3.132,1.566a9.662,9.662,0,0,0-.095,2.712,14.367,14.367,0,0,0,2.224,4.231c.21.393.678.78.434,1.234-.271.563-.78.17-1.193.108a3.128,3.128,0,0,1-2.644-2.481,1.817,1.817,0,0,0-.488-.529c-.508-.3-1.092-.441-1.6-.732-.2-.115-.407-.244-.61-.353a4.02,4.02,0,0,0-1.688-.624c-2.088-.909-4.326.393-6.421-.434a15.05,15.05,0,0,0-2.563-.569c-1.044-.095-1.607-.881-2.258-1.553-1.18-.82-1.1-2.264-1.681-3.39a1.614,1.614,0,0,0-2.183-.753,2.414,2.414,0,0,0-.563.414,6.674,6.674,0,0,1-.678.631.908.908,0,0,1-.793.034,3.585,3.585,0,0,1-.441-.353,7.205,7.205,0,0,1-.719-1.356c-.251-.475-.495-.956-.753-1.431a1.844,1.844,0,0,0-.427-.488c-.434-.285-.922-.461-1.356-.78a2.359,2.359,0,0,1-.678-.983c-.054-.2-.095-.414-.142-.617a15.034,15.034,0,0,0-.346-3.208c-.04-.243-.088-.487-.142-.724-.536-2.746,1.722-4.692,2.034-7.187-.624-.942-1.356-.759-2.19-.271-.19.129-.38.237-.57.359a1.173,1.173,0,0,1-.936-.264,14.748,14.748,0,0,1-2-1.736c-.719-.99-1.071-2.373-2.624-2.468a2.264,2.264,0,0,0-.732.2c-1.207.542-2.753,1.722-2.136-1.153a2.569,2.569,0,0,0-1.247-2.712,4.815,4.815,0,0,0-.624-.386,6.549,6.549,0,0,1-1.8-1.356.359.359,0,0,1,.081-.59c.5-.319.854.217,1.309.332,1.695.759,1.437.163,3.275.468,1.871-.359,1.037-1.356.563-2.319a3.294,3.294,0,0,0-.529-.536,14.054,14.054,0,0,1-1.661-1.234,3.282,3.282,0,0,1-.522-.827,9.994,9.994,0,0,0-.59-2.292c-.108-.183-.217-.359-.346-.536.854-1.281,1.77,0,2.664-.061,1.566.515,2.78,1.892,4.556,1.9,1.4.041,2.773-.678,4.2.366,2.305,1.654,3.031,1.356,4.285-1.18.176-.163.359-.312.536-.468a3.464,3.464,0,0,0,.508-.488,2.807,2.807,0,0,0,.346-.624c.224-.536.278-1.193.942-1.437,1.4-.407,2.536.461,3.783.8a3.064,3.064,0,0,0,2.231-.386,3.639,3.639,0,0,1,4.068-.725,2.5,2.5,0,0,0,3.526-1.566.983.983,0,0,0-.359-.644c-.929-.4-1.81-.841-1.837-2.034-.814-1.281.753-1.4,1.024-2.325a5.228,5.228,0,0,0-.183-1.159,4.892,4.892,0,0,0-.292-.678c-.21-.441.115-1.939-.075-2.38-.732-1.119-3.309,0-.495-3.532-1.98-.346-4.475.719-4.475-1.159a12.42,12.42,0,0,0-.759-1.207c-.122-.2-.244-.414-.373-.61a3.207,3.207,0,0,0-.895-1.146c-.753-.583-2.664-1.2-1.77-2.142,2.678-2.848-1.01-2.4-2.712-2.136a1.769,1.769,0,0,1-.854.19.888.888,0,0,1-.325-.678,2.034,2.034,0,0,0-.353-1.2c-.678-.386-1.539-.149-2.1-.786-.156-.142-.3-.305-.441-.461a.854.854,0,0,1-.034-.922c.529-.522,1.173-1,.678-1.892a2.38,2.38,0,0,0-.488-.522,21.877,21.877,0,0,1-2.21-1.627c-.868-1.824-.441-3.885-1.037-5.763a3.471,3.471,0,0,0-.292-.678c.271-3.105-3.031-3.342-1.783-5.851a1.885,1.885,0,0,0-.332-.678c-.624-5.349-3.993-4.366-6.231-6.312a3.065,3.065,0,0,0-.746-.041c-1.437.19-2.712-.481-4.109-.678a1.139,1.139,0,0,1-.529-.732c.9-2.075,0-4.665,1.844-6.488a1.4,1.4,0,0,0-.075-1.119,1.573,1.573,0,0,0-1.288-.312c-.678.095-1.322.075-1.566-.678s.278-1.193.746-1.634c.271-.251.576-.454.841-.678.624-.61,1.709-1.078,1.275-2.17a1.987,1.987,0,0,0-2.278-1.125,1.281,1.281,0,0,0-.624.42c-.678,1.044-.9,2.5-2.454,2.787a1.16,1.16,0,0,1-.319-.1l-.59-.319a2.454,2.454,0,0,0-1.356-.251,2.956,2.956,0,0,0-.678.2c-.217.095-.434.19-.678.3-.97.108-1.892.786-2.929.278-.38-1.356.678-1.193,1.417-1.288s1.573-.217,1.742-1.031c.19-.922-.814-1.044-1.356-1.464l-.549-.454c-.156-.176-.312-.353-.475-.522-.305-.373-.583-.759-.868-1.146-1.037-.678-.136-4.488-2.942-2.217-2.888.407-2.5-1.986-3.051-3.587-.163-.312-.339-.617-.5-.929-.346-.678.1-1.356-.19-2.034a4.5,4.5,0,0,0-3.858-.563v.041a.536.536,0,0,0-.041.57c.461.312,1,.678.888,1.275-.258,1.295-.075,2.115,1.492,1.986.054,0,.163.108.176.176s.061.42,0,.475a2.142,2.142,0,0,1-1.573.163c-.929-.095-1.275.583-1.58,1.234s0,.99.576,1.309a23.566,23.566,0,0,0,3.492,1.58c.786.115,1.356.976,2.3.61a.4.4,0,0,1,.515.434c0,.332-.3.414-.556.481l-2.38.57c-.258.061-.569.169-.495.481a1.207,1.207,0,0,0,.468.624c.359.258.78.42,1.146.678.088.061.068.312.054.475,0,.054-.136.136-.217.136h-.814c-.271,0-.576.041-.59.407s.312.6.678.739c.529.468.244,1.451,1.112,1.7.678.522.081,1.715,1.153,2.034-.251.156-.481,0-.719-.075a1.356,1.356,0,0,0-.956.163c-.034,0-.068.068-.1.217a.5.5,0,0,0,.129.427h0c.041,0,.081.068.115.2s0,.237-.176.346h0c-.434.576.142.814.386,1.153a.854.854,0,0,1,.251.115c.2.169.5.325.556.542s-.217.454-.5.508l-1.892.292c-.481.081-.881.264-.895.834a1.146,1.146,0,0,0,.678,1.112,9.383,9.383,0,0,0,1.3.414c.278.542.983.827.936,1.905-.549-1.566-1.932-.868-2.712-1.525-2.6-.536-3.085-.149-3.044,2.414a3.167,3.167,0,0,0,.081.807c.183.6.2,1.281.847,1.641.264.149.807.075.59.6-.061.142-.468.231-.678.2a1.139,1.139,0,0,0-1.424.908.508.508,0,0,1-.637.359c-.746-.264-1.01.047-.922.739a1.654,1.654,0,0,1-.5,1.627c-1.356,1.471-2.909,3-2.393,5.376,0,.095-.19.332-.3.339a.712.712,0,0,1-.454-.237,2.312,2.312,0,0,1-.6-1.756,4.42,4.42,0,0,0-.542-.583,1.783,1.783,0,0,1-.468-.081c-.936.888-.739,2.136-1.01,3.159.034-.895.556-1.878-.129-2.814h0a6.022,6.022,0,0,1-.488-.6h0a5.526,5.526,0,0,1-.414-.624,7.69,7.69,0,0,0-.536-.915c-.569-.746-.8-.8-1.492-.264a4.515,4.515,0,0,0-.678.807,24.643,24.643,0,0,1,.888,3.471,8.509,8.509,0,0,0-1.553-3.532,4.287,4.287,0,0,1-2.712-2.475c-.942-1.709-1.512-1.858-3.349-1.125-1.437.57-2.82,1.281-4.278,1.81a5.424,5.424,0,0,0-2.38,1.77c-.909,1.071-.936,2.325-1.18,3.559-1.139.475-1.749-.481-2.536-.942-.285-.393-.617-.319-.9,0a2.712,2.712,0,0,1-2.244.773c-.359,0-.827,0-.976-.339s.237-.583.556-.759c.678-.393,1.4-.82,2.109-1.234s.637-1.064.908-1.627-.373-.719-.583-1.071c-.312-.515-.739-1.017-.38-1.749.678.278,1.356.515,2.034.82s.678,1.105,1.458,1.241c.678-1.227.149-2.427-.115-3.62,0-.136-.264-.231-.386-.353-1.153-1.146-1.159-1.471-.041-2.536.217-.21.739-.176.556-.678a2.285,2.285,0,0,0-2.909.617c-.624.678-1.268.42-1.356-.6a1.7,1.7,0,0,0-.908-1.532c-.6-.319-.59-.875-.414-1.424a9.87,9.87,0,0,1,.468-.976c.346-.732.264-1.227-.678-1.234-.536,0-.454-.42-.475-.773-.075-1-.115-2.034-1.356-2.4-.678.305-.759-.393-1.105-.678l-.414-.068c-.888.217-1.783.414-2.712.617a6.21,6.21,0,0,0,2.264-2.522c.841-1.2.122-2.034-.678-2.841a.767.767,0,0,0-1.356.163.481.481,0,0,1-.19.2c-.156.061-.359.163-.481.108a.461.461,0,0,1-.142-.441c1.031-1.424.454-2.515-.678-3.5a.854.854,0,0,1-.169-.21c-.2-.325-.332-.678-.054-1.01.678-.753.231-1.356-.271-1.919a1.071,1.071,0,0,1,0-1.478c.19-.278.454-.563.319-.956-.081-.047-.169-.149-.224-.136-.529.136-1.051.285-1.58.427a1.9,1.9,0,0,1-2.57-1.234,4.746,4.746,0,0,0-.807-1.356c-.495-.549-1.254-.759-1.573-.231-.847,1.4-1.986,1.41-3.458,1.356-1.356-.061-2.712-.461-4.068.047-.983.366-1.017.285-2.542-.19-.942.542-1.525-.807-2.441-.475-.271.095-.678,0-.678-.224-.041-1.112-1.105-1.024-1.675-1.5-.237-.2-.915-.136-.956-.292-.142-.61.556-.536.854-.814.129-.122.353-.305.325-.4-.319-1.01.454-1.458.983-2.034a.481.481,0,0,0-.1-.725,1.465,1.465,0,0,0-2.38.624c-.224.739-.434,1.356-1.268,1.614-.481.129-1.01.875-1.424.237-.563-.875.481-.936.915-1.281.136-.115.332-.156.475-.264.386-.292.237-.631.041-.942a1.173,1.173,0,0,0-1.071-.725c-.508.041-.868-.041-1.037-.583a1.417,1.417,0,0,0-1.505-.942,10.436,10.436,0,0,1-1.356-.169c-.583-.475-.38,2.122-1.309.332a4.451,4.451,0,0,0-.678-2.434c-.38-.447-.719-.5-1.139-.224a1.18,1.18,0,0,1-1.485,0,23,23,0,0,1-2.319-1.356,4,4,0,0,0-2.17-1,8.386,8.386,0,0,1-1.573-.359c-1.831-.678-1.844-.678-2.712,1.186a3.39,3.39,0,0,1-.97,1.275,3.187,3.187,0,0,0-1.024,1.234,2.583,2.583,0,0,1-2.312,1.62c-.678.068-.407.624-.285,1.037a1.478,1.478,0,0,0,.99.678,3.546,3.546,0,0,1-2.237-.237c-.556-.217-1.017-.888-1.736-.414a1.058,1.058,0,0,1-1.241.129,1.682,1.682,0,0,0-2.38.6,10.577,10.577,0,0,1-1.261,1.431c-.495.454-.773.237-.78-.407,0-.78-.61-.739-1.139-.868-.725-.176-1.058.827-1.709.583s-1.044-.8-1.654-.97a5.424,5.424,0,0,0-2.163-.169,2.841,2.841,0,0,1-2.095-.285c-.427-.285-.868-.1-1.315,0a9.492,9.492,0,0,1-1.892.278c-1.085,0-2.359-.285-3.166.292A6.78,6.78,0,0,0,2.99,14.577a2.888,2.888,0,0,1-1.18,1.695c-.522.258-.454.875-.454,1.444a18.53,18.53,0,0,0,2.712,7.648c.447.807.786,1.688,2.034,1.234.359-.136.542.353.773.624.556.678.725.678,1.146-.075s.617-1.356,1.471-1.464a22.781,22.781,0,0,1,2.441-.2.956.956,0,0,1,.97.814c-1.193.773-2.848.678-3.729,2.034.319.631-.678,1.024-.305,1.661.041.346-.068.746.278,1a2.468,2.468,0,0,0,.481.244c.271.115.468.292.414.6s-.332.346-.6.38c-1.573.217-1.58.231-.922,1.553.244.481.834.983.542,1.478-.719,1.207-.183,2.712-1.071,3.871a10.888,10.888,0,0,0-1.078,2.2.739.739,0,0,0,.678,1.119c.82-.054,1.634-.156,2.454-.217a1.166,1.166,0,0,1,1.247,1.315c-.034.258-.251.488-.319.746-.278,1,.224,1.559,1.241,1.4.488-.081.963-.563,1.492-.068-.061.678-.678,1.051-.949,1.607-.441.881-.5,1.356.3,1.905,1.214.861,1.512,2.2,2.129,3.39.231.441,0,.678-.231.949s-.095.6.2.529c.854-.217,2.17.068,2.034-1.525a.285.285,0,0,1,.136-.224A2.068,2.068,0,0,1,18.041,52a.6.6,0,0,1,.393.312,1.356,1.356,0,0,1,.1,1.247c-.4.678-.739,1.464-1.153,2.17s-.081.963.353,1.4c.678.678.631.678,0,1.478a1.308,1.308,0,0,1-.2.183c-.529.447-.414.908-.095,1.444a4.522,4.522,0,0,0,1.695,1.315.508.508,0,0,1,.081.468.678.678,0,0,1-.414.271,2.075,2.075,0,0,1-.542,0c-.82.21-1.512-.963-2.319-.271-.678.6.115,1.586-.5,2.319-.386.461.1.793.57.963s.949.081,1,.753c-.237.454-.468.949-.753,1.41-.617,1-1.647,1.946-1.8,3.01-.169,1.275-.936,2.332-.929,3.654a2.712,2.712,0,0,1-1.132,2.1c-.495.359-.278.814.041,1.166a9.7,9.7,0,0,0,1.031.881c.895.773.888.78-.108,1.959a7.288,7.288,0,0,0,.847.617c1.193.678,2.671,1.051,3.539,2.034,1.071,1.18,2.427,1.092,3.648,1.58a12.882,12.882,0,0,1,2.671,1.356,6.579,6.579,0,0,0,3.688,1.614c.461,0,.563.339.441.766a.929.929,0,0,0,.346.963c2.278,2.149,3.783,4.888,5.641,7.349a17.214,17.214,0,0,1,2.712,5.343,56.86,56.86,0,0,1,2.5,9.207c.97.536.61-.793,1.166-.834.827.678,1.993,1.241,2.2,2.278a2.631,2.631,0,0,0,2.115,2.156A4.278,4.278,0,0,1,46.9,115.9a.353.353,0,0,1-.183.6c-.407.129-1.037-.19-1.227.292-.292.759-.976.678-1.5,1-1.078.617-2.536-.258-3.39.678s-.325,2.305-1.119,3.281a2.936,2.936,0,0,0-.312.746,11.16,11.16,0,0,0-1.166,4.387c0,.393-.38.786-.59,1.186a11.722,11.722,0,0,0-2.034,3.173,4.332,4.332,0,0,1-.719,1.281c-.407.678-1.532,1.112-.793,2.21h0c.963.576-.068.8-.21,1.18a3.315,3.315,0,0,0-.929.556c-1.044,1.261-2.034,2.556-3.051,3.844-1.085.576-2.393.6-3.39,1.356a61.921,61.921,0,0,1-8.251,7.96,2.59,2.59,0,0,1,1.356,2.448,1.512,1.512,0,0,0,.393.976,1.261,1.261,0,0,1,.42,1.451,1.037,1.037,0,0,0,.183.766,5.566,5.566,0,0,0,3.309,2.1c.332.075.759-.081,1.01.217a1.22,1.22,0,0,1,.054,1.295.583.583,0,0,0,.393.841c.353.136.678.353.678.773-.224,1.295.536,2.034,1.431,2.712.42.339.251.6-.447.753s-1,.5-.827,1.017a1.01,1.01,0,0,0,.095.251c.522.753.6,1.756,1.356,2.366.488.407.38.678,0,1.092-1.227,1.214-1.207,1.207.447,1.986.678.305,1.546.454,1.79,1.153s.915,1.064,1.356,1.593c1.159,1.356,2.271,2.712,1.858,4.793-.224,1.105-.061,1.119,1.064,1.444,1.9.542,2.773,1.668,2.671,3.532a7.112,7.112,0,0,0,.068,2.176,2.292,2.292,0,0,1-.183,1.864c-.529.719,0,1.892-.725,2.244-1.2.6-.732,1.315-.529,2.136,0,.149-.292.42-.495.583-1.451,1.214-1.437,1.173.319,2.136.678.38,1.6.678,1.81,1.559a15.444,15.444,0,0,1,.305,5.953.827.827,0,0,1-.563.515A.793.793,0,0,1,36,202a13.858,13.858,0,0,1-1.071-3.39c-.2-.976-.576-1.153-1.566-.949-.264.054-.515.183-.786.23-.427.081-.719-.1-.678-.556,0-.678-.075-1.281-.847-1.505-1.553.2-1.024,1.356-.915,2.19a41.072,41.072,0,0,0,1.356,6.251l.407.881a8.5,8.5,0,0,0,1.119,1.356,4.386,4.386,0,0,1-.156.719l.481,1.037L41.7,255.2l7.071,12.041a7.01,7.01,0,0,0,3.661,1.939c4.332.753,8.393,2.57,12.76,3.18a4.881,4.881,0,0,0,2.664-.129c.712,0,1.458.224,2.115-.258,5.126-.047,8.312,3.627,11.973,6.346a31.708,31.708,0,0,0,2.868,1.98c.346.475.929.353,1.356.549,2.624,1.4,5.085,1.417,7.458-.624a17.629,17.629,0,0,1,3.736-2.631h0c1.356-.624,2.9-.2,4.265-.766,2.814.481,5.512,1.464,8.393,1.736a5.955,5.955,0,0,0,4.536-.9l.529.217a3.268,3.268,0,0,0,1.946-1.227,15.058,15.058,0,0,1,4.42-4.746,3.39,3.39,0,0,0,1.166-1.831c.081-.237.176-.468.264-.678a4.632,4.632,0,0,0-.122.61,8.247,8.247,0,0,0-.461,3.966c.59,2.237-.529,3.309-2.176,4.244-3.505,1.254-5.058,4.5-7.112,7.166-1.071,1.39-.495,2.21,1.356,1.729a7.844,7.844,0,0,1,1-.4q6.244-1.536,12.5-3.037a3.532,3.532,0,0,0,2.156-1.044.678.678,0,0,1,.976-.176,1.519,1.519,0,0,0,1.3.156c2.292-.61,4.6-1.173,6.882-1.8,1.315-.359,1.3-.407.753-1.729-.142-.339-.305-.678-.061-1.024a1.356,1.356,0,0,1,.678-.4c.115-.034.339.1.434.224s.088.346.149.515c.529,1.58.637,1.695,2.034,1.356q3.051-.722,6.1-1.607c1.647-.488,2.156-1.281,2.088-3.051,0-.542-.183-1.085-.163-1.62s.251-1.01.786-.942a2.244,2.244,0,0,0,2.549-1.58.678.678,0,0,1,.97-.2,2.644,2.644,0,0,1,.61.536c.325.312.678.725,1.139.339a1.254,1.254,0,0,0,.325-1.261,2.258,2.258,0,0,0-.292-.759c-.434-.8.061-.827.678-.97.854-.19.922-.488.386-1.024a2.922,2.922,0,0,0-.42-.346c-.922-.624-.827-1.281-.244-2.1a3.953,3.953,0,0,1,.875-1.037c1-.678,1.356-1.41.678-2.515a.868.868,0,0,1,.047-.773c.847-1.288.366-2.407-.346-3.532a18.69,18.69,0,0,1-1.051-1.912,3.228,3.228,0,0,1-.244-3.146,4.359,4.359,0,0,0,.217-3.959,9.37,9.37,0,0,1-.183-5.654,10.169,10.169,0,0,0,0-4.339c-.393-2.034-.678-4.136-1.024-6.21a8.077,8.077,0,0,1,2.224-7.519A8.467,8.467,0,0,1,160,223.463c1.986-1.315,3.431-3.275,5.526-4.468a3.532,3.532,0,0,0,1.424-1.627c.576-1.39,1.831-2.271,2.448-3.614a2.156,2.156,0,0,1,2.034-1.132c.834-.034.915.746,1.173,1.309A1.675,1.675,0,0,0,174.072,215h.319a1.912,1.912,0,0,0,.536-.332l.041-.041a3.092,3.092,0,0,1,1.064-1.519h-.041a2.773,2.773,0,0,1,.678-.5h-.041a2.936,2.936,0,0,1,.678-.495h0c1.105-1.681,1.695-3.424.624-5.356-.759-1.309-2.631-2.319-1.125-4.231.244-.176.678-.095,1-.129a1.884,1.884,0,0,0,.481-.6,1.049,1.049,0,0,0,0-.2c-.264-1.763,1.017-1.98,2.17-2.373a1.41,1.41,0,0,0,1.356-.319.5.5,0,0,1,.678-.1,8.664,8.664,0,0,0,5.193.346c.427-.251.644-.712,1.017-1.017h-.041a2.584,2.584,0,0,1,.678-.495l-.034.034a3.258,3.258,0,0,0,2.407-2.258,2.645,2.645,0,0,0-.244-.868c0-.454-.149-1.078.231-1.295,1.288-.725,1.98-2.373,3.742-2.387a5.423,5.423,0,0,0,1.309-.386c.678-.2,1.139-.461,1.241-1.254.115-.895.929-1.139,1.647-1.153a19.746,19.746,0,0,1,3.275.264,6.59,6.59,0,0,0,2.976-.183c1.4-.441,2.346-1.39,2.156-2.773a2.278,2.278,0,0,1,1.024-2.522,2.251,2.251,0,0,0,1.119-2.556,2.178,2.178,0,0,1,1.254-2.454c1.315-.834,1.356-1.356.814-2.793-.285-.739-.325-1.715-1.166-2.088a5.729,5.729,0,0,0-2.841-.908c-.407,0-.888.393-1.207-.183-.169-.319.522-.57,1.356-.468a14.6,14.6,0,0,0,1.634.122.556.556,0,0,0,.393-.3c.061-.136.047-.42-.041-.481-1.776-1.247-3.464-2.712-5.932-2.2a3.682,3.682,0,0,1-1.627-.088,8.484,8.484,0,0,0-6.1,1.017,8.257,8.257,0,0,1-1.485.678c-4.346,1.308-7.458,4.529-10.977,7.105a4.528,4.528,0,0,0-.99,1.295,63.086,63.086,0,0,1-7.675,9.139c-1.973,2.034-3.79,4.21-5.6,6.387a4.244,4.244,0,0,0-1.125,2.441,2.034,2.034,0,0,1-1.234,1.98,1.485,1.485,0,0,0-.881,1.281c-.115.725-.251,1.444-.332,2.17a3.677,3.677,0,0,1-1.878,3.153,3.206,3.206,0,0,0-1,.908,38.242,38.242,0,0,1-8.136,7.688,16.469,16.469,0,0,0-2.136,1.722,10.407,10.407,0,0,0-2.712,5.553c-.19,1.166.637,2.556-.875,3.39-.088.047-.1.359-.047.508.271.766-.115,1.4-.3,2.109-.468,1.851-1.071,3.7-.678,5.661a3.519,3.519,0,0,1-.292,2.136,17.843,17.843,0,0,0-.915,2.285c-.549,1.905-1.681,3.688-1.159,5.817.142.563-.312,1.024-.617,1.478-.888.38-1.186,1.356-1.932,1.892.447-.637.888-1.275,1.356-1.919-1.186-.332-1.675.461-2.034,1.356-.163.42.271.563.637.61l-.108.081a16.028,16.028,0,0,1-2.78,2.848,9.837,9.837,0,0,0,.922-1.654,38.871,38.871,0,0,1,2.427-4.543,6.78,6.78,0,0,0,1.071-3.071c.407-2.149.407-4.373,1.281-6.434a2.834,2.834,0,0,0,.061-1.614c-.5-2.149-.353-4.366-.725-6.509a2.38,2.38,0,0,1,1.193-2.759,2.386,2.386,0,0,0,1.281-1.973c.136-2.319,1.566-4.068,2.787-5.851a47.963,47.963,0,0,1,3.953-4.909c1.892-2.088,3.478-4.481,5.865-6.1a3.39,3.39,0,0,0,1.593-1.817c.251-.922-.386-1.539-.753-2.258-.678-1.281-.6-1.844.563-2.861.678-.583.942-1.139.536-1.871-.881-1.586-.468-2.576,1.044-3.58a2.934,2.934,0,0,0,1.525-3.024,2.082,2.082,0,0,1,1.573-2.909c.332-.108.576-.441.888-.631.678-.407.746-.786.292-1.512s.759-.922.834-1.505c.183-1.431,1.281-1.885,2.359-2.4a20.86,20.86,0,0,0,3.837-2.095,2.034,2.034,0,0,0,.82-2.414,30.269,30.269,0,0,0-1.064-3.39c-.42-.976-1.356-1.858.169-2.712.122-.068.088-.495.075-.753a11.13,11.13,0,0,0-.19-1.905c-.231-.976,0-1.6,1.024-1.858.461-.108,1.024-.366.895-.854-.292-1.125.786-2.034.393-3.173-.23-.678.678-1.159,1.241-.624,1.22,1.146,2.3.786,3.424-.061q1.315-1,2.61-2.034c1.451-1.119,2.881-2.258,4.353-3.342a6.685,6.685,0,0,1,1.878-1.1,8.692,8.692,0,0,0,4.407-2.6,1.173,1.173,0,0,1,1.485-.319,2.278,2.278,0,0,0,2.753-.549,6.175,6.175,0,0,1,4.881-2.034,9.6,9.6,0,0,0,1.885-.353,3.641,3.641,0,0,0,2.447-1.607,7.811,7.811,0,0,1,4.359-3.166,30.2,30.2,0,0,0,5.214-2.386,3.512,3.512,0,0,1,3.634-.353c.59.305,1.051.054,1.268-.583a4.895,4.895,0,0,1,.332-1.024.983.983,0,0,1,.678-.278.653.653,0,0,1,.414.312,2.5,2.5,0,0,1,.271.753c.047.264,0,.549.041.82s.095.59.434.59a1.01,1.01,0,0,0,.732-.224c1.424-1.98,3.078-3.81,4.068-6.068.319-.678.637-.827,1.22-.461,1.166.732,1.186.746,1.993-.108a7.5,7.5,0,0,1,2.651-2.312c1.173-.434,1.953-1,1.621-2.359,0-.081.251-.231.386-.346a.272.272,0,0,0,.21-.136c.075-.1.034-.217-.142-.359-.359-.292-.746-.6-.624-1.112a1.227,1.227,0,0,1,.915-.909.943.943,0,0,1,.271-.041c1.227.108,1.6-.678,1.634-1.668.075-2.258.963-4.441.6-6.739a.976.976,0,0,1,.23-.732,1.139,1.139,0,0,0,.19-1.661c-.38-.6-.414-1.207.393-1.559.468-.2.339-.542.176-.881-.115-.237-.319-.556-.081-.739.97-.746.386-1.356-.047-2.081-.563-.936-.508-.956.488-1.939a10.169,10.169,0,0,1,1.112-1.173c.583-.4.19-1.085.5-1.437.481-.563.956.366,1.458.2a2.82,2.82,0,0,0,1.627-1.356,5.1,5.1,0,0,0,.454-3.126ZM127.081,262.379c-.888,1.2-1.9,2.325-2.712,3.559a23.553,23.553,0,0,1,5.478-6.909C128.966,260.189,127.935,261.213,127.081,262.379Zm5.946-7.41a13.274,13.274,0,0,1,3.736-2.834,33.387,33.387,0,0,0-3.736,2.827Z" fill="#bec0c2" stroke="#bec0c2" stroke-miterlimit="10" stroke-width="0.678"/>
            <path id="Path_303" data-name="Path 303" d="M231.443,200.744c.861-.522,1.715-1.153,2.78-.576.624.339.753-.271,1.092-.481.922-.556,1.064-.61,1.749.353a1.451,1.451,0,0,0,1.62.678,14.99,14.99,0,0,0,6.888-3.159c1.024-.766,2.034-1.566,3.031-2.346.305-.231.719-.393,1.01-.163.427.339.251.854,0,1.234-.522.854-1.112,1.668-1.675,2.495a5.955,5.955,0,0,0-.115,5.058c.4.739.292,1.214-.359,1.573a2.712,2.712,0,0,1-.488.244c-.949.285-1.892.834-2.895.6s-.97-1.451-1.485-2.163a5.425,5.425,0,0,0-.563-.556c-.108.075-.231.108-.244.163-.108.515-.041,1.139-.325,1.512a2.305,2.305,0,0,1-1.749.617,9.055,9.055,0,0,1-5.342-.617,4.251,4.251,0,0,0-1.864-.285c-1.573,0-3.153.095-3.878-1.776a.909.909,0,0,0-.678-.325c-.542,0-1.085.136-1.627.142a.814.814,0,0,1-.888-1.058,15.306,15.306,0,0,1,.529-1.831,3.736,3.736,0,0,0,.237-2.651c-.231-.678.2-1.234.42-1.824a.773.773,0,0,1,1.356-.115,6.346,6.346,0,0,1,1.2,3.3,4.434,4.434,0,0,0,1.2,2.339C230.867,201.449,231.5,202.161,231.443,200.744Z" fill="#bec0c2" stroke="#bec0c2" stroke-miterlimit="10" stroke-width="0.678"/>
            <path id="Path_304" data-name="Path 304" d="M268.915,207.354c-.536-.678-1.105.108-1.6.434a5.21,5.21,0,0,0-.63.529,1.944,1.944,0,0,1-2.583,0c.678-.481,1.356-.895,2.034-1.4a.854.854,0,0,0-.244-1.525c-.848-.339-1.715-.624-2.556-.976-1.078-.454-1-.434-1.708.868-.447.827-.854,1.661-2.292,1.315-1.234-.3-1.356,0-1.586-.854-.129-.441-.244-.888-.4-1.315a.9.9,0,0,0-.8-.637,1.044,1.044,0,0,0-.942.468,4.935,4.935,0,0,0-1.064,2.495,3.776,3.776,0,0,1-2.19,3.234,20.047,20.047,0,0,0-1.736,1.356c-.088.061-.305,0-.454-.061s-.1-.156-.1-.237a3.521,3.521,0,0,1,.081-.536c.3-1.424-.088-1.905-1.424-1.62-2.034.427-3.865,1.159-4.427,3.5-.136.59-.631.556-1.105.475a.773.773,0,0,0-1.105-.068c-.224.278-.481.6-.861.529s-.414-.549-.353-.868a8.507,8.507,0,0,1,.434-1.247c.088-.237.285-.468,0-.678a.834.834,0,0,0-.99-.095,1.993,1.993,0,0,0-.719.746c-.312.678-.847.753-1.3.407a2.78,2.78,0,0,0-3.248-.1,3.485,3.485,0,0,1-1.051.183h0a2.536,2.536,0,0,1,.034,2.264,3.994,3.994,0,0,1-.909,1.112h0a31,31,0,0,0-1.532,5.037c-.827,1.295-1.01,2.9-2.034,4.115a.983.983,0,0,0,.1,1.261,1.356,1.356,0,0,0,1.437.515,2.108,2.108,0,0,0,1.627-1.647c.149-.678-.21-1.525.6-1.959.678-.366,1.41.129,2.122,0a1.215,1.215,0,0,1,.271,0c3.024-1.288,5.424-3.905,8.814-4.359.976-.319,1.22.59,1.756,1.044a4.359,4.359,0,0,1,.339.434.942.942,0,0,1,.183.4s-.176.041-.163.061a1.573,1.573,0,0,1-.23-.373,1.519,1.519,0,0,0-.624-.678,2.034,2.034,0,0,0-1.464-.068,23.529,23.529,0,0,0-3.9,2.4,2.764,2.764,0,0,0-1.085,3.742c.2.427.6.678.875,1.031-.386-.231-.725-.529-1.112-.753-.6-.264-1.458-.19-1.356-1.275.142-1.3-.508-1.553-1.607-1.044-.231.264-.678.536-.678.807a3.528,3.528,0,0,1-1.519,2.712,37.043,37.043,0,0,0-3.892,4.231c-1.458,1.878-3.01,3.675-4.59,5.458-.97,1.092-2.034,2.115-2.888,3.295-1.986,2.712-3.295,5.7-2.57,9.2a9.648,9.648,0,0,1-.061,2.712,6.59,6.59,0,0,0,2.183,5.424c.454.441.786.163.8-.488a.5.5,0,0,1,.759-.475,3.818,3.818,0,0,1,2.339,1.77,5.9,5.9,0,0,0,1.519,1.925c1.01.854,1.668.82,2.576-.176s1.858-2.034.739-3.58c-.386-.536-.047-1.241.38-1.77s.99-.054,1.485,0,.82-.075.834-.454c.075-1.817,1.037-3.288,1.709-4.881a12.97,12.97,0,0,1,.759-2.034c.61-.929,1.8-1.5,1.654-2.861,1.22-.847.922-2.034.732-3.22-.075-.447-.271-.875-.38-1.322a2.888,2.888,0,0,1,.271-2.122,1.688,1.688,0,0,1,1.539-.956c.753,0,.678-.719.841-1.214.278-.773,1.078-.956,1.356-.258.624,1.458,1.668,1.464,2.929,1.22.624-.122,1.031-.346.936-1.051a4.131,4.131,0,0,1,1.709-4.339c1.356-.895,2.034-2.671,3.844-2.963l.271-.054a22.635,22.635,0,0,0,3.587-1.356,3.526,3.526,0,0,0,2.441-2.651,4.361,4.361,0,0,1,1.736-3.01c.753-.434,1.071-.895.678-1.763-.156-.346.176-.678.57-.786s.888-.183,1.356-.264.936-.414.82-.908c-.271-1.193.542-1.593,1.288-2.136.583-.42,1.295-.908.4-1.715-.2-.183-.156-.373.115-.353a1.458,1.458,0,0,0,1.736-1.315c1.437.183,1.41-1.39,2.285-1.946a1.519,1.519,0,0,0,.176-1.905Z" fill="#bec0c2" stroke="#bec0c2" stroke-miterlimit="10" stroke-width="0.678"/>
            <path id="Path_305" data-name="Path 305" d="M275.39,193.618c1.356-.963.556-1.831-.047-2.712-.359-.522-.814-.976-1.193-1.492a1.214,1.214,0,0,0-1.675-.407l-1.227.6c-.678.264-1.763.1-2,.99H268.9a3.769,3.769,0,0,0-.149-.678c-.468.231-.936.244-1.125-.3a11.1,11.1,0,0,1-.454-3.505c0-1.193-.163-2.461-1.356-3.119a8.454,8.454,0,0,1-2.312-1.864.956.956,0,0,0-1.559.407,8.668,8.668,0,0,0-.292,1.322,7.207,7.207,0,0,1-.339,1.878,6.387,6.387,0,0,0-.264,4.258,10.158,10.158,0,0,1-.305,6.17c-.753,1.647-.407,3.207,0,4.807a3.993,3.993,0,0,0,2.183,2.671c1.058.536,2.136,1.024,3.207,1.525a.908.908,0,0,0,1.227-.231c.773-1.356,1.973-1.464,3.315-1.356.366,0,.827-.129.861-.522.142-1.417,1.146-2.156,2.075-3.058s2.034-2.149,1.356-3.858A1.356,1.356,0,0,1,275.39,193.618Z" fill="#bec0c2" stroke="#bec0c2" stroke-miterlimit="10" stroke-width="0.678"/>
            <path id="Path_306" data-name="Path 306" d="M337.751,141.366a8.136,8.136,0,0,0-1.247-3.58,11.747,11.747,0,0,1-1.953-6.746,3.871,3.871,0,0,0-2.2-4.034c-.61-.339-1.186-1.085-1.926-.522-.6.461-.142,1.173-.047,1.783a4.746,4.746,0,0,1-.678,3.668c-.454.624-1.193.712-1.587.1-.895-1.4-2.319-2.658-1.356-4.617a1.044,1.044,0,0,0,0-.542,36.055,36.055,0,0,1-.353-5.736c0-.2-.292-.407-.454-.6a2.311,2.311,0,0,0-.536.522,18.068,18.068,0,0,0-1.851,5.709c-.319,2.034-.827,4.068,0,6.1-.414.142-.678.21-.915.312a2.132,2.132,0,0,1-2.468-.678c-.705-.678-.488-1.234-.244-2a2.332,2.332,0,0,0-1.275-2.99c-1.478-.678-1.437-1.77-1.153-2.942a9.6,9.6,0,0,1,1.8-4.251,5.7,5.7,0,0,0,1.227-3.559c0-.407-.149-.814-.583-.678-.834.21-.841-.244-.854-.834,0-.468-.427-.678-.725-.461-1.315,1.085-2.814,2.081-2.2,4.231a1.81,1.81,0,0,1-.807,2.142c-.481.305-1.241.142-1.281-.42a1.4,1.4,0,0,0-1.539-1.485,4.947,4.947,0,0,0-.549,0c-1.661.129-2.481-1-2.746-2.454a6.737,6.737,0,0,1,0-2.183c.122-.9.292-1.81.353-2.712.149-2.237-.942-3.241-3.126-2.963a12.5,12.5,0,0,0-4.129,1.424,8.434,8.434,0,0,1-3.654.969c-1.119,0-1.2.108-1.173,1.173,0,.454.061.915.095,1.356.054.78-.264,1.186-1.1,1.166a.678.678,0,0,0-.732.678c0,.841-.481.9-1.146,1.105-.841.258.678,1.356-.373,1.715-.481.373-.427.881-.366,1.4,0,.129.075.183.21.156.359-.068-.183.278-.183.332a4.454,4.454,0,0,0-.746-2.556c-.481-.393-.359-.976-.475-1.485a2.712,2.712,0,0,0-.407-.97c-.434-.6-.976-.258-1.458-.061s-.515.631-.163,1.044c.149.678-.136.766-.678.529-1.356.576-2.468,1.58-3.987,1.668-1.41.468-1.356-.583-1.437-1.424-.224-.142-.441-.305-.678-.434-1.051-.569-1.214-.827-.678-1.586a13.9,13.9,0,0,0,1.512-2.9.746.746,0,0,0-.258-.963.875.875,0,0,0-1.024,0,4.116,4.116,0,0,0-.807.725,1.963,1.963,0,0,1-2.4.753c-.678-.271-1.207.183-1.668.678-.156.169-.393.529-.637.156-.522-.793-.881-.393-1.119.156a7.987,7.987,0,0,1-1.756,2.434,4.888,4.888,0,0,0-1.437,3.146c-.21,1.905-.617,3.783-.97,5.668a1.017,1.017,0,0,1-.468.624c-.285.142-.454-.115-.542-.38-1.519-4.529-2.712-9.105-1.837-13.946a7.458,7.458,0,0,0-.237-3.254,32.587,32.587,0,0,0-1.058-3.39,5.5,5.5,0,0,1-.353-2.909,10.716,10.716,0,0,1,.515-3.39,1.844,1.844,0,0,0-.353-1.81c-.319-.441-.786-.386-1.241-.353s-.576-.305-.82-.569c-.766-.793-1.4-.746-1.925.1a8.234,8.234,0,0,0-.6,1.227,51.992,51.992,0,0,1-3.037,6.427,4.936,4.936,0,0,0-.644,2.909c.163,2.081.108,4.217,1.125,6.143a1.607,1.607,0,0,1-.231,2c-.847.99-1.553,2.068-.461,3.39a.712.712,0,0,1,.041.536c-.305,1.308.2,2.515.447,3.763a79.391,79.391,0,0,1,1.559,9.166,2.807,2.807,0,0,0,.827,1.959c.441.386.42.678-.136.949-.9.678-.556,1.81-.868,2.712-.475,1.356.149,2.088,1.742,2.292a1.22,1.22,0,0,1,1.085.637c.359.678,0,1.356-.942,1.593-.515.149-1.119-.149-1.553.325s-.217,1.234-.169,1.837c.081,1,.271,1.986.447,2.976.129.712.325,1.424.447,2.142.108.6-.21.868-.97.576a1.166,1.166,0,0,0-1.451.359,3.953,3.953,0,0,0-.908,2.522,1.064,1.064,0,0,0,1.492,1.058,8.257,8.257,0,0,0,3-2.332.793.793,0,0,1,1.017-.088.712.712,0,0,1,.23.956,13.058,13.058,0,0,0-1.18,5.309,15.143,15.143,0,0,1-.339,2.712c-.258,1.112-.583,2.136.725,2.854a1.627,1.627,0,0,1,.563.909c.617,1.939,1.356,1.709,2.875,1.146a4.192,4.192,0,0,0,2.556-1.844c1.186-2.142,3.275-3.39,5.065-4.915a3.085,3.085,0,0,1,2.271-.847c1.546.224,2.61-.576,3.763-1.3a12.366,12.366,0,0,1,3.01-1.3,6.157,6.157,0,0,0,3.634-2.271,4.251,4.251,0,0,1,1.261-1.01,25.153,25.153,0,0,1,7.763-3.39c1.308-.332,2.651-.949,3.8.359.054.061.183.136.244.108,1.254-.529,2.481.2,3.722.095.719-.061,1.078-.522.949-1.315s-.285-1.431-.393-2.156c-.2-1.356.095-1.8,1.424-2.156a17.721,17.721,0,0,1,4.895-.38.549.549,0,0,1,.407.292.522.522,0,0,1-.081.481c-.78.631-1.566,1.241-2.38,1.831a2.384,2.384,0,0,0-1.153,3.024,9.178,9.178,0,0,0,.624,1.519c.678,1.41.6,1.858-.386,2.854a4.21,4.21,0,0,1-1.614,1.017,1.872,1.872,0,0,0-1.356,2.305c.122,1.214.407,1.77,1.614,1.831a3.139,3.139,0,0,0,2.4-1.132c1.037-1.031,2.034-2.115,3.01-3.187a2.034,2.034,0,0,0,.57-2.034c-.637-2.095-.17-4.359-1.146-6.278a2.59,2.59,0,0,1,1.553-.827,7.667,7.667,0,0,0,2.563-1.546c.793-.678.834-1.356,0-2.034a12.434,12.434,0,0,1-2.583-2.909,4.441,4.441,0,0,1,.82-.678,1.4,1.4,0,0,0,.807-2.034,1.4,1.4,0,0,1-.122-.529c0-.427.19-.678.678-.6.97.115,1.81.915,2.895.461.325-.129.678.169.888.508a10.516,10.516,0,0,1,.678,1.478,1.553,1.553,0,0,0,1.647,1.153c.678,0,1.058.366.834,1.037a4.122,4.122,0,0,0,.414,3.661,3.3,3.3,0,0,1-.312,4.285.732.732,0,0,0,.59,1.139,3.458,3.458,0,0,0,3.39-2.624,11.917,11.917,0,0,0,0-1.905,5.729,5.729,0,0,1,.278-2.78c.861.563,1.647,1.18,2.515,1.641,1.607.841,2.278,2.034,1.681,3.8-.047.129.1.332.169.529a3.655,3.655,0,0,0,.773.095,8.378,8.378,0,0,0,1.356-.231C336.917,145.353,337.893,143.942,337.751,141.366Z" fill="#bec0c2" stroke="#bec0c2" stroke-miterlimit="10" stroke-width="0.678"/>
            <path id="Path_307" data-name="Path 307" d="M151.617,120.477v.034h0Z" fill="#bec0c2" stroke="#bec0c2" stroke-miterlimit="10" stroke-width="0.678"/>
            <path id="Path_308" data-name="Path 308" d="M152.187,124.43v.034Z" fill="#bec0c2" stroke="#bec0c2" stroke-miterlimit="10" stroke-width="0.678"/>
            <path id="Path_309" data-name="Path 309" d="M128.518,26.441v.034h0Z" fill="#bec0c2" stroke="#bec0c2" stroke-miterlimit="10" stroke-width="0.678"/>
            <path id="Path_310" data-name="Path 310" d="M133.976,31.045v0Z" fill="#bec0c2" stroke="#bec0c2" stroke-miterlimit="10" stroke-width="0.678"/>
            <path id="Path_311" data-name="Path 311" d="M162.133,37.757c.258.034.515.1.78.149.339.427.434,1.356,1.234.936.644-.332,0-.908-.081-1.356a2.4,2.4,0,0,0-.38-.678h0a2.034,2.034,0,0,0-1.112-1.078.827.827,0,0,0-.746,0,1.356,1.356,0,0,0-.468,1.417C161.441,37.594,161.76,37.709,162.133,37.757Z" fill="#bec0c2" stroke="#bec0c2" stroke-miterlimit="10" stroke-width="0.678"/>
            <path id="Path_312" data-name="Path 312" d="M177.394,52.93a.59.59,0,0,0,.678-.264c.088-.156.2-.3.278-.454a.678.678,0,0,0-.136-.949,1.065,1.065,0,0,0-.678-.258c-.441.041-.454.447-.508.82a3.052,3.052,0,0,0,0,.495C177.048,52.571,177.055,52.883,177.394,52.93Z" fill="#bec0c2" stroke="#bec0c2" stroke-miterlimit="10" stroke-width="0.678"/>
            <path id="Path_313" data-name="Path 313" d="M175.6,49.527c.325.142.59,0,.678-.386h0a1.559,1.559,0,0,0,0-1.234.678.678,0,0,0-.366-.312c-.319-.108-.441.149-.495.386s-.108.678-.163,1C175.4,49.174,175.462,49.493,175.6,49.527Z" fill="#bec0c2" stroke="#bec0c2" stroke-miterlimit="10" stroke-width="0.678"/>
            <path id="Path_314" data-name="Path 314" d="M277.329,100.965c.346.041.441-.251.549-.488a5.341,5.341,0,0,0,.183-.624,3.608,3.608,0,0,0-1.519-3.437.732.732,0,0,0-.99,0,1.1,1.1,0,0,0-.325.678,6.82,6.82,0,0,0,1.62,3.654C276.929,100.9,277.159,100.945,277.329,100.965Z" fill="#bec0c2" stroke="#bec0c2" stroke-miterlimit="10" stroke-width="0.678"/>
            <path id="Path_315" data-name="Path 315" d="M120.1,9.092a.956.956,0,0,0-.515-1.132c-.549-.271-1.18-.373-1.736-.637a2.1,2.1,0,0,0-2.034.339.807.807,0,0,0,0,1.356,1.986,1.986,0,0,0,1.675.319c.678.088,1.173.19,1.709.224a.827.827,0,0,0,.9-.468Z" fill="#bec0c2" stroke="#bec0c2" stroke-miterlimit="10" stroke-width="0.678"/>
            <path id="Path_316" data-name="Path 316" d="M294.1,112.776c.312.3.678.827,1.105.5,1-.678,1.315-1.871,1.79-2.8-.122-.5-.237-.881-.624-.983a.722.722,0,0,0-.82.515,2.562,2.562,0,0,0-.217.78c-.075.678-.461.841-1.071.97C293.492,111.935,293.485,112.179,294.1,112.776Z" fill="#bec0c2" stroke="#bec0c2" stroke-miterlimit="10" stroke-width="0.678"/>
            <path id="Path_317" data-name="Path 317" d="M299.221,108.959a.461.461,0,0,0,.678-.244c.129-.339.21-.678.305-.99a4.962,4.962,0,0,0,0-1.139.888.888,0,0,0-.5-.556.942.942,0,0,0-.766.095,1.593,1.593,0,0,0,.285,2.834Z" fill="#bec0c2" stroke="#bec0c2" stroke-miterlimit="10" stroke-width="0.678"/>
            <path id="Path_318" data-name="Path 318" d="M258.46,81.148a.833.833,0,0,1-.047-.264c.115-.129.2-.271.156-.373-.115-.264-.346-.21-.563-.149-.631.529-1.451,0-2.1.359a3.791,3.791,0,0,1-3.153-.041c-.312-.095-.814-.047-.678-.583a.78.78,0,0,1,.59-.447,7.233,7.233,0,0,0,4.481-1.607c.224-.142.542-.237.373-.563a1.356,1.356,0,0,0-.556-.542,1.471,1.471,0,0,0-1.566-.075c-1.186.814-2.834.725-3.79,2.034-.271.359-.841.285-1.254,0a1.207,1.207,0,0,1-.393-1.227c.061-.678.6-1.105.888-1.668a.454.454,0,0,0-.678-.149c-1-.515-1.01-.529-.461-1.2.217-.264.637-.42.495-.854a.895.895,0,0,1,.651-1.254c.2-.081.217-.237.115-.447a1.34,1.34,0,0,0-1.783-.678c-.359.271-.678.631-1.01.908-.495.393-.99.373-1.153,0a1.064,1.064,0,0,1,.237-1.247,3.044,3.044,0,0,1,.678-.42c.956-.508.942-1.5,1.085-2.353.122-.712-.678-.712-1.051-1.058s-.841-.942-1.281-1.39a.793.793,0,0,0-1-.115c-.237.129-.434.332-.678.475-.963.583-.963.576-1.837-.583a2.805,2.805,0,0,0-1.973-.929,15.126,15.126,0,0,1-1.322,1.315c-.264.217-.481-.041-.522-.325a8.077,8.077,0,0,1,0-.942c-.59.366-1.078.678-1.607.97s-.834-.061-1.058-.495c-.129-.292-.3-.332-.515-.095-.515.346-.895.895-1.627.915s-.827.617-.875,1.166a7.62,7.62,0,0,0,.61,2.922,3.741,3.741,0,0,1,.346,2.129.929.929,0,0,1-.481.57,1.017,1.017,0,0,1-.739-.2c-.576-.386-.644-1.064-.881-1.647s-.617-.854-1.125-.169a.454.454,0,0,1-.678.075,1.092,1.092,0,0,1-.183-.725,1.932,1.932,0,0,1,1.207-1.688c.441-.217.786-.536.678-1.044-.149-.827-.468-1.668-1.356-1.844a9.634,9.634,0,0,1-4.61-2.61c-.319-.285-.746-.244-.766.258,0,.678-.224,1.051-.9,1.1s-1.451.108-2.183.129a2.319,2.319,0,0,0-2.441,1.776,1.4,1.4,0,0,1-.725,1.085c-.481.156-.522.522-.441.949,1.356,1.119,2.088-.122,2.936-.814a6.872,6.872,0,0,1-2.888,2.5,5.7,5.7,0,0,0-3.01,6.576,2.786,2.786,0,0,1-.522,2.285c-1.993,2.963-4.59,5.614-4.271,9.7.108,1.417-1.356,2.17-2.637,2.712a1.43,1.43,0,0,1,.081-.258c.1-.149.21-.3.305-.447a1.858,1.858,0,0,0,.122-1.424c-.244-1.234,1.214-1.9,1.044-3.119-3.092-1.878-6.332-.414-9.532-.427,2.034-.075,3.966-.868,5.959-1.173,1.139-.122,1.525-.854,1.553-1.892a11.682,11.682,0,0,1,3.932-4.617,7.01,7.01,0,0,0,2.841-4.129c0-.075,0-.142,0-.217a.122.122,0,0,0,0-.061A1.783,1.783,0,0,1,216,71.331a5.471,5.471,0,0,0,1.919-1.492c-.061-.5.373-1.031-.19-1.607a17.119,17.119,0,0,0-3.776,3.695l-.176-.075c-1.6.264-2.122,1.925-3.824,2.881a20.279,20.279,0,0,1,3.119-3.187c1.627-1.437,3.471-2.671,4.556-4.644.312-.332.637-.678.922-1s.359-.468-.136-.773c-.678-.427-.678-.888-.169-1.193,1.024-.6,2.075-1.166,3.132-1.695.759-.38,1.451-.786,1.654-1.688a.441.441,0,0,0-.651-.217c-.57-.054-.854-.366-.536-.875a1.865,1.865,0,0,1,.881-.59c.475-.2,1.153-.17,1.1-.929,0-.508-.515-.678-.9-.942-1.078-.644-1.478-.522-2.136.678a6.622,6.622,0,0,1-.332.739.678.678,0,0,1-.936.244c-.753-.305-1.064-1.261-2.034-1.356a9.024,9.024,0,0,1-.149,1.058,1.268,1.268,0,0,1-1.207.929.942.942,0,0,1-1-.99c.095-.78.678-1.261,1.037-1.878a.461.461,0,0,0-.292-.678,1.024,1.024,0,0,0-.766,0,.915.915,0,0,0-.407.678c0,1.22-1.092,1.871-1.356,2.915-.441,1.614-1.844.617-2.712,1.031a7.325,7.325,0,0,1-.739.346c-1.485.57-2.136.38-3.031-.827-.536-.719-.678-1.675-1.458-2.237a1.7,1.7,0,0,0-.481.251,3.349,3.349,0,0,0-.97,2.441c0,.461-.454.8-.915.2-1.831.678-.678,2.441-1.281,3.58A2.264,2.264,0,0,1,201.2,65.7c-.149.129-.217-.359-.4-.508a5.133,5.133,0,0,1,0-3.444,12.731,12.731,0,0,1,.5-1.539c.1-.305-.115-.5-.319-.678a.718.718,0,0,0-.746,0c-.915.373-.936,1.532-1.763,1.986-.515.332-1.214-.217-1.681.353-.319.9-.786,1.81.19,2.644a.793.793,0,0,1,.054.719c-.149.366-.529.427-.9.414a.875.875,0,0,1-.949-.746,6.1,6.1,0,0,1-.034-1.315c0-.393,0-.732-.475-.753s-.6.285-.678.678c-.081.258-.2.495-.305.739h0a1.078,1.078,0,0,0-.6,1.119h0a.766.766,0,0,1-.169.427l-.97-.136a.5.5,0,0,1,.108-.515.678.678,0,0,0,.468-.637h0a.468.468,0,0,1,.061-.319,5.73,5.73,0,0,0,.4-.678.5.5,0,0,0-.21-.678c-.305-.163-.475.081-.549.339a7.333,7.333,0,0,0-.122.773h0c-.678-.1-.807-.678-.854-1.214a5.925,5.925,0,0,1,.956-3.634,1.559,1.559,0,0,0,0-1.268.515.515,0,0,0-.4-.237.452.452,0,0,0-.332.3,7.8,7.8,0,0,0,.176,1.031,1.254,1.254,0,0,1-.271,0c-1.085-.278-1.437-1.566-2.536-1.864-.115,0-.149-.475-.176-.725a6.1,6.1,0,0,0-.075-1.064c-.217-.678-.678-.739-1.241-.353l-.786.563a.271.271,0,0,1,0-.325h0c-.061-.156-.115-.461-.176-.461-1.024,0-2.088-.359-3.017.359-.271.515-.536,1.037-.807,1.559-.576-.108-1.22-.088-1.519-.753h0a.508.508,0,0,0-.569-.447,3.817,3.817,0,0,0-2.454,1.058,1.356,1.356,0,0,1-1.5.346h0a1.62,1.62,0,0,1,.732-1.458.719.719,0,0,0,.678-.42h0a1.51,1.51,0,0,0,.407-.108c.292.054.59-.047.522-.346-.136-.6-.542-.549-.97-.258h0l-1.01.075h0l-.576-.176c0-.217.034-.434.047-.678,0-1.037-.3-2.251-1.085-2.617-1.227-.583-.678-2-1.593-2.515a5.132,5.132,0,0,0-1.512-.339V47.92h0c.393-.753-.23-1.356-.353-2.034a.9.9,0,0,0-1.071-.847h-.23a1.356,1.356,0,0,1-.556-1.078,1.017,1.017,0,0,0-.5-.82c-.163-.041-.332-.075-.5-.1h0l-.983-.163-1.79-.163c.041-.149.088-.3.129-.447h0c.346,0,.956-.149.814-.353-.5-.678-.678-1.709-1.675-2.034l-1.173.346h0l-.61-.095h0c-.292-.19-.678-.319-.861-.59a1.925,1.925,0,0,0-1.607-.847c-.481-.217-.841-.732-1.478-.569a.942.942,0,0,1-.529,0,.8.8,0,0,1-.556-.834c.061-.624.42-.407.746-.217a2.114,2.114,0,0,0,.237.136c.332.129.746.292.888-.156A.678.678,0,0,0,160,36.2c-1.146-.285-2.292-.414-3.126.725-1.22,1.715-1.79-.231-2.671-.468a2.359,2.359,0,0,0-.875-1.1,2.38,2.38,0,0,0,.047-.488c-.136-.271-.312-.319-.536-.088-.427.59-1.159.6-1.736.908-1.58.447-1.431,1.939-1.844,3.105a.5.5,0,0,1-.4.332c-.122-1.478,1.214-2.475,1.356-3.885a3.5,3.5,0,0,0-.047-.373l-.515-.549c.041-.264,0-.631.149-.78a1.9,1.9,0,0,0,.129-2.895c-.237-.3-.129-.868-.176-1.322-1.736-.529-2.4.678-3.037,1.9-.325.617-.332.617-.508.637-1.62.237-1.62.237-1.831,2.1h-.041a.8.8,0,0,0,0-.4,1.464,1.464,0,0,0-.793-.854c-.068-.061-.169-.122-.176-.183a.264.264,0,0,1,.142-.21c1.959-.637,2.956-1.878,2.542-4.02-.292-1.085-.3-1.085-1.166-.8-.732-.041-.773-.2-.305-1.1a1.132,1.132,0,0,0-.678-1.064,1.878,1.878,0,0,0-1.024,0c-.108,0-.156.454-.156.678s0,.529-.359.481-.576-.373-1-.278c-.6.136-.536-.325-.353-.6.522-.82.515-1.309-.617-1.356-.122,0-.278-.393-.312-.617-.081-.508-.332-.875-.834-.888a.983.983,0,0,0-.983.766c-.169.556-.427.983-1.078,1a2.529,2.529,0,0,0-1.153.732c-.305,0-.366,1-.9.237a4.644,4.644,0,0,0,2.034-1.783c.156-.583.278-1.159-.305-1.6-.434-.386-1.132-.292-1.5-.814a.441.441,0,0,1-.081-.353c-.332-.773-.82-.624-1.193-.095-.773,1.085-1.085-1.214-1.8-.21-.169-.447.414-.725.251-1.166a1.051,1.051,0,0,0-.732-.834l-1.017-.285c-.217-.136-.434-.271-.678-.414a.719.719,0,0,0-.359-.041c-1.159.644-1.471-.576-2.149-.983.081-.461.6-1.092-.427-1.146-.475-.271-1.153.359-1.532-.346-.041-1.173-.9-1.356-1.919-1.471-.149.57-.3,1.153-.447,1.736a.678.678,0,0,1-.481-.556c-.19-.881.38-2.3-1.437-2.034-.068,0-.251-.231-.251-.359,0-.441.075-.881.081-1.356,0-.271-.129-.495-.447-.339-.142.075-.231.264-.339.407-2.163,2.346-2.034,3.166.508,4.42a1.356,1.356,0,0,1,.495.556,2.794,2.794,0,0,1-.237.251,2.515,2.515,0,0,0,.088,1.356c.163.312.339.617.5.929.549,1.6.163,3.993,3.051,3.587,2.807-2.271,1.905,1.553,2.942,2.217.285.386.563.773.868,1.146.163.169.319.346.475.522l.549.454c.366.285.949.441,1.214.8a.536.536,0,0,1,.2.6.963.963,0,0,1-.488.678l-.095.054-.061.041a3.729,3.729,0,0,1-1.159.285c-.766.095-1.8-.068-1.417,1.288,1.037.508,1.959-.169,2.929-.278.217-.108.434-.2.678-.3a2.956,2.956,0,0,1,.678-.2,2.454,2.454,0,0,1,1.356.251l.59.319c.108.034.21.075.319.1,1.553-.285,1.77-1.742,2.454-2.787a1.281,1.281,0,0,1,.624-.42,1.986,1.986,0,0,1,2.285,1.159s0,0,0,.054a.766.766,0,0,1,0,.766c-.2.556-.861.915-1.3,1.356-.264.251-.57.454-.841.678-.468.441-.976.895-.746,1.634s.895.8,1.566.678h.285a1.051,1.051,0,0,1,.631,0,1.62,1.62,0,0,1,.305.305.359.359,0,0,0,.068.041.336.336,0,0,0,.054.136.827.827,0,0,1,.088.61,1.492,1.492,0,0,1-.068.373,4.746,4.746,0,0,0-1.247,3,2.387,2.387,0,0,1-.075.786,8.59,8.59,0,0,1-.522,2.712,1.139,1.139,0,0,0,.529.732c1.356.21,2.671.881,4.109.678a3.064,3.064,0,0,1,.746.041,1.885,1.885,0,0,0,.183.142.678.678,0,0,1,.427.292h0c2.19,1.356,5.037.99,5.6,5.858a1.885,1.885,0,0,1,.332.678.64.64,0,0,1-.081.2,1.356,1.356,0,0,1-.19.725c-.115,1.695,2.285,2.251,2.034,4.922a3.47,3.47,0,0,1,.292.678c.6,1.878.169,3.939,1.037,5.763a21.879,21.879,0,0,0,2.285,1.688,2.38,2.38,0,0,1,.488.522,1.2,1.2,0,0,1,.2.624c.142.346,0,.549-.292.712-.163.19-.359.373-.549.556a.854.854,0,0,0,.034.922c.142.156.285.319.441.461.495.563,1.241.447,1.851.678a.97.97,0,0,1,.19.088h.061a1.523,1.523,0,0,1,.142.081,1.2,1.2,0,0,1,0,.156,2.481,2.481,0,0,1,.2.949.936.936,0,0,0,.305.678h.237a3.051,3.051,0,0,0,.637-.169c1.675-.264,5.363-.678,2.712,2.136-.895.942,1.017,1.559,1.77,2.142a1.6,1.6,0,0,1,.183.19.576.576,0,0,1,.17.169,4.265,4.265,0,0,1,.542.786c.129.2.251.407.373.61a12.422,12.422,0,0,1,.759,1.207,1.511,1.511,0,0,0,0,.264,2.093,2.093,0,0,1,.081.312c.5,1.058,2.631.278,4.366.583-2.814,3.526-.237,2.414.495,3.532.19.441-.136,1.939.075,2.38a4.891,4.891,0,0,1,.292.678,5.227,5.227,0,0,1,.183,1.159c-.271.929-1.837,1.044-1.024,2.325,0,1.214.909,1.654,1.837,2.034a.983.983,0,0,1,.359.644,2.5,2.5,0,0,1-3.526,1.566,3.648,3.648,0,0,0-4.068.725,3.064,3.064,0,0,1-2.231.386c-1.247-.339-2.38-1.207-3.783-.8-.678.244-.719.9-.942,1.437a2.807,2.807,0,0,1-.346.624,3.465,3.465,0,0,1-.508.488c-.176.156-.359.305-.536.468a5.756,5.756,0,0,1-1.247,1.871c-.427.522-1.017.536-1.8.061a8.762,8.762,0,0,1-1.234-.753c-1.431-1.031-2.8-.325-4.2-.366-1.776,0-2.99-1.356-4.556-1.9-.895.068-1.81-1.22-2.664.061.129.176.237.353.346.536a9.993,9.993,0,0,1,.59,2.292,3.282,3.282,0,0,0,.522.827,14.054,14.054,0,0,0,1.661,1.234,3.3,3.3,0,0,1,.529.536,10.617,10.617,0,0,1,.522,1.037.983.983,0,0,1-.108,1.017.678.678,0,0,1-.888.244h-.088c-1.837-.305-1.58.292-3.275-.468-.454-.115-.807-.678-1.309-.332a.359.359,0,0,0-.081.59,6.55,6.55,0,0,0,1.8,1.356,4.814,4.814,0,0,1,.624.386,2.588,2.588,0,0,1,1.247,2.712c-.617,2.875.929,1.695,2.136,1.153a2.264,2.264,0,0,1,.732-.2c1.553.095,1.905,1.478,2.624,2.468a14.746,14.746,0,0,0,2,1.736,1.173,1.173,0,0,0,.936.264c.19-.122.38-.231.569-.359.678-.407,1.309-.59,1.871-.095l.169.075a.5.5,0,0,0,.054.169l.095.122a1.284,1.284,0,0,1,0,.156,1.478,1.478,0,0,1-.258.99c-.678,1.986-2.224,3.729-1.77,6.041.054.237.1.481.142.725a15.03,15.03,0,0,1,.346,3.207c.047.2.088.414.142.617a2.359,2.359,0,0,0,.678.983,14.459,14.459,0,0,0,1.356.78,1.844,1.844,0,0,1,.427.488c.258.475.5.956.753,1.431a7.208,7.208,0,0,0,.719,1.356,3.588,3.588,0,0,0,.441.353.908.908,0,0,0,.793-.034,6.676,6.676,0,0,0,.678-.631,2.413,2.413,0,0,1,.563-.414,1.918,1.918,0,0,1,.542-.149.847.847,0,0,1,1.078.278,2.535,2.535,0,0,1,.563.624c.583,1.112.5,2.556,1.681,3.39.678.678,1.214,1.458,2.258,1.553a15.051,15.051,0,0,1,2.563.57c2.095.827,4.332-.475,6.42.434a4.021,4.021,0,0,1,1.688.624c.2.109.407.237.61.353.508.292,1.092.434,1.6.732a1.817,1.817,0,0,1,.488.529,3.128,3.128,0,0,0,2.644,2.481c.353.054.766.332,1.051.081l.061-.068a.428.428,0,0,0,.081-.122c.224-.454-.224-.841-.434-1.234a14.367,14.367,0,0,1-2.224-4.231,9.662,9.662,0,0,1,.095-2.712,8.468,8.468,0,0,1,.2-1,.9.9,0,0,1,.061-.2,1.281,1.281,0,0,1,.075-.169.36.36,0,0,1,.041-.068c.251-.481.644-.637,1.356-.522a1.742,1.742,0,0,1,1.309.359l.1.034v.095l.054.054a.434.434,0,0,1,0,.678,7,7,0,0,1-.814,1.227,1.871,1.871,0,0,0-.427,1.132,1.56,1.56,0,0,0,.3.475c.42.319.963.393,1.356.678a1.491,1.491,0,0,1,.38.536c.2.441.156,1.031.759,1.207a3.16,3.16,0,0,0,.563-.1,8.428,8.428,0,0,0,1.119-.529,6.1,6.1,0,0,1,.6-.292l.244-.115,46.849-26.99c.142-.108.285-.21.434-.305a5.738,5.738,0,0,1,.637-.339c.1-.041.19-.095.285-.142l1.092-.631c.556-.38,1.092-.807,1.627-1.207a6.107,6.107,0,0,1,.61-.42,5.32,5.32,0,0,1,.644-.346,19.059,19.059,0,0,0,3.607-2.441,5.491,5.491,0,0,1,.617-.42,5.586,5.586,0,0,1,.678-.359c.942-.244,1.627-1.18,2.6-1.322a11.335,11.335,0,0,1,1.905-1.105c.217-.108.427-.21.637-.325l.312-.169a5.27,5.27,0,0,0,.59-.359l.285-.183.556-.373c1.193-.549,1.553,1.356,2.712.922.339-.522.3-1.356.983-1.566.936-.332,1.024-.888.678-1.688a10.585,10.585,0,0,1-.461-1.275.759.759,0,0,1,.353-.936c.386-.224.841-.339,1.22-.583.21-.129.495-.522.441-.624-.753-1.275.1-1.98.895-2.712a.59.59,0,0,0,.156-.5c-.42-1.356,1.227-2.651.2-4.068-.2-.278.19-.42.42-.536.888-.434.82-1.356,1-2.109S258.7,81.643,258.46,81.148ZM144.336,34.184c-.169.108-.237,0-.054-.088a.542.542,0,0,0,0-.1C144.41,34.021,144.5,34.082,144.336,34.184Z" fill="#bec0c2" stroke="#bec0c2" stroke-miterlimit="10" stroke-width="0.678"/>
            <path id="Path_319" data-name="Path 319" d="M234.446,210.242c.678-.271,1.356-.529,2-.861a.786.786,0,0,0,.38-.942.827.827,0,0,0-.644-.366c-.814,0-1.634.054-2.448.088-.468,0-.542.366-.624.732a5.288,5.288,0,0,1-.353.773c-.6-.312-1.153-.624-1.722-.888-.868-.4-.983-.339-1.356.847-.129.4-.292.678-.719.522a1.722,1.722,0,0,0-1.254-.231c-.942.244-.353-.427-.38-.759-.088-.868-.5-.468-.875-.2-.8.346-.753-.393-1-.773-.732-.854-1.356.746-2.129.054-.163-.929-.292-1.885-.5-2.827a1.186,1.186,0,0,0-1.308-1.051,2.033,2.033,0,0,0-.549.549,2.78,2.78,0,0,0-.081.475,3.79,3.79,0,0,1-.759,1.641,1.614,1.614,0,0,0,.264-1.776c-.183-.19-.332-.454-.549-.563-.481-.231-1.186-.231-1.356-.793a3.518,3.518,0,0,1,.075-1.586c.061-.339.346-.637.427-.976a1.092,1.092,0,0,0-.1-.759c-.719-1.159-2.549-1.322-3.139-.122-.529,1.078-1.125.963-1.953.678-.631.678-1.661.847-2.034,1.485a7.648,7.648,0,0,0,.759-1.871l1.247-1.783a8.792,8.792,0,0,0,1.3-5.5c0-.949-.353-1.214-1.5-1.492-.264-.068-.549-.088-.617-.4s.251-.386.488-.508c.915-.468.908-.481.169-1.031a4.135,4.135,0,0,1-.4-.271c-1.125-1.105-1.125-1.105-2.292-.231-.21.156-.468.414-.631.068a1.261,1.261,0,0,0-1.8-.678,2.034,2.034,0,0,0-1.092,1.79c-.1.814-.183,1.634-.346,2.441s-.366,1.722-1.356,1.8c-.881.068-1.112-.766-1.471-1.4-1-1.736-1.885-2.034-3.776-1.627-1.742.38-3.492,1.159-5.315.19-.447-.237-.929.136-1.139.536a4.115,4.115,0,0,1-2.034,2.109c-.536,1.315-1.051,2.658-2.712,2.956l.034-.034a2.583,2.583,0,0,0-.678.495h.041c-.373.305-.59.766-1.017,1.017a8.664,8.664,0,0,1-5.193-.346.5.5,0,0,0-.678.1,1.41,1.41,0,0,1-1.356.319c-1.153.393-2.434.61-2.17,2.373.19,1.247-1,.583-1.478.929-1.505,1.912.366,2.922,1.125,4.231,1.071,1.932.481,3.675-.624,5.356h0a2.936,2.936,0,0,0-.678.495h.041a2.772,2.772,0,0,0-.678.5h.041a3.105,3.105,0,0,0-1.071,1.532c.041.414.156.746.678.576.888-.447,1.431-1.417,2.488-1.641a1.458,1.458,0,0,0,1.241-1.566c0-.881.556-1.268,1.261-1.593a3.349,3.349,0,0,1,3.153.115,13.235,13.235,0,0,1,1.356.888,2.393,2.393,0,0,0,2.034.59c.522-.115.814.292,1,.739s.217,1.037.529,1.227a3.851,3.851,0,0,1,1.654,2.393,1.288,1.288,0,0,0,.454.678c1.044.637,1.261,1.763,1.607,2.773.522,1.532.678,3.22,1.953,4.427a.678.678,0,0,1,.2.495c-.312,1.654.617,2.712,1.647,3.81a2.712,2.712,0,0,1,.393,1.01c.251.78.468,1.573.732,2.346.42,1.2.922,1.505,2.271,1.234a3.6,3.6,0,0,1,2.658.169c.325.19.617.549.366.888-.678.942-.264,1.505.556,1.959.495.278,1.037.556.956,1.186-.129,1.139.515,1.4,1.431,1.519q2.176.264,4.339.6a2.1,2.1,0,0,0,1.986-.576c.563-.542,1.132-1.207,2.115-.956.386.1.678-.231.895-.529a5.941,5.941,0,0,1,2.448-1.742c-.366-.766-.678-1.417-.976-2.075a.162.162,0,0,1-.041-.054c.088-.142.183-.332.264-.325,1.166.075,2.468.556,3.437.176s1.485-1.763,2.495-2.4a3.431,3.431,0,0,0,1.281-1.688c.468-1.071,1.1-2.075,1.614-3.125a9.492,9.492,0,0,1,2.109-2.8c-.305-1.553,1.356-1.736,1.885-2.664.332-.536.678-1.051,1.044-1.573-.3-.746.285-1.5-.041-2.244,0-.061-.054-.108-.081-.169.2.38.366.807.929.807.57-.285.746-.868,1.044-1.356.115-.2.237-.393.346-.59s.258-.373.38-.556a3.994,3.994,0,0,0,.908-1.112,2.536,2.536,0,0,0-.034-2.264C233.843,211.063,233.762,210.52,234.446,210.242Zm-18.583,19.18c.766,1.247.075,2.651.414,3.939-.861-1.22-.319-2.624-.414-3.939Zm13.56-14.129a8.218,8.218,0,0,1,.814,1.058c-.292-.427-.658-.753-.841-1.058Z" fill="#bec0c2" stroke="#bec0c2" stroke-miterlimit="10" stroke-width="0.678"/>
          </g>
        </g>
        <text id="St._John_s" data-name="St. John’s" transform="translate(334.7 124.274)" fill="#404041" font-size="11" font-family="Muli-ExtraBold, Muli" font-weight="800"><tspan x="0" y="0" letter-spacing="-0.01em">S</tspan><tspan y="0" letter-spacing="0.02em">t</tspan><tspan y="0">. Joh</tspan><tspan y="0" letter-spacing="-0.01em">n</tspan><tspan y="0" letter-spacing="-0.03em">’</tspan><tspan y="0">s</tspan></text>
      </g>
      <circle id="Ellipse_21" data-name="Ellipse 21" cx="1.6" cy="1.6" r="1.6" transform="translate(331.615 125.515)" fill="#404041" stroke="#404041" stroke-miterlimit="10" stroke-width="0.678"/>
    </g>
    <text id="Saint-Lawrence_RA" data-name="Saint-Lawrence RA" transform="translate(15.271 40.631)" fill="#404041" font-size="32" font-family="Quicksand-Light, Quicksand" font-weight="300"><tspan x="0" y="0">Saint-Lawrence RA</tspan></text>
  </g>
</svg>
