<svg xmlns="http://www.w3.org/2000/svg" width="272.611" height="333.552" viewBox="0 0 272.611 333.552">
  <g id="Group_2" data-name="Group 2" transform="translate(-19.271 0)">
    <g id="outline_pacific" transform="translate(91.974 0.255)">
      <g id="west" transform="translate(0 0)">
        <rect id="Rectangle_471" data-name="Rectangle 471" width="149.001" height="241.172" transform="translate(0 85.568)" fill="#2fb8ac"/>
        <path id="Path_227" data-name="Path 227" d="M292.412,165.3c1.429.667,2.859,1.342,4.288,1.993a9.447,9.447,0,0,1,1.668.977l.754.357a7.225,7.225,0,0,1,.683-4.637c1.493-3.311,1.08-3.224-1.818-4.963s-4.129.564-5.725,1.532c-.794.492-1.294-.794-5.558-3.176s-1.588-8.472-1.032-13.5-7.107-9.179-7.686-17.691,8.02-15.793,6.281-18.517-.167-8.02,1.326-10.91-3.391-2.731-5.622-6.289,3.549-3.8,3.176-8.846.6-5.415.6-5.415,6.178-3.176,1.882-7.313-2.382-2.724.492-6.281,3.6-9.9,3.6-11.013-7.353-5.368-8.734-6.606-.413-2.811.993-3.97,2.144-4.875,1.731-8.512,9.092-8.734,9.092-8.734l-1.667-2.176a9.566,9.566,0,0,1-1.207-1.469c-.961-1.8-1.858-3.653-2.771-5.495a2.8,2.8,0,0,1,.064-2.509,9.528,9.528,0,0,0,.071-6.948A7.6,7.6,0,0,0,283.153.5c-1.771-.794-2.382-.691-3.7.746-.27.294-.548.572-.794.873q-10.815,12.173-21.614,24.361c-6.5,7.361-12.887,14.809-19.486,22.114q-22.6,24.9-45.339,49.659l-.111.127C237.139,133.851,270.337,154,292.412,165.3Z" transform="translate(-126.625 -0.006)" fill="#bec0c2" stroke="#bec0c2" stroke-miterlimit="10" stroke-width="0.794"/>
        <path id="Path_228" data-name="Path 228" d="M211.825,308.4c.333-1.016.159-1.755-.921-2.088-.683-.214-.691-.611-.532-1.278.294-1.183,0-1.533-1.191-1.834a1.216,1.216,0,0,0-.23-.056,3.041,3.041,0,0,1-2.668-1.588,3.256,3.256,0,0,1,2.1-2.08c.588-.206.6-.7.206-1.128a1.779,1.779,0,0,1-.476-1.533,2.723,2.723,0,0,0-.889-2.334,1.731,1.731,0,0,0-2.064-.715c-.445.167-.961.183-1.207-.381a1.35,1.35,0,0,1,.2-1.548c.453-.492,1.39-.794,1.024-1.636-.286-.667-1.128-.357-1.731-.429a.873.873,0,0,1-.905-.881.794.794,0,0,0-.723-.794,8.132,8.132,0,0,0-2.1-.326.548.548,0,0,1-.333-1,1.961,1.961,0,0,0,.794-2.462c-.135-.5.31-.873.794-.929a5.511,5.511,0,0,1,2.088.389,1.072,1.072,0,0,0,1.12-.119c.437-.389.3-.866.127-1.3a2.24,2.24,0,0,0-.532-.794c-.246-.254-.6-.3-.715.111a.794.794,0,0,1-1.04.651l-.23-.048c-2.223-.58-2.319-.683-2.565-3.017-.048-.468-.1-.937-.143-1.413-.079-.913.206-1.191,1.048-.993.461.1.929.413,1.358.349,1.382-.206,2.231.556,3.065,1.445.651.691,1.326,1.358,2.033,1.993a4.026,4.026,0,0,1,1.262,1.683,5.94,5.94,0,0,0,1.826,2.446,55.72,55.72,0,0,0,6.352,4.994c1.453.937,2.66,2.231,4.081,3.24a3.621,3.621,0,0,1,1.437,3.1,16.31,16.31,0,0,0,.794,5.328,3.7,3.7,0,0,1,.111,3.224,2.311,2.311,0,0,0,.064,2.065,9.949,9.949,0,0,0,2.041,3.176c.913,1,1.842,1.969,2.811,2.906a4.883,4.883,0,0,1,1.588,4.661,8.854,8.854,0,0,0,.945,6.162c.4.643.175,1.39.31,2.088.079.421-.048.834-.611.723a2.1,2.1,0,0,0-1.548.445,2.2,2.2,0,0,1-2.652-.278,32.8,32.8,0,0,1-2.676-2.382,12.006,12.006,0,0,0-2.517-2.144,1.12,1.12,0,0,1-.715-1.112.794.794,0,0,0-.524-.707c-.214-.111-.468-.143-.659-.27-.794-.58-.794-1.818-1.517-2.327a5.026,5.026,0,0,1-1.668-1.906c-.357-.691-.1-1.318.7-1.39a12.636,12.636,0,0,0,3.97-1.525,1.2,1.2,0,0,0,.746-.865.31.31,0,0,0,0-.206.214.214,0,0,0-.159-.167c-.064-.008-.135.071-.2.119-1.318,1.167-2.835,1.135-4.462.889-.794-.111-.945-.794-1.517-1.016s-1.112.611-1.771.429a.913.913,0,0,1-.572-.381,10.108,10.108,0,0,0-1.525-2.668.794.794,0,0,1,.1-1.072c.246-.2.58,0,.842.222a2.724,2.724,0,0,0,.548.286Z" transform="translate(-126.625 -8.383)" fill="#bec0c2" stroke="#bec0c2" stroke-miterlimit="10" stroke-width="0.794"/>
        <path id="Path_229" data-name="Path 229" d="M189.147,224.9a2.247,2.247,0,0,0,1.922-.794c.794-.865,1.771-1.588,2.049-2.843a.738.738,0,0,1,1.1-.54,3.248,3.248,0,0,0,2.914.484c.262-.087.437.135.54.357a.484.484,0,0,1-.183.619c-1.247.794-2.1,2.1-3.653,2.557a4.343,4.343,0,0,0-2.438,2.16c-.389.683-.929,1.278-1.366,1.93a2.708,2.708,0,0,1-2.573,1.382,2.326,2.326,0,0,0-.7.1c-.516.119-.961.7-1.54.334a4.224,4.224,0,0,1-1.993-1.945c-.468-1.207-.3-1.588,1.072-1.985.516-.159.611-.389.318-.794s-.707-.85-1.032-1.3a1.588,1.588,0,0,1-.087-2.16,1.644,1.644,0,0,0,.357-.858,7.377,7.377,0,0,1,2.279-4.574c.484-.508.746-1.445,1.437-1.493.929-.071,1.358.953,2.025,1.485.27.214.206.516.183.85-.056.834.127,1.04.794,1.048.31,0,.627-.111.937-.1a.794.794,0,0,1,.842.691,2.787,2.787,0,0,1-2.057,3.462,8.607,8.607,0,0,1-2.581.341c-.246,0-.492.119-.5.365a1.429,1.429,0,0,0,.23.659C187.837,225.077,188.536,224.855,189.147,224.9Z" transform="translate(-126.625 -5.543)" fill="#bec0c2" stroke="#bec0c2" stroke-miterlimit="10" stroke-width="0.794"/>
        <path id="Path_230" data-name="Path 230" d="M184.4,243.451c.278-1.787-.453-3.343-.754-4.955a6.71,6.71,0,0,1,.238-2.009c0-.611-1-.643-1.016-1.461,0-1.024.056-1.31,1.08-1.731a2.611,2.611,0,0,0,.437-.167c.119-.087.31-.27.278-.341a.993.993,0,0,0-.4-.548,6.65,6.65,0,0,0-.913-.206c-.246-.087-.723-.056-.492-.548a.659.659,0,0,1,.794-.341,10.775,10.775,0,0,0,4.693.294c.619-.1,1.024.286,1.191.913a3.463,3.463,0,0,1,.111.7c0,.381.381.794.056,1.128-.461.476-.794-.079-1.239-.23-1.1-.4-1.675-.206-2.041.865a19.493,19.493,0,0,0-.985,5.312,2.318,2.318,0,0,0,.341,1.358,4.335,4.335,0,0,1,.492,3.176c-.175.746-.064,1.421.881,1.636a.643.643,0,0,1,.516.889.921.921,0,0,1-1.143.6,2.255,2.255,0,0,1-1.858-1.588,7.94,7.94,0,0,1-.262-2.739Z" transform="translate(-126.625 -5.971)" fill="#bec0c2" stroke="#bec0c2" stroke-miterlimit="10" stroke-width="0.794"/>
        <path id="Path_231" data-name="Path 231" d="M207.847,249.16c.27-1.437.421-3.081,1.81-4.3a11.282,11.282,0,0,0,1.429-1.882c.365-.484.985-.492,1.1,0a8.662,8.662,0,0,0,1.429,3.176,1.255,1.255,0,0,1,.1,1.143,11.752,11.752,0,0,1-2.469,4.3.794.794,0,0,1-1.4-.056c-.31-.468-.5-.945-1.175-1.008S207.894,249.931,207.847,249.16Z" transform="translate(-126.625 -6.129)" fill="#bec0c2" stroke="#bec0c2" stroke-miterlimit="10" stroke-width="0.794"/>
        <path id="Path_232" data-name="Path 232" d="M208.887,238.155a9.68,9.68,0,0,1,.135,1.175,1.366,1.366,0,0,1-1.453,1.263c-.2,0-.532-.167-.572-.31-.262-.945-.921-1.779-.389-2.922s.079-2.5-.087-3.732a15.687,15.687,0,0,1-.111-2.382c0-.341.111-.659.484-.675s.524.31.627.611a30.856,30.856,0,0,1,1.366,6.972Z" transform="translate(-126.625 -5.837)" fill="#bec0c2" stroke="#bec0c2" stroke-miterlimit="10" stroke-width="0.794"/>
        <path id="Path_233" data-name="Path 233" d="M205.5,238.3c0,1.477-.23,1.93-.754,2.057a1.437,1.437,0,0,1-1.588-1.135,4.05,4.05,0,0,1-.175-1.151,3.415,3.415,0,0,0-.421-1.818c-.588-.921-.437-1.969-.588-2.97,0-.294.056-.675.445-.715a2.5,2.5,0,0,1,.9.119.611.611,0,0,1,.333.326A19.658,19.658,0,0,1,205.5,238.3Z" transform="translate(-126.625 -5.848)" fill="#bec0c2" stroke="#bec0c2" stroke-miterlimit="10" stroke-width="0.794"/>
        <path id="Path_234" data-name="Path 234" d="M212.563,263.842c-.23-.111-.445-.326-.333-.532a3.367,3.367,0,0,1,2.446-2.017,22.867,22.867,0,0,0,4.137-.794,1.342,1.342,0,0,1,.9.143c.167.079.27.365.318.572a.477.477,0,0,1-.254.357,1.962,1.962,0,0,1-.889.238,7.488,7.488,0,0,0-5.447,1.81A.9.9,0,0,1,212.563,263.842Z" transform="translate(-126.625 -6.464)" fill="#bec0c2" stroke="#bec0c2" stroke-miterlimit="10" stroke-width="0.794"/>
        <path id="Path_235" data-name="Path 235" d="M206.942,228.4a1.453,1.453,0,0,1-1.445,1.461c-.135,0-.381-.071-.4-.151-.2-.945-.842-1.151-1.707-1.135-.365,0-.524-.564-.326-.913a1.81,1.81,0,0,1,1.715-.985,5.169,5.169,0,0,1,.913.183C206.807,227.094,206.894,227.205,206.942,228.4Z" transform="translate(-126.625 -5.622)" fill="#bec0c2" stroke="#bec0c2" stroke-miterlimit="10" stroke-width="0.794"/>
        <path id="Path_236" data-name="Path 236" d="M207.18,296.89a3.97,3.97,0,0,1-.079.635c-.246.651-.4,1.382-1.183,1.588-.461.135-.865-.453-1.1-1.54-.04-.151-.048-.3-.087-.453-.087-.373-.341-.794,0-1.088s.683-.889,1.27-.969a.691.691,0,0,1,.794.413A12.926,12.926,0,0,1,207.18,296.89Z" transform="translate(-126.625 -8.383)" fill="#bec0c2" stroke="#bec0c2" stroke-miterlimit="10" stroke-width="0.794"/>
        <path id="Path_237" data-name="Path 237" d="M228.8,308.642c-.151.2-.222.381-.334.413a.453.453,0,0,1-.421-.1c-.588-.929-1.143-1.874-1.7-2.819-.318-.54-.619-1.088-.9-1.644a.437.437,0,0,1,.135-.4,1.263,1.263,0,0,1,.627-.191.683.683,0,0,1,.413.191C227.984,305.338,228.206,307.1,228.8,308.642Z" transform="translate(-126.625 -8.383)" fill="#bec0c2" stroke="#bec0c2" stroke-miterlimit="10" stroke-width="0.794"/>
        <path id="Path_238" data-name="Path 238" d="M207.331,250.915v1.128a.79.79,0,0,1-.707.794.707.707,0,0,1-.627-.619,7.734,7.734,0,0,1,.222-3.9.437.437,0,0,1,.365-.23.556.556,0,0,1,.341.278A8.956,8.956,0,0,1,207.331,250.915Z" transform="translate(-126.625 -6.181)" fill="#bec0c2" stroke="#bec0c2" stroke-miterlimit="10" stroke-width="0.794"/>
        <path id="Path_239" data-name="Path 239" d="M209.467,264.724c-.341,0-.9-.985-.731-1.318a3.311,3.311,0,0,1,1.588-1.66.931.931,0,0,1,1.167,1.183,3.287,3.287,0,0,1-1.771,1.763A.731.731,0,0,1,209.467,264.724Z" transform="translate(-126.625 -6.487)" fill="#bec0c2" stroke="#bec0c2" stroke-miterlimit="10" stroke-width="0.794"/>
        <path id="Path_240" data-name="Path 240" d="M216.025,284.392a9.528,9.528,0,0,1,1.2.214.8.8,0,0,1-.2,1.572,4.05,4.05,0,0,1-2.168-.746.508.508,0,0,1-.151-.4.532.532,0,0,1,.278-.349A10.156,10.156,0,0,1,216.025,284.392Z" transform="translate(-126.625 -8.383)" fill="#bec0c2" stroke="#bec0c2" stroke-miterlimit="10" stroke-width="0.794"/>
        <path id="Path_241" data-name="Path 241" d="M208.037,266.994a.889.889,0,0,1,.683.564,1.588,1.588,0,0,1-.191,1.366c-.222.389-.3,1.032-.858,1.016s-.381-.723-.58-1.1c-.373-.715,0-1.2.532-1.628A2.025,2.025,0,0,1,208.037,266.994Z" transform="translate(-126.625 -6.616)" fill="#bec0c2" stroke="#bec0c2" stroke-miterlimit="10" stroke-width="0.794"/>
        <path id="Path_242" data-name="Path 242" d="M213.691,239.251c-.349,0-.794.048-.953-.437-.119-.349.326-.953.794-1a16.544,16.544,0,0,1,1.882,0c.278,0,.357.516.191.794C215.184,239.33,214.39,239.2,213.691,239.251Z" transform="translate(-126.625 -5.868)" fill="#bec0c2" stroke="#bec0c2" stroke-miterlimit="10" stroke-width="0.794"/>
        <path id="Path_243" data-name="Path 243" d="M209.252,252.884a2.159,2.159,0,0,1,1.342.278.929.929,0,0,1,.159,1.255.723.723,0,0,1-1.016.27,6.351,6.351,0,0,1-1.08-.881.794.794,0,0,1-.191-.611c.048-.143.357-.206.556-.286a.706.706,0,0,1,.23-.024Z" transform="translate(-126.625 -6.248)" fill="#bec0c2" stroke="#bec0c2" stroke-miterlimit="10" stroke-width="0.794"/>
        <path id="Path_244" data-name="Path 244" d="M207.8,243.642c-.064.357-.127.794-.246,1.255,0,.1-.214.175-.341.246a.243.243,0,0,1-.349-.167,13.43,13.43,0,0,1-.222-1.358c-.079-1.334.127-1.9.58-1.691C207.966,242.268,207.656,242.975,207.8,243.642Z" transform="translate(-126.625 -6.001)" fill="#bec0c2" stroke="#bec0c2" stroke-miterlimit="10" stroke-width="0.794"/>
        <path id="Path_245" data-name="Path 245" d="M231.064,319.647a2.573,2.573,0,0,1,0-.7.929.929,0,0,1,.365-.516.419.419,0,0,1,.588.214,11.357,11.357,0,0,1,.651,1.231.619.619,0,0,1-.175.794c-.429.294-.707,0-.945-.326a9.44,9.44,0,0,1-.516-.794Z" transform="translate(-126.625 -8.383)" fill="#bec0c2" stroke="#bec0c2" stroke-miterlimit="10" stroke-width="0.794"/>
        <path id="Path_246" data-name="Path 246" d="M225.752,297.581c.056-.294,0-.484.119-.6a.985.985,0,0,1,.516-.4.794.794,0,0,1,.611.246,1.453,1.453,0,0,1-.206,1.922.54.54,0,0,1-.794-.175C225.879,298.216,225.808,297.827,225.752,297.581Z" transform="translate(-126.625 -8.383)" fill="#bec0c2" stroke="#bec0c2" stroke-miterlimit="10" stroke-width="0.794"/>
        <path id="Path_247" data-name="Path 247" d="M205.8,232.573a2.629,2.629,0,0,1-.151.667.953.953,0,0,1-.437.492c-.23.1-.389-.111-.516-.31a2.263,2.263,0,0,1-.357-1.326.794.794,0,0,1,.723-.794.643.643,0,0,1,.635.564,6.161,6.161,0,0,1,.1.707Z" transform="translate(-126.625 -5.724)" fill="#bec0c2" stroke="#bec0c2" stroke-miterlimit="10" stroke-width="0.794"/>
        <path id="Path_248" data-name="Path 248" d="M186.932,249.55a13.605,13.605,0,0,1-.794,1.4c-.135.183-.484.087-.6-.143a1.382,1.382,0,0,1,.723-1.937.643.643,0,0,1,.667.683Z" transform="translate(-126.625 -6.154)" fill="#bec0c2" stroke="#bec0c2" stroke-miterlimit="10" stroke-width="0.794"/>
        <path id="Path_249" data-name="Path 249" d="M231.064,319.607c0,.635.071,1.263.071,1.89a.565.565,0,0,1-.588.58.79.79,0,0,1-.794-.667c0-.357.206-.921.27-1.39.111-.842.667-.365,1.056-.373Z" transform="translate(-126.625 -8.383)" fill="#bec0c2" stroke="#bec0c2" stroke-miterlimit="10" stroke-width="0.794"/>
        <path id="Path_250" data-name="Path 250" d="M213.381,252.225a3.319,3.319,0,0,1-.58,1.652.619.619,0,0,1-.834.151.429.429,0,0,1-.222-.58c.254-.564.54-1.12.85-1.66.048-.1.27-.143.4-.127C213.262,251.709,213.373,251.884,213.381,252.225Z" transform="translate(-126.625 -6.228)" fill="#bec0c2" stroke="#bec0c2" stroke-miterlimit="10" stroke-width="0.794"/>
        <path id="Path_251" data-name="Path 251" d="M210.419,242.181a2.382,2.382,0,0,1-1.175,1.588.373.373,0,0,1-.548-.246,1.961,1.961,0,0,1,.794-1.826c.127-.1.437,0,.635.056S210.34,242.062,210.419,242.181Z" transform="translate(-126.625 -5.975)" fill="#bec0c2" stroke="#bec0c2" stroke-miterlimit="10" stroke-width="0.794"/>
        <path id="Path_252" data-name="Path 252" d="M213.7,217.264c.159.071.357.1.413.206a.445.445,0,0,1-.087.429,11.052,11.052,0,0,1-1.294.977.389.389,0,0,1-.6-.159.794.794,0,0,1,0-.643,1.906,1.906,0,0,1,1.564-.81Z" transform="translate(-126.625 -5.365)" fill="#bec0c2" stroke="#bec0c2" stroke-miterlimit="10" stroke-width="0.794"/>
        <path id="Path_253" data-name="Path 253" d="M222.33,296.588c.071-.468,0-.905.437-1.1.326-.127.683.453.643,1.064a1.469,1.469,0,0,1-.365,1.088.937.937,0,0,1-.421.167.5.5,0,0,1-.135-.175A9.876,9.876,0,0,0,222.33,296.588Z" transform="translate(-126.625 -8.383)" fill="#bec0c2" stroke="#bec0c2" stroke-miterlimit="10" stroke-width="0.794"/>
        <path id="Path_254" data-name="Path 254" d="M187.813,240.005a.7.7,0,0,1-.858.524c-.492-.087-.707-.413-.635-1.008.048-.4.222-.794.683-.746S187.853,239.481,187.813,240.005Z" transform="translate(-126.625 -5.897)" fill="#bec0c2" stroke="#bec0c2" stroke-miterlimit="10" stroke-width="0.794"/>
        <path id="Path_255" data-name="Path 255" d="M188.306,235.281a1.088,1.088,0,0,1-.524.985.619.619,0,0,1-.842-.151,1.183,1.183,0,0,1,.738-1.66C188.012,234.391,188.329,234.812,188.306,235.281Z" transform="translate(-126.625 -5.793)" fill="#bec0c2" stroke="#bec0c2" stroke-miterlimit="10" stroke-width="0.794"/>
        <path id="Path_256" data-name="Path 256" d="M212.627,240.593c.246.087.4.222.4.492a.85.85,0,0,1-.6.9.929.929,0,0,1-1.048-.3.389.389,0,0,1,0-.6A1.636,1.636,0,0,1,212.627,240.593Z" transform="translate(-126.625 -5.936)" fill="#bec0c2" stroke="#bec0c2" stroke-miterlimit="10" stroke-width="0.794"/>
        <path id="Path_257" data-name="Path 257" d="M215.342,287.084a4.457,4.457,0,0,1,.731.326c.1.056.1.27.1.421s-.087.127-.151.167a1.588,1.588,0,0,1-1.366,0,.5.5,0,0,1-.4-.516c0-.262.238-.365.484-.4Z" transform="translate(-126.625 -8.383)" fill="#bec0c2" stroke="#bec0c2" stroke-miterlimit="10" stroke-width="0.794"/>
        <path id="Path_258" data-name="Path 258" d="M224.045,294.952a2.779,2.779,0,0,1-.651-.254.445.445,0,0,1-.143-.389c.127-.484.548-.508.937-.492a.667.667,0,0,1,.683.524c.04.191,0,.334-.159.4S224.275,294.881,224.045,294.952Z" transform="translate(-126.625 -8.383)" fill="#bec0c2" stroke="#bec0c2" stroke-miterlimit="10" stroke-width="0.794"/>
        <path id="Path_259" data-name="Path 259" d="M315.788,307.808c-.961-.373-1.953-.643-2.93-.977a1.795,1.795,0,0,1-1.382-2.382c.119-.619.381-1.2.564-1.81.453-1.588.27-2.112-1.151-2.938a31.858,31.858,0,0,1-4.081-2.859,11.116,11.116,0,0,1-2.835-3.486,4.161,4.161,0,0,1,0-4.28,7.377,7.377,0,0,0-1.183-8.981,3.47,3.47,0,0,0-2.874-1.4,2.057,2.057,0,0,1-2.088-1.278c-.286-.564-.516-1.159-.754-1.739a12.765,12.765,0,0,0-.738-1.755c-.683-1.128-1.644-2.144-1.056-3.629a16.2,16.2,0,0,0-.834-2.223,3.518,3.518,0,0,1-.079-3.176c2.795-7.5,5.519-15.031,8.274-22.551q10.457-28.474,20.9-56.972l2.454-6.225s-9.02-1.906-27.609-10.918a9.448,9.448,0,0,0-1.667-.977c-1.429-.651-2.859-1.326-4.288-1.993-22.1-11.323-55.336-31.491-100.446-67.032,0,0-2.851,3.1-1.239,4.709l.087.087c.254,1.906.548,3.811.7,5.725a1.755,1.755,0,0,0,1.509,1.795,23.37,23.37,0,0,1,2.271.7c.794.3,1.707.31,2.382,1.032-.429,1.159-1.779,1.715-2.2,3.121,1.183-.087,2.215-.175,3.1.54s1.795.913,2.43,1.842a12.451,12.451,0,0,1-1.175.993,2.668,2.668,0,0,0-1.215,2.628,9.48,9.48,0,0,0,.492,2.533c.27.866-.548,1.652-.318,2.549v.238c.333,2.382.588,4.717,1.024,7.043a6.106,6.106,0,0,1-.238,3.256q-.326.9-.572,1.81c-.159.556-.675,1.008-.58,1.731.516-.048.905-.079,1.286-.127a9.006,9.006,0,0,1,4.685.246,2.692,2.692,0,0,0,3.033-.643,5.6,5.6,0,0,0,.794-.873,1.175,1.175,0,0,1,1.223-.556,1.1,1.1,0,0,0,1.469-.794.683.683,0,0,1,.953-.421,10.759,10.759,0,0,0,3.216.723c2.541.071,2.747-.373,3.279,2.866.064.389.143.794.191,1.175a1.54,1.54,0,0,1-.476,1.5,2.16,2.16,0,0,0-.746,2.382c.4,1.048.27,2.2.794,3.176a1.866,1.866,0,0,1-.119,2.382.953.953,0,0,0-.143.675,10.148,10.148,0,0,0,.445,2.8c.913,2.057.913,4.327,1.628,6.424a1.151,1.151,0,0,1,0,.905c-.794.969-.334,2.144-.619,3.176a9.728,9.728,0,0,0-.4,3.3c.326,3.732-.572,7.424-.333,11.117a1.541,1.541,0,0,1-.445,1.3c-.389.373-.953.715-1.112,1.183-.222.675.651.993.873,1.588.056.143.1.294.159.508-.326.4-.691.794-1.024,1.239a.937.937,0,0,0-.071,1.3c.627.635.421,1.255.151,1.945-.5,1.247-.524,1.31.58,2.112A3.351,3.351,0,0,1,219,192.816a9.831,9.831,0,0,0,2.787,4.073c.222.214.619.492.588.691-.191,1.374,1.834,2.033,1.1,3.565-.056.119.167.437.333.588a6.711,6.711,0,0,0,.794.516c1.064.691,1.143.945.858,2.12a2.461,2.461,0,0,1-1.509,1.969,3.97,3.97,0,0,0-2.192,2.382,10.614,10.614,0,0,0-.794,2.215,2.279,2.279,0,0,0-.326.588,1.921,1.921,0,0,0,.079.659,3.542,3.542,0,0,0,.588-.254,1.311,1.311,0,0,0,.294-.357h0c.127.087.318.135.373.254.723,1.461.675,1.588-.58,2.5-.588.413-1.135.858-1.723,1.263-.85.58-1.787,1.032-2.136,2.128-.143.437-.611.445-1.008.453a2.207,2.207,0,0,0-2.382,1.588c-.159.492-.627.611-1.12.746-1.247.341-1.318.508-1.278,1.81a9.253,9.253,0,0,1,0,.937.381.381,0,0,1-.468.389.429.429,0,0,1-.3-.27c-.064-.31-.04-.627-.079-.945-.071-.508.206-1.128-.58-1.588a2.882,2.882,0,0,1-.929,2.057.365.365,0,0,0-.056.6,1.31,1.31,0,0,1,.4,1.469,2.5,2.5,0,0,0,.572,2.422.635.635,0,0,1-.222,1.008c-1.469.834-1.517,2.072-1.12,3.494a15.626,15.626,0,0,1,.635,3.708,15.555,15.555,0,0,0,.715,3.224c.063.254.635.357.794.151.3-.357.58-.746.858-1.12a4.716,4.716,0,0,1,3.113-1.977,9.878,9.878,0,0,0,3.867-.961.842.842,0,0,1,.675.048.607.607,0,0,1,.222.794c-.246.834-.373,1.54-1.628,1.588s-2.176,2.223-1.588,3.383a1.54,1.54,0,0,0,.794.794c.365.151.754.246,1.112.421a4.2,4.2,0,0,1,.993.6.937.937,0,0,1,.183.627c0,.079-.222.214-.357.222a7.55,7.55,0,0,1-.945,0c-1.413-.071-2.716-.294-2.954-2.057a.651.651,0,0,0-.262-.389c-.183-.135-.413-.318-.6-.294s-.365.262-.453.453a3.216,3.216,0,0,0-.159,2.986,6.043,6.043,0,0,1,.246,5.479,2.255,2.255,0,0,0-.127.453.873.873,0,0,0,.508.969c.278.143.627.143.905.286a1.08,1.08,0,0,1,.334,1.771,3.971,3.971,0,0,1-.905.794,9.21,9.21,0,0,0-2.882,2.827,5.469,5.469,0,0,0,.794-.071c.381-.111.794.119.707.365-.262.961.111,1.263,1.008,1.286.2,0,.334.333.238.572s-.278.4-.365.611c-.135.349-.064.58.389.58a8.82,8.82,0,0,1,.921.1c.3.6,1.112.318,1.445.85l.167.111-.222.143a1.631,1.631,0,0,1,.056-.254l-2.549.389a3.287,3.287,0,0,0-2.461,1.945c-.071.135.143.4.222.619-.151.31-.31.611-.468.921h0a3.319,3.319,0,0,0-1.191,3.97,2.783,2.783,0,0,0,2.771-.945c.286-.381.905-.1,1.072.421a1.08,1.08,0,0,1-.588,1.382c-1.485.794-2.787,2.009-4.852,1.914,1.636,1,1.755,1.112,2.176,2.033a.468.468,0,0,1-.1.611.6.6,0,0,1-.437.127c-.691-.135-1.366-.341-2.057-.453a.731.731,0,0,0-.913.794.611.611,0,0,0,.794.659,3.97,3.97,0,0,1,3.287.945c.357.318.254.556-.413.921-.04-.071-.064-.175-.119-.2-.191-.071-.453-.214-.58-.143-.294.183-.048.413.1.54a3.177,3.177,0,0,0,.588.3.421.421,0,0,0,.516.349h0c.119.1.294.167.357.294s.238.492.159.619a.7.7,0,0,1-.619.2,11.465,11.465,0,0,1-1.262-.6,3.883,3.883,0,0,0-1.366-1.223.413.413,0,0,0-.4.087.421.421,0,0,0-.079.4,2.986,2.986,0,0,0,1.183,1.4h0c.143.365.294.73.445,1.1a3.664,3.664,0,0,0,.159.445.794.794,0,0,0,1.421.318c.691-.492,1.588-.921,2.16-.445a13.589,13.589,0,0,0,1.969,1.525c.206,1.3,1.247,1.493,2.263,1.715a.977.977,0,0,1,.889,1.183c-.191.993.286,1.469,1.12,1.795a2.826,2.826,0,0,1,.794.532c.1.087.191.349.143.4a.85.85,0,0,1-.524.341,2.255,2.255,0,0,1-.905-.214c-.5-.23-.969-.54-1.469-.794s-.858-.064-1.128.5c-.373.794-.254,1.032.437,1.588s1.826.492,2.295,1.088c.794,1.04,1.937,1.008,2.946,1.128a2.438,2.438,0,0,1,1.977.993.921.921,0,0,0,1.255.3,2.469,2.469,0,0,1,1.588-.334,1.112,1.112,0,0,1,.564.365c.183.23,0,.476-.175.6-.516.357-1.088.651-1.588,1.008a.794.794,0,0,0-.318.564c0,.159.318.27.492.4a1.938,1.938,0,0,0,1.81.222,3.6,3.6,0,0,1,2.327,0c.127.048.31.23.294.333s-.159.564-.254.564a1.9,1.9,0,0,0-1.922,1.683c-.1.381-.635.683-1.032.937a13.63,13.63,0,0,1-1.294.58.842.842,0,0,0-.445,1.167,22.605,22.605,0,0,0,2.1,3.692,1.509,1.509,0,0,0,1.882.675c.834-.413,1.81-.183,2.581-.794.31-.222.572,0,.731.349a1.175,1.175,0,0,1,.143,1.112c-.254.58-.429,1.183-.667,1.763a.5.5,0,0,1-.794.254c-.206-.111-.373-.286-.572-.4a.516.516,0,0,0-.643,0c-.27.206-.484.492-.349.794.468,1.048.635,2.271,1.771,2.946.381.23.572.794.961,1s.794-.373,1.191-.556a4.391,4.391,0,0,1,2.779-.159.794.794,0,0,1,.294,1.3,8.943,8.943,0,0,1-.7.643c-.858.707-.715,1.3.365,1.675a3.178,3.178,0,0,1,.611.31.238.238,0,0,1,.1.2c-.048.127-.119.326-.214.349-.54.1-1.1.135-1.636.254a.794.794,0,0,0-.524.421,2.867,2.867,0,0,0-.087,2.08c.175.421.794.492,1.278.4a.873.873,0,0,1,.794.365,3.693,3.693,0,0,0,1.667.858c5.916,2.025,11.807,4.129,17.755,6.043q23.178,7.472,46.848,13.245l6.694,1.588a.635.635,0,0,0,.858-.548,17.064,17.064,0,0,1-2.382-8.6,1.818,1.818,0,0,1,1.135-1.834c4.621-2.382,6.829-6.416,7.464-11.434a7.345,7.345,0,0,0-.437-3.51,1.4,1.4,0,0,1,.516-1.866,1.715,1.715,0,0,0,1.032-1.453,4.05,4.05,0,0,0-.715-2.692,5.162,5.162,0,0,0-2.318-1.493Zm-98.548-46.5v0Z" transform="translate(-126.625 -8.383)" fill="#bec0c2" stroke="#bec0c2" stroke-miterlimit="10" stroke-width="0.794"/>
      </g>
      <text id="Vancouver" transform="translate(51.009 309.653)" fill="#404041" font-size="11" font-family="Muli-ExtraBold, Muli" font-weight="800"><tspan x="0" y="0" letter-spacing="-0.059em">V</tspan><tspan y="0">ancou</tspan><tspan y="0" letter-spacing="-0.009em">v</tspan><tspan y="0">er</tspan></text>
      <circle id="Ellipse_17" data-name="Ellipse 17" cx="1.58" cy="1.58" r="1.58" transform="translate(108.958 308.144)" fill="#404041" stroke="#404041" stroke-miterlimit="10" stroke-width="0.794"/>
    </g>
    <g id="outline_pacific-2" data-name="outline_pacific" transform="translate(91.974 0.255)">
      <g id="west-2" data-name="west" transform="translate(0 0)">
        <rect id="Rectangle_472" data-name="Rectangle 472" width="149.001" height="241.172" transform="translate(0 85.568)" fill="#52a79b"/>
        <path id="Path_260" data-name="Path 260" d="M292.412,165.3c1.429.667,2.859,1.342,4.288,1.993a9.447,9.447,0,0,1,1.668.977l.754.357a7.225,7.225,0,0,1,.683-4.637c1.493-3.311,1.08-3.224-1.818-4.963s-4.129.564-5.725,1.532c-.794.492-1.294-.794-5.558-3.176s-1.588-8.472-1.032-13.5-7.107-9.179-7.686-17.691,8.02-15.793,6.281-18.517-.167-8.02,1.326-10.91-3.391-2.731-5.622-6.289,3.549-3.8,3.176-8.846.6-5.415.6-5.415,6.178-3.176,1.882-7.313-2.382-2.724.492-6.281,3.6-9.9,3.6-11.013-7.353-5.368-8.734-6.606-.413-2.811.993-3.97,2.144-4.875,1.731-8.512,9.092-8.734,9.092-8.734l-1.667-2.176a9.566,9.566,0,0,1-1.207-1.469c-.961-1.8-1.858-3.653-2.771-5.495a2.8,2.8,0,0,1,.064-2.509,9.528,9.528,0,0,0,.071-6.948A7.6,7.6,0,0,0,283.153.5c-1.771-.794-2.382-.691-3.7.746-.27.294-.548.572-.794.873q-10.815,12.173-21.614,24.361c-6.5,7.361-12.887,14.809-19.486,22.114q-22.6,24.9-45.339,49.659l-.111.127C237.139,133.851,270.337,154,292.412,165.3Z" transform="translate(-126.625 -0.006)" fill="#bec0c2" stroke="#bec0c2" stroke-miterlimit="10" stroke-width="0.794"/>
        <path id="Path_261" data-name="Path 261" d="M211.825,308.4c.333-1.016.159-1.755-.921-2.088-.683-.214-.691-.611-.532-1.278.294-1.183,0-1.533-1.191-1.834a1.216,1.216,0,0,0-.23-.056,3.041,3.041,0,0,1-2.668-1.588,3.256,3.256,0,0,1,2.1-2.08c.588-.206.6-.7.206-1.128a1.779,1.779,0,0,1-.476-1.533,2.723,2.723,0,0,0-.889-2.334,1.731,1.731,0,0,0-2.064-.715c-.445.167-.961.183-1.207-.381a1.35,1.35,0,0,1,.2-1.548c.453-.492,1.39-.794,1.024-1.636-.286-.667-1.128-.357-1.731-.429a.873.873,0,0,1-.905-.881.794.794,0,0,0-.723-.794,8.132,8.132,0,0,0-2.1-.326.548.548,0,0,1-.333-1,1.961,1.961,0,0,0,.794-2.462c-.135-.5.31-.873.794-.929a5.511,5.511,0,0,1,2.088.389,1.072,1.072,0,0,0,1.12-.119c.437-.389.3-.866.127-1.3a2.24,2.24,0,0,0-.532-.794c-.246-.254-.6-.3-.715.111a.794.794,0,0,1-1.04.651l-.23-.048c-2.223-.58-2.319-.683-2.565-3.017-.048-.468-.1-.937-.143-1.413-.079-.913.206-1.191,1.048-.993.461.1.929.413,1.358.349,1.382-.206,2.231.556,3.065,1.445.651.691,1.326,1.358,2.033,1.993a4.026,4.026,0,0,1,1.262,1.683,5.94,5.94,0,0,0,1.826,2.446,55.72,55.72,0,0,0,6.352,4.994c1.453.937,2.66,2.231,4.081,3.24a3.621,3.621,0,0,1,1.437,3.1,16.31,16.31,0,0,0,.794,5.328,3.7,3.7,0,0,1,.111,3.224,2.311,2.311,0,0,0,.064,2.065,9.949,9.949,0,0,0,2.041,3.176c.913,1,1.842,1.969,2.811,2.906a4.883,4.883,0,0,1,1.588,4.661,8.854,8.854,0,0,0,.945,6.162c.4.643.175,1.39.31,2.088.079.421-.048.834-.611.723a2.1,2.1,0,0,0-1.548.445,2.2,2.2,0,0,1-2.652-.278,32.8,32.8,0,0,1-2.676-2.382,12.006,12.006,0,0,0-2.517-2.144,1.12,1.12,0,0,1-.715-1.112.794.794,0,0,0-.524-.707c-.214-.111-.468-.143-.659-.27-.794-.58-.794-1.818-1.517-2.327a5.026,5.026,0,0,1-1.668-1.906c-.357-.691-.1-1.318.7-1.39a12.636,12.636,0,0,0,3.97-1.525,1.2,1.2,0,0,0,.746-.865.31.31,0,0,0,0-.206.214.214,0,0,0-.159-.167c-.064-.008-.135.071-.2.119-1.318,1.167-2.835,1.135-4.462.889-.794-.111-.945-.794-1.517-1.016s-1.112.611-1.771.429a.913.913,0,0,1-.572-.381,10.108,10.108,0,0,0-1.525-2.668.794.794,0,0,1,.1-1.072c.246-.2.58,0,.842.222a2.724,2.724,0,0,0,.548.286Z" transform="translate(-126.625 -8.383)" fill="#bec0c2" stroke="#bec0c2" stroke-miterlimit="10" stroke-width="0.794"/>
        <path id="Path_262" data-name="Path 262" d="M189.147,224.9a2.247,2.247,0,0,0,1.922-.794c.794-.865,1.771-1.588,2.049-2.843a.738.738,0,0,1,1.1-.54,3.248,3.248,0,0,0,2.914.484c.262-.087.437.135.54.357a.484.484,0,0,1-.183.619c-1.247.794-2.1,2.1-3.653,2.557a4.343,4.343,0,0,0-2.438,2.16c-.389.683-.929,1.278-1.366,1.93a2.708,2.708,0,0,1-2.573,1.382,2.326,2.326,0,0,0-.7.1c-.516.119-.961.7-1.54.334a4.224,4.224,0,0,1-1.993-1.945c-.468-1.207-.3-1.588,1.072-1.985.516-.159.611-.389.318-.794s-.707-.85-1.032-1.3a1.588,1.588,0,0,1-.087-2.16,1.644,1.644,0,0,0,.357-.858,7.377,7.377,0,0,1,2.279-4.574c.484-.508.746-1.445,1.437-1.493.929-.071,1.358.953,2.025,1.485.27.214.206.516.183.85-.056.834.127,1.04.794,1.048.31,0,.627-.111.937-.1a.794.794,0,0,1,.842.691,2.787,2.787,0,0,1-2.057,3.462,8.607,8.607,0,0,1-2.581.341c-.246,0-.492.119-.5.365a1.429,1.429,0,0,0,.23.659C187.837,225.077,188.536,224.855,189.147,224.9Z" transform="translate(-126.625 -5.543)" fill="#bec0c2" stroke="#bec0c2" stroke-miterlimit="10" stroke-width="0.794"/>
        <path id="Path_263" data-name="Path 263" d="M184.4,243.451c.278-1.787-.453-3.343-.754-4.955a6.71,6.71,0,0,1,.238-2.009c0-.611-1-.643-1.016-1.461,0-1.024.056-1.31,1.08-1.731a2.611,2.611,0,0,0,.437-.167c.119-.087.31-.27.278-.341a.993.993,0,0,0-.4-.548,6.65,6.65,0,0,0-.913-.206c-.246-.087-.723-.056-.492-.548a.659.659,0,0,1,.794-.341,10.775,10.775,0,0,0,4.693.294c.619-.1,1.024.286,1.191.913a3.463,3.463,0,0,1,.111.7c0,.381.381.794.056,1.128-.461.476-.794-.079-1.239-.23-1.1-.4-1.675-.206-2.041.865a19.493,19.493,0,0,0-.985,5.312,2.318,2.318,0,0,0,.341,1.358,4.335,4.335,0,0,1,.492,3.176c-.175.746-.064,1.421.881,1.636a.643.643,0,0,1,.516.889.921.921,0,0,1-1.143.6,2.255,2.255,0,0,1-1.858-1.588,7.94,7.94,0,0,1-.262-2.739Z" transform="translate(-126.625 -5.971)" fill="#bec0c2" stroke="#bec0c2" stroke-miterlimit="10" stroke-width="0.794"/>
        <path id="Path_264" data-name="Path 264" d="M207.847,249.16c.27-1.437.421-3.081,1.81-4.3a11.282,11.282,0,0,0,1.429-1.882c.365-.484.985-.492,1.1,0a8.662,8.662,0,0,0,1.429,3.176,1.255,1.255,0,0,1,.1,1.143,11.752,11.752,0,0,1-2.469,4.3.794.794,0,0,1-1.4-.056c-.31-.468-.5-.945-1.175-1.008S207.894,249.931,207.847,249.16Z" transform="translate(-126.625 -6.129)" fill="#bec0c2" stroke="#bec0c2" stroke-miterlimit="10" stroke-width="0.794"/>
        <path id="Path_265" data-name="Path 265" d="M208.887,238.155a9.68,9.68,0,0,1,.135,1.175,1.366,1.366,0,0,1-1.453,1.263c-.2,0-.532-.167-.572-.31-.262-.945-.921-1.779-.389-2.922s.079-2.5-.087-3.732a15.687,15.687,0,0,1-.111-2.382c0-.341.111-.659.484-.675s.524.31.627.611a30.856,30.856,0,0,1,1.366,6.972Z" transform="translate(-126.625 -5.837)" fill="#bec0c2" stroke="#bec0c2" stroke-miterlimit="10" stroke-width="0.794"/>
        <path id="Path_266" data-name="Path 266" d="M205.5,238.3c0,1.477-.23,1.93-.754,2.057a1.437,1.437,0,0,1-1.588-1.135,4.05,4.05,0,0,1-.175-1.151,3.415,3.415,0,0,0-.421-1.818c-.588-.921-.437-1.969-.588-2.97,0-.294.056-.675.445-.715a2.5,2.5,0,0,1,.9.119.611.611,0,0,1,.333.326A19.658,19.658,0,0,1,205.5,238.3Z" transform="translate(-126.625 -5.848)" fill="#bec0c2" stroke="#bec0c2" stroke-miterlimit="10" stroke-width="0.794"/>
        <path id="Path_267" data-name="Path 267" d="M212.563,263.842c-.23-.111-.445-.326-.333-.532a3.367,3.367,0,0,1,2.446-2.017,22.867,22.867,0,0,0,4.137-.794,1.342,1.342,0,0,1,.9.143c.167.079.27.365.318.572a.477.477,0,0,1-.254.357,1.962,1.962,0,0,1-.889.238,7.488,7.488,0,0,0-5.447,1.81A.9.9,0,0,1,212.563,263.842Z" transform="translate(-126.625 -6.464)" fill="#bec0c2" stroke="#bec0c2" stroke-miterlimit="10" stroke-width="0.794"/>
        <path id="Path_268" data-name="Path 268" d="M206.942,228.4a1.453,1.453,0,0,1-1.445,1.461c-.135,0-.381-.071-.4-.151-.2-.945-.842-1.151-1.707-1.135-.365,0-.524-.564-.326-.913a1.81,1.81,0,0,1,1.715-.985,5.169,5.169,0,0,1,.913.183C206.807,227.094,206.894,227.205,206.942,228.4Z" transform="translate(-126.625 -5.622)" fill="#bec0c2" stroke="#bec0c2" stroke-miterlimit="10" stroke-width="0.794"/>
        <path id="Path_269" data-name="Path 269" d="M207.18,296.89a3.97,3.97,0,0,1-.079.635c-.246.651-.4,1.382-1.183,1.588-.461.135-.865-.453-1.1-1.54-.04-.151-.048-.3-.087-.453-.087-.373-.341-.794,0-1.088s.683-.889,1.27-.969a.691.691,0,0,1,.794.413A12.926,12.926,0,0,1,207.18,296.89Z" transform="translate(-126.625 -8.383)" fill="#bec0c2" stroke="#bec0c2" stroke-miterlimit="10" stroke-width="0.794"/>
        <path id="Path_270" data-name="Path 270" d="M228.8,308.642c-.151.2-.222.381-.334.413a.453.453,0,0,1-.421-.1c-.588-.929-1.143-1.874-1.7-2.819-.318-.54-.619-1.088-.9-1.644a.437.437,0,0,1,.135-.4,1.263,1.263,0,0,1,.627-.191.683.683,0,0,1,.413.191C227.984,305.338,228.206,307.1,228.8,308.642Z" transform="translate(-126.625 -8.383)" fill="#bec0c2" stroke="#bec0c2" stroke-miterlimit="10" stroke-width="0.794"/>
        <path id="Path_271" data-name="Path 271" d="M207.331,250.915v1.128a.79.79,0,0,1-.707.794.707.707,0,0,1-.627-.619,7.734,7.734,0,0,1,.222-3.9.437.437,0,0,1,.365-.23.556.556,0,0,1,.341.278A8.956,8.956,0,0,1,207.331,250.915Z" transform="translate(-126.625 -6.181)" fill="#bec0c2" stroke="#bec0c2" stroke-miterlimit="10" stroke-width="0.794"/>
        <path id="Path_272" data-name="Path 272" d="M209.467,264.724c-.341,0-.9-.985-.731-1.318a3.311,3.311,0,0,1,1.588-1.66.931.931,0,0,1,1.167,1.183,3.287,3.287,0,0,1-1.771,1.763A.731.731,0,0,1,209.467,264.724Z" transform="translate(-126.625 -6.487)" fill="#bec0c2" stroke="#bec0c2" stroke-miterlimit="10" stroke-width="0.794"/>
        <path id="Path_273" data-name="Path 273" d="M216.025,284.392a9.528,9.528,0,0,1,1.2.214.8.8,0,0,1-.2,1.572,4.05,4.05,0,0,1-2.168-.746.508.508,0,0,1-.151-.4.532.532,0,0,1,.278-.349A10.156,10.156,0,0,1,216.025,284.392Z" transform="translate(-126.625 -8.383)" fill="#bec0c2" stroke="#bec0c2" stroke-miterlimit="10" stroke-width="0.794"/>
        <path id="Path_274" data-name="Path 274" d="M208.037,266.994a.889.889,0,0,1,.683.564,1.588,1.588,0,0,1-.191,1.366c-.222.389-.3,1.032-.858,1.016s-.381-.723-.58-1.1c-.373-.715,0-1.2.532-1.628A2.025,2.025,0,0,1,208.037,266.994Z" transform="translate(-126.625 -6.616)" fill="#bec0c2" stroke="#bec0c2" stroke-miterlimit="10" stroke-width="0.794"/>
        <path id="Path_275" data-name="Path 275" d="M213.691,239.251c-.349,0-.794.048-.953-.437-.119-.349.326-.953.794-1a16.544,16.544,0,0,1,1.882,0c.278,0,.357.516.191.794C215.184,239.33,214.39,239.2,213.691,239.251Z" transform="translate(-126.625 -5.868)" fill="#bec0c2" stroke="#bec0c2" stroke-miterlimit="10" stroke-width="0.794"/>
        <path id="Path_276" data-name="Path 276" d="M209.252,252.884a2.159,2.159,0,0,1,1.342.278.929.929,0,0,1,.159,1.255.723.723,0,0,1-1.016.27,6.351,6.351,0,0,1-1.08-.881.794.794,0,0,1-.191-.611c.048-.143.357-.206.556-.286a.706.706,0,0,1,.23-.024Z" transform="translate(-126.625 -6.248)" fill="#bec0c2" stroke="#bec0c2" stroke-miterlimit="10" stroke-width="0.794"/>
        <path id="Path_277" data-name="Path 277" d="M207.8,243.642c-.064.357-.127.794-.246,1.255,0,.1-.214.175-.341.246a.243.243,0,0,1-.349-.167,13.43,13.43,0,0,1-.222-1.358c-.079-1.334.127-1.9.58-1.691C207.966,242.268,207.656,242.975,207.8,243.642Z" transform="translate(-126.625 -6.001)" fill="#bec0c2" stroke="#bec0c2" stroke-miterlimit="10" stroke-width="0.794"/>
        <path id="Path_278" data-name="Path 278" d="M231.064,319.647a2.573,2.573,0,0,1,0-.7.929.929,0,0,1,.365-.516.419.419,0,0,1,.588.214,11.357,11.357,0,0,1,.651,1.231.619.619,0,0,1-.175.794c-.429.294-.707,0-.945-.326a9.44,9.44,0,0,1-.516-.794Z" transform="translate(-126.625 -8.383)" fill="#bec0c2" stroke="#bec0c2" stroke-miterlimit="10" stroke-width="0.794"/>
        <path id="Path_279" data-name="Path 279" d="M225.752,297.581c.056-.294,0-.484.119-.6a.985.985,0,0,1,.516-.4.794.794,0,0,1,.611.246,1.453,1.453,0,0,1-.206,1.922.54.54,0,0,1-.794-.175C225.879,298.216,225.808,297.827,225.752,297.581Z" transform="translate(-126.625 -8.383)" fill="#bec0c2" stroke="#bec0c2" stroke-miterlimit="10" stroke-width="0.794"/>
        <path id="Path_280" data-name="Path 280" d="M205.8,232.573a2.629,2.629,0,0,1-.151.667.953.953,0,0,1-.437.492c-.23.1-.389-.111-.516-.31a2.263,2.263,0,0,1-.357-1.326.794.794,0,0,1,.723-.794.643.643,0,0,1,.635.564,6.161,6.161,0,0,1,.1.707Z" transform="translate(-126.625 -5.724)" fill="#bec0c2" stroke="#bec0c2" stroke-miterlimit="10" stroke-width="0.794"/>
        <path id="Path_281" data-name="Path 281" d="M186.932,249.55a13.605,13.605,0,0,1-.794,1.4c-.135.183-.484.087-.6-.143a1.382,1.382,0,0,1,.723-1.937.643.643,0,0,1,.667.683Z" transform="translate(-126.625 -6.154)" fill="#bec0c2" stroke="#bec0c2" stroke-miterlimit="10" stroke-width="0.794"/>
        <path id="Path_282" data-name="Path 282" d="M231.064,319.607c0,.635.071,1.263.071,1.89a.565.565,0,0,1-.588.58.79.79,0,0,1-.794-.667c0-.357.206-.921.27-1.39.111-.842.667-.365,1.056-.373Z" transform="translate(-126.625 -8.383)" fill="#bec0c2" stroke="#bec0c2" stroke-miterlimit="10" stroke-width="0.794"/>
        <path id="Path_283" data-name="Path 283" d="M213.381,252.225a3.319,3.319,0,0,1-.58,1.652.619.619,0,0,1-.834.151.429.429,0,0,1-.222-.58c.254-.564.54-1.12.85-1.66.048-.1.27-.143.4-.127C213.262,251.709,213.373,251.884,213.381,252.225Z" transform="translate(-126.625 -6.228)" fill="#bec0c2" stroke="#bec0c2" stroke-miterlimit="10" stroke-width="0.794"/>
        <path id="Path_284" data-name="Path 284" d="M210.419,242.181a2.382,2.382,0,0,1-1.175,1.588.373.373,0,0,1-.548-.246,1.961,1.961,0,0,1,.794-1.826c.127-.1.437,0,.635.056S210.34,242.062,210.419,242.181Z" transform="translate(-126.625 -5.975)" fill="#bec0c2" stroke="#bec0c2" stroke-miterlimit="10" stroke-width="0.794"/>
        <path id="Path_285" data-name="Path 285" d="M213.7,217.264c.159.071.357.1.413.206a.445.445,0,0,1-.087.429,11.052,11.052,0,0,1-1.294.977.389.389,0,0,1-.6-.159.794.794,0,0,1,0-.643,1.906,1.906,0,0,1,1.564-.81Z" transform="translate(-126.625 -5.365)" fill="#bec0c2" stroke="#bec0c2" stroke-miterlimit="10" stroke-width="0.794"/>
        <path id="Path_286" data-name="Path 286" d="M222.33,296.588c.071-.468,0-.905.437-1.1.326-.127.683.453.643,1.064a1.469,1.469,0,0,1-.365,1.088.937.937,0,0,1-.421.167.5.5,0,0,1-.135-.175A9.876,9.876,0,0,0,222.33,296.588Z" transform="translate(-126.625 -8.383)" fill="#bec0c2" stroke="#bec0c2" stroke-miterlimit="10" stroke-width="0.794"/>
        <path id="Path_287" data-name="Path 287" d="M187.813,240.005a.7.7,0,0,1-.858.524c-.492-.087-.707-.413-.635-1.008.048-.4.222-.794.683-.746S187.853,239.481,187.813,240.005Z" transform="translate(-126.625 -5.897)" fill="#bec0c2" stroke="#bec0c2" stroke-miterlimit="10" stroke-width="0.794"/>
        <path id="Path_288" data-name="Path 288" d="M188.306,235.281a1.088,1.088,0,0,1-.524.985.619.619,0,0,1-.842-.151,1.183,1.183,0,0,1,.738-1.66C188.012,234.391,188.329,234.812,188.306,235.281Z" transform="translate(-126.625 -5.793)" fill="#bec0c2" stroke="#bec0c2" stroke-miterlimit="10" stroke-width="0.794"/>
        <path id="Path_289" data-name="Path 289" d="M212.627,240.593c.246.087.4.222.4.492a.85.85,0,0,1-.6.9.929.929,0,0,1-1.048-.3.389.389,0,0,1,0-.6A1.636,1.636,0,0,1,212.627,240.593Z" transform="translate(-126.625 -5.936)" fill="#bec0c2" stroke="#bec0c2" stroke-miterlimit="10" stroke-width="0.794"/>
        <path id="Path_290" data-name="Path 290" d="M215.342,287.084a4.457,4.457,0,0,1,.731.326c.1.056.1.27.1.421s-.087.127-.151.167a1.588,1.588,0,0,1-1.366,0,.5.5,0,0,1-.4-.516c0-.262.238-.365.484-.4Z" transform="translate(-126.625 -8.383)" fill="#bec0c2" stroke="#bec0c2" stroke-miterlimit="10" stroke-width="0.794"/>
        <path id="Path_291" data-name="Path 291" d="M224.045,294.952a2.779,2.779,0,0,1-.651-.254.445.445,0,0,1-.143-.389c.127-.484.548-.508.937-.492a.667.667,0,0,1,.683.524c.04.191,0,.334-.159.4S224.275,294.881,224.045,294.952Z" transform="translate(-126.625 -8.383)" fill="#bec0c2" stroke="#bec0c2" stroke-miterlimit="10" stroke-width="0.794"/>
        <path id="Path_292" data-name="Path 292" d="M315.788,307.808c-.961-.373-1.953-.643-2.93-.977a1.795,1.795,0,0,1-1.382-2.382c.119-.619.381-1.2.564-1.81.453-1.588.27-2.112-1.151-2.938a31.858,31.858,0,0,1-4.081-2.859,11.116,11.116,0,0,1-2.835-3.486,4.161,4.161,0,0,1,0-4.28,7.377,7.377,0,0,0-1.183-8.981,3.47,3.47,0,0,0-2.874-1.4,2.057,2.057,0,0,1-2.088-1.278c-.286-.564-.516-1.159-.754-1.739a12.765,12.765,0,0,0-.738-1.755c-.683-1.128-1.644-2.144-1.056-3.629a16.2,16.2,0,0,0-.834-2.223,3.518,3.518,0,0,1-.079-3.176c2.795-7.5,5.519-15.031,8.274-22.551q10.457-28.474,20.9-56.972l2.454-6.225s-9.02-1.906-27.609-10.918a9.448,9.448,0,0,0-1.667-.977c-1.429-.651-2.859-1.326-4.288-1.993-22.1-11.323-55.336-31.491-100.446-67.032,0,0-2.851,3.1-1.239,4.709l.087.087c.254,1.906.548,3.811.7,5.725a1.755,1.755,0,0,0,1.509,1.795,23.37,23.37,0,0,1,2.271.7c.794.3,1.707.31,2.382,1.032-.429,1.159-1.779,1.715-2.2,3.121,1.183-.087,2.215-.175,3.1.54s1.795.913,2.43,1.842a12.451,12.451,0,0,1-1.175.993,2.668,2.668,0,0,0-1.215,2.628,9.48,9.48,0,0,0,.492,2.533c.27.866-.548,1.652-.318,2.549v.238c.333,2.382.588,4.717,1.024,7.043a6.106,6.106,0,0,1-.238,3.256q-.326.9-.572,1.81c-.159.556-.675,1.008-.58,1.731.516-.048.905-.079,1.286-.127a9.006,9.006,0,0,1,4.685.246,2.692,2.692,0,0,0,3.033-.643,5.6,5.6,0,0,0,.794-.873,1.175,1.175,0,0,1,1.223-.556,1.1,1.1,0,0,0,1.469-.794.683.683,0,0,1,.953-.421,10.759,10.759,0,0,0,3.216.723c2.541.071,2.747-.373,3.279,2.866.064.389.143.794.191,1.175a1.54,1.54,0,0,1-.476,1.5,2.16,2.16,0,0,0-.746,2.382c.4,1.048.27,2.2.794,3.176a1.866,1.866,0,0,1-.119,2.382.953.953,0,0,0-.143.675,10.148,10.148,0,0,0,.445,2.8c.913,2.057.913,4.327,1.628,6.424a1.151,1.151,0,0,1,0,.905c-.794.969-.334,2.144-.619,3.176a9.728,9.728,0,0,0-.4,3.3c.326,3.732-.572,7.424-.333,11.117a1.541,1.541,0,0,1-.445,1.3c-.389.373-.953.715-1.112,1.183-.222.675.651.993.873,1.588.056.143.1.294.159.508-.326.4-.691.794-1.024,1.239a.937.937,0,0,0-.071,1.3c.627.635.421,1.255.151,1.945-.5,1.247-.524,1.31.58,2.112A3.351,3.351,0,0,1,219,192.816a9.831,9.831,0,0,0,2.787,4.073c.222.214.619.492.588.691-.191,1.374,1.834,2.033,1.1,3.565-.056.119.167.437.333.588a6.711,6.711,0,0,0,.794.516c1.064.691,1.143.945.858,2.12a2.461,2.461,0,0,1-1.509,1.969,3.97,3.97,0,0,0-2.192,2.382,10.614,10.614,0,0,0-.794,2.215,2.279,2.279,0,0,0-.326.588,1.921,1.921,0,0,0,.079.659,3.542,3.542,0,0,0,.588-.254,1.311,1.311,0,0,0,.294-.357h0c.127.087.318.135.373.254.723,1.461.675,1.588-.58,2.5-.588.413-1.135.858-1.723,1.263-.85.58-1.787,1.032-2.136,2.128-.143.437-.611.445-1.008.453a2.207,2.207,0,0,0-2.382,1.588c-.159.492-.627.611-1.12.746-1.247.341-1.318.508-1.278,1.81a9.253,9.253,0,0,1,0,.937.381.381,0,0,1-.468.389.429.429,0,0,1-.3-.27c-.064-.31-.04-.627-.079-.945-.071-.508.206-1.128-.58-1.588a2.882,2.882,0,0,1-.929,2.057.365.365,0,0,0-.056.6,1.31,1.31,0,0,1,.4,1.469,2.5,2.5,0,0,0,.572,2.422.635.635,0,0,1-.222,1.008c-1.469.834-1.517,2.072-1.12,3.494a15.626,15.626,0,0,1,.635,3.708,15.555,15.555,0,0,0,.715,3.224c.063.254.635.357.794.151.3-.357.58-.746.858-1.12a4.716,4.716,0,0,1,3.113-1.977,9.878,9.878,0,0,0,3.867-.961.842.842,0,0,1,.675.048.607.607,0,0,1,.222.794c-.246.834-.373,1.54-1.628,1.588s-2.176,2.223-1.588,3.383a1.54,1.54,0,0,0,.794.794c.365.151.754.246,1.112.421a4.2,4.2,0,0,1,.993.6.937.937,0,0,1,.183.627c0,.079-.222.214-.357.222a7.55,7.55,0,0,1-.945,0c-1.413-.071-2.716-.294-2.954-2.057a.651.651,0,0,0-.262-.389c-.183-.135-.413-.318-.6-.294s-.365.262-.453.453a3.216,3.216,0,0,0-.159,2.986,6.043,6.043,0,0,1,.246,5.479,2.255,2.255,0,0,0-.127.453.873.873,0,0,0,.508.969c.278.143.627.143.905.286a1.08,1.08,0,0,1,.334,1.771,3.971,3.971,0,0,1-.905.794,9.21,9.21,0,0,0-2.882,2.827,5.469,5.469,0,0,0,.794-.071c.381-.111.794.119.707.365-.262.961.111,1.263,1.008,1.286.2,0,.334.333.238.572s-.278.4-.365.611c-.135.349-.064.58.389.58a8.82,8.82,0,0,1,.921.1c.3.6,1.112.318,1.445.85l.167.111-.222.143a1.631,1.631,0,0,1,.056-.254l-2.549.389a3.287,3.287,0,0,0-2.461,1.945c-.071.135.143.4.222.619-.151.31-.31.611-.468.921h0a3.319,3.319,0,0,0-1.191,3.97,2.783,2.783,0,0,0,2.771-.945c.286-.381.905-.1,1.072.421a1.08,1.08,0,0,1-.588,1.382c-1.485.794-2.787,2.009-4.852,1.914,1.636,1,1.755,1.112,2.176,2.033a.468.468,0,0,1-.1.611.6.6,0,0,1-.437.127c-.691-.135-1.366-.341-2.057-.453a.731.731,0,0,0-.913.794.611.611,0,0,0,.794.659,3.97,3.97,0,0,1,3.287.945c.357.318.254.556-.413.921-.04-.071-.064-.175-.119-.2-.191-.071-.453-.214-.58-.143-.294.183-.048.413.1.54a3.177,3.177,0,0,0,.588.3.421.421,0,0,0,.516.349h0c.119.1.294.167.357.294s.238.492.159.619a.7.7,0,0,1-.619.2,11.465,11.465,0,0,1-1.262-.6,3.883,3.883,0,0,0-1.366-1.223.413.413,0,0,0-.4.087.421.421,0,0,0-.079.4,2.986,2.986,0,0,0,1.183,1.4h0c.143.365.294.73.445,1.1a3.664,3.664,0,0,0,.159.445.794.794,0,0,0,1.421.318c.691-.492,1.588-.921,2.16-.445a13.589,13.589,0,0,0,1.969,1.525c.206,1.3,1.247,1.493,2.263,1.715a.977.977,0,0,1,.889,1.183c-.191.993.286,1.469,1.12,1.795a2.826,2.826,0,0,1,.794.532c.1.087.191.349.143.4a.85.85,0,0,1-.524.341,2.255,2.255,0,0,1-.905-.214c-.5-.23-.969-.54-1.469-.794s-.858-.064-1.128.5c-.373.794-.254,1.032.437,1.588s1.826.492,2.295,1.088c.794,1.04,1.937,1.008,2.946,1.128a2.438,2.438,0,0,1,1.977.993.921.921,0,0,0,1.255.3,2.469,2.469,0,0,1,1.588-.334,1.112,1.112,0,0,1,.564.365c.183.23,0,.476-.175.6-.516.357-1.088.651-1.588,1.008a.794.794,0,0,0-.318.564c0,.159.318.27.492.4a1.938,1.938,0,0,0,1.81.222,3.6,3.6,0,0,1,2.327,0c.127.048.31.23.294.333s-.159.564-.254.564a1.9,1.9,0,0,0-1.922,1.683c-.1.381-.635.683-1.032.937a13.63,13.63,0,0,1-1.294.58.842.842,0,0,0-.445,1.167,22.605,22.605,0,0,0,2.1,3.692,1.509,1.509,0,0,0,1.882.675c.834-.413,1.81-.183,2.581-.794.31-.222.572,0,.731.349a1.175,1.175,0,0,1,.143,1.112c-.254.58-.429,1.183-.667,1.763a.5.5,0,0,1-.794.254c-.206-.111-.373-.286-.572-.4a.516.516,0,0,0-.643,0c-.27.206-.484.492-.349.794.468,1.048.635,2.271,1.771,2.946.381.23.572.794.961,1s.794-.373,1.191-.556a4.391,4.391,0,0,1,2.779-.159.794.794,0,0,1,.294,1.3,8.943,8.943,0,0,1-.7.643c-.858.707-.715,1.3.365,1.675a3.178,3.178,0,0,1,.611.31.238.238,0,0,1,.1.2c-.048.127-.119.326-.214.349-.54.1-1.1.135-1.636.254a.794.794,0,0,0-.524.421,2.867,2.867,0,0,0-.087,2.08c.175.421.794.492,1.278.4a.873.873,0,0,1,.794.365,3.693,3.693,0,0,0,1.667.858c5.916,2.025,11.807,4.129,17.755,6.043q23.178,7.472,46.848,13.245l6.694,1.588a.635.635,0,0,0,.858-.548,17.064,17.064,0,0,1-2.382-8.6,1.818,1.818,0,0,1,1.135-1.834c4.621-2.382,6.829-6.416,7.464-11.434a7.345,7.345,0,0,0-.437-3.51,1.4,1.4,0,0,1,.516-1.866,1.715,1.715,0,0,0,1.032-1.453,4.05,4.05,0,0,0-.715-2.692,5.162,5.162,0,0,0-2.318-1.493Zm-98.548-46.5v0Z" transform="translate(-126.625 -8.383)" fill="#bec0c2" stroke="#bec0c2" stroke-miterlimit="10" stroke-width="0.794"/>
      </g>
      <text id="Vancouver-2" data-name="Vancouver" transform="translate(51.009 309.653)" fill="#404041" font-size="11" font-family="Muli-ExtraBold, Muli" font-weight="800"><tspan x="0" y="0" letter-spacing="-0.059em">V</tspan><tspan y="0">ancou</tspan><tspan y="0" letter-spacing="-0.009em">v</tspan><tspan y="0">er</tspan></text>
      <circle id="Ellipse_18" data-name="Ellipse 18" cx="1.58" cy="1.58" r="1.58" transform="translate(108.958 308.144)" fill="#404041" stroke="#404041" stroke-miterlimit="10" stroke-width="0.794"/>
    </g>
    <text id="Pacific_RA" data-name="Pacific RA" transform="translate(19.271 32.631)" fill="#404041" font-size="32" font-family="Quicksand-Light, Quicksand" font-weight="300"><tspan x="0" y="0">Pacific RA</tspan></text>
  </g>
</svg>
