<?xml version="1.0" encoding="utf-8"?>
<!-- Generator: Adobe Illustrator 25.2.3, SVG Export Plug-In . SVG Version: 6.00 Build 0)  -->
<svg version="1.1" id="Layer_1" xmlns="http://www.w3.org/2000/svg" xmlns:xlink="http://www.w3.org/1999/xlink" x="0px" y="0px"
	 viewBox="0 0 100 100" style="enable-background:new 0 0 100 100;" xml:space="preserve">
<style type="text/css">
	.st0{fill:#e55162;}
</style>
<g>
	<path class="st0" d="M77.9,70.6c-0.6,2.6-2.5,4.3-4.2,3.9s-2.7-2.8-2.1-5.4s3.1-4,5.2-8C76.7,65.6,78.5,68,77.9,70.6z"/>
</g>
<g>
	<path class="st0" d="M96.3,67.5c-0.6,2.6-2.5,4.3-4.2,3.9C90.4,71,89.4,68.6,90,66c0.6-2.6,3.1-4,5.2-8
		C95.1,62.5,96.9,64.9,96.3,67.5z"/>
</g>
<g>
	<path class="st0" d="M91.8,52.1c-0.6,2.6-2.5,4.3-4.2,3.9s-2.7-2.8-2.1-5.4c0.6-2.6,3.1-4,5.2-8C90.6,47.1,92.4,49.6,91.8,52.1z"/>
</g>
<g>
	<path class="st0" d="M72.2,52.1c-0.6,2.6-2.5,4.3-4.2,3.9c-1.7-0.4-2.7-2.8-2.1-5.4c0.6-2.6,3.1-4,5.2-8
		C71,47.1,72.8,49.6,72.2,52.1z"/>
</g>
<g>
	<path class="st0" d="M100,80c-4.5,2.1-6.3,6.5-13.4,6.5c-9.4,0-9.4-7.6-18.8-7.6c-9.4,0-9.4,7.6-18.8,7.6s-9.4-7.6-18.8-7.6
		c-9.4,0-9.4,7.6-18.8,7.6c-5.9,0-8.1-2.9-11.2-5.2V100h100V80z"/>
</g>
<g>
	<path class="st0" d="M45.5,72.8H0v-3.1h45.5c2.9,0,5.2-0.8,6.7-2.3c1.3-1.2,2-2.9,2-4.8c0-3.4-2.4-6.9-7.1-6.9
		c-1.6,0-2.8,0.4-3.6,1.3c-0.7,0.7-1,1.6-1,2.6c0,0.8,0.4,2.4,1.7,2.4v3.1c-2.7,0-4.8-2.3-4.8-5.4c0-1.8,0.7-3.5,1.9-4.7
		c1-1,2.8-2.2,5.8-2.2c6.6,0,10.1,5.1,10.1,9.9c0,2.7-1,5.2-2.9,7C52.2,71.7,49.1,72.8,45.5,72.8z"/>
</g>
<g>
	<path class="st0" d="M24.4,62.3H0v-3.1h24.4c2.9,0,5.2-0.8,6.7-2.3c1.3-1.2,2-2.9,2-4.8c0-3.4-2.4-6.9-7.1-6.9
		c-1.6,0-2.8,0.4-3.6,1.3c-0.7,0.7-1,1.6-1,2.6c0,0.8,0.4,2.4,1.7,2.4v3.1c-2.7,0-4.8-2.3-4.8-5.4c0-1.8,0.7-3.5,1.9-4.7
		c1-1,2.8-2.2,5.8-2.2c6.6,0,10.1,5.1,10.1,9.9c0,2.7-1,5.2-2.9,7C31.1,61.2,28.1,62.3,24.4,62.3z"/>
</g>
<g>
	<g>
		<path class="st0" d="M51.4,42.2c-11.2,0-20.2-9.1-20.2-20.2S40.2,1.7,51.4,1.7s20.2,9.1,20.2,20.2S62.6,42.2,51.4,42.2z M51.4,4.7
			c-9.5,0-17.2,7.7-17.2,17.2s7.7,17.2,17.2,17.2s17.2-7.7,17.2-17.2S60.9,4.7,51.4,4.7z"/>
	</g>
	<g>
		<circle class="st0" cx="51.4" cy="21.9" r="1.7"/>
	</g>
	<g>
		<path class="st0" d="M42.3,31c-2.4-2.4-3.8-5.6-3.8-9.1c0-3.4,1.3-6.6,3.8-9.1c5-5,13.1-5,18.1,0c5,5,5,13.1,0,18.1l-2.2-2.2
			c3.8-3.8,3.8-10,0-13.8c-1.8-1.8-4.3-2.9-6.9-2.9c-2.6,0-5.1,1-6.9,2.9c-1.8,1.8-2.9,4.3-2.9,6.9c0,2.6,1,5.1,2.9,6.9L42.3,31z"/>
	</g>
	<g>
		<rect x="49.9" y="6.8" class="st0" width="3" height="3.8"/>
	</g>
	<g>
		<rect x="58.8" y="11.1" transform="matrix(0.7071 -0.7071 0.7071 0.7071 8.8798 46.623)" class="st0" width="3.8" height="3.1"/>
	</g>
	<g>
		<rect x="62.7" y="20.4" class="st0" width="3.8" height="3.1"/>
	</g>
	<g>
		<rect x="58.7" y="28.2" transform="matrix(0.7072 -0.707 0.707 0.7072 -4.1112 51.5938)" class="st0" width="3.1" height="5.2"/>
	</g>
	<g>
		
			<rect x="39.9" y="29.2" transform="matrix(0.7071 -0.7071 0.7071 0.7071 -9.2879 39.0977)" class="st0" width="5.2" height="3.1"/>
	</g>
	<g>
		<rect x="36.3" y="20.4" class="st0" width="3.8" height="3.1"/>
	</g>
	<g>
		<rect x="40.5" y="10.7" transform="matrix(0.7071 -0.7071 0.7071 0.7071 3.4163 33.4329)" class="st0" width="3.1" height="3.8"/>
	</g>
	<g>
		
			<rect x="46.6" y="19.8" transform="matrix(0.7071 -0.7071 0.7071 0.7071 0.8606 43.3011)" class="st0" width="12.1" height="1.5"/>
	</g>
</g>
</svg>
