<?xml version="1.0" encoding="utf-8"?>
<!-- Generator: Adobe Illustrator 24.0.2, SVG Export Plug-In . SVG Version: 6.00 Build 0)  -->
<svg version="1.1" id="Layer_1" xmlns="http://www.w3.org/2000/svg" xmlns:xlink="http://www.w3.org/1999/xlink" x="0px" y="0px"
	 viewBox="0 0 100 100" style="enable-background:new 0 0 100 100;" xml:space="preserve">
<style type="text/css">
	.st0{fill:#e55162;}
	.st1{fill:#FFFFFF;}
	.st2{fill:#e55162;}
</style>
<g>
	<path class="st0" d="M100,3.2c-4.5,2.1-6.3,6.5-13.4,6.5c-9.4,0-9.4-7.6-18.8-7.6s-9.4,7.6-18.8,7.6s-9.4-7.6-18.8-7.6
		s-9.4,7.6-18.8,7.6C5.3,9.7,3.1,6.7,0,4.5V100h100V3.2z"/>
	<path class="st1" d="M100,60c-2.4-0.1-4.8-0.3-7.3-0.4l0,0c0,0-0.7-5.8-3.6-5.6c-2.8,0.2-12.4,5.2-13,5.6
		c-21.8,1.2-32.9,7.6-36,11.5c0.9,0.3,6.7,5.1,6.7,5.1l-5,1.7c0,0,2.5,3.5,12.5,5.1c5.2,0.8,10.3,1.3,15.1,1.5c2.2,2.2,5,4.7,5.8,5
		c2.8,0.9,4.8-2.6,2.7-4.8c11.8,0,20.6-1.3,22.1-1.5V60z"/>
	<circle class="st2" cx="52.7" cy="69.7" r="1.7"/>
	<g>
		<path class="st2" d="M62.7,79.7c-0.1,0-0.3,0-0.4-0.1c-0.6-0.2-0.9-0.9-0.7-1.5c1.7-4.3,0-8.5,0-8.5c-0.2-0.6,0-1.3,0.6-1.5
			s1.3,0.1,1.5,0.6c0.1,0.2,2,5.1,0,10.2C63.6,79.4,63.2,79.7,62.7,79.7z"/>
	</g>
	<path class="st1" d="M15.9,54.1c0.6-0.2,2.5-2,4-3.5c3.3-0.2,6.9-0.5,10.4-1.1c7-1.1,8.7-3.6,8.7-3.6l-3.5-1.2c0,0,4-3.3,4.7-3.5
		c-2.2-2.7-9.9-7.1-24.9-8c-0.1-0.1-7.1-3.7-9.1-3.9c-2-0.2-2.5,3.9-2.5,3.9l0,0c-1.3,0.1-2.6,0.1-3.8,0.2v16.4
		c2.4,0.3,7.6,0.8,14,0.8C12.6,52.3,13.9,54.7,15.9,54.1z"/>
	<circle class="st2" cx="31.5" cy="40.3" r="1.2"/>
	<g>
		<path class="st2" d="M24.5,47.3c-0.3,0-0.6-0.2-0.7-0.5c-1.4-3.6,0-6.9,0-7.1c0.2-0.4,0.6-0.6,1-0.4c0.4,0.2,0.6,0.6,0.4,1
			c0,0-1.1,2.9,0,5.9c0.2,0.4,0,0.9-0.5,1C24.8,47.2,24.6,47.3,24.5,47.3z"/>
	</g>
</g>
</svg>
