<?xml version="1.0" encoding="utf-8"?>
<!-- Generator: Adobe Illustrator 25.2.3, SVG Export Plug-In . SVG Version: 6.00 Build 0)  -->
<svg version="1.1" id="Layer_1" xmlns="http://www.w3.org/2000/svg" xmlns:xlink="http://www.w3.org/1999/xlink" x="0px" y="0px"
	 viewBox="0 0 100 100" style="enable-background:new 0 0 100 100;" xml:space="preserve">
<style type="text/css">
	.st0{fill:#e55162;}
</style>
<path class="st0" d="M100,83.2c-4.5,2.1-6.3,6.5-13.4,6.5c-9.4,0-9.4-7.6-18.8-7.6c-9.4,0-9.4,7.6-18.8,7.6s-9.4-7.6-18.8-7.6
	c-9.4,0-9.4,7.6-18.8,7.6c-5.9,0-8.1-2.9-11.2-5.2V100h100V83.2z"/>
<path class="st0" d="M18.6,70.6c-0.8,3.3-3.2,5.5-5.4,5C11,75,9.8,72,10.5,68.7s3.9-5.1,6.6-10.2C17,64.2,19.3,67.3,18.6,70.6z"/>
<path class="st0" d="M19.8,42.4c-0.8,3.3-3.2,5.5-5.4,5s-3.4-3.6-2.7-6.8s3.9-5.1,6.6-10.2C18.2,36,20.5,39.1,19.8,42.4z"/>
<path class="st0" d="M43.2,38.4c-0.8,3.3-3.2,5.5-5.4,5s-3.4-3.6-2.7-6.8s3.9-5.1,6.6-10.2C41.6,32,43.9,35.1,43.2,38.4z"/>
<path class="st0" d="M47.4,65.6c-0.8,3.3-3.2,5.5-5.4,5c-2.2-0.5-3.4-3.6-2.7-6.8s3.9-5.1,6.6-10.2C45.8,59.2,48.1,62.3,47.4,65.6z"
	/>
<path class="st0" d="M68.6,37.5c-0.8,3.3-3.2,5.5-5.4,5c-2.2-0.5-3.4-3.6-2.7-6.8c0.8-3.3,3.9-5.1,6.6-10.2
	C67,31.1,69.3,34.2,68.6,37.5z"/>
<path class="st0" d="M66.7,74.1c-0.8,3.3-3.2,5.5-5.4,5c-2.2-0.5-3.4-3.6-2.7-6.8c0.8-3.3,3.9-5.1,6.6-10.2
	C65.1,67.8,67.4,70.9,66.7,74.1z"/>
<path class="st0" d="M87.9,65.6c-0.8,3.3-3.2,5.5-5.4,5c-2.2-0.5-3.4-3.6-2.7-6.8c0.8-3.3,3.9-5.1,6.6-10.2
	C86.3,59.2,88.7,62.3,87.9,65.6z"/>
<path class="st0" d="M62.5,15.8c-0.8,3.3-3.2,5.5-5.4,5c-2.2-0.5-3.4-3.6-2.7-6.8S58.3,8.8,61,3.8C60.9,9.4,63.2,12.5,62.5,15.8z"/>
<path class="st0" d="M90.1,24.4c-0.8,3.3-3.2,5.5-5.4,5s-3.4-3.6-2.7-6.8c0.8-3.3,3.9-5.1,6.6-10.2C88.5,18,90.8,21.1,90.1,24.4z"/>
<path class="st0" d="M37.5,18.8c-0.8,3.3-3.2,5.5-5.4,5s-3.4-3.6-2.7-6.8s3.9-5.1,6.6-10.2C35.9,12.5,38.2,15.6,37.5,18.8z"/>
<path class="st0" d="M12.5,18.8c-0.8,3.3-3.2,5.5-5.4,5S3.7,20.3,4.5,17S8.4,11.9,11,6.8C10.9,12.5,13.3,15.6,12.5,18.8z"/>
</svg>
