<?xml version="1.0" encoding="utf-8"?>
<!-- Generator: Adobe Illustrator 25.2.3, SVG Export Plug-In . SVG Version: 6.00 Build 0)  -->
<svg version="1.1" id="Layer_1" xmlns="http://www.w3.org/2000/svg" xmlns:xlink="http://www.w3.org/1999/xlink" x="0px" y="0px"
	 viewBox="0 0 100 100" style="enable-background:new 0 0 100 100;" xml:space="preserve">
<style type="text/css">
	.st0{fill:#e55162;}
</style>
<path class="st0" d="M100,77.6c-4.5,2.1-6.3,6.5-13.4,6.5c-9.4,0-9.4-7.6-18.8-7.6c-9.4,0-9.4,7.6-18.8,7.6s-9.4-7.6-18.8-7.6
	c-9.4,0-9.4,7.6-18.8,7.6c-5.9,0-8.1-2.9-11.2-5.2V100h100V77.6z"/>
<g>
	<path class="st0" d="M51.1,67.8c-16.7,0-30.3-13.6-30.3-30.3c0-16.7,13.6-30.3,30.3-30.3c16.7,0,30.3,13.6,30.3,30.3
		C81.4,54.2,67.8,67.8,51.1,67.8z M51.1,11.3C36.7,11.3,25,23.1,25,37.5c0,14.4,11.7,26.2,26.2,26.2c14.4,0,26.2-11.7,26.2-26.2
		C77.3,23.1,65.6,11.3,51.1,11.3z"/>
</g>
<g>
	<circle class="st0" cx="51.1" cy="37.5" r="2.5"/>
</g>
<g>
	<path class="st0" d="M64.6,51L61.7,48c5.8-5.8,5.8-15.3,0-21.1c-5.8-5.8-15.3-5.8-21.1,0c-5.8,5.8-5.8,15.3,0,21.1L37.6,51
		c-7.4-7.4-7.4-19.6,0-27c7.4-7.4,19.6-7.4,27,0C72.1,31.4,72.1,43.5,64.6,51z"/>
</g>
<g>
	<rect x="49.1" y="14.7" class="st0" width="4.2" height="5.8"/>
</g>
<g>
	<rect x="62.3" y="21.3" transform="matrix(0.7071 -0.7071 0.7071 0.7071 2.5471 52.9611)" class="st0" width="5.8" height="4.2"/>
</g>
<g>
	<rect x="68.1" y="35.4" class="st0" width="5.8" height="4.2"/>
</g>
<g>
	
		<rect x="62.4" y="46.9" transform="matrix(0.7072 -0.7071 0.7071 0.7072 -17.0465 60.4638)" class="st0" width="4.2" height="7.8"/>
</g>
<g>
	
		<rect x="33.9" y="48.7" transform="matrix(0.7071 -0.7071 0.7071 0.7071 -24.8585 41.6093)" class="st0" width="7.8" height="4.2"/>
</g>
<g>
	<rect x="28.3" y="35.4" class="st0" width="5.8" height="4.2"/>
</g>
<g>
	<rect x="35" y="20.5" transform="matrix(0.707 -0.7072 0.7072 0.707 -5.6935 33.0684)" class="st0" width="4.2" height="5.8"/>
</g>
<g>
	<rect x="44" y="34.5" transform="matrix(0.7067 -0.7075 0.7075 0.7067 -9.5432 47.9821)" class="st0" width="18.3" height="2.1"/>
</g>
</svg>
