<?xml version="1.0" encoding="utf-8"?>
<!-- Generator: Adobe Illustrator 24.0.2, SVG Export Plug-In . SVG Version: 6.00 Build 0)  -->
<svg version="1.1" id="Layer_1" xmlns="http://www.w3.org/2000/svg" xmlns:xlink="http://www.w3.org/1999/xlink" x="0px" y="0px"
	 viewBox="0 0 100 100" style="enable-background:new 0 0 100 100;" xml:space="preserve">
<style type="text/css">
	.st0{fill:#e55162;}
	.st1{fill:#FFFFFF;}
</style>
<g>
	<path class="st0" d="M100,45.9c-4.7,2-6.4,6-13.8,6c-9.7,0-9.7-7.1-19.3-7.1s-9.7,7.1-19.3,7.1s-9.7-7.1-19.3-7.1
		s-9.7,7.1-19.3,7.1c-4.3,0-6.7-1.4-8.9-3V100h100L100,45.9L100,45.9z"/>
	<polygon class="st0" points="40.4,23.4 48.5,5.4 56.7,23.4 	"/>
	<polygon class="st1" points="40.2,75.6 48.3,93.6 56.5,75.6 	"/>
	<g>
		<path class="st0" d="M16.8,35.2c-1.2,0.9-2.4,1.8-3.8,2.3l1.7,4.3c2-0.8,3.4-1.8,4.8-2.9c1.3-0.9,2.5-1.8,4-2.4l-1.6-4.3
			C19.8,33,18.2,34.2,16.8,35.2z"/>
		<path class="st0" d="M28.5,31.2l-0.2,4.6c3.7,0.1,5.6,1.5,7.7,3.1l0.4,0.3l2.7-3.7l-0.4-0.3C36.4,33.4,33.7,31.4,28.5,31.2z"/>
		<path class="st0" d="M0,35v5.5c2,1.2,4.4,2.2,8,2.3l0.1-4.6c-3.8-0.1-5.7-1.5-7.9-3.1L0,35z"/>
		<path class="st0" d="M56.8,34.2l2.6,3.8c2-1.4,3.9-2.2,7.1-2.2c0,0,0,0,0,0c0.4,0,0.8,0,1.2,0l0.3-4.6c-0.5,0-1-0.1-1.5-0.1
			C61.8,31.2,59,32.7,56.8,34.2z"/>
		<path class="st0" d="M96,33.8c-0.7,0.4-1.3,0.9-2,1.4c-1.9,1.4-3.5,2.5-6.2,3l0.7,4.5c3.8-0.6,6.2-2.3,8.2-3.8
			c0.6-0.4,1.1-0.8,1.7-1.2L96,33.8z"/>
		<path class="st0" d="M74.5,33.2l-2.3,4c0.9,0.5,1.7,1.1,2.5,1.7c1.8,1.3,3.9,2.9,7.1,3.6l1-4.5c-2.2-0.5-3.7-1.6-5.4-2.8
			C76.6,34.5,75.6,33.8,74.5,33.2z"/>
		<path class="st0" d="M47.1,38.3C47.1,38.3,47.1,38.3,47.1,38.3c-1.3,0-2.5-0.1-3.5-0.4l-1.2,4.4c1.5,0.4,3,0.6,4.7,0.6
			c0,0,0,0,0,0c2.6,0,4.9-0.5,7-1.4l-1.9-4.2C50.7,38,49.1,38.3,47.1,38.3z"/>
	</g>
	<g>
		<path class="st1" d="M0,59.5v5.5c2,1.2,4.4,2.2,8,2.3l0.1-4.6c-3.8-0.1-5.7-1.5-7.9-3.1L0,59.5z"/>
		<path class="st1" d="M28.5,55.7l-0.2,4.6c3.7,0.1,5.6,1.5,7.7,3.1l0.4,0.3l2.7-3.7l-0.4-0.3C36.4,57.9,33.7,55.9,28.5,55.7z"/>
		<path class="st1" d="M16.8,59.7c-1.2,0.9-2.4,1.8-3.8,2.3l1.7,4.2c2-0.8,3.4-1.8,4.8-2.9c1.3-0.9,2.5-1.8,4-2.4l-1.6-4.3
			C19.8,57.5,18.2,58.6,16.8,59.7z"/>
		<path class="st1" d="M47.1,62.8c-1.3,0-2.4-0.1-3.5-0.4l-1.2,4.4c1.5,0.4,3,0.6,4.7,0.6c2.6,0,4.9-0.5,7-1.4l-1.9-4.2
			C50.7,62.4,49.1,62.8,47.1,62.8z"/>
		<path class="st1" d="M96,58.3c-0.7,0.4-1.3,0.9-2,1.4c-1.9,1.4-3.5,2.5-6.2,3l0.7,4.5c3.8-0.6,6.2-2.3,8.2-3.8
			c0.6-0.4,1.1-0.8,1.7-1.2L96,58.3z"/>
		<path class="st1" d="M56.8,58.7l2.6,3.8c2-1.4,3.9-2.2,7.1-2.2c0.4,0,0.8,0,1.2,0l0.3-4.6c-0.5,0-1-0.1-1.5-0.1
			C61.8,55.7,59,57.1,56.8,58.7z"/>
		<path class="st1" d="M74.5,57.7l-2.3,4c0.9,0.5,1.7,1.1,2.5,1.7c1.8,1.3,3.9,2.9,7.1,3.6l1-4.5c-2.2-0.5-3.7-1.6-5.4-2.8
			C76.6,59,75.6,58.3,74.5,57.7z"/>
	</g>
</g>
</svg>
