<?xml version="1.0" encoding="utf-8"?>
<!-- Generator: Adobe Illustrator 24.0.2, SVG Export Plug-In . SVG Version: 6.00 Build 0)  -->
<svg version="1.1" id="Layer_1" xmlns="http://www.w3.org/2000/svg" xmlns:xlink="http://www.w3.org/1999/xlink" x="0px" y="0px"
	 viewBox="0 0 100 100" style="enable-background:new 0 0 100 100;" xml:space="preserve">
<style type="text/css">
	.st0{fill:#e55162;}
	.st1{fill:#FFFFFF;}
	.st2{fill:#e55162;}
</style>
<g>
	<path class="st0" d="M100,3.2c-4.5,2.1-6.3,6.5-13.4,6.5c-9.4,0-9.4-7.6-18.8-7.6s-9.4,7.6-18.8,7.6s-9.4-7.6-18.8-7.6
		s-9.4,7.6-18.8,7.6C5.3,9.7,3.1,6.7,0,4.5V100h100V3.2z"/>
	<path class="st1" d="M100,35.1c-1.6-0.1-3.3-0.2-5-0.2l0,0c0,0-0.5-4.4-2.7-4.3c-2.2,0.2-9.8,4.2-9.9,4.3
		c-16.5,0.9-24.9,5.8-27.3,8.7c0.7,0.3,5.1,3.8,5.1,3.8l-3.8,1.3c0,0,1.9,2.7,9.5,3.9c3.9,0.6,7.8,1,11.4,1.2
		c1.7,1.7,3.8,3.6,4.4,3.8c2.2,0.7,3.6-1.9,2-3.7c7.9,0,14.1-0.8,16.2-1L100,35.1L100,35.1z"/>
	<circle class="st2" cx="64.7" cy="42.5" r="1.3"/>
	<g>
		<path class="st2" d="M72.3,50c-0.1,0-0.2,0-0.3-0.1c-0.4-0.2-0.7-0.7-0.5-1.1c1.3-3.3,0-6.4,0-6.5c-0.2-0.4,0-1,0.5-1.1
			c0.4-0.2,0.9,0,1.1,0.5c0.1,0.2,1.5,3.8,0,7.7C73,49.8,72.6,50,72.3,50z"/>
	</g>
	<path class="st1" d="M32.4,19.4c-8.5-1.6-16.7,3-18.5,10.4c-0.8,3.3,0.6,4.6,3.1,5.2c-0.1,1.3-0.5,3.6-1.6,7.2
		c-0.9,3-1.1,5-1.2,6.6c-0.1,1.8-0.2,2.8-1.2,4.3c-1.8,2.8-2.2,5.3-2.4,6.7c-0.1,0.3-0.1,0.5-0.1,0.7c-0.4,1-0.3,2.3-0.2,2.5
		c0.1,0.7,0.6,1.2,1.3,1.2c0.1,0,0.1,0,0.1,0c0.7-0.1,1.2-0.7,1.2-1.4c0-0.4,0-1,0.1-1.4c0.1-0.3,0.2-0.7,0.3-1.2
		c0.2-1.3,0.6-3.4,2.1-5.7c1.4-2.1,1.5-3.7,1.6-5.5c0.1-1.6,0.2-3.3,1.1-6c1.1-3.7,1.5-6.2,1.7-7.6c0.5,0,1,0.1,1.5,0.1
		c-0.2,0.8-0.8,3.8-0.9,7.4l0,1.2c-0.1,3.1-0.1,3.8-1.6,7.4c-1.8,4.3-2.5,9.9-2.5,13.2c0.1,2.1-1.3,5.4-1.9,6.5
		c-0.3,0.7-0.1,1.4,0.6,1.7c0.2,0.1,0.4,0.1,0.6,0.1c0.5,0,1-0.3,1.2-0.7c0.1-0.2,2.2-4.6,2.1-7.8c-0.1-2.5,0.5-7.9,2.2-12.1
		c1.7-4.1,1.8-5.2,1.9-8.4l0-1.2c0.1-3.9,0.9-7.1,0.9-7.2c0-0.1,0-0.2,0-0.2c0.3,0,0.6,0,1,0c0.1,0.1,1.8,1.9,0.2,6.1
		c-0.6,1.6-1,2.3-1.3,2.9c-0.8,1.5-0.9,2-1.5,7.3c-0.3,3.3-0.3,5.5-0.2,7.2c0.1,2.2,0.1,3.3-0.8,5.2c-0.3,0.7-0.6,1.4-0.9,2.1
		c-1.5,3.2-2.8,6.1-2.9,9.2c0,3.1-0.5,4.6-0.5,4.6c-0.2,0.7,0.2,1.4,0.9,1.6c0.1,0,0.3,0.1,0.4,0.1c0.6,0,1.1-0.4,1.3-0.9
		c0-0.1,0.5-1.8,0.6-5.4c0-2.5,1.3-5.2,2.6-8.1c0.3-0.7,0.6-1.4,1-2.1c1.1-2.5,1-4.1,1-6.3c0-1.6-0.1-3.6,0.2-6.8
		c0.5-5,0.6-5.2,1.2-6.3c0.3-0.6,0.8-1.5,1.4-3.2c1.1-3,0.9-5.3,0.4-6.7c0.5,0.1,1.1,0.2,1.6,0.3c0.3,0.1,0.6,0.1,0.9,0.2
		c-0.9,1.8-2.1,5.1-2.3,9.8c-0.1,1.2-0.1,2.1-0.1,2.9c-0.2,3.7-0.2,3.7-1.1,7.2c-0.5,2-0.4,3.5-0.3,4.7c0.2,1.5,0.3,2.6-1,4.7
		c-2.8,4.7-2.9,7-3,8.1c0,0.7,0.5,1.3,1.2,1.4c0,0,0,0,0.1,0c0.7,0,1.3-0.5,1.3-1.2c0.1-0.9,0.2-2.8,2.6-7c0.5-0.8,0.8-1.4,1-2.1
		c-0.9,3.7-1.8,6.1-1.8,6.1c-0.2,0.7,0.1,1.4,0.8,1.7c0.1,0.1,0.3,0.1,0.4,0.1c0.5,0,1-0.3,1.2-0.9c0-0.2,1.3-3.7,2.5-8.9
		c0.3-1.4,0.5-2.5,0.7-3.6c0.5-2.7,0.9-4.7,2.7-9.1c1.8-4.7,1.9-9.4,1.8-11.7c0.4,0.1,0.8,0.3,1.1,0.4c-0.1,1.5-0.5,5-1.6,8.3
		c-0.3,1-0.6,1.8-0.8,2.6c-0.8,2.5-1.3,3.8-2.1,8.1c-0.9,4.9-1.7,6.3-1.7,6.3l0,0c-0.4,0.6-0.2,1.4,0.4,1.8c0.2,0.2,0.5,0.2,0.7,0.2
		c0.4,0,0.8-0.2,1.1-0.6c0.2-0.3,1-1.8,2.1-7.3c0.8-4.2,1.2-5.3,2-7.8c0.2-0.7,0.5-1.5,0.9-2.6c1.1-3.3,1.5-6.7,1.7-8.5
		c1.8,0.1,3.1-0.8,3.8-3.8C46.3,28.4,40.9,21,32.4,19.4z M32.8,49.4c-1.8,4.7-2.2,6.7-2.8,9.6c-0.2,1-0.4,2.1-0.7,3.5
		c-0.1,0.3-0.1,0.6-0.2,1c0.1-1,0-1.8,0-2.7c-0.1-1.1-0.2-2.2,0.2-3.8c0.9-3.7,1-3.8,1.1-7.7c0-0.8,0.1-1.7,0.1-2.9
		c0.3-4.7,1.6-7.8,2.3-9.2c0.5,0.2,1,0.3,1.5,0.5C34.5,38.7,34.9,44.1,32.8,49.4z"/>
	<g>
		<path class="st1" d="M88.5,85.7c0.2,0.2,0.5,0.4,0.7,0.6c0.2,0.1,0.3,0.3,0.5,0.4c0.6,0.5,1.3,0.8,1.7,1.4
			c0.2,0.3,0.3,0.4,0.6,0.6c0.2,0.1,0.4,0.1,0.6,0.2c0.2,0.1,0.4,0.3,0.6,0.4s0.8,0.6,1.1,0.5c0.1,0,0.2-0.1,0.3-0.1
			c0.2-0.1,0.3-0.2,0.5-0.2c0.2,0,0.5,0,0.7,0c0.2,0,0.5,0,0.7,0c0.3,0.2,0.4,0.7,0.4,1c0.1,0.3,0.4,1,0.1,1.3
			c-0.1,0.1-0.4,0.3-0.6,0.3c-0.3,0.1-0.5,0-0.8-0.1c-0.3-0.1-0.7-0.1-1.1-0.2c-0.3-0.1-0.7-0.2-1.1-0.3c-0.4-0.1-0.6-0.5-1-0.6
			c-0.4-0.1-0.8-0.4-1.2-0.6c-0.2-0.1-0.8-0.2-1,0c-0.1,0.2,0,0.6,0.1,0.8c0.2,0.5,0.5,0.7,0.8,1.1c0.6,0.7,1.3,1.1,2.2,1.1
			c0.7,0,1.5,0,2.2,0c0.4,0,0.9,0.1,1.2,0.4c0.2,0.2,0.2,0.3,0.2,0.5c0,0.4,0.2,0.7,0.5,1c0.4,0.4,0.8,0.9,0.8,1.5
			c0,0.2,0,0.6-0.3,0.7c-0.2,0.1-0.7,0.1-0.9,0c-0.4-0.2-0.6-0.9-0.8-1.2c-0.2-0.4-0.5-0.7-0.8-1c-0.2-0.2-0.4-0.3-0.7-0.4
			c-0.2-0.1-0.6-0.2-0.8,0c-0.1,0.2,0,0.8,0.1,1c0.2,0.4,0.5,0.8,0.8,1.2c0.3,0.4,0.6,0.8,1,1.2c0.5,0.5,1,0.9,1.8,1.1
			c0.5,0.1,1,0,1.6-0.1c0.2,0.3,0.2,0.6,0.4,1h0.1v-4.9c-0.3-0.9-0.7-1.9-1.2-2.7c-0.1-0.2-0.3-0.4-0.3-0.7
			c-0.1-0.6,0.3-1.4,0.7-1.9c0.2-0.4,0.5-0.7,0.8-1v-2c-0.3,0.2-0.6,0.2-0.9,0.4c-0.3,0.2-0.3,0.5-0.5,0.8c-0.2,0.3-0.3,0.3-0.4,0
			c-0.2-0.5-0.1-1.1-0.2-1.6c-0.1-0.4-0.3-0.7-0.5-1.1c-0.3-0.7-0.6-1.4-1-2.1c-0.1-0.2-0.2-0.4-0.4-0.5c-0.2-0.2-0.4-0.2-0.4-0.5
			c0.1-0.7,0.7-1.1,0.9-1.8c0.1-0.3,0.1-1.1-0.3-1.3c-0.2-0.1-0.5,0.1-0.6,0.1c-0.2,0-0.3,0-0.5,0.2c-0.3,0.3-0.4,0.9-0.7,1.3
			c-0.7,0.7-1.8-0.4-2.1-0.9c-0.2-0.4-0.3-0.8-0.4-1.2c-0.1-0.4-0.3-0.8-0.4-1.3c-0.2-0.4-0.5-1.1-1-0.5c-0.3,0.5-0.3,1.4-0.3,2
			c-0.1,1,0.1,1.9,0.9,2.6c0.4,0.3,0.8,0.6,1.3,0.9c0.6,0.4,1.3,0.5,1.9,0.9c0.5,0.3,1,1,1.1,1.5c0.1,0.5,0,1,0.2,1.5
			c0.2,0.5,0.4,0.9,0.7,1.3c0.1,0.1,0.4,0.4,0.2,0.6c-0.2,0.2-0.7,0.2-0.9,0.1c-0.3,0-0.9-0.1-1.1-0.3c-0.2-0.2-0.3-0.6-0.3-0.9
			c-0.1-0.6,0.1-1.3-0.2-1.9c-0.2-0.4-0.3-0.8-0.8-0.8c-0.3,0-0.6-0.1-0.8,0.2c-0.1,0.2,0,0.4,0,0.6c0,0.2,0,0.4,0,0.6
			c0,0.3,0.4,0.8-0.1,0.9c-0.2,0.1-0.5-0.1-0.6-0.2c-0.4-0.3-0.9-0.7-1.2-1.1c-0.4-0.6-0.8-1.1-1.2-1.7c-0.3-0.4-0.7-1.2-1.3-1.1
			c-1.3,0.2,0,2.1,0.3,2.6C88.3,85.3,88.4,85.5,88.5,85.7z"/>
		<path class="st1" d="M95.7,99.8c-0.1,0-0.2,0.1-0.3,0.2H96C95.9,99.9,95.8,99.8,95.7,99.8z"/>
		<path class="st1" d="M93.9,99.7c0.3-0.6,0.9-0.9,0.9-1.6c0-0.2-0.2-0.6-0.4-0.7c-0.2,0-0.4,0-0.5,0.1c-0.2,0.1-0.3,0.2-0.4,0.3
			c-0.2,0.2-0.3,0.4-0.5,0.5c-0.1,0.1-0.2,0.1-0.3,0.2c-0.1,0-0.2,0.1-0.3,0.1c0,0-0.1,0.1-0.1,0.1c-0.1,0.1,0,0.1,0,0.1
			c0,0.1-0.1,0.2-0.1,0.3c0,0.2,0.1,0.3,0.1,0.5c0,0.1,0,0.2,0,0.3h1.4C93.8,99.9,93.8,99.8,93.9,99.7z"/>
		<path class="st1" d="M43.2,80.1c5,1.3,3,0.2,5.8,1.5c2.8,1.3,2.6,2.4,3,4.3c0.4,1.9,4.8,4.5,1.3,4.5c-3.5,0-4.3-2.2-5.2-5
			c-0.9-2.8-3.7-0.8-3.5,0c0.2,0.8,2.2,2.8,5.2,5.6c3,2.8,3.7,1.7,8.2,1.5c4.3-0.2,6.9,1.7,8.9,7.5h4.7c0.2-0.3,0.4-0.8,0.4-1.6
			c-0.2-2.2,0.6-2.2,1.3-4.8s-0.6-4.1-1.7-3.2c-1.1,0.9-0.4,1.3-0.6,4.3c-0.2,3-0.9,2.6-2.1,2.8s-2.2-3.6-3.7-6
			c-1.5-2.4-3-1.7-3.4-2.6s1.1-1.5,1.1-3.4s1.5-2.2,3-3.2c1.5-0.9,2.1-1.5,2.4-2.2c0.4-0.8,0.9-3.2,0.9-4.5s-0.9-1.9-1.7-1.3
			c-0.8,0.6,0,1.7,0,3.6s-2.4,3.2-3.7,3.2c-1.3,0-0.2-1.9,0-4.1s-1.7-2.4-3-3.6s-1.7-2.4-2.2-5.2s-1.5-2.1-1.5,0s0,1.9,1.9,5
			s2.8,2.1,2.6,6.3c-0.2,4.3-1.3,3.7-1.9,5.8c-0.6,2.1-1.1,2.8-2.2,3c-1.1,0.2-2.4-2.2-3.5-4.7s0.4-2.1,1.1-3.9
			c0.8-1.9-0.4-2.2-0.6-4.3c-0.2-2.1-0.8-2.4-0.6-4.3c0.2-1.9-1.5-2.6-1.9,0.8c-0.4,3.4,0.9,3.4,1.1,6s-1.5,2.1-3.9,1.3
			c-2.4-0.8-2.2-0.2-5.2-1.1c-3-0.9-2-0.6-4.5-0.9s-4.1-2.1-3,0C37.8,79.2,38.2,78.8,43.2,80.1z"/>
		<path class="st1" d="M100,82.4c-0.1,0.3-0.2,0.7-0.1,1.1c0,0.1,0.1,0.2,0.1,0.3V82.4z"/>
		<path class="st1" d="M59.4,100h0.4C59.6,99.8,59.5,99.8,59.4,100z"/>
		<path class="st1" d="M90.8,99.5c-0.1-0.1-0.2-0.2-0.3-0.3c-0.1-0.1-0.1-0.2-0.2-0.2c-0.1-0.1-0.3-0.1-0.4,0
			c-0.2,0.2-0.1,0.5-0.1,0.8c0,0.1,0,0.2,0,0.3h1.4C91.1,99.8,90.9,99.7,90.8,99.5z"/>
		<path class="st1" d="M85.2,89.3c-0.1-0.7-0.5-1.3-0.9-1.9c-0.3-0.4-0.2-0.7-0.3-1.2c-0.1-0.9-0.3-1.8-0.7-2.6
			c-0.2-0.5-0.8-0.8-0.9-1.3c-0.1-0.2,0-0.5,0-0.7c0-0.3-0.1-0.6-0.2-0.8c-0.1-0.7,0.2-1.6-0.2-2.2c-0.2-0.4-0.5-0.8-0.9-0.9
			c-0.3-0.1-1.2-0.2-1.5,0c-0.5,0.2-0.3,0.7-0.2,1.1c-0.4,0.5-0.9,0.6-1.5,0.3c-0.6,0-1.2-0.2-1.7-0.6c-0.6-0.3-1.1-0.6-1.6-1
			s-1.3-1-2-0.8c-0.3,0.8,0.5,1.7,1.1,2.2c0.7,0.6,1.6,0.8,2.3,1.3c1.1,0.8,2.5,0.9,3.4,1.8c0.7,0.6,1.1,1.2,1.5,2
			c0.4,0.8,0.1,1.7,0.4,2.5c0.4,0.9,0.8,1.8,1.3,2.7c0.3,0.5,0.7,1.1,0.6,1.7c-0.1,0.4-0.4,0.8-0.7,1.2c-0.4,0.8-0.3,1.8-0.4,2.7
			c-0.1,0.4-0.2,1.7-0.8,1.7c-0.2,0-0.3,0.1-0.4-0.2c-0.1-0.2,0-0.8,0-1.1c0-0.5,0-0.9,0.2-1.4c0.3-1,0.7-2.1,0.2-3.1
			c-0.3-0.5-0.7-1-0.9-1.5c-0.2-0.4-0.3-0.8-0.7-1.1c-0.4-0.3-0.6-0.4-0.8-0.9c-0.2-0.6-0.4-1.1-0.7-1.6c-0.3-0.5-0.3-0.8-0.9-0.7
			c-0.4,0-0.7,0.1-0.7,0.5c-0.1,1.1,2.3,1.6,1.7,2.8c-0.6,0.1-0.8-0.1-1.3-0.5c-0.3-0.3-0.6-0.7-1-0.8c-0.4-0.2-0.8-0.3-1.1-0.5
			c-0.9-0.5-1.9-1.1-2.7-1.8c-0.5-0.4-1.4-1.2-2.1-0.7c0,0.7,0.2,1.8,0.8,2.3c0.2,0.2,0.6,0.2,0.9,0.3c0.4,0.1,1,0.4,1.4,0.7
			c0.6,0.4,1.1,1,1.7,1.4c0.5,0.4,0.9,0.7,1.4,1.1c0.6,0.4,1.2,0.8,1.7,1.3c0.6,0.4,1,1,0.9,1.7c-0.1,0.6-0.4,1-0.5,1.5
			c-0.2,0.5-0.2,1.1-0.2,1.6c0,0.8,0,1.5,0,2.3c0,0.6-0.5,1.1-0.4,1.8h4.2c-0.3-0.3-0.5-0.7-0.3-1.2c0.3-0.7,1.4-0.9,1.9-1.4
			c0.3-0.4,0.6-0.9,0.7-1.4c0.3-0.8,0.9-1.4,1.1-2.2s0.3-1.7,0.2-2.5C85.6,90.6,85.3,89.9,85.2,89.3z"/>
	</g>
</g>
</svg>
