<?xml version="1.0" encoding="utf-8"?>
<!-- Generator: Adobe Illustrator 24.0.2, SVG Export Plug-In . SVG Version: 6.00 Build 0)  -->
<svg version="1.1" id="Layer_1" xmlns="http://www.w3.org/2000/svg" xmlns:xlink="http://www.w3.org/1999/xlink" x="0px" y="0px"
	 viewBox="0 0 100 100" style="enable-background:new 0 0 100 100;" xml:space="preserve">
<style type="text/css">
	.st0{fill:#e55162;}
	.st1{fill:#FFFFFF;}
</style>
<g>
	<path class="st0" d="M100,3.2c-4.5,2.1-6.3,6.5-13.4,6.5c-9.4,0-9.4-7.6-18.8-7.6s-9.4,7.6-18.8,7.6s-9.4-7.6-18.8-7.6
		s-9.4,7.6-18.8,7.6C5.3,9.7,3.1,6.7,0,4.5V100h100V3.2z"/>
	<circle class="st1" cx="25.7" cy="17.1" r="3.7"/>
	<circle class="st1" cx="72.2" cy="16.1" r="3.7"/>
	<circle class="st1" cx="65.9" cy="65.5" r="3.7"/>
	<circle class="st1" cx="90.9" cy="41.1" r="3.7"/>
	<circle class="st1" cx="29.9" cy="56.9" r="3.7"/>
	<circle class="st1" cx="10" cy="89.4" r="3.7"/>
	<g>
		<path class="st1" d="M17.6,38.9c-0.2,1.7-0.8,3.1-1.9,4.1c-1.1,1-2.6,1.5-4.5,1.5c-1.3,0-2.4-0.3-3.4-0.9S6,42,5.5,40.9
			c-0.5-1.1-0.8-2.5-0.8-4v-1.5c0-1.5,0.3-2.9,0.8-4.1s1.3-2.1,2.3-2.7c1-0.6,2.2-1,3.5-1c1.8,0,3.2,0.5,4.3,1.5s1.7,2.4,1.9,4.1
			h-2.8c-0.1-1.2-0.5-2-1-2.5S12.4,30,11.4,30c-1.2,0-2.2,0.5-2.8,1.4s-1,2.2-1,4v1.4c0,1.8,0.3,3.1,0.9,4c0.6,0.9,1.6,1.4,2.8,1.4
			c1.1,0,1.9-0.3,2.5-0.8s0.9-1.3,1.1-2.5L17.6,38.9L17.6,38.9z"/>
		<path class="st1" d="M29.5,37.3H23v6.9h-2.8V27.9h10.4v2.3H23V35h6.5C29.5,35,29.5,37.3,29.5,37.3z"/>
		<path class="st1" d="M45.1,38.9C45,40.6,44.3,42,43.2,43c-1.1,1-2.6,1.5-4.5,1.5c-1.3,0-2.4-0.3-3.4-0.9c-1-0.6-1.8-1.5-2.3-2.6
			c-0.5-1.1-0.8-2.5-0.8-4v-1.5c0-1.5,0.3-2.9,0.8-4.1s1.3-2.1,2.3-2.7c1-0.6,2.2-1,3.5-1c1.8,0,3.2,0.5,4.3,1.5s1.7,2.4,1.9,4.1
			h-2.8c-0.1-1.2-0.5-2-1-2.5S40,30,38.9,30c-1.2,0-2.2,0.5-2.8,1.4s-1,2.2-1,4v1.4c0,1.8,0.3,3.1,0.9,4c0.6,0.9,1.5,1.4,2.8,1.4
			c1.1,0,2-0.3,2.5-0.8c0.6-0.5,0.9-1.3,1.1-2.5L45.1,38.9L45.1,38.9z"/>
		<path class="st1" d="M52.7,38.4h-5.9v-2.2h5.9V38.4z"/>
		<path class="st1" d="M62.1,44.2h-2.7V31.1l-4,1.4v-2.3l6.3-2.3h0.3C62.1,27.9,62.1,44.2,62.1,44.2z"/>
		<path class="st1" d="M75.1,44.2h-2.7V31.1l-4,1.4v-2.3l6.3-2.3h0.3V44.2z"/>
	</g>
	<g>
		<path class="st1" d="M33.5,87.2c-0.2,1.7-0.8,3.1-1.9,4.1c-1.1,1-2.6,1.5-4.5,1.5c-1.3,0-2.4-0.3-3.4-0.9c-1-0.6-1.8-1.5-2.3-2.6
			c-0.5-1.1-0.8-2.4-0.8-3.9v-1.5c0-1.5,0.3-2.9,0.8-4.1s1.3-2.1,2.3-2.7c1-0.6,2.2-0.9,3.5-0.9c1.8,0,3.2,0.5,4.3,1.5
			s1.7,2.3,1.9,4.1h-2.8c-0.1-1.2-0.5-2-1-2.5c-0.5-0.5-1.4-0.8-2.4-0.8c-1.2,0-2.2,0.4-2.8,1.3s-1,2.2-1,4V85c0,1.8,0.3,3.1,0.9,4
			c0.6,0.9,1.5,1.4,2.8,1.4c1.1,0,2-0.3,2.5-0.8s0.9-1.3,1.1-2.5L33.5,87.2L33.5,87.2z"/>
		<path class="st1" d="M45.4,85.6h-6.5v6.9H36V76.2h10.3v2.3h-7.5v4.8h6.5V85.6z"/>
		<path class="st1" d="M61,87.2c-0.2,1.7-0.8,3.1-1.9,4.1c-1.1,1-2.6,1.5-4.5,1.5c-1.3,0-2.4-0.3-3.4-0.9c-1-0.6-1.8-1.5-2.3-2.6
			c-0.5-1.1-0.8-2.4-0.8-3.9v-1.5c0-1.5,0.3-2.9,0.8-4.1s1.3-2.1,2.3-2.7c1-0.6,2.2-0.9,3.5-0.9c1.8,0,3.2,0.5,4.3,1.5
			s1.7,2.3,1.9,4.1h-2.8c-0.1-1.2-0.5-2-1-2.5c-0.5-0.5-1.3-0.8-2.4-0.8c-1.2,0-2.2,0.4-2.8,1.3s-1,2.2-1,4V85c0,1.8,0.3,3.1,0.9,4
			c0.6,0.9,1.5,1.4,2.8,1.4c1.1,0,2-0.3,2.5-0.8c0.6-0.5,0.9-1.3,1.1-2.5L61,87.2L61,87.2z"/>
		<path class="st1" d="M68.6,86.6h-5.9v-2.2h5.9V86.6z"/>
		<path class="st1" d="M78,92.5h-2.7V79.4l-4,1.4v-2.3l6.3-2.3H78V92.5z"/>
		<path class="st1" d="M94.6,92.5H83.7v-1.9l5.4-5.9c0.8-0.9,1.3-1.6,1.7-2.2c0.3-0.6,0.5-1.2,0.5-1.8c0-0.8-0.2-1.4-0.7-1.9
			c-0.4-0.5-1-0.7-1.8-0.7c-0.9,0-1.6,0.3-2.1,0.8c-0.5,0.5-0.7,1.3-0.7,2.2h-2.7c0-1,0.2-1.9,0.7-2.7s1.1-1.4,1.9-1.8
			c0.8-0.4,1.8-0.7,2.9-0.7c1.6,0,2.8,0.4,3.7,1.2c0.9,0.8,1.4,1.9,1.4,3.3c0,0.8-0.2,1.7-0.7,2.6S92,84.9,91,86l-4,4.3h7.6
			L94.6,92.5L94.6,92.5z"/>
	</g>
</g>
</svg>
