<?xml version="1.0" encoding="utf-8"?>
<!-- Generator: Adobe Illustrator 24.0.2, SVG Export Plug-In . SVG Version: 6.00 Build 0)  -->
<svg version="1.1" id="Layer_1" xmlns="http://www.w3.org/2000/svg" xmlns:xlink="http://www.w3.org/1999/xlink" x="0px" y="0px"
	 viewBox="0 0 100 100" style="enable-background:new 0 0 100 100;" xml:space="preserve">
<style type="text/css">
	.st0{fill:#e55162;}
	.st1{fill:#FFFFFF;}
</style>
<g>
	<path class="st0" d="M100,3.2c-4.5,2.1-6.3,6.5-13.4,6.5c-9.4,0-9.4-7.6-18.8-7.6s-9.4,7.6-18.8,7.6s-9.4-7.6-18.8-7.6
		s-9.4,7.6-18.8,7.6C5.3,9.7,3.1,6.7,0,4.5V100h100V3.2z"/>
	<path class="st1" d="M86.5,81.1c-2.4-7.8-2.4-17.5-5.3-27.6c-1.1-3.7-3.2-9.4-6.8-11.1c-1.5-0.7-3.3-0.8-5.2-0.5
		c0.1-0.2,0.1-0.4,0.1-0.6c0-0.1,0-0.2,0-0.3c-0.2-3.8-0.8-7.9-3-11c-4.9-7-14-9.5-22.1-9.6c-11.4-0.1-22.8,1.6-34.2,1.3
		c-3.5-0.1-6.8-0.4-10-1.1v7.6c19.7-0.8,44.4-6.9,59.5,6.5c-1.8-1.1-3.7-1.9-5.6-2.3c-5.6-1.1-11.2-2.5-16.9-2.2
		c-9.2,0.5-18.2,2.3-27.2,4c-3,0.6-6.3,1.4-9.8,2v8.5c11.3-2.7,21.9-8.6,33.6-9.2c3.6-0.2,7-0.1,10.4,0.3
		C29.8,38.5,15.2,50.9,3,54.7C2,54.9,1,55.2,0,55.3v8.4c0.6,0,1.2-0.1,1.9-0.1c11.1-0.4,21.4-5.3,30.6-11.3
		c5.1-3.3,10.1-7.4,16.1-9.2c3.2-1,6.4-1.1,9.7-0.5c1.8,0.3,3.8,1.3,5.7,1.9c-0.7,0.7-1.3,1.5-1.6,2.3c-2.7,6.8,1.8,15.1,5.9,20.4
		C72.8,73.6,78,79,82.2,85.6c1.9,3.1,4.7,8.8,7,14.4h4.6C90.9,93.8,88.3,87.1,86.5,81.1z M65.4,43c0.1,0.1,0.2,0.1,0.3,0.2
		c0,0-0.1,0-0.1,0.1C65.5,43.2,65.5,43.1,65.4,43z"/>
</g>
</svg>
