<?xml version="1.0" encoding="utf-8"?>
<!-- Generator: Adobe Illustrator 25.2.3, SVG Export Plug-In . SVG Version: 6.00 Build 0)  -->
<svg version="1.1" id="Layer_1" xmlns="http://www.w3.org/2000/svg" xmlns:xlink="http://www.w3.org/1999/xlink" x="0px" y="0px"
	 viewBox="0 0 100 100" style="enable-background:new 0 0 100 100;" xml:space="preserve">
<style type="text/css">
	.st0{fill:#e55162;}
	.st1{fill:#FFFFFF;}
</style>
<path class="st0" d="M100,46.4c-4.5,2.1-6.3,6.5-13.4,6.5c-9.4,0-9.4-7.6-18.8-7.6c-9.4,0-9.4,7.6-18.8,7.6s-9.4-7.6-18.8-7.6
	c-9.4,0-9.4,7.6-18.8,7.6c-5.9,0-8.1-2.9-11.2-5.2V100h100V46.4z"/>
<g>
	<path class="st0" d="M28.9,20.9h-2.4V6.8h2.4V20.9z"/>
	<path class="st0" d="M35.9,19.2c0.6,0,1.1-0.2,1.5-0.5c0.4-0.3,0.6-0.8,0.6-1.3h2.2c0,0.7-0.2,1.3-0.6,1.8c-0.4,0.6-0.9,1-1.5,1.3
		c-0.7,0.3-1.4,0.5-2.1,0.5c-1.5,0-2.6-0.5-3.5-1.4s-1.3-2.3-1.3-3.9v-0.2c0-1.6,0.4-2.9,1.3-3.8c0.9-1,2-1.4,3.5-1.4
		c1.2,0,2.3,0.4,3,1.1s1.2,1.7,1.2,2.9H38c0-0.6-0.2-1.1-0.6-1.5c-0.4-0.4-0.9-0.6-1.5-0.6c-0.8,0-1.3,0.3-1.8,0.8s-0.6,1.4-0.6,2.5
		v0.4c0,1.1,0.2,2,0.6,2.5C34.6,18.9,35.2,19.2,35.9,19.2z"/>
	<path class="st0" d="M41.6,15.6c0-1,0.2-2,0.6-2.8c0.4-0.8,1-1.5,1.7-1.9c0.7-0.4,1.6-0.7,2.5-0.7c1.4,0,2.6,0.5,3.4,1.4
		c0.9,0.9,1.4,2.1,1.4,3.6l0,0.6c0,1-0.2,2-0.6,2.8c-0.4,0.8-1,1.4-1.7,1.9c-0.7,0.4-1.6,0.7-2.6,0.7c-1.5,0-2.7-0.5-3.5-1.5
		c-0.9-1-1.3-2.3-1.3-3.9V15.6z M49.7,8.7v0.1l-1.9,0l-1.5-1.5l-1.4,1.5l-1.9,0V8.7L45.7,6h1.4L49.7,8.7z M43.9,15.8
		c0,1.1,0.2,1.9,0.7,2.5c0.4,0.6,1.1,0.9,1.9,0.9s1.4-0.3,1.9-0.9c0.4-0.6,0.7-1.5,0.7-2.7c0-1.1-0.2-1.9-0.7-2.5
		c-0.5-0.6-1.1-0.9-1.9-0.9c-0.8,0-1.4,0.3-1.8,0.9S43.9,14.5,43.9,15.8z"/>
	<path class="st0" d="M55.5,10.4l0.1,1.2c0.8-0.9,1.8-1.4,3-1.4c2.2,0,3.3,1.2,3.3,3.7v6.9h-2.4v-6.8c0-0.7-0.1-1.2-0.4-1.5
		c-0.3-0.3-0.8-0.5-1.4-0.5c-0.9,0-1.7,0.4-2.1,1.3v7.5h-2.4V10.4H55.5z"/>
	<path class="st0" d="M68.9,21.1c-1.5,0-2.7-0.5-3.6-1.4c-0.9-0.9-1.4-2.2-1.4-3.8v-0.3c0-1,0.2-2,0.6-2.8c0.4-0.8,1-1.5,1.7-1.9
		c0.7-0.5,1.5-0.7,2.4-0.7c1.4,0,2.5,0.5,3.3,1.4s1.2,2.2,1.2,3.9v0.9h-6.8c0.1,0.9,0.4,1.5,0.9,2.1c0.5,0.5,1.1,0.8,1.9,0.8
		c1.1,0,2-0.4,2.6-1.3l1.3,1.2c-0.4,0.6-1,1.1-1.7,1.5S69.8,21.1,68.9,21.1z M68.7,12.1c-0.6,0-1.2,0.2-1.6,0.7
		c-0.4,0.5-0.7,1.1-0.8,1.9h4.5v-0.2c-0.1-0.8-0.3-1.4-0.6-1.8S69.3,12.1,68.7,12.1z"/>
	<path class="st0" d="M27.2,41.6c-0.1-0.2-0.2-0.5-0.3-1c-0.7,0.8-1.7,1.2-2.7,1.2c-1.1,0-1.9-0.3-2.6-0.9c-0.7-0.6-1-1.3-1-2.2
		c0-1.1,0.4-2,1.2-2.6c0.8-0.6,2-0.9,3.6-0.9h1.4v-0.7c0-0.5-0.2-1-0.5-1.3c-0.3-0.3-0.8-0.5-1.4-0.5c-0.5,0-1,0.1-1.3,0.4
		c-0.3,0.3-0.5,0.6-0.5,1h-2.4c0-0.6,0.2-1.1,0.6-1.6s0.9-0.9,1.6-1.2c0.7-0.3,1.4-0.4,2.2-0.4c1.2,0,2.2,0.3,2.9,0.9
		s1.1,1.5,1.1,2.6v4.7c0,0.9,0.1,1.7,0.4,2.3v0.2H27.2z M26.5,29.7l-2,0l-2.6-2.9h2.7L26.5,29.7z M24.7,39.9c0.5,0,0.9-0.1,1.3-0.3
		c0.4-0.2,0.7-0.5,0.9-0.9v-2h-1.3c-0.9,0-1.5,0.2-2,0.5c-0.4,0.3-0.7,0.7-0.7,1.3c0,0.5,0.2,0.8,0.5,1.1
		C23.8,39.8,24.2,39.9,24.7,39.9z"/>
	<path class="st0" d="M40.3,38.6l2.2-7.5H45l-3.6,10.5h-2l-3.7-10.5h2.4L40.3,38.6z"/>
	<path class="st0" d="M50.9,41.8c-1.5,0-2.7-0.5-3.6-1.4c-0.9-0.9-1.4-2.2-1.4-3.8v-0.3c0-1,0.2-2,0.6-2.8c0.4-0.8,1-1.5,1.7-1.9
		c0.7-0.5,1.5-0.7,2.4-0.7c1.4,0,2.5,0.5,3.3,1.4s1.2,2.2,1.2,3.9v0.9h-6.8c0.1,0.9,0.4,1.5,0.9,2.1c0.5,0.5,1.1,0.8,1.9,0.8
		c1.1,0,2-0.4,2.6-1.3l1.3,1.2c-0.4,0.6-1,1.1-1.7,1.5C52.6,41.6,51.8,41.8,50.9,41.8z M50.7,32.8c-0.6,0-1.2,0.2-1.6,0.7
		c-0.4,0.5-0.7,1.1-0.8,1.9h4.5v-0.2c-0.1-0.8-0.3-1.4-0.6-1.8C51.8,33,51.3,32.8,50.7,32.8z"/>
	<path class="st0" d="M59.2,31.2l0.1,1.2c0.8-0.9,1.8-1.4,3-1.4c2.2,0,3.3,1.2,3.3,3.7v6.9h-2.4v-6.8c0-0.7-0.1-1.2-0.4-1.5
		c-0.3-0.3-0.8-0.5-1.4-0.5c-0.9,0-1.7,0.4-2.1,1.3v7.5h-2.4V31.2H59.2z"/>
	<path class="st0" d="M68,28.4c0-0.4,0.1-0.7,0.3-0.9c0.2-0.2,0.6-0.4,1-0.4c0.4,0,0.8,0.1,1,0.4c0.2,0.2,0.3,0.5,0.3,0.9
		c0,0.4-0.1,0.7-0.3,0.9c-0.2,0.2-0.6,0.4-1,0.4c-0.4,0-0.8-0.1-1-0.4C68.1,29.1,68,28.8,68,28.4z M70.5,41.6h-2.4V31.2h2.4V41.6z"
		/>
	<path class="st0" d="M78.5,33.3c-0.3-0.1-0.6-0.1-1-0.1c-1.1,0-1.8,0.4-2.2,1.2v7.2h-2.4V31.2h2.2l0.1,1.2c0.6-0.9,1.4-1.4,2.4-1.4
		c0.3,0,0.6,0,0.8,0.1L78.5,33.3z"/>
	<path class="st1" d="M34.2,68.5h-2.4V54.4h2.4V68.5z"/>
	<path class="st1" d="M41.3,66.8c0.6,0,1.1-0.2,1.5-0.5c0.4-0.3,0.6-0.8,0.6-1.3h2.2c0,0.7-0.2,1.3-0.6,1.8c-0.4,0.6-0.9,1-1.5,1.3
		c-0.7,0.3-1.4,0.5-2.1,0.5c-1.5,0-2.6-0.5-3.5-1.4s-1.3-2.3-1.3-3.9v-0.2c0-1.6,0.4-2.9,1.3-3.8c0.9-1,2-1.4,3.5-1.4
		c1.2,0,2.3,0.4,3,1.1c0.8,0.7,1.2,1.7,1.2,2.9h-2.2c0-0.6-0.2-1.1-0.6-1.5c-0.4-0.4-0.9-0.6-1.5-0.6c-0.8,0-1.3,0.3-1.8,0.8
		s-0.6,1.4-0.6,2.5v0.4c0,1.1,0.2,2,0.6,2.5C39.9,66.5,40.5,66.8,41.3,66.8z"/>
	<path class="st1" d="M46.9,63.1c0-1,0.2-2,0.6-2.8c0.4-0.8,1-1.5,1.7-1.9c0.7-0.4,1.6-0.7,2.5-0.7c1.4,0,2.6,0.5,3.4,1.4
		s1.4,2.1,1.4,3.6l0,0.6c0,1-0.2,2-0.6,2.8s-1,1.4-1.7,1.9c-0.7,0.4-1.6,0.7-2.6,0.7c-1.5,0-2.7-0.5-3.5-1.5c-0.9-1-1.3-2.3-1.3-3.9
		V63.1z M49.2,63.3c0,1.1,0.2,1.9,0.7,2.5c0.4,0.6,1.1,0.9,1.9,0.9c0.8,0,1.4-0.3,1.9-0.9c0.4-0.6,0.7-1.5,0.7-2.7
		c0-1.1-0.2-1.9-0.7-2.5s-1.1-0.9-1.9-0.9c-0.8,0-1.4,0.3-1.8,0.9C49.5,61.2,49.2,62.1,49.2,63.3z"/>
	<path class="st1" d="M60.8,58l0.1,1.2c0.8-0.9,1.8-1.4,3-1.4c2.2,0,3.3,1.2,3.3,3.7v6.9h-2.4v-6.8c0-0.7-0.1-1.2-0.4-1.5
		s-0.8-0.5-1.4-0.5c-0.9,0-1.7,0.4-2.1,1.3v7.5h-2.4V58H60.8z"/>
	<path class="st1" d="M16.1,76.2v2.5H18v1.7h-1.8v5.8c0,0.4,0.1,0.7,0.2,0.9c0.2,0.2,0.4,0.3,0.8,0.3c0.3,0,0.5,0,0.8-0.1v1.8
		c-0.5,0.1-1.1,0.2-1.5,0.2c-1.8,0-2.7-1-2.7-3v-5.9h-1.7v-1.7h1.7v-2.5H16.1z"/>
	<path class="st1" d="M19,83.9c0-1,0.2-2,0.6-2.8c0.4-0.8,1-1.5,1.7-1.9c0.7-0.4,1.6-0.7,2.5-0.7c1.4,0,2.6,0.5,3.4,1.4
		c0.9,0.9,1.4,2.1,1.4,3.6l0,0.6c0,1-0.2,2-0.6,2.8s-1,1.4-1.7,1.9c-0.7,0.4-1.6,0.7-2.6,0.7c-1.5,0-2.7-0.5-3.5-1.5
		c-0.9-1-1.3-2.3-1.3-3.9V83.9z M21.4,84.1c0,1.1,0.2,1.9,0.7,2.5c0.4,0.6,1.1,0.9,1.9,0.9s1.4-0.3,1.9-0.9c0.4-0.6,0.7-1.5,0.7-2.7
		c0-1.1-0.2-1.9-0.7-2.5c-0.5-0.6-1.1-0.9-1.9-0.9c-0.8,0-1.4,0.3-1.8,0.9C21.6,82,21.4,82.9,21.4,84.1z"/>
	<path class="st1" d="M46.7,84.6c-0.1,1.5-0.7,2.7-1.7,3.5c-1,0.8-2.3,1.3-3.9,1.3c-1.1,0-2.1-0.3-3-0.8c-0.9-0.5-1.5-1.3-2-2.3
		c-0.5-1-0.7-2.1-0.7-3.4v-1.3c0-1.3,0.2-2.5,0.7-3.5c0.5-1,1.1-1.8,2-2.3c0.9-0.5,1.9-0.8,3.1-0.8c1.6,0,2.8,0.4,3.8,1.3
		c0.9,0.8,1.5,2,1.7,3.6h-2.4c-0.1-1-0.4-1.7-0.9-2.2c-0.5-0.4-1.2-0.7-2.1-0.7c-1.1,0-1.9,0.4-2.5,1.2C38.3,78.8,38,80,38,81.5v1.2
		c0,1.5,0.3,2.7,0.8,3.5c0.5,0.8,1.3,1.2,2.4,1.2c1,0,1.7-0.2,2.2-0.6c0.5-0.4,0.8-1.2,0.9-2.2H46.7z"/>
	<path class="st1" d="M48.2,83.9c0-1,0.2-2,0.6-2.8c0.4-0.8,1-1.5,1.7-1.9c0.7-0.4,1.6-0.7,2.5-0.7c1.4,0,2.6,0.5,3.4,1.4
		s1.4,2.1,1.4,3.6l0,0.6c0,1-0.2,2-0.6,2.8s-1,1.4-1.7,1.9c-0.7,0.4-1.6,0.7-2.6,0.7c-1.5,0-2.7-0.5-3.5-1.5c-0.9-1-1.3-2.3-1.3-3.9
		V83.9z M50.6,84.1c0,1.1,0.2,1.9,0.7,2.5c0.4,0.6,1.1,0.9,1.9,0.9c0.8,0,1.4-0.3,1.9-0.9c0.4-0.6,0.7-1.5,0.7-2.7
		c0-1.1-0.2-1.9-0.7-2.5s-1.1-0.9-1.9-0.9c-0.8,0-1.4,0.3-1.8,0.9C50.8,82,50.6,82.9,50.6,84.1z"/>
	<path class="st1" d="M62.2,78.7l0.1,1.1c0.7-0.9,1.7-1.3,3-1.3c1.4,0,2.4,0.5,2.9,1.6c0.8-1.1,1.8-1.6,3.2-1.6c1.2,0,2,0.3,2.6,1
		c0.6,0.6,0.9,1.6,0.9,2.8v6.9h-2.4v-6.8c0-0.7-0.1-1.2-0.4-1.5c-0.3-0.3-0.8-0.5-1.4-0.5c-0.5,0-1,0.1-1.3,0.4s-0.6,0.7-0.7,1.1
		l0,7.2h-2.4v-6.9c0-1.2-0.7-1.8-1.9-1.8c-0.9,0-1.6,0.4-2,1.2v7.6h-2.4V78.7H62.2z"/>
	<path class="st1" d="M81.8,89.4c-1.5,0-2.7-0.5-3.6-1.4c-0.9-0.9-1.4-2.2-1.4-3.8V84c0-1,0.2-2,0.6-2.8s1-1.5,1.7-1.9
		s1.5-0.7,2.4-0.7c1.4,0,2.5,0.5,3.3,1.4s1.2,2.2,1.2,3.9v0.9h-6.8c0.1,0.9,0.4,1.5,0.9,2.1c0.5,0.5,1.1,0.8,1.9,0.8
		c1.1,0,2-0.4,2.6-1.3l1.3,1.2c-0.4,0.6-1,1.1-1.7,1.5C83.5,89.2,82.7,89.4,81.8,89.4z M81.5,80.4c-0.6,0-1.2,0.2-1.6,0.7
		c-0.4,0.5-0.7,1.1-0.8,1.9h4.5v-0.2c-0.1-0.8-0.3-1.4-0.6-1.8S82.2,80.4,81.5,80.4z"/>
</g>
</svg>
