<?xml version="1.0" encoding="utf-8"?>
<!-- Generator: Adobe Illustrator 24.0.2, SVG Export Plug-In . SVG Version: 6.00 Build 0)  -->
<svg version="1.1" id="Layer_1" xmlns="http://www.w3.org/2000/svg" xmlns:xlink="http://www.w3.org/1999/xlink" x="0px" y="0px"
	 viewBox="0 0 100 100" style="enable-background:new 0 0 100 100;" xml:space="preserve">
<style type="text/css">
	.st0{fill:#e55162;}
	.st1{fill:#FFFFFF;}
</style>
<g>
	<path class="st0" d="M100,43.5c-4.5,2.1-6.3,6.5-13.4,6.5c-9.4,0-9.4-7.6-18.8-7.6S58.3,50,48.9,50s-9.4-7.6-18.8-7.6
		S20.6,50,11.2,50C5.4,50,3.1,47,0,44.8V100h100L100,43.5L100,43.5z"/>
	<g>
		<path class="st0" d="M51.2,46.9h-4.6V36.2h4.6C51.2,36.2,51.2,46.9,51.2,46.9z M51.2,30.1h-4.6V19.4h4.6
			C51.2,19.4,51.2,30.1,51.2,30.1z M51.2,13.3h-4.6V2.6h4.6C51.2,2.6,51.2,13.3,51.2,13.3z"/>
	</g>
	<g>
		<path class="st0" d="M12.9,46.9H8.3V36.2h4.6L12.9,46.9L12.9,46.9z M12.9,30.1H8.3V19.4h4.6L12.9,30.1L12.9,30.1z M12.9,13.3H8.3
			V2.6h4.6L12.9,13.3L12.9,13.3z"/>
	</g>
	<g>
		<path class="st1" d="M51.2,97.4h-4.6V86.7h4.6C51.2,86.7,51.2,97.4,51.2,97.4z M51.2,80.6h-4.6V69.9h4.6
			C51.2,69.9,51.2,80.6,51.2,80.6z M51.2,63.8h-4.6V53.2h4.6C51.2,53.2,51.2,63.8,51.2,63.8z"/>
	</g>
	<g>
		<path class="st1" d="M12.9,97.4H8.3V86.7h4.6L12.9,97.4L12.9,97.4z M12.9,80.6H8.3V69.9h4.6L12.9,80.6L12.9,80.6z M12.9,63.8H8.3
			V53.2h4.6L12.9,63.8L12.9,63.8z"/>
	</g>
	<polygon class="st0" points="72.1,30.2 80.3,12.2 88.4,30.2 	"/>
	<polygon class="st1" points="71.9,59.5 80.1,77.5 88.2,59.5 	"/>
</g>
</svg>
