<?xml version="1.0" encoding="utf-8"?>
<!-- Generator: Adobe Illustrator 25.2.3, SVG Export Plug-In . SVG Version: 6.00 Build 0)  -->
<svg version="1.1" id="Layer_1" xmlns="http://www.w3.org/2000/svg" xmlns:xlink="http://www.w3.org/1999/xlink" x="0px" y="0px"
	 viewBox="0 0 100 100" style="enable-background:new 0 0 100 100;" xml:space="preserve">
<style type="text/css">
	.st0{fill:#e55162;}
	.st1{fill:#FFFFFF;stroke:#e55162;stroke-width:3.0504;stroke-miterlimit:10;}
	.st2{fill:none;stroke:#e55162;stroke-width:4.5755;stroke-miterlimit:10;}
</style>
<g>
	<g>
		
			<rect x="-4.2" y="60.9" transform="matrix(0.4999 -0.8661 0.8661 0.4999 -48.6436 40.7038)" class="st0" width="30.3" height="3.1"/>
	</g>
	<g>
		
			<rect x="4.5" y="60.9" transform="matrix(0.4999 -0.8661 0.8661 0.4999 -44.2664 48.2846)" class="st0" width="30.3" height="3.1"/>
	</g>
	<g>
		
			<rect x="13.3" y="60.9" transform="matrix(0.4999 -0.8661 0.8661 0.4999 -39.8893 55.865)" class="st0" width="30.3" height="3.1"/>
	</g>
	<g>
		
			<rect x="22" y="60.9" transform="matrix(0.4999 -0.8661 0.8661 0.4999 -35.5121 63.4457)" class="st0" width="30.3" height="3.1"/>
	</g>
	<g>
		
			<rect x="30.8" y="60.9" transform="matrix(0.4999 -0.8661 0.8661 0.4999 -31.1349 71.0265)" class="st0" width="30.3" height="3.1"/>
	</g>
	<g>
		
			<rect x="39.5" y="60.9" transform="matrix(0.4999 -0.8661 0.8661 0.4999 -26.7579 78.6069)" class="st0" width="30.3" height="3.1"/>
	</g>
	<g>
		
			<rect x="48.3" y="60.9" transform="matrix(0.4999 -0.8661 0.8661 0.4999 -22.3807 86.1876)" class="st0" width="30.3" height="3.1"/>
	</g>
	<g>
		
			<rect x="57" y="60.9" transform="matrix(0.4999 -0.8661 0.8661 0.4999 -18.0035 93.7684)" class="st0" width="30.3" height="3.1"/>
	</g>
	<g>
		
			<rect x="65.8" y="60.9" transform="matrix(0.4999 -0.8661 0.8661 0.4999 -13.6264 101.3488)" class="st0" width="30.3" height="3.1"/>
	</g>
	<g>
		
			<rect x="74.5" y="60.9" transform="matrix(0.4999 -0.8661 0.8661 0.4999 -9.2492 108.9295)" class="st0" width="30.3" height="3.1"/>
	</g>
	<path class="st0" d="M100,83.4c-4.5,2.1-6.3,6.5-13.4,6.5c-9.4,0-9.4-7.6-18.8-7.6c-9.4,0-9.4,7.6-18.8,7.6s-9.4-7.6-18.8-7.6
		c-9.4,0-9.4,7.6-18.8,7.6c-5.9,0-8.1-2.9-11.2-5.2v15.5h100V83.4z"/>
	<g>
		<path class="st1" d="M47.3,51.2l19.8-34.9c2.3-4.2,0.8-9.6-3.5-11.9l0,0C59.4,2.1,54,3.6,51.7,7.9L31.9,42.8
			c-6.9,0.1-13.5,4-16.5,10.9c-3.3,7.7-0.7,17,6.2,21.9c9,6.3,21.1,3.3,26.2-6.1C51.1,63.6,50.6,56.6,47.3,51.2z"/>
		<circle class="st0" cx="31.9" cy="61" r="8.8"/>
		<line class="st2" x1="31.9" y1="61" x2="52.3" y2="23.8"/>
	</g>
	<polygon class="st0" points="0,69.3 11.1,50.1 8.4,48.6 0,63.2 	"/>
	<polygon class="st0" points="100,56.7 89.6,74.8 92.2,76.4 100,62.8 	"/>
</g>
</svg>
