<?xml version="1.0" encoding="utf-8"?>
<!-- Generator: Adobe Illustrator 24.0.2, SVG Export Plug-In . SVG Version: 6.00 Build 0)  -->
<svg version="1.1" id="Layer_1" xmlns="http://www.w3.org/2000/svg" xmlns:xlink="http://www.w3.org/1999/xlink" x="0px" y="0px"
	 viewBox="0 0 100 100" style="enable-background:new 0 0 100 100;" xml:space="preserve">
<style type="text/css">
	.st0{fill:#e55162;}
	.st1{fill:#FFFFFF;}
</style>
<g>
	<path class="st0" d="M100,17.6c-4.5,2.1-6.3,6.5-13.4,6.5c-9.4,0-9.4-7.6-18.8-7.6S58.3,24,48.9,24s-9.4-7.6-18.8-7.6
		S20.6,24,11.2,24C5.4,24,3.1,21.1,0,18.9V100h100L100,17.6L100,17.6z"/>
	<g>
		<g>
			<g>
				<path class="st1" d="M47.3,68.2l29.2-53.3C78.8,10.6,77.2,5.3,73,3l0,0c-4.3-2.3-9.6-0.8-11.9,3.5L31.9,59.8
					c-6.9,0-13.5,4-16.5,10.9c-3.3,7.7-0.7,17,6.2,21.8c9,6.3,21.1,3.3,26.2-6.1C51.1,80.6,50.6,73.6,47.3,68.2z"/>
			</g>
			<g>
				<path class="st0" d="M32,97.4c-4,0-8-1.2-11.3-3.6c-7.5-5.3-10.4-15.3-6.7-23.7c3-6.9,9.6-11.4,16.9-11.8L59.7,5.7
					c1.3-2.4,3.5-4.2,6.1-4.9c2.6-0.8,5.4-0.5,7.8,0.9s4.2,3.5,4.9,6.1s0.5,5.4-0.8,7.8L49,68.2c3.3,5.9,3.4,13.1,0.2,19
					c-2.7,4.9-7.3,8.4-12.7,9.7C35,97.2,33.5,97.4,32,97.4z M68.8,3.4c-0.7,0-1.4,0.1-2,0.3c-1.9,0.5-3.4,1.8-4.3,3.5L32.8,61.3
					l-0.9,0c-6.6,0-12.5,4-15.1,10c-3,7-0.6,15.6,5.6,20c3.9,2.8,8.7,3.7,13.3,2.6c4.6-1.1,8.5-4,10.7-8.2
					c2.9-5.3,2.7-11.7-0.5-16.7l-0.5-0.8l29.6-54.1c0.9-1.7,1.1-3.7,0.6-5.5c-0.5-1.9-1.8-3.4-3.5-4.3C71.2,3.7,70,3.4,68.8,3.4z"/>
			</g>
		</g>
		<g>
			<circle class="st0" cx="31.9" cy="78" r="8.8"/>
		</g>
		<g>
			<rect x="19" y="54" transform="matrix(0.4801 -0.8772 0.8772 0.4801 -26.5784 67.6822)" class="st0" width="49.6" height="4.6"/>
		</g>
	</g>
</g>
</svg>
