<?xml version="1.0" encoding="utf-8"?>
<!-- Generator: Adobe Illustrator 24.0.2, SVG Export Plug-In . SVG Version: 6.00 Build 0)  -->
<svg version="1.1" id="Layer_1" xmlns="http://www.w3.org/2000/svg" xmlns:xlink="http://www.w3.org/1999/xlink" x="0px" y="0px"
	 viewBox="0 0 100 100" style="enable-background:new 0 0 100 100;" xml:space="preserve">
<style type="text/css">
	.st0{fill:#e55162;}
	.st1{fill:#FFFFFF;}
</style>
<g>
	<path class="st0" d="M100,3.2c-4.5,2.1-6.3,6.5-13.4,6.5c-9.4,0-9.4-7.6-18.8-7.6s-9.4,7.6-18.8,7.6s-9.4-7.6-18.8-7.6
		s-9.4,7.6-18.8,7.6C5.3,9.7,3.1,6.7,0,4.5V100h100V3.2z"/>
	<g>
		<path class="st1" d="M16.2,82.8c-1,0-1.9-0.5-2.5-1.3c-4.9-7,1.4-16.4,5.5-22.6c1-1.5,2-3.1,2.3-3.8c1-2.5,0-5.2-1.3-8.3
			c-0.8-2-1.6-4.1-2-6.4c-0.9-5.7,1.3-8.7,3.1-11.4c0.8-1.2,1.6-2.3,2.2-3.8c0.7-1.5,2.4-2.3,4-1.6c1.5,0.7,2.3,2.5,1.6,4
			c-0.9,2-1.9,3.5-2.9,4.9c-1.6,2.3-2.6,3.7-2.1,6.9c0.2,1.6,0.9,3.3,1.6,5c1.5,3.8,3.2,8.1,1.3,12.9c-0.5,1.3-1.6,2.9-2.9,4.9
			c-3,4.5-8.1,12.1-5.6,15.7c1,1.4,0.6,3.3-0.8,4.2C17.5,82.7,16.8,82.8,16.2,82.8z"/>
	</g>
	<path class="st1" d="M60.2,49.1c-1.5-0.1-2.9-0.2-4.4-0.8c-3.1-1.1-7-3.4-8.3-6.5c-0.8-1.8-0.6-3.8-0.5-5.8
		c0.1-1.8,0.5-3.4,1.8-4.7c1.4-1.4,2.9-2.6,4.1-4.2c1.1-1.4,1.6-3,2.3-4.6c0.6-1.5,1.7-2.4,3.1-3c1.5-0.6,3.3-0.8,4.9-1.1
		c1.7-0.3,3.5-0.5,5.1,0.2c3.8,1.6,7.1,5.3,9.5,8.6c1.9,2.7,3.8,5.4,5.8,8.1c2.2,3,4.1,6,6,9.2c1.1,2,1.2,3.9,0.1,5.8
		c-1.6,2.7-4.6,6.7-8,6.8c-1.9,0-4.8,0.3-6.7-0.1c-2.5-0.6-3.4-2.4-4.5-4.3c-1.8-3.1-5.8-3.4-9-3.6C61,49.1,60.6,49.1,60.2,49.1z"/>
	<path class="st1" d="M88.6,91.1c-2.2-0.3-3.5-1.3-5-2.3C82.4,87.9,81,87,79,86.4c-0.3-0.1-0.6-0.2-1-0.3c-1.4-0.4-3.5-0.9-4.4-1.6
		c-1-0.7-1.8-1.8-2.5-2.8c-1-1.4-2.1-2.8-3.8-3.7c1.3-1.4,1.8-3.3,0.8-5.4c-1-2.1-3-3.5-5.1-4.5c-2-1.1-4.3-1.8-6.2-3.1
		c-1.5-0.9-2.8-2.1-4.3-2.9c-3.5-1.7-8.3-0.7-10.6,2.5c-2.3,3.2-1.8,8.2,1.3,10.6c2.1,1.7,5,2.1,7.2,3.7c3.8,2.7,8,3.3,12.4,1.9
		c1.2-0.4,2.4-1,3.4-1.7c0.1,0,0.2,0.1,0.2,0.1c1.6,0.6,2.5,2,3.6,3.4c0.8,1.1,1.7,2.3,2.9,3.2c1.1,0.8,3.3,1.4,4.9,1.8
		c0.4,0.1,0.7,0.2,1,0.3c1.8,0.5,2.9,1.3,4.2,2.2c1.5,1.1,3.1,2.1,5.6,2.6c0,0,0.1,0,0.1,0c0.4,0,0.7-0.3,0.8-0.6
		C89.3,91.6,89.1,91.2,88.6,91.1z"/>
</g>
</svg>
