<?xml version="1.0" encoding="utf-8"?>
<!-- Generator: Adobe Illustrator 25.2.3, SVG Export Plug-In . SVG Version: 6.00 Build 0)  -->
<svg version="1.1" id="Layer_1" xmlns="http://www.w3.org/2000/svg" xmlns:xlink="http://www.w3.org/1999/xlink" x="0px" y="0px"
	 viewBox="0 0 100 100" style="enable-background:new 0 0 100 100;" xml:space="preserve">
<style type="text/css">
	.st0{fill:#e55162;}
	.st1{fill:none;stroke:#e55162;stroke-width:2;stroke-miterlimit:10;}
</style>
<path class="st0" d="M413.6,227c-3,1.4-4.1,4.2-8.8,4.2c-6.2,0-6.2-5-12.4-5c-6.2,0-6.2,5-12.4,5s-6.2-5-12.4-5c-6.2,0-6.2,5-12.4,5
	c-3.9,0-5.3-1.9-7.3-3.4V248h65.6V227z"/>
<path class="st1" d="M348,216.6c0,0,46.6,0,54.2,0c9.2,0,8.3-11.1,1.1-11.1c-5.1,0-4.9,6.1-1.9,6.1"/>
<path class="st1" d="M348,209.7c0,0,32.8,0,40.4,0c9.2,0,8.3-11.1,1.1-11.1c-5.1,0-4.9,6.1-1.9,6.1"/>
<path class="st1" d="M348,202.7c0,0,17.9,0,25.5,0c9.2,0,8.3-11.1,1.1-11.1c-5.1,0-4.9,6.1-1.9,6.1"/>
<path class="st0" d="M100,68c-4.5,2.1-6.3,6.5-13.4,6.5c-9.4,0-9.4-7.6-18.8-7.6c-9.4,0-9.4,7.6-18.8,7.6s-9.4-7.6-18.8-7.6
	c-9.4,0-9.4,7.6-18.8,7.6c-5.9,0-8.1-2.9-11.2-5.2V100h100V68z"/>
<g>
	<path class="st0" d="M82.7,53.7H0v-3.1h82.7c2.9,0,5.2-0.8,6.7-2.3c1.3-1.2,2-2.9,2-4.8c0-3.4-2.4-6.9-7.1-6.9
		c-1.6,0-2.8,0.4-3.6,1.3c-0.7,0.7-1,1.6-1,2.6c0,0.8,0.4,2.4,1.7,2.4v3.1c-2.7,0-4.8-2.3-4.8-5.4c0-1.8,0.7-3.5,1.9-4.7
		c1-1,2.8-2.2,5.8-2.2c6.6,0,10.1,5.1,10.1,9.9c0,2.7-1,5.2-2.9,7C89.4,52.6,86.3,53.7,82.7,53.7z"/>
</g>
<g>
	<path class="st0" d="M61.6,43.2H0v-3.1h61.6c2.9,0,5.2-0.8,6.7-2.3c1.3-1.2,2-2.9,2-4.8c0-3.4-2.4-6.9-7.1-6.9
		c-1.6,0-2.8,0.4-3.6,1.3c-0.7,0.7-1,1.6-1,2.6c0,0.8,0.4,2.4,1.7,2.4v3.1c-2.7,0-4.8-2.3-4.8-5.4c0-1.8,0.7-3.5,1.9-4.7
		c1-1,2.8-2.2,5.8-2.2c6.6,0,10.1,5.1,10.1,9.9c0,2.7-1,5.2-2.9,7C68.4,42.1,65.3,43.2,61.6,43.2z"/>
</g>
<g>
	<path class="st0" d="M38.9,32.4H0v-3.1h38.9c2.9,0,5.2-0.8,6.7-2.3c1.3-1.2,2-2.9,2-4.8c0-3.4-2.4-6.9-7.1-6.9
		c-1.6,0-2.8,0.4-3.6,1.3c-0.7,0.7-1,1.6-1,2.6c0,0.8,0.4,2.4,1.7,2.4v3.1c-2.7,0-4.8-2.3-4.8-5.4c0-1.8,0.7-3.5,1.9-4.7
		c1-1,2.8-2.2,5.8-2.2c6.6,0,10.1,5.1,10.1,9.9c0,2.7-1,5.2-2.9,7C45.6,31.4,42.5,32.4,38.9,32.4z"/>
</g>
</svg>
