<?xml version="1.0" encoding="utf-8"?>
<!-- Generator: Adobe Illustrator 24.0.2, SVG Export Plug-In . SVG Version: 6.00 Build 0)  -->
<svg version="1.1" id="Layer_1" xmlns="http://www.w3.org/2000/svg" xmlns:xlink="http://www.w3.org/1999/xlink" x="0px" y="0px"
	 viewBox="0 0 100 100" style="enable-background:new 0 0 100 100;" xml:space="preserve">
<style type="text/css">
	.st0{fill:#e55162;}
	.st1{fill:#FFFFFF;}
</style>
<g>
	<path class="st0" d="M100,3.2c-4.5,2.1-6.3,6.5-13.4,6.5c-9.4,0-9.4-7.6-18.8-7.6s-9.4,7.6-18.8,7.6s-9.4-7.6-18.8-7.6
		s-9.4,7.6-18.8,7.6C5.3,9.7,3.1,6.7,0,4.5V100h100V3.2z"/>
	<circle class="st1" cx="22.4" cy="53" r="3.7"/>
	<circle class="st1" cx="53.7" cy="26.7" r="3.7"/>
	<circle class="st1" cx="90.9" cy="49.3" r="3.7"/>
	<circle class="st1" cx="72.2" cy="81.4" r="3.7"/>
	<circle class="st1" cx="10" cy="70.8" r="3.7"/>
	<g>
		<g>
			<path class="st1" d="M37.9,44.4h-5.2L19.5,23.2v21.1h-5.2V14.6h5.2l13.3,21.2V14.6h5.1V44.4z"/>
		</g>
	</g>
	<g>
		<g>
			<path class="st1" d="M68.8,44.1v11h-5.2V25.3H75c3.3,0,6,0.9,7.9,2.6c2,1.7,2.9,4,2.9,6.9c0,2.9-1,5.2-2.9,6.8
				c-1.9,1.6-4.6,2.4-8.1,2.4L68.8,44.1L68.8,44.1z M68.8,39.9H75c1.8,0,3.2-0.4,4.2-1.3s1.4-2.1,1.4-3.8c0-1.6-0.5-2.9-1.5-3.9
				c-1-1-2.3-1.5-4.1-1.5h-6.4C68.8,29.5,68.8,39.9,68.8,39.9z"/>
		</g>
	</g>
	<g>
		<g>
			<path class="st1" d="M43.8,86c0-1.3-0.5-2.3-1.4-3c-0.9-0.7-2.6-1.4-5-2.2s-4.3-1.5-5.7-2.4c-2.7-1.7-4.1-3.9-4.1-6.7
				c0-2.4,1-4.4,2.9-5.9c2-1.6,4.5-2.3,7.6-2.3c2.1,0,3.9,0.4,5.5,1.1c1.6,0.8,2.9,1.8,3.8,3.3c0.9,1.4,1.4,3,1.4,4.7h-5.2
				c0-1.6-0.5-2.8-1.5-3.7c-1-0.9-2.4-1.3-4.2-1.3c-1.7,0-3,0.4-3.9,1.1c-0.9,0.7-1.4,1.7-1.4,3c0,1.1,0.5,2,1.5,2.7s2.7,1.4,5,2.1
				c2.3,0.7,4.2,1.5,5.6,2.3s2.4,1.9,3.1,3c0.7,1.1,1,2.5,1,4c0,2.5-1,4.4-2.8,5.9c-1.9,1.5-4.5,2.2-7.7,2.2c-2.2,0-4.1-0.4-5.9-1.2
				c-1.8-0.8-3.2-1.9-4.2-3.3s-1.5-3-1.5-4.9h5.2c0,1.7,0.6,3,1.7,3.9s2.7,1.4,4.8,1.4c1.8,0,3.2-0.4,4.1-1.1
				C43.3,88.2,43.8,87.2,43.8,86z"/>
			<path class="st1" d="M53,65.8c0-0.8,0.2-1.4,0.7-1.9c0.5-0.5,1.2-0.8,2.1-0.8s1.6,0.3,2.1,0.8c0.5,0.5,0.7,1.1,0.7,1.9
				c0,0.8-0.2,1.4-0.7,1.9c-0.5,0.5-1.2,0.8-2.1,0.8s-1.6-0.3-2.1-0.8C53.3,67.2,53,66.6,53,65.8z M58.3,93.7h-5V71.6h5V93.7z"/>
		</g>
	</g>
</g>
</svg>
