<?xml version="1.0" encoding="utf-8"?>
<!-- Generator: Adobe Illustrator 24.0.2, SVG Export Plug-In . SVG Version: 6.00 Build 0)  -->
<svg version="1.1" id="Layer_1" xmlns="http://www.w3.org/2000/svg" xmlns:xlink="http://www.w3.org/1999/xlink" x="0px" y="0px"
	 viewBox="0 0 100 100" style="enable-background:new 0 0 100 100;" xml:space="preserve">
<style type="text/css">
	.st0{fill:#e55162;}
	.st1{fill:#FFFFFF;}
	.st2{fill:#e55162;}
</style>
<g>
	<path class="st0" d="M100,39c-4.5,2.1-6.3,6.5-13.4,6.5c-9.4,0-9.4-7.6-18.8-7.6s-9.4,7.6-18.8,7.6s-9.4-7.6-18.8-7.6
		s-9.4,7.6-18.8,7.6c-5.9,0-8.1-2.9-11.2-5.2V100h100L100,39L100,39z"/>
	<g>
		<path class="st1" d="M12.4,67.2c-0.4-0.4-1.9-2.6-0.9-2.9c1-0.4,2.9-1,4.1-1.8s6.1-1.8,10.4,0.5c4.4,2.3,4.1,3.5,9.6,3.2
			s17.7,0.2,22,0.7s17.3,4.5,21.1,6.2s3.1,2,8.7,2.2c5.6,0.2,7.9,1.4,5.5,2.6c-2.4,1.2-4.5,1.7-4.1,4.3s0.5,5.7-1.4,4
			s-2.1-5.8-7.3-5.6s-12,2.2-17.7,2.3s-16-0.8-17.2-1c-1.2-0.2,0.3,0.4,0.4,2.7s1.9,4.6-1.6,3.7c-3.7-0.9-5-6.6-5.3-6.6
			s-1.2-0.2-1.2-0.2s1.9,4.6,1.2,6.4c-0.7,1.8-2.8,5-4.1,1.9c-1.3-3,0.5-8.3-2-9.4c-3.8-1.7-5.7-3.6-9.3-6.4c-3.6-2.8-5.7-5-7.7-5.6
			S12.4,67.2,12.4,67.2z"/>
		<ellipse transform="matrix(0.3054 -0.9522 0.9522 0.3054 -47.0745 64.0275)" class="st2" cx="20.4" cy="64.3" rx="0.6" ry="1"/>
	</g>
	<path class="st0" d="M6.1,9.2c0,0,6.8-5.2,14.7-4.7c6.1,0.3,9.5,2,9.5,2h3.8c0,0,8.1-4.1,10.8-3.8c2.7,0.2,12.4,4.5,12.4,4.5
		s-8.9-1.5-12-1.6c-1.6-0.1-8.7,1.6-9.4,2.8s-1.5,3.4-3.8,3.4c-2.1,0-2.4-3-3.3-3.4c-0.9-0.4-7-0.9-8.6-1.1
		C18.8,6.9,6.1,9.2,6.1,9.2z"/>
	<path class="st0" d="M43,21.9c0,0,7.5-4.1,15.2-2.5c6,1.3,9.1,3.4,9.1,3.4l3.8,0.6c0,0,8.6-2.8,11.3-2.2s11.6,6.3,11.6,6.3
		s-8.5-2.8-11.6-3.4c-1.6-0.3-8.8,0.3-9.7,1.3s-2,3.1-4.2,2.8c-2-0.3-2-3.3-2.8-3.9s-6.8-1.9-8.3-2.4C55.8,21.5,43,21.9,43,21.9z"/>
</g>
</svg>
